<?xml version="1.0" encoding="utf-8" standalone="no"?>
<!DOCTYPE svg PUBLIC "-//W3C//DTD SVG 1.1//EN"
  "http://www.w3.org/Graphics/SVG/1.1/DTD/svg11.dtd">
<svg xmlns:xlink="http://www.w3.org/1999/xlink" width="936pt" height="216pt" viewBox="0 0 936 216" xmlns="http://www.w3.org/2000/svg" version="1.1">
 <metadata>
  <rdf:RDF xmlns:dc="http://purl.org/dc/elements/1.1/" xmlns:cc="http://creativecommons.org/ns#" xmlns:rdf="http://www.w3.org/1999/02/22-rdf-syntax-ns#">
   <cc:Work>
    <dc:type rdf:resource="http://purl.org/dc/dcmitype/StillImage"/>
    <dc:date>2022-07-25T12:04:56.580859</dc:date>
    <dc:format>image/svg+xml</dc:format>
    <dc:creator>
     <cc:Agent>
      <dc:title>Matplotlib v3.5.2, https://matplotlib.org/</dc:title>
     </cc:Agent>
    </dc:creator>
   </cc:Work>
  </rdf:RDF>
 </metadata>
 <defs>
  <style type="text/css">*{stroke-linejoin: round; stroke-linecap: butt}</style>
 </defs>
 <g id="figure_1">
  <g id="patch_1">
   <path d="M 0 216 
L 936 216 
L 936 0 
L 0 0 
L 0 216 
z
" style="fill: none"/>
  </g>
  <g id="axes_1">
   <g id="patch_2">
    <path d="M 117 189 
L 274.695652 189 
L 274.695652 25.92 
L 117 25.92 
z
" style="fill: #ffffff"/>
   </g>
   <g id="PolyCollection_1">
    <defs>
     <path id="mbc5f5f3978" d="M 113.846087 -87.572571 
L 113.846087 -57.286286 
L 120.153913 -64.275429 
L 126.461739 -57.286286 
L 132.769565 -64.275429 
L 139.077391 -54.956571 
L 145.385217 -57.286286 
L 151.693043 -59.616 
L 158.00087 -50.297143 
L 164.308696 -52.626857 
L 170.616522 -68.934857 
L 176.924348 -66.605143 
L 183.232174 -54.956571 
L 189.54 -68.934857 
L 195.847826 -59.616 
L 202.155652 -68.934857 
L 208.463478 -68.934857 
L 214.771304 -73.594286 
L 221.07913 -64.275429 
L 227.386957 -68.934857 
L 233.694783 -57.286286 
L 240.002609 -66.605143 
L 246.310435 -59.616 
L 252.618261 -59.616 
L 258.926087 -59.616 
L 265.233913 -54.956571 
L 271.541739 -57.286286 
L 277.849565 -54.956571 
L 284.157391 -59.616 
L 290.465217 -59.616 
L 296.773043 -59.616 
L 296.773043 -87.572571 
L 296.773043 -87.572571 
L 290.465217 -87.572571 
L 284.157391 -89.902286 
L 277.849565 -83.285897 
L 271.541739 -87.572571 
L 265.233913 -85.242857 
L 258.926087 -89.902286 
L 252.618261 -85.242857 
L 246.310435 -87.572571 
L 240.002609 -94.561714 
L 233.694783 -85.615611 
L 227.386957 -96.891429 
L 221.07913 -92.232 
L 214.771304 -101.550857 
L 208.463478 -96.891429 
L 202.155652 -96.891429 
L 195.847826 -89.902286 
L 189.54 -94.561714 
L 183.232174 -82.913143 
L 176.924348 -94.561714 
L 170.616522 -96.891429 
L 164.308696 -80.583429 
L 158.00087 -78.253714 
L 151.693043 -87.572571 
L 145.385217 -87.572571 
L 139.077391 -82.913143 
L 132.769565 -92.232 
L 126.461739 -85.242857 
L 120.153913 -94.561714 
L 113.846087 -87.572571 
z
" style="stroke: #808080; stroke-opacity: 0.3; stroke-width: 1.5"/>
    </defs>
    <g clip-path="url(#p2ad041e4fa)">
     <use xlink:href="#mbc5f5f3978" x="0" y="216" style="fill: #808080; fill-opacity: 0.3; stroke: #808080; stroke-opacity: 0.3; stroke-width: 1.5"/>
    </g>
   </g>
   <g id="PolyCollection_2">
    <defs>
     <path id="m19a2434890" d="M 113.846087 -75.924 
L 113.846087 -50.297143 
L 120.153913 -57.286286 
L 126.461739 -59.616 
L 132.769565 -59.616 
L 139.077391 -50.297143 
L 145.385217 -57.286286 
L 151.693043 -57.286286 
L 158.00087 -50.297143 
L 164.308696 -52.626857 
L 170.616522 -57.286286 
L 176.924348 -54.956571 
L 183.232174 -61.945714 
L 189.54 -59.616 
L 195.847826 -54.956571 
L 202.155652 -45.637714 
L 208.463478 -52.626857 
L 214.771304 -45.637714 
L 221.07913 -61.945714 
L 227.386957 -52.626857 
L 233.694783 -57.286286 
L 240.002609 -54.956571 
L 246.310435 -59.616 
L 252.618261 -59.616 
L 258.926087 -57.286286 
L 265.233913 -68.934857 
L 271.541739 -66.605143 
L 277.849565 -59.616 
L 284.157391 -61.945714 
L 290.465217 -64.275429 
L 296.773043 -57.286286 
L 296.773043 -101.550857 
L 296.773043 -101.550857 
L 290.465217 -108.54 
L 284.157391 -101.550857 
L 277.849565 -103.880571 
L 271.541739 -110.869714 
L 265.233913 -110.869714 
L 258.926087 -97.264183 
L 252.618261 -103.880571 
L 246.310435 -103.880571 
L 240.002609 -96.891429 
L 233.694783 -101.550857 
L 227.386957 -87.572571 
L 221.07913 -99.221143 
L 214.771304 -80.583429 
L 208.463478 -89.902286 
L 202.155652 -80.583429 
L 195.847826 -87.572571 
L 189.54 -92.232 
L 183.232174 -89.902286 
L 176.924348 -80.583429 
L 170.616522 -85.242857 
L 164.308696 -82.913143 
L 158.00087 -78.253714 
L 151.693043 -82.913143 
L 145.385217 -82.913143 
L 139.077391 -75.924 
L 132.769565 -82.913143 
L 126.461739 -87.572571 
L 120.153913 -82.913143 
L 113.846087 -75.924 
z
" style="stroke: #e7ab79; stroke-opacity: 0.3; stroke-width: 1.5"/>
    </defs>
    <g clip-path="url(#p2ad041e4fa)">
     <use xlink:href="#m19a2434890" x="0" y="216" style="fill: #e7ab79; fill-opacity: 0.3; stroke: #e7ab79; stroke-opacity: 0.3; stroke-width: 1.5"/>
    </g>
   </g>
   <g id="PolyCollection_3">
    <defs>
     <path id="mc6c460a64a" d="M 180.078261 -32.824286 
L 180.078261 -27 
L 211.617391 -27 
L 211.617391 -32.824286 
L 211.617391 -32.824286 
L 180.078261 -32.824286 
z
" style="stroke: #000000; stroke-opacity: 0.2; stroke-width: 1.5"/>
    </defs>
    <g clip-path="url(#p2ad041e4fa)">
     <use xlink:href="#mc6c460a64a" x="0" y="216" style="fill-opacity: 0.2; stroke: #000000; stroke-opacity: 0.2; stroke-width: 1.5"/>
    </g>
   </g>
   <g id="matplotlib.axis_1">
    <g id="xtick_1">
     <g id="line2d_1">
      <defs>
       <path id="m63be355728" d="M 0 0 
L 0 -9 
" style="stroke: #000000; stroke-width: 1.875"/>
      </defs>
      <g>
       <use xlink:href="#m63be355728" x="117" y="189" style="stroke: #000000; stroke-width: 1.875"/>
      </g>
     </g>
     <g id="text_1">
      <!-- -.5 -->
      <g transform="translate(107.237285 203.78368)scale(0.1485 -0.1485)">
       <defs>
        <path id="DejaVuSans-2d" d="M 313 2009 
L 1997 2009 
L 1997 1497 
L 313 1497 
L 313 2009 
z
" transform="scale(0.015625)"/>
        <path id="DejaVuSans-2e" d="M 684 794 
L 1344 794 
L 1344 0 
L 684 0 
L 684 794 
z
" transform="scale(0.015625)"/>
        <path id="DejaVuSans-35" d="M 691 4666 
L 3169 4666 
L 3169 4134 
L 1269 4134 
L 1269 2991 
Q 1406 3038 1543 3061 
Q 1681 3084 1819 3084 
Q 2600 3084 3056 2656 
Q 3513 2228 3513 1497 
Q 3513 744 3044 326 
Q 2575 -91 1722 -91 
Q 1428 -91 1123 -41 
Q 819 9 494 109 
L 494 744 
Q 775 591 1075 516 
Q 1375 441 1709 441 
Q 2250 441 2565 725 
Q 2881 1009 2881 1497 
Q 2881 1984 2565 2268 
Q 2250 2553 1709 2553 
Q 1456 2553 1204 2497 
Q 953 2441 691 2322 
L 691 4666 
z
" transform="scale(0.015625)"/>
       </defs>
       <use xlink:href="#DejaVuSans-2d"/>
       <use xlink:href="#DejaVuSans-2e" x="36.083984"/>
       <use xlink:href="#DejaVuSans-35" x="67.871094"/>
      </g>
     </g>
    </g>
    <g id="xtick_2">
     <g id="line2d_2">
      <g>
       <use xlink:href="#m63be355728" x="148.53913" y="189" style="stroke: #000000; stroke-width: 1.875"/>
      </g>
     </g>
     <g id="text_2">
      <!-- -.25 -->
      <g transform="translate(134.052259 203.78368)scale(0.1485 -0.1485)">
       <defs>
        <path id="DejaVuSans-32" d="M 1228 531 
L 3431 531 
L 3431 0 
L 469 0 
L 469 531 
Q 828 903 1448 1529 
Q 2069 2156 2228 2338 
Q 2531 2678 2651 2914 
Q 2772 3150 2772 3378 
Q 2772 3750 2511 3984 
Q 2250 4219 1831 4219 
Q 1534 4219 1204 4116 
Q 875 4013 500 3803 
L 500 4441 
Q 881 4594 1212 4672 
Q 1544 4750 1819 4750 
Q 2544 4750 2975 4387 
Q 3406 4025 3406 3419 
Q 3406 3131 3298 2873 
Q 3191 2616 2906 2266 
Q 2828 2175 2409 1742 
Q 1991 1309 1228 531 
z
" transform="scale(0.015625)"/>
       </defs>
       <use xlink:href="#DejaVuSans-2d"/>
       <use xlink:href="#DejaVuSans-2e" x="36.083984"/>
       <use xlink:href="#DejaVuSans-32" x="67.871094"/>
       <use xlink:href="#DejaVuSans-35" x="131.494141"/>
      </g>
     </g>
    </g>
    <g id="xtick_3">
     <g id="line2d_3">
      <g>
       <use xlink:href="#m63be355728" x="180.078261" y="189" style="stroke: #000000; stroke-width: 1.875"/>
      </g>
     </g>
     <g id="text_3">
      <!-- 0 -->
      <g transform="translate(175.354105 203.78368)scale(0.1485 -0.1485)">
       <defs>
        <path id="DejaVuSans-30" d="M 2034 4250 
Q 1547 4250 1301 3770 
Q 1056 3291 1056 2328 
Q 1056 1369 1301 889 
Q 1547 409 2034 409 
Q 2525 409 2770 889 
Q 3016 1369 3016 2328 
Q 3016 3291 2770 3770 
Q 2525 4250 2034 4250 
z
M 2034 4750 
Q 2819 4750 3233 4129 
Q 3647 3509 3647 2328 
Q 3647 1150 3233 529 
Q 2819 -91 2034 -91 
Q 1250 -91 836 529 
Q 422 1150 422 2328 
Q 422 3509 836 4129 
Q 1250 4750 2034 4750 
z
" transform="scale(0.015625)"/>
       </defs>
       <use xlink:href="#DejaVuSans-30"/>
      </g>
     </g>
    </g>
    <g id="xtick_4">
     <g id="line2d_4">
      <g>
       <use xlink:href="#m63be355728" x="211.617391" y="189" style="stroke: #000000; stroke-width: 1.875"/>
      </g>
     </g>
     <g id="text_4">
      <!-- .25 -->
      <g transform="translate(199.809321 203.78368)scale(0.1485 -0.1485)">
       <use xlink:href="#DejaVuSans-2e"/>
       <use xlink:href="#DejaVuSans-32" x="31.787109"/>
       <use xlink:href="#DejaVuSans-35" x="95.410156"/>
      </g>
     </g>
    </g>
    <g id="xtick_5">
     <g id="line2d_5">
      <g>
       <use xlink:href="#m63be355728" x="243.156522" y="189" style="stroke: #000000; stroke-width: 1.875"/>
      </g>
     </g>
     <g id="text_5">
      <!-- .5 -->
      <g transform="translate(236.072608 203.78368)scale(0.1485 -0.1485)">
       <use xlink:href="#DejaVuSans-2e"/>
       <use xlink:href="#DejaVuSans-35" x="31.787109"/>
      </g>
     </g>
    </g>
    <g id="xtick_6">
     <g id="line2d_6">
      <g>
       <use xlink:href="#m63be355728" x="274.695652" y="189" style="stroke: #000000; stroke-width: 1.875"/>
      </g>
     </g>
     <g id="text_6">
      <!-- .75 -->
      <g transform="translate(262.887582 203.78368)scale(0.1485 -0.1485)">
       <defs>
        <path id="DejaVuSans-37" d="M 525 4666 
L 3525 4666 
L 3525 4397 
L 1831 0 
L 1172 0 
L 2766 4134 
L 525 4134 
L 525 4666 
z
" transform="scale(0.015625)"/>
       </defs>
       <use xlink:href="#DejaVuSans-2e"/>
       <use xlink:href="#DejaVuSans-37" x="31.787109"/>
       <use xlink:href="#DejaVuSans-35" x="95.410156"/>
      </g>
     </g>
    </g>
    <g id="text_7">
     <!-- time from stimulus (s) -->
     <g transform="translate(106.16817 223.181484)scale(0.162 -0.162)">
      <defs>
       <path id="DejaVuSans-74" d="M 1172 4494 
L 1172 3500 
L 2356 3500 
L 2356 3053 
L 1172 3053 
L 1172 1153 
Q 1172 725 1289 603 
Q 1406 481 1766 481 
L 2356 481 
L 2356 0 
L 1766 0 
Q 1100 0 847 248 
Q 594 497 594 1153 
L 594 3053 
L 172 3053 
L 172 3500 
L 594 3500 
L 594 4494 
L 1172 4494 
z
" transform="scale(0.015625)"/>
       <path id="DejaVuSans-69" d="M 603 3500 
L 1178 3500 
L 1178 0 
L 603 0 
L 603 3500 
z
M 603 4863 
L 1178 4863 
L 1178 4134 
L 603 4134 
L 603 4863 
z
" transform="scale(0.015625)"/>
       <path id="DejaVuSans-6d" d="M 3328 2828 
Q 3544 3216 3844 3400 
Q 4144 3584 4550 3584 
Q 5097 3584 5394 3201 
Q 5691 2819 5691 2113 
L 5691 0 
L 5113 0 
L 5113 2094 
Q 5113 2597 4934 2840 
Q 4756 3084 4391 3084 
Q 3944 3084 3684 2787 
Q 3425 2491 3425 1978 
L 3425 0 
L 2847 0 
L 2847 2094 
Q 2847 2600 2669 2842 
Q 2491 3084 2119 3084 
Q 1678 3084 1418 2786 
Q 1159 2488 1159 1978 
L 1159 0 
L 581 0 
L 581 3500 
L 1159 3500 
L 1159 2956 
Q 1356 3278 1631 3431 
Q 1906 3584 2284 3584 
Q 2666 3584 2933 3390 
Q 3200 3197 3328 2828 
z
" transform="scale(0.015625)"/>
       <path id="DejaVuSans-65" d="M 3597 1894 
L 3597 1613 
L 953 1613 
Q 991 1019 1311 708 
Q 1631 397 2203 397 
Q 2534 397 2845 478 
Q 3156 559 3463 722 
L 3463 178 
Q 3153 47 2828 -22 
Q 2503 -91 2169 -91 
Q 1331 -91 842 396 
Q 353 884 353 1716 
Q 353 2575 817 3079 
Q 1281 3584 2069 3584 
Q 2775 3584 3186 3129 
Q 3597 2675 3597 1894 
z
M 3022 2063 
Q 3016 2534 2758 2815 
Q 2500 3097 2075 3097 
Q 1594 3097 1305 2825 
Q 1016 2553 972 2059 
L 3022 2063 
z
" transform="scale(0.015625)"/>
       <path id="DejaVuSans-20" transform="scale(0.015625)"/>
       <path id="DejaVuSans-66" d="M 2375 4863 
L 2375 4384 
L 1825 4384 
Q 1516 4384 1395 4259 
Q 1275 4134 1275 3809 
L 1275 3500 
L 2222 3500 
L 2222 3053 
L 1275 3053 
L 1275 0 
L 697 0 
L 697 3053 
L 147 3053 
L 147 3500 
L 697 3500 
L 697 3744 
Q 697 4328 969 4595 
Q 1241 4863 1831 4863 
L 2375 4863 
z
" transform="scale(0.015625)"/>
       <path id="DejaVuSans-72" d="M 2631 2963 
Q 2534 3019 2420 3045 
Q 2306 3072 2169 3072 
Q 1681 3072 1420 2755 
Q 1159 2438 1159 1844 
L 1159 0 
L 581 0 
L 581 3500 
L 1159 3500 
L 1159 2956 
Q 1341 3275 1631 3429 
Q 1922 3584 2338 3584 
Q 2397 3584 2469 3576 
Q 2541 3569 2628 3553 
L 2631 2963 
z
" transform="scale(0.015625)"/>
       <path id="DejaVuSans-6f" d="M 1959 3097 
Q 1497 3097 1228 2736 
Q 959 2375 959 1747 
Q 959 1119 1226 758 
Q 1494 397 1959 397 
Q 2419 397 2687 759 
Q 2956 1122 2956 1747 
Q 2956 2369 2687 2733 
Q 2419 3097 1959 3097 
z
M 1959 3584 
Q 2709 3584 3137 3096 
Q 3566 2609 3566 1747 
Q 3566 888 3137 398 
Q 2709 -91 1959 -91 
Q 1206 -91 779 398 
Q 353 888 353 1747 
Q 353 2609 779 3096 
Q 1206 3584 1959 3584 
z
" transform="scale(0.015625)"/>
       <path id="DejaVuSans-73" d="M 2834 3397 
L 2834 2853 
Q 2591 2978 2328 3040 
Q 2066 3103 1784 3103 
Q 1356 3103 1142 2972 
Q 928 2841 928 2578 
Q 928 2378 1081 2264 
Q 1234 2150 1697 2047 
L 1894 2003 
Q 2506 1872 2764 1633 
Q 3022 1394 3022 966 
Q 3022 478 2636 193 
Q 2250 -91 1575 -91 
Q 1294 -91 989 -36 
Q 684 19 347 128 
L 347 722 
Q 666 556 975 473 
Q 1284 391 1588 391 
Q 1994 391 2212 530 
Q 2431 669 2431 922 
Q 2431 1156 2273 1281 
Q 2116 1406 1581 1522 
L 1381 1569 
Q 847 1681 609 1914 
Q 372 2147 372 2553 
Q 372 3047 722 3315 
Q 1072 3584 1716 3584 
Q 2034 3584 2315 3537 
Q 2597 3491 2834 3397 
z
" transform="scale(0.015625)"/>
       <path id="DejaVuSans-75" d="M 544 1381 
L 544 3500 
L 1119 3500 
L 1119 1403 
Q 1119 906 1312 657 
Q 1506 409 1894 409 
Q 2359 409 2629 706 
Q 2900 1003 2900 1516 
L 2900 3500 
L 3475 3500 
L 3475 0 
L 2900 0 
L 2900 538 
Q 2691 219 2414 64 
Q 2138 -91 1772 -91 
Q 1169 -91 856 284 
Q 544 659 544 1381 
z
M 1991 3584 
L 1991 3584 
z
" transform="scale(0.015625)"/>
       <path id="DejaVuSans-6c" d="M 603 4863 
L 1178 4863 
L 1178 0 
L 603 0 
L 603 4863 
z
" transform="scale(0.015625)"/>
       <path id="DejaVuSans-28" d="M 1984 4856 
Q 1566 4138 1362 3434 
Q 1159 2731 1159 2009 
Q 1159 1288 1364 580 
Q 1569 -128 1984 -844 
L 1484 -844 
Q 1016 -109 783 600 
Q 550 1309 550 2009 
Q 550 2706 781 3412 
Q 1013 4119 1484 4856 
L 1984 4856 
z
" transform="scale(0.015625)"/>
       <path id="DejaVuSans-29" d="M 513 4856 
L 1013 4856 
Q 1481 4119 1714 3412 
Q 1947 2706 1947 2009 
Q 1947 1309 1714 600 
Q 1481 -109 1013 -844 
L 513 -844 
Q 928 -128 1133 580 
Q 1338 1288 1338 2009 
Q 1338 2731 1133 3434 
Q 928 4138 513 4856 
z
" transform="scale(0.015625)"/>
      </defs>
      <use xlink:href="#DejaVuSans-74"/>
      <use xlink:href="#DejaVuSans-69" x="39.208984"/>
      <use xlink:href="#DejaVuSans-6d" x="66.992188"/>
      <use xlink:href="#DejaVuSans-65" x="164.404297"/>
      <use xlink:href="#DejaVuSans-20" x="225.927734"/>
      <use xlink:href="#DejaVuSans-66" x="257.714844"/>
      <use xlink:href="#DejaVuSans-72" x="292.919922"/>
      <use xlink:href="#DejaVuSans-6f" x="331.783203"/>
      <use xlink:href="#DejaVuSans-6d" x="392.964844"/>
      <use xlink:href="#DejaVuSans-20" x="490.376953"/>
      <use xlink:href="#DejaVuSans-73" x="522.164062"/>
      <use xlink:href="#DejaVuSans-74" x="574.263672"/>
      <use xlink:href="#DejaVuSans-69" x="613.472656"/>
      <use xlink:href="#DejaVuSans-6d" x="641.255859"/>
      <use xlink:href="#DejaVuSans-75" x="738.667969"/>
      <use xlink:href="#DejaVuSans-6c" x="802.046875"/>
      <use xlink:href="#DejaVuSans-75" x="829.830078"/>
      <use xlink:href="#DejaVuSans-73" x="893.208984"/>
      <use xlink:href="#DejaVuSans-20" x="945.308594"/>
      <use xlink:href="#DejaVuSans-28" x="977.095703"/>
      <use xlink:href="#DejaVuSans-73" x="1016.109375"/>
      <use xlink:href="#DejaVuSans-29" x="1068.208984"/>
     </g>
    </g>
   </g>
   <g id="matplotlib.axis_2">
    <g id="ytick_1">
     <g id="line2d_7">
      <defs>
       <path id="m1dc2232868" d="M 0 0 
L 9 0 
" style="stroke: #000000; stroke-width: 1.875"/>
      </defs>
      <g>
       <use xlink:href="#m1dc2232868" x="117" y="142.405714" style="stroke: #000000; stroke-width: 1.875"/>
      </g>
     </g>
     <g id="text_8">
      <!-- 50 -->
      <g transform="translate(94.603375 148.047554)scale(0.1485 -0.1485)">
       <use xlink:href="#DejaVuSans-35"/>
       <use xlink:href="#DejaVuSans-30" x="63.623047"/>
      </g>
     </g>
    </g>
    <g id="ytick_2">
     <g id="line2d_8">
      <g>
       <use xlink:href="#m1dc2232868" x="117" y="25.92" style="stroke: #000000; stroke-width: 1.875"/>
      </g>
     </g>
     <g id="text_9">
      <!-- 100 -->
      <g transform="translate(85.155062 31.56184)scale(0.1485 -0.1485)">
       <defs>
        <path id="DejaVuSans-31" d="M 794 531 
L 1825 531 
L 1825 4091 
L 703 3866 
L 703 4441 
L 1819 4666 
L 2450 4666 
L 2450 531 
L 3481 531 
L 3481 0 
L 794 0 
L 794 531 
z
" transform="scale(0.015625)"/>
       </defs>
       <use xlink:href="#DejaVuSans-31"/>
       <use xlink:href="#DejaVuSans-30" x="63.623047"/>
       <use xlink:href="#DejaVuSans-30" x="127.246094"/>
      </g>
     </g>
    </g>
    <g id="text_10">
     <!-- accuracy (%) -->
     <g transform="translate(77.785969 160.597266)rotate(-90)scale(0.162 -0.162)">
      <defs>
       <path id="DejaVuSans-61" d="M 2194 1759 
Q 1497 1759 1228 1600 
Q 959 1441 959 1056 
Q 959 750 1161 570 
Q 1363 391 1709 391 
Q 2188 391 2477 730 
Q 2766 1069 2766 1631 
L 2766 1759 
L 2194 1759 
z
M 3341 1997 
L 3341 0 
L 2766 0 
L 2766 531 
Q 2569 213 2275 61 
Q 1981 -91 1556 -91 
Q 1019 -91 701 211 
Q 384 513 384 1019 
Q 384 1609 779 1909 
Q 1175 2209 1959 2209 
L 2766 2209 
L 2766 2266 
Q 2766 2663 2505 2880 
Q 2244 3097 1772 3097 
Q 1472 3097 1187 3025 
Q 903 2953 641 2809 
L 641 3341 
Q 956 3463 1253 3523 
Q 1550 3584 1831 3584 
Q 2591 3584 2966 3190 
Q 3341 2797 3341 1997 
z
" transform="scale(0.015625)"/>
       <path id="DejaVuSans-63" d="M 3122 3366 
L 3122 2828 
Q 2878 2963 2633 3030 
Q 2388 3097 2138 3097 
Q 1578 3097 1268 2742 
Q 959 2388 959 1747 
Q 959 1106 1268 751 
Q 1578 397 2138 397 
Q 2388 397 2633 464 
Q 2878 531 3122 666 
L 3122 134 
Q 2881 22 2623 -34 
Q 2366 -91 2075 -91 
Q 1284 -91 818 406 
Q 353 903 353 1747 
Q 353 2603 823 3093 
Q 1294 3584 2113 3584 
Q 2378 3584 2631 3529 
Q 2884 3475 3122 3366 
z
" transform="scale(0.015625)"/>
       <path id="DejaVuSans-79" d="M 2059 -325 
Q 1816 -950 1584 -1140 
Q 1353 -1331 966 -1331 
L 506 -1331 
L 506 -850 
L 844 -850 
Q 1081 -850 1212 -737 
Q 1344 -625 1503 -206 
L 1606 56 
L 191 3500 
L 800 3500 
L 1894 763 
L 2988 3500 
L 3597 3500 
L 2059 -325 
z
" transform="scale(0.015625)"/>
       <path id="DejaVuSans-25" d="M 4653 2053 
Q 4381 2053 4226 1822 
Q 4072 1591 4072 1178 
Q 4072 772 4226 539 
Q 4381 306 4653 306 
Q 4919 306 5073 539 
Q 5228 772 5228 1178 
Q 5228 1588 5073 1820 
Q 4919 2053 4653 2053 
z
M 4653 2450 
Q 5147 2450 5437 2106 
Q 5728 1763 5728 1178 
Q 5728 594 5436 251 
Q 5144 -91 4653 -91 
Q 4153 -91 3862 251 
Q 3572 594 3572 1178 
Q 3572 1766 3864 2108 
Q 4156 2450 4653 2450 
z
M 1428 4353 
Q 1159 4353 1004 4120 
Q 850 3888 850 3481 
Q 850 3069 1003 2837 
Q 1156 2606 1428 2606 
Q 1700 2606 1854 2837 
Q 2009 3069 2009 3481 
Q 2009 3884 1853 4118 
Q 1697 4353 1428 4353 
z
M 4250 4750 
L 4750 4750 
L 1831 -91 
L 1331 -91 
L 4250 4750 
z
M 1428 4750 
Q 1922 4750 2215 4408 
Q 2509 4066 2509 3481 
Q 2509 2891 2217 2550 
Q 1925 2209 1428 2209 
Q 931 2209 642 2551 
Q 353 2894 353 3481 
Q 353 4063 643 4406 
Q 934 4750 1428 4750 
z
" transform="scale(0.015625)"/>
      </defs>
      <use xlink:href="#DejaVuSans-61"/>
      <use xlink:href="#DejaVuSans-63" x="61.279297"/>
      <use xlink:href="#DejaVuSans-63" x="116.259766"/>
      <use xlink:href="#DejaVuSans-75" x="171.240234"/>
      <use xlink:href="#DejaVuSans-72" x="234.619141"/>
      <use xlink:href="#DejaVuSans-61" x="275.732422"/>
      <use xlink:href="#DejaVuSans-63" x="337.011719"/>
      <use xlink:href="#DejaVuSans-79" x="391.992188"/>
      <use xlink:href="#DejaVuSans-20" x="451.171875"/>
      <use xlink:href="#DejaVuSans-28" x="482.958984"/>
      <use xlink:href="#DejaVuSans-25" x="521.972656"/>
      <use xlink:href="#DejaVuSans-29" x="616.992188"/>
     </g>
    </g>
   </g>
   <g id="line2d_9">
    <path d="M 113.846087 144.441885 
L 120.153913 136.8144 
L 126.461739 145.112842 
L 132.769565 138.226207 
L 139.077391 146.976614 
L 145.385217 143.938666 
L 151.693043 142.163424 
L 158.00087 152.595885 
L 164.308696 150.238214 
L 170.616522 133.846344 
L 176.924348 136.166739 
L 183.232174 147.316752 
L 189.54 134.554577 
L 195.847826 141.362002 
L 202.155652 133.804409 
L 208.463478 133.562119 
L 214.771304 128.786205 
L 221.07913 138.985694 
L 227.386957 133.440974 
L 233.694783 144.194935 
L 240.002609 136.427667 
L 246.310435 144.166978 
L 252.618261 144.153 
L 258.926087 142.098192 
L 265.233913 146.981273 
L 271.541739 144.162319 
L 277.849565 146.701707 
L 284.157391 142.247294 
L 290.465217 142.303207 
L 296.773043 142.76915 
" clip-path="url(#p2ad041e4fa)" style="fill: none; stroke: #808080; stroke-width: 2.25; stroke-linecap: square"/>
   </g>
   <g id="line2d_10">
    <path d="M 113.846087 152.307 
L 120.153913 146.170533 
L 126.461739 143.141904 
L 132.769565 144.740088 
L 139.077391 153.243545 
L 145.385217 146.226446 
L 151.693043 146.217127 
L 158.00087 151.188737 
L 164.308696 149.432133 
L 170.616522 144.632921 
L 176.924348 148.649349 
L 183.232174 141.143009 
L 189.54 139.642673 
L 195.847826 145.532191 
L 202.155652 154.18475 
L 208.463478 144.977719 
L 214.771304 153.476517 
L 221.07913 135.309405 
L 227.386957 147.736101 
L 233.694783 137.587865 
L 240.002609 142.210018 
L 246.310435 135.295426 
L 252.618261 136.255269 
L 258.926087 139.116158 
L 265.233913 126.666165 
L 271.541739 129.14964 
L 277.849565 135.742731 
L 284.157391 135.747391 
L 290.465217 131.744942 
L 296.773043 138.543048 
" clip-path="url(#p2ad041e4fa)" style="fill: none; stroke: #e7ab79; stroke-width: 2.25; stroke-linecap: square"/>
   </g>
   <g id="line2d_11">
    <path d="M 113.846087 142.405714 
L 120.153913 142.405714 
L 126.461739 142.405714 
L 132.769565 142.405714 
L 139.077391 142.405714 
L 145.385217 142.405714 
L 151.693043 142.405714 
L 158.00087 142.405714 
L 164.308696 142.405714 
L 170.616522 142.405714 
L 176.924348 142.405714 
L 183.232174 142.405714 
L 189.54 142.405714 
L 195.847826 142.405714 
L 202.155652 142.405714 
L 208.463478 142.405714 
L 214.771304 142.405714 
L 221.07913 142.405714 
L 227.386957 142.405714 
L 233.694783 142.405714 
L 240.002609 142.405714 
L 246.310435 142.405714 
L 252.618261 142.405714 
L 258.926087 142.405714 
L 265.233913 142.405714 
L 271.541739 142.405714 
L 277.849565 142.405714 
L 284.157391 142.405714 
L 290.465217 142.405714 
L 296.773043 142.405714 
" clip-path="url(#p2ad041e4fa)" style="fill: none; stroke-dasharray: 8.325,3.6; stroke-dashoffset: 0; stroke: #000000; stroke-width: 2.25"/>
   </g>
   <g id="patch_3">
    <path d="M 117 189 
L 117 25.92 
" style="fill: none; stroke: #000000; stroke-width: 1.875; stroke-linejoin: miter; stroke-linecap: square"/>
   </g>
   <g id="patch_4">
    <path d="M 117 189 
L 274.695652 189 
" style="fill: none; stroke: #000000; stroke-width: 1.875; stroke-linejoin: miter; stroke-linecap: square"/>
   </g>
   <g id="text_11">
    <!-- trained on irrelevant feature -->
    <g transform="translate(80.945529 19.92)scale(0.162 -0.162)">
     <defs>
      <path id="DejaVuSans-6e" d="M 3513 2113 
L 3513 0 
L 2938 0 
L 2938 2094 
Q 2938 2591 2744 2837 
Q 2550 3084 2163 3084 
Q 1697 3084 1428 2787 
Q 1159 2491 1159 1978 
L 1159 0 
L 581 0 
L 581 3500 
L 1159 3500 
L 1159 2956 
Q 1366 3272 1645 3428 
Q 1925 3584 2291 3584 
Q 2894 3584 3203 3211 
Q 3513 2838 3513 2113 
z
" transform="scale(0.015625)"/>
      <path id="DejaVuSans-64" d="M 2906 2969 
L 2906 4863 
L 3481 4863 
L 3481 0 
L 2906 0 
L 2906 525 
Q 2725 213 2448 61 
Q 2172 -91 1784 -91 
Q 1150 -91 751 415 
Q 353 922 353 1747 
Q 353 2572 751 3078 
Q 1150 3584 1784 3584 
Q 2172 3584 2448 3432 
Q 2725 3281 2906 2969 
z
M 947 1747 
Q 947 1113 1208 752 
Q 1469 391 1925 391 
Q 2381 391 2643 752 
Q 2906 1113 2906 1747 
Q 2906 2381 2643 2742 
Q 2381 3103 1925 3103 
Q 1469 3103 1208 2742 
Q 947 2381 947 1747 
z
" transform="scale(0.015625)"/>
      <path id="DejaVuSans-76" d="M 191 3500 
L 800 3500 
L 1894 563 
L 2988 3500 
L 3597 3500 
L 2284 0 
L 1503 0 
L 191 3500 
z
" transform="scale(0.015625)"/>
     </defs>
     <use xlink:href="#DejaVuSans-74"/>
     <use xlink:href="#DejaVuSans-72" x="39.208984"/>
     <use xlink:href="#DejaVuSans-61" x="80.322266"/>
     <use xlink:href="#DejaVuSans-69" x="141.601562"/>
     <use xlink:href="#DejaVuSans-6e" x="169.384766"/>
     <use xlink:href="#DejaVuSans-65" x="232.763672"/>
     <use xlink:href="#DejaVuSans-64" x="294.287109"/>
     <use xlink:href="#DejaVuSans-20" x="357.763672"/>
     <use xlink:href="#DejaVuSans-6f" x="389.550781"/>
     <use xlink:href="#DejaVuSans-6e" x="450.732422"/>
     <use xlink:href="#DejaVuSans-20" x="514.111328"/>
     <use xlink:href="#DejaVuSans-69" x="545.898438"/>
     <use xlink:href="#DejaVuSans-72" x="573.681641"/>
     <use xlink:href="#DejaVuSans-72" x="613.044922"/>
     <use xlink:href="#DejaVuSans-65" x="651.908203"/>
     <use xlink:href="#DejaVuSans-6c" x="713.431641"/>
     <use xlink:href="#DejaVuSans-65" x="741.214844"/>
     <use xlink:href="#DejaVuSans-76" x="802.738281"/>
     <use xlink:href="#DejaVuSans-61" x="861.917969"/>
     <use xlink:href="#DejaVuSans-6e" x="923.197266"/>
     <use xlink:href="#DejaVuSans-74" x="986.576172"/>
     <use xlink:href="#DejaVuSans-20" x="1025.785156"/>
     <use xlink:href="#DejaVuSans-66" x="1057.572266"/>
     <use xlink:href="#DejaVuSans-65" x="1092.777344"/>
     <use xlink:href="#DejaVuSans-61" x="1154.300781"/>
     <use xlink:href="#DejaVuSans-74" x="1215.580078"/>
     <use xlink:href="#DejaVuSans-75" x="1254.789062"/>
     <use xlink:href="#DejaVuSans-72" x="1318.167969"/>
     <use xlink:href="#DejaVuSans-65" x="1357.03125"/>
    </g>
   </g>
   <g id="legend_1">
    <g id="patch_5">
     <path d="M 105.602269 90.614125 
L 217.586957 90.614125 
Q 220.386957 90.614125 220.386957 87.814125 
L 220.386957 27.566 
Q 220.386957 24.766 217.586957 24.766 
L 105.602269 24.766 
Q 102.802269 24.766 102.802269 27.566 
L 102.802269 87.814125 
Q 102.802269 90.614125 105.602269 90.614125 
z
" style="fill: #ffffff; opacity: 0.8; stroke: #cccccc; stroke-width: 1.5; stroke-linejoin: miter"/>
    </g>
    <g id="text_12">
     <!-- tested on -->
     <g transform="translate(128.457269 41.003812)scale(0.14 -0.14)">
      <use xlink:href="#DejaVuSans-74"/>
      <use xlink:href="#DejaVuSans-65" x="39.208984"/>
      <use xlink:href="#DejaVuSans-73" x="100.732422"/>
      <use xlink:href="#DejaVuSans-74" x="152.832031"/>
      <use xlink:href="#DejaVuSans-65" x="192.041016"/>
      <use xlink:href="#DejaVuSans-64" x="253.564453"/>
      <use xlink:href="#DejaVuSans-20" x="317.041016"/>
      <use xlink:href="#DejaVuSans-6f" x="348.828125"/>
      <use xlink:href="#DejaVuSans-6e" x="410.009766"/>
     </g>
    </g>
    <g id="line2d_12">
     <path d="M 108.402269 56.653187 
L 122.402269 56.653187 
L 136.402269 56.653187 
" style="fill: none; stroke: #808080; stroke-width: 2.25; stroke-linecap: square"/>
    </g>
    <g id="text_13">
     <!-- irrelevant -->
     <g transform="translate(147.602269 61.553187)scale(0.14 -0.14)">
      <use xlink:href="#DejaVuSans-69"/>
      <use xlink:href="#DejaVuSans-72" x="27.783203"/>
      <use xlink:href="#DejaVuSans-72" x="67.146484"/>
      <use xlink:href="#DejaVuSans-65" x="106.009766"/>
      <use xlink:href="#DejaVuSans-6c" x="167.533203"/>
      <use xlink:href="#DejaVuSans-65" x="195.316406"/>
      <use xlink:href="#DejaVuSans-76" x="256.839844"/>
      <use xlink:href="#DejaVuSans-61" x="316.019531"/>
      <use xlink:href="#DejaVuSans-6e" x="377.298828"/>
      <use xlink:href="#DejaVuSans-74" x="440.677734"/>
     </g>
    </g>
    <g id="line2d_13">
     <path d="M 108.402269 77.202562 
L 122.402269 77.202562 
L 136.402269 77.202562 
" style="fill: none; stroke: #e7ab79; stroke-width: 2.25; stroke-linecap: square"/>
    </g>
    <g id="text_14">
     <!-- relevant -->
     <g transform="translate(147.602269 82.102562)scale(0.14 -0.14)">
      <use xlink:href="#DejaVuSans-72"/>
      <use xlink:href="#DejaVuSans-65" x="38.863281"/>
      <use xlink:href="#DejaVuSans-6c" x="100.386719"/>
      <use xlink:href="#DejaVuSans-65" x="128.169922"/>
      <use xlink:href="#DejaVuSans-76" x="189.693359"/>
      <use xlink:href="#DejaVuSans-61" x="248.873047"/>
      <use xlink:href="#DejaVuSans-6e" x="310.152344"/>
      <use xlink:href="#DejaVuSans-74" x="373.53125"/>
     </g>
    </g>
   </g>
  </g>
  <g id="axes_2">
   <g id="patch_6">
    <path d="M 306.234783 189 
L 463.930435 189 
L 463.930435 25.92 
L 306.234783 25.92 
z
" style="fill: #ffffff"/>
   </g>
   <g id="PolyCollection_4">
    <defs>
     <path id="m0776125d11" d="M 303.08087 -89.902286 
L 303.08087 -64.275429 
L 309.388696 -75.924 
L 315.696522 -64.275429 
L 322.004348 -66.605143 
L 328.312174 -73.594286 
L 334.62 -64.275429 
L 340.927826 -75.924 
L 347.235652 -68.934857 
L 353.543478 -75.924 
L 359.851304 -61.945714 
L 366.15913 -73.174937 
L 372.466957 -71.264571 
L 378.774783 -108.54 
L 385.082609 -145.815429 
L 391.390435 -152.804571 
L 397.698261 -162.123429 
L 404.006087 -150.474857 
L 410.313913 -131.837143 
L 416.621739 -129.507429 
L 422.929565 -106.210286 
L 429.237391 -99.221143 
L 435.545217 -96.891429 
L 441.853043 -80.583429 
L 448.16087 -73.594286 
L 454.468696 -61.945714 
L 460.776522 -64.275429 
L 467.084348 -52.626857 
L 473.392174 -54.956571 
L 479.7 -57.286286 
L 486.007826 -54.956571 
L 486.007826 -78.253714 
L 486.007826 -78.253714 
L 479.7 -80.583429 
L 473.392174 -78.253714 
L 467.084348 -73.594286 
L 460.776522 -87.572571 
L 454.468696 -85.242857 
L 448.16087 -99.221143 
L 441.853043 -108.54 
L 435.545217 -124.848 
L 429.237391 -129.880183 
L 422.929565 -136.496571 
L 416.621739 -155.134286 
L 410.313913 -155.50704 
L 404.006087 -169.112571 
L 397.698261 -178.431429 
L 391.390435 -169.112571 
L 385.082609 -164.453143 
L 378.774783 -131.837143 
L 372.466957 -94.561714 
L 366.15913 -96.891429 
L 359.851304 -87.572571 
L 353.543478 -101.550857 
L 347.235652 -96.891429 
L 340.927826 -101.550857 
L 334.62 -92.232 
L 328.312174 -101.550857 
L 322.004348 -94.561714 
L 315.696522 -89.902286 
L 309.388696 -103.880571 
L 303.08087 -89.902286 
z
" style="stroke: #e7ab79; stroke-opacity: 0.3; stroke-width: 1.5"/>
    </defs>
    <g clip-path="url(#p23dee32329)">
     <use xlink:href="#m0776125d11" x="0" y="216" style="fill: #e7ab79; fill-opacity: 0.3; stroke: #e7ab79; stroke-opacity: 0.3; stroke-width: 1.5"/>
    </g>
   </g>
   <g id="PolyCollection_5">
    <defs>
     <path id="md8085afdd8" d="M 303.08087 -82.913143 
L 303.08087 -57.286286 
L 309.388696 -54.956571 
L 315.696522 -59.616 
L 322.004348 -54.956571 
L 328.312174 -57.286286 
L 334.62 -61.945714 
L 340.927826 -59.616 
L 347.235652 -57.286286 
L 353.543478 -64.275429 
L 359.851304 -66.605143 
L 366.15913 -61.945714 
L 372.466957 -63.85608 
L 378.774783 -57.286286 
L 385.082609 -66.605143 
L 391.390435 -61.945714 
L 397.698261 -63.85608 
L 404.006087 -64.275429 
L 410.313913 -61.945714 
L 416.621739 -61.945714 
L 422.929565 -61.945714 
L 429.237391 -61.945714 
L 435.545217 -64.275429 
L 441.853043 -66.605143 
L 448.16087 -66.605143 
L 454.468696 -66.605143 
L 460.776522 -66.605143 
L 467.084348 -68.934857 
L 473.392174 -66.605143 
L 479.7 -68.934857 
L 486.007826 -66.605143 
L 486.007826 -80.583429 
L 486.007826 -80.583429 
L 479.7 -85.242857 
L 473.392174 -85.242857 
L 467.084348 -85.242857 
L 460.776522 -82.913143 
L 454.468696 -82.913143 
L 448.16087 -82.913143 
L 441.853043 -85.242857 
L 435.545217 -80.583429 
L 429.237391 -78.253714 
L 422.929565 -80.583429 
L 416.621739 -82.913143 
L 410.313913 -80.583429 
L 404.006087 -82.913143 
L 397.698261 -80.583429 
L 391.390435 -80.583429 
L 385.082609 -85.242857 
L 378.774783 -73.594286 
L 372.466957 -80.583429 
L 366.15913 -80.583429 
L 359.851304 -82.913143 
L 353.543478 -80.583429 
L 347.235652 -73.594286 
L 340.927826 -80.583429 
L 334.62 -80.583429 
L 328.312174 -78.253714 
L 322.004348 -78.253714 
L 315.696522 -78.253714 
L 309.388696 -73.96704 
L 303.08087 -82.913143 
z
" style="stroke: #808080; stroke-opacity: 0.3; stroke-width: 1.5"/>
    </defs>
    <g clip-path="url(#p23dee32329)">
     <use xlink:href="#md8085afdd8" x="0" y="216" style="fill: #808080; fill-opacity: 0.3; stroke: #808080; stroke-opacity: 0.3; stroke-width: 1.5"/>
    </g>
   </g>
   <g id="PolyCollection_6">
    <defs>
     <path id="mac9d6fe822" d="M 369.313043 -32.824286 
L 369.313043 -27 
L 400.852174 -27 
L 400.852174 -32.824286 
L 400.852174 -32.824286 
L 369.313043 -32.824286 
z
" style="stroke: #000000; stroke-opacity: 0.2; stroke-width: 1.5"/>
    </defs>
    <g clip-path="url(#p23dee32329)">
     <use xlink:href="#mac9d6fe822" x="0" y="216" style="fill-opacity: 0.2; stroke: #000000; stroke-opacity: 0.2; stroke-width: 1.5"/>
    </g>
   </g>
   <g id="matplotlib.axis_3">
    <g id="xtick_7">
     <g id="line2d_14">
      <g>
       <use xlink:href="#m63be355728" x="306.234783" y="189" style="stroke: #000000; stroke-width: 1.875"/>
      </g>
     </g>
     <g id="text_15">
      <!-- -.5 -->
      <g transform="translate(296.472068 203.78368)scale(0.1485 -0.1485)">
       <use xlink:href="#DejaVuSans-2d"/>
       <use xlink:href="#DejaVuSans-2e" x="36.083984"/>
       <use xlink:href="#DejaVuSans-35" x="67.871094"/>
      </g>
     </g>
    </g>
    <g id="xtick_8">
     <g id="line2d_15">
      <g>
       <use xlink:href="#m63be355728" x="337.773913" y="189" style="stroke: #000000; stroke-width: 1.875"/>
      </g>
     </g>
     <g id="text_16">
      <!-- -.25 -->
      <g transform="translate(323.287042 203.78368)scale(0.1485 -0.1485)">
       <use xlink:href="#DejaVuSans-2d"/>
       <use xlink:href="#DejaVuSans-2e" x="36.083984"/>
       <use xlink:href="#DejaVuSans-32" x="67.871094"/>
       <use xlink:href="#DejaVuSans-35" x="131.494141"/>
      </g>
     </g>
    </g>
    <g id="xtick_9">
     <g id="line2d_16">
      <g>
       <use xlink:href="#m63be355728" x="369.313043" y="189" style="stroke: #000000; stroke-width: 1.875"/>
      </g>
     </g>
     <g id="text_17">
      <!-- 0 -->
      <g transform="translate(364.588887 203.78368)scale(0.1485 -0.1485)">
       <use xlink:href="#DejaVuSans-30"/>
      </g>
     </g>
    </g>
    <g id="xtick_10">
     <g id="line2d_17">
      <g>
       <use xlink:href="#m63be355728" x="400.852174" y="189" style="stroke: #000000; stroke-width: 1.875"/>
      </g>
     </g>
     <g id="text_18">
      <!-- .25 -->
      <g transform="translate(389.044104 203.78368)scale(0.1485 -0.1485)">
       <use xlink:href="#DejaVuSans-2e"/>
       <use xlink:href="#DejaVuSans-32" x="31.787109"/>
       <use xlink:href="#DejaVuSans-35" x="95.410156"/>
      </g>
     </g>
    </g>
    <g id="xtick_11">
     <g id="line2d_18">
      <g>
       <use xlink:href="#m63be355728" x="432.391304" y="189" style="stroke: #000000; stroke-width: 1.875"/>
      </g>
     </g>
     <g id="text_19">
      <!-- .5 -->
      <g transform="translate(425.30739 203.78368)scale(0.1485 -0.1485)">
       <use xlink:href="#DejaVuSans-2e"/>
       <use xlink:href="#DejaVuSans-35" x="31.787109"/>
      </g>
     </g>
    </g>
    <g id="xtick_12">
     <g id="line2d_19">
      <g>
       <use xlink:href="#m63be355728" x="463.930435" y="189" style="stroke: #000000; stroke-width: 1.875"/>
      </g>
     </g>
     <g id="text_20">
      <!-- .75 -->
      <g transform="translate(452.122364 203.78368)scale(0.1485 -0.1485)">
       <use xlink:href="#DejaVuSans-2e"/>
       <use xlink:href="#DejaVuSans-37" x="31.787109"/>
       <use xlink:href="#DejaVuSans-35" x="95.410156"/>
      </g>
     </g>
    </g>
    <g id="text_21">
     <!-- time from stimulus (s) -->
     <g transform="translate(295.402952 223.181484)scale(0.162 -0.162)">
      <use xlink:href="#DejaVuSans-74"/>
      <use xlink:href="#DejaVuSans-69" x="39.208984"/>
      <use xlink:href="#DejaVuSans-6d" x="66.992188"/>
      <use xlink:href="#DejaVuSans-65" x="164.404297"/>
      <use xlink:href="#DejaVuSans-20" x="225.927734"/>
      <use xlink:href="#DejaVuSans-66" x="257.714844"/>
      <use xlink:href="#DejaVuSans-72" x="292.919922"/>
      <use xlink:href="#DejaVuSans-6f" x="331.783203"/>
      <use xlink:href="#DejaVuSans-6d" x="392.964844"/>
      <use xlink:href="#DejaVuSans-20" x="490.376953"/>
      <use xlink:href="#DejaVuSans-73" x="522.164062"/>
      <use xlink:href="#DejaVuSans-74" x="574.263672"/>
      <use xlink:href="#DejaVuSans-69" x="613.472656"/>
      <use xlink:href="#DejaVuSans-6d" x="641.255859"/>
      <use xlink:href="#DejaVuSans-75" x="738.667969"/>
      <use xlink:href="#DejaVuSans-6c" x="802.046875"/>
      <use xlink:href="#DejaVuSans-75" x="829.830078"/>
      <use xlink:href="#DejaVuSans-73" x="893.208984"/>
      <use xlink:href="#DejaVuSans-20" x="945.308594"/>
      <use xlink:href="#DejaVuSans-28" x="977.095703"/>
      <use xlink:href="#DejaVuSans-73" x="1016.109375"/>
      <use xlink:href="#DejaVuSans-29" x="1068.208984"/>
     </g>
    </g>
   </g>
   <g id="matplotlib.axis_4">
    <g id="ytick_3">
     <g id="line2d_20">
      <g>
       <use xlink:href="#m1dc2232868" x="306.234783" y="142.405714" style="stroke: #000000; stroke-width: 1.875"/>
      </g>
     </g>
    </g>
    <g id="ytick_4">
     <g id="line2d_21">
      <g>
       <use xlink:href="#m1dc2232868" x="306.234783" y="25.92" style="stroke: #000000; stroke-width: 1.875"/>
      </g>
     </g>
    </g>
   </g>
   <g id="line2d_22">
    <path d="M 303.08087 139.731202 
L 309.388696 127.164723 
L 315.696522 138.901824 
L 322.004348 135.938427 
L 328.312174 128.436747 
L 334.62 138.347352 
L 340.927826 128.003421 
L 347.235652 133.864982 
L 353.543478 129.075089 
L 359.851304 141.655546 
L 366.15913 132.229522 
L 372.466957 133.086857 
L 378.774783 96.058378 
L 385.082609 61.969999 
L 391.390435 54.962218 
L 397.698261 46.454102 
L 404.006087 56.41596 
L 410.313913 72.15085 
L 416.621739 75.095609 
L 422.929565 95.489928 
L 429.237391 100.605981 
L 435.545217 104.436031 
L 441.853043 122.798839 
L 448.16087 131.078643 
L 454.468696 142.708577 
L 460.776522 140.234421 
L 467.084348 152.279043 
L 473.392174 150.396634 
L 479.7 146.84149 
L 486.007826 149.870119 
" clip-path="url(#p23dee32329)" style="fill: none; stroke: #e7ab79; stroke-width: 2.25; stroke-linecap: square"/>
   </g>
   <g id="line2d_23">
    <path d="M 303.08087 145.965518 
L 309.388696 152.367573 
L 315.696522 146.585222 
L 322.004348 151.184078 
L 328.312174 149.348263 
L 334.62 144.674856 
L 340.927826 146.240424 
L 347.235652 151.100208 
L 353.543478 143.74297 
L 359.851304 142.424352 
L 366.15913 145.150118 
L 372.466957 143.831499 
L 378.774783 151.072251 
L 385.082609 140.677066 
L 391.390435 145.942221 
L 397.698261 144.535073 
L 404.006087 142.382417 
L 410.313913 144.539733 
L 416.621739 143.915369 
L 422.929565 145.676633 
L 429.237391 145.960858 
L 435.545217 143.291006 
L 441.853043 140.947313 
L 448.16087 141.744075 
L 454.468696 142.051598 
L 460.776522 141.436553 
L 467.084348 139.591419 
L 473.392174 141.063799 
L 479.7 138.915802 
L 486.007826 142.918251 
" clip-path="url(#p23dee32329)" style="fill: none; stroke: #808080; stroke-width: 2.25; stroke-linecap: square"/>
   </g>
   <g id="line2d_24">
    <path d="M 303.08087 142.405714 
L 309.388696 142.405714 
L 315.696522 142.405714 
L 322.004348 142.405714 
L 328.312174 142.405714 
L 334.62 142.405714 
L 340.927826 142.405714 
L 347.235652 142.405714 
L 353.543478 142.405714 
L 359.851304 142.405714 
L 366.15913 142.405714 
L 372.466957 142.405714 
L 378.774783 142.405714 
L 385.082609 142.405714 
L 391.390435 142.405714 
L 397.698261 142.405714 
L 404.006087 142.405714 
L 410.313913 142.405714 
L 416.621739 142.405714 
L 422.929565 142.405714 
L 429.237391 142.405714 
L 435.545217 142.405714 
L 441.853043 142.405714 
L 448.16087 142.405714 
L 454.468696 142.405714 
L 460.776522 142.405714 
L 467.084348 142.405714 
L 473.392174 142.405714 
L 479.7 142.405714 
L 486.007826 142.405714 
" clip-path="url(#p23dee32329)" style="fill: none; stroke-dasharray: 8.325,3.6; stroke-dashoffset: 0; stroke: #000000; stroke-width: 2.25"/>
   </g>
   <g id="patch_7">
    <path d="M 306.234783 189 
L 306.234783 25.92 
" style="fill: none; stroke: #000000; stroke-width: 1.875; stroke-linejoin: miter; stroke-linecap: square"/>
   </g>
   <g id="patch_8">
    <path d="M 306.234783 189 
L 463.930435 189 
" style="fill: none; stroke: #000000; stroke-width: 1.875; stroke-linejoin: miter; stroke-linecap: square"/>
   </g>
   <g id="text_22">
    <!-- trained on relevant feature -->
    <g transform="translate(275.618702 19.92)scale(0.162 -0.162)">
     <use xlink:href="#DejaVuSans-74"/>
     <use xlink:href="#DejaVuSans-72" x="39.208984"/>
     <use xlink:href="#DejaVuSans-61" x="80.322266"/>
     <use xlink:href="#DejaVuSans-69" x="141.601562"/>
     <use xlink:href="#DejaVuSans-6e" x="169.384766"/>
     <use xlink:href="#DejaVuSans-65" x="232.763672"/>
     <use xlink:href="#DejaVuSans-64" x="294.287109"/>
     <use xlink:href="#DejaVuSans-20" x="357.763672"/>
     <use xlink:href="#DejaVuSans-6f" x="389.550781"/>
     <use xlink:href="#DejaVuSans-6e" x="450.732422"/>
     <use xlink:href="#DejaVuSans-20" x="514.111328"/>
     <use xlink:href="#DejaVuSans-72" x="545.898438"/>
     <use xlink:href="#DejaVuSans-65" x="584.761719"/>
     <use xlink:href="#DejaVuSans-6c" x="646.285156"/>
     <use xlink:href="#DejaVuSans-65" x="674.068359"/>
     <use xlink:href="#DejaVuSans-76" x="735.591797"/>
     <use xlink:href="#DejaVuSans-61" x="794.771484"/>
     <use xlink:href="#DejaVuSans-6e" x="856.050781"/>
     <use xlink:href="#DejaVuSans-74" x="919.429688"/>
     <use xlink:href="#DejaVuSans-20" x="958.638672"/>
     <use xlink:href="#DejaVuSans-66" x="990.425781"/>
     <use xlink:href="#DejaVuSans-65" x="1025.630859"/>
     <use xlink:href="#DejaVuSans-61" x="1087.154297"/>
     <use xlink:href="#DejaVuSans-74" x="1148.433594"/>
     <use xlink:href="#DejaVuSans-75" x="1187.642578"/>
     <use xlink:href="#DejaVuSans-72" x="1251.021484"/>
     <use xlink:href="#DejaVuSans-65" x="1289.884766"/>
    </g>
   </g>
  </g>
  <g id="axes_3">
   <g id="patch_9">
    <path d="M 495.469565 189 
L 653.165217 189 
L 653.165217 25.92 
L 495.469565 25.92 
z
" style="fill: #ffffff"/>
   </g>
   <g id="patch_10">
    <path d="M 505.11013 131.427431 
L 507.540688 123.004044 
L 509.726545 124.589804 
L 510.88805 122.877553 
L 510.917391 122.898838 
L 509.755885 124.611089 
L 511.941742 126.196849 
z
" clip-path="url(#pdb44726430)" style="fill: #e7ab79; stroke: #e7ab79; stroke-linejoin: miter"/>
   </g>
   <g id="patch_11">
    <path d="M 517.774858 162.732202 
L 521.806237 170.471102 
L 519.175737 170.944741 
L 519.819313 174.767286 
L 519.784004 174.773643 
L 519.140428 170.951099 
L 516.509928 171.424738 
z
" clip-path="url(#pdb44726430)" style="fill: #808080; stroke: #808080; stroke-linejoin: miter"/>
   </g>
   <g id="matplotlib.axis_5">
    <g id="xtick_13">
     <g id="line2d_25">
      <g>
       <use xlink:href="#m63be355728" x="509.805534" y="189" style="stroke: #000000; stroke-width: 1.875"/>
      </g>
     </g>
     <g id="text_23">
      <!-- 0 -->
      <g transform="translate(505.081377 203.78368)scale(0.1485 -0.1485)">
       <use xlink:href="#DejaVuSans-30"/>
      </g>
     </g>
    </g>
    <g id="xtick_14">
     <g id="line2d_26">
      <g>
       <use xlink:href="#m63be355728" x="545.645455" y="189" style="stroke: #000000; stroke-width: 1.875"/>
      </g>
     </g>
     <g id="text_24">
      <!-- 1 -->
      <g transform="translate(540.921298 203.78368)scale(0.1485 -0.1485)">
       <use xlink:href="#DejaVuSans-31"/>
      </g>
     </g>
    </g>
    <g id="xtick_15">
     <g id="line2d_27">
      <g>
       <use xlink:href="#m63be355728" x="581.485375" y="189" style="stroke: #000000; stroke-width: 1.875"/>
      </g>
     </g>
     <g id="text_25">
      <!-- 2 -->
      <g transform="translate(576.761219 203.78368)scale(0.1485 -0.1485)">
       <use xlink:href="#DejaVuSans-32"/>
      </g>
     </g>
    </g>
    <g id="xtick_16">
     <g id="line2d_28">
      <g>
       <use xlink:href="#m63be355728" x="617.325296" y="189" style="stroke: #000000; stroke-width: 1.875"/>
      </g>
     </g>
     <g id="text_26">
      <!-- 3 -->
      <g transform="translate(612.60114 203.78368)scale(0.1485 -0.1485)">
       <defs>
        <path id="DejaVuSans-33" d="M 2597 2516 
Q 3050 2419 3304 2112 
Q 3559 1806 3559 1356 
Q 3559 666 3084 287 
Q 2609 -91 1734 -91 
Q 1441 -91 1130 -33 
Q 819 25 488 141 
L 488 750 
Q 750 597 1062 519 
Q 1375 441 1716 441 
Q 2309 441 2620 675 
Q 2931 909 2931 1356 
Q 2931 1769 2642 2001 
Q 2353 2234 1838 2234 
L 1294 2234 
L 1294 2753 
L 1863 2753 
Q 2328 2753 2575 2939 
Q 2822 3125 2822 3475 
Q 2822 3834 2567 4026 
Q 2313 4219 1838 4219 
Q 1578 4219 1281 4162 
Q 984 4106 628 3988 
L 628 4550 
Q 988 4650 1302 4700 
Q 1616 4750 1894 4750 
Q 2613 4750 3031 4423 
Q 3450 4097 3450 3541 
Q 3450 3153 3228 2886 
Q 3006 2619 2597 2516 
z
" transform="scale(0.015625)"/>
       </defs>
       <use xlink:href="#DejaVuSans-33"/>
      </g>
     </g>
    </g>
    <g id="xtick_17">
     <g id="line2d_29">
      <g>
       <use xlink:href="#m63be355728" x="653.165217" y="189" style="stroke: #000000; stroke-width: 1.875"/>
      </g>
     </g>
     <g id="text_27">
      <!-- 4 -->
      <g transform="translate(648.441061 203.78368)scale(0.1485 -0.1485)">
       <defs>
        <path id="DejaVuSans-34" d="M 2419 4116 
L 825 1625 
L 2419 1625 
L 2419 4116 
z
M 2253 4666 
L 3047 4666 
L 3047 1625 
L 3713 1625 
L 3713 1100 
L 3047 1100 
L 3047 0 
L 2419 0 
L 2419 1100 
L 313 1100 
L 313 1709 
L 2253 4666 
z
" transform="scale(0.015625)"/>
       </defs>
       <use xlink:href="#DejaVuSans-34"/>
      </g>
     </g>
    </g>
    <g id="text_28">
     <!-- sensory (hz) -->
     <g transform="translate(524.401141 223.181484)scale(0.162 -0.162)">
      <defs>
       <path id="DejaVuSans-68" d="M 3513 2113 
L 3513 0 
L 2938 0 
L 2938 2094 
Q 2938 2591 2744 2837 
Q 2550 3084 2163 3084 
Q 1697 3084 1428 2787 
Q 1159 2491 1159 1978 
L 1159 0 
L 581 0 
L 581 4863 
L 1159 4863 
L 1159 2956 
Q 1366 3272 1645 3428 
Q 1925 3584 2291 3584 
Q 2894 3584 3203 3211 
Q 3513 2838 3513 2113 
z
" transform="scale(0.015625)"/>
       <path id="DejaVuSans-7a" d="M 353 3500 
L 3084 3500 
L 3084 2975 
L 922 459 
L 3084 459 
L 3084 0 
L 275 0 
L 275 525 
L 2438 3041 
L 353 3041 
L 353 3500 
z
" transform="scale(0.015625)"/>
      </defs>
      <use xlink:href="#DejaVuSans-73"/>
      <use xlink:href="#DejaVuSans-65" x="52.099609"/>
      <use xlink:href="#DejaVuSans-6e" x="113.623047"/>
      <use xlink:href="#DejaVuSans-73" x="177.001953"/>
      <use xlink:href="#DejaVuSans-6f" x="229.101562"/>
      <use xlink:href="#DejaVuSans-72" x="290.283203"/>
      <use xlink:href="#DejaVuSans-79" x="331.396484"/>
      <use xlink:href="#DejaVuSans-20" x="390.576172"/>
      <use xlink:href="#DejaVuSans-28" x="422.363281"/>
      <use xlink:href="#DejaVuSans-68" x="461.376953"/>
      <use xlink:href="#DejaVuSans-7a" x="524.755859"/>
      <use xlink:href="#DejaVuSans-29" x="577.246094"/>
     </g>
    </g>
   </g>
   <g id="matplotlib.axis_6">
    <g id="ytick_5">
     <g id="line2d_30">
      <g>
       <use xlink:href="#m1dc2232868" x="495.469565" y="174.174545" style="stroke: #000000; stroke-width: 1.875"/>
      </g>
     </g>
     <g id="text_29">
      <!-- 0 -->
      <g transform="translate(482.521253 179.816385)scale(0.1485 -0.1485)">
       <use xlink:href="#DejaVuSans-30"/>
      </g>
     </g>
    </g>
    <g id="ytick_6">
     <g id="line2d_31">
      <g>
       <use xlink:href="#m1dc2232868" x="495.469565" y="137.110909" style="stroke: #000000; stroke-width: 1.875"/>
      </g>
     </g>
     <g id="text_30">
      <!-- 1 -->
      <g transform="translate(482.521253 142.752749)scale(0.1485 -0.1485)">
       <use xlink:href="#DejaVuSans-31"/>
      </g>
     </g>
    </g>
    <g id="ytick_7">
     <g id="line2d_32">
      <g>
       <use xlink:href="#m1dc2232868" x="495.469565" y="100.047273" style="stroke: #000000; stroke-width: 1.875"/>
      </g>
     </g>
     <g id="text_31">
      <!-- 2 -->
      <g transform="translate(482.521253 105.689113)scale(0.1485 -0.1485)">
       <use xlink:href="#DejaVuSans-32"/>
      </g>
     </g>
    </g>
    <g id="ytick_8">
     <g id="line2d_33">
      <g>
       <use xlink:href="#m1dc2232868" x="495.469565" y="62.983636" style="stroke: #000000; stroke-width: 1.875"/>
      </g>
     </g>
     <g id="text_32">
      <!-- 3 -->
      <g transform="translate(482.521253 68.625476)scale(0.1485 -0.1485)">
       <use xlink:href="#DejaVuSans-33"/>
      </g>
     </g>
    </g>
    <g id="ytick_9">
     <g id="line2d_34">
      <g>
       <use xlink:href="#m1dc2232868" x="495.469565" y="25.92" style="stroke: #000000; stroke-width: 1.875"/>
      </g>
     </g>
     <g id="text_33">
      <!-- 4 -->
      <g transform="translate(482.521253 31.56184)scale(0.1485 -0.1485)">
       <use xlink:href="#DejaVuSans-34"/>
      </g>
     </g>
    </g>
    <g id="text_34">
     <!-- selection (hz) -->
     <g transform="translate(475.152159 162.146391)rotate(-90)scale(0.162 -0.162)">
      <use xlink:href="#DejaVuSans-73"/>
      <use xlink:href="#DejaVuSans-65" x="52.099609"/>
      <use xlink:href="#DejaVuSans-6c" x="113.623047"/>
      <use xlink:href="#DejaVuSans-65" x="141.40625"/>
      <use xlink:href="#DejaVuSans-63" x="202.929688"/>
      <use xlink:href="#DejaVuSans-74" x="257.910156"/>
      <use xlink:href="#DejaVuSans-69" x="297.119141"/>
      <use xlink:href="#DejaVuSans-6f" x="324.902344"/>
      <use xlink:href="#DejaVuSans-6e" x="386.083984"/>
      <use xlink:href="#DejaVuSans-20" x="449.462891"/>
      <use xlink:href="#DejaVuSans-28" x="481.25"/>
      <use xlink:href="#DejaVuSans-68" x="520.263672"/>
      <use xlink:href="#DejaVuSans-7a" x="583.642578"/>
      <use xlink:href="#DejaVuSans-29" x="636.132812"/>
     </g>
    </g>
   </g>
   <g id="line2d_35">
    <path d="M 511.789839 173.232033 
L 511.531125 173.927796 
L 509.020828 174.998505 
L 509.998149 171.580042 
L 509.422087 172.803359 
L 510.43919 156.31839 
L 508.747642 144.189247 
L 509.190544 126.309303 
L 510.902721 122.888196 
L 509.741215 124.600447 
" clip-path="url(#pdb44726430)" style="fill: none; stroke: #e7ab79; stroke-width: 3; stroke-linecap: square"/>
   </g>
   <g id="line2d_36">
    <defs>
     <path id="maa06dfff74" d="M 0 5 
C 1.326016 5 2.597899 4.473168 3.535534 3.535534 
C 4.473168 2.597899 5 1.326016 5 0 
C 5 -1.326016 4.473168 -2.597899 3.535534 -3.535534 
C 2.597899 -4.473168 1.326016 -5 0 -5 
C -1.326016 -5 -2.597899 -4.473168 -3.535534 -3.535534 
C -4.473168 -2.597899 -5 -1.326016 -5 0 
C -5 1.326016 -4.473168 2.597899 -3.535534 3.535534 
C -2.597899 4.473168 -1.326016 5 0 5 
z
" style="stroke: #e7ab79"/>
    </defs>
    <g clip-path="url(#pdb44726430)">
     <use xlink:href="#maa06dfff74" x="509.422087" y="172.803359" style="fill: #e7ab79; stroke: #e7ab79"/>
    </g>
   </g>
   <g id="line2d_37">
    <path d="M 513.273214 175.620578 
L 513.154588 176.013106 
L 512.746204 179.305118 
L 515.384008 180.159215 
L 514.161869 176.19397 
L 517.691039 175.99475 
L 519.159625 176.98234 
L 517.858705 170.354655 
L 519.801659 174.770464 
L 519.158083 170.94792 
" clip-path="url(#pdb44726430)" style="fill: none; stroke: #808080; stroke-width: 3; stroke-linecap: square"/>
   </g>
   <g id="line2d_38">
    <defs>
     <path id="mad9b7a9d07" d="M 0 5 
C 1.326016 5 2.597899 4.473168 3.535534 3.535534 
C 4.473168 2.597899 5 1.326016 5 0 
C 5 -1.326016 4.473168 -2.597899 3.535534 -3.535534 
C 2.597899 -4.473168 1.326016 -5 0 -5 
C -1.326016 -5 -2.597899 -4.473168 -3.535534 -3.535534 
C -4.473168 -2.597899 -5 -1.326016 -5 0 
C -5 1.326016 -4.473168 2.597899 -3.535534 3.535534 
C -2.597899 4.473168 -1.326016 5 0 5 
z
" style="stroke: #808080"/>
    </defs>
    <g clip-path="url(#pdb44726430)">
     <use xlink:href="#mad9b7a9d07" x="514.161869" y="176.19397" style="fill: #808080; stroke: #808080"/>
    </g>
   </g>
   <g id="patch_12">
    <path d="M 495.469565 189 
L 495.469565 25.92 
" style="fill: none; stroke: #000000; stroke-width: 1.875; stroke-linejoin: miter; stroke-linecap: square"/>
   </g>
   <g id="patch_13">
    <path d="M 495.469565 189 
L 653.165217 189 
" style="fill: none; stroke: #000000; stroke-width: 1.875; stroke-linejoin: miter; stroke-linecap: square"/>
   </g>
   <g id="text_35">
    <!-- location subspace -->
    <g transform="translate(501.345251 19.92)scale(0.162 -0.162)">
     <defs>
      <path id="DejaVuSans-62" d="M 3116 1747 
Q 3116 2381 2855 2742 
Q 2594 3103 2138 3103 
Q 1681 3103 1420 2742 
Q 1159 2381 1159 1747 
Q 1159 1113 1420 752 
Q 1681 391 2138 391 
Q 2594 391 2855 752 
Q 3116 1113 3116 1747 
z
M 1159 2969 
Q 1341 3281 1617 3432 
Q 1894 3584 2278 3584 
Q 2916 3584 3314 3078 
Q 3713 2572 3713 1747 
Q 3713 922 3314 415 
Q 2916 -91 2278 -91 
Q 1894 -91 1617 61 
Q 1341 213 1159 525 
L 1159 0 
L 581 0 
L 581 4863 
L 1159 4863 
L 1159 2969 
z
" transform="scale(0.015625)"/>
      <path id="DejaVuSans-70" d="M 1159 525 
L 1159 -1331 
L 581 -1331 
L 581 3500 
L 1159 3500 
L 1159 2969 
Q 1341 3281 1617 3432 
Q 1894 3584 2278 3584 
Q 2916 3584 3314 3078 
Q 3713 2572 3713 1747 
Q 3713 922 3314 415 
Q 2916 -91 2278 -91 
Q 1894 -91 1617 61 
Q 1341 213 1159 525 
z
M 3116 1747 
Q 3116 2381 2855 2742 
Q 2594 3103 2138 3103 
Q 1681 3103 1420 2742 
Q 1159 2381 1159 1747 
Q 1159 1113 1420 752 
Q 1681 391 2138 391 
Q 2594 391 2855 752 
Q 3116 1113 3116 1747 
z
" transform="scale(0.015625)"/>
     </defs>
     <use xlink:href="#DejaVuSans-6c"/>
     <use xlink:href="#DejaVuSans-6f" x="27.783203"/>
     <use xlink:href="#DejaVuSans-63" x="88.964844"/>
     <use xlink:href="#DejaVuSans-61" x="143.945312"/>
     <use xlink:href="#DejaVuSans-74" x="205.224609"/>
     <use xlink:href="#DejaVuSans-69" x="244.433594"/>
     <use xlink:href="#DejaVuSans-6f" x="272.216797"/>
     <use xlink:href="#DejaVuSans-6e" x="333.398438"/>
     <use xlink:href="#DejaVuSans-20" x="396.777344"/>
     <use xlink:href="#DejaVuSans-73" x="428.564453"/>
     <use xlink:href="#DejaVuSans-75" x="480.664062"/>
     <use xlink:href="#DejaVuSans-62" x="544.042969"/>
     <use xlink:href="#DejaVuSans-73" x="607.519531"/>
     <use xlink:href="#DejaVuSans-70" x="659.619141"/>
     <use xlink:href="#DejaVuSans-61" x="723.095703"/>
     <use xlink:href="#DejaVuSans-63" x="784.375"/>
     <use xlink:href="#DejaVuSans-65" x="839.355469"/>
    </g>
   </g>
  </g>
  <g id="axes_4">
   <g id="patch_14">
    <path d="M 684.704348 189 
L 842.4 189 
L 842.4 25.92 
L 684.704348 25.92 
z
" style="fill: #ffffff"/>
   </g>
   <g id="patch_15">
    <path d="M 708.999387 54.532624 
L 707.400601 62.419053 
L 705.301039 61.151526 
L 698.646201 72.940369 
L 698.589456 72.906111 
L 705.244294 61.117269 
L 703.144731 59.849742 
z
" clip-path="url(#pa130899794)" style="fill: #e7ab79; stroke: #e7ab79; stroke-linejoin: miter"/>
   </g>
   <g id="patch_16">
    <path d="M 722.912531 153.262626 
L 726.672987 160.319979 
L 724.28195 160.774754 
L 724.914241 164.329996 
L 724.849618 164.342287 
L 724.217327 160.787045 
L 721.82629 161.24182 
z
" clip-path="url(#pa130899794)" style="fill: #808080; stroke: #808080; stroke-linejoin: miter"/>
   </g>
   <g id="matplotlib.axis_7">
    <g id="xtick_18">
     <g id="line2d_39">
      <g>
       <use xlink:href="#m63be355728" x="710.986957" y="189" style="stroke: #000000; stroke-width: 1.875"/>
      </g>
     </g>
     <g id="text_36">
      <!-- 0 -->
      <g transform="translate(706.2628 203.78368)scale(0.1485 -0.1485)">
       <use xlink:href="#DejaVuSans-30"/>
      </g>
     </g>
    </g>
    <g id="xtick_19">
     <g id="line2d_40">
      <g>
       <use xlink:href="#m63be355728" x="776.693478" y="189" style="stroke: #000000; stroke-width: 1.875"/>
      </g>
     </g>
     <g id="text_37">
      <!-- 1 -->
      <g transform="translate(771.969322 203.78368)scale(0.1485 -0.1485)">
       <use xlink:href="#DejaVuSans-31"/>
      </g>
     </g>
    </g>
    <g id="xtick_20">
     <g id="line2d_41">
      <g>
       <use xlink:href="#m63be355728" x="842.4" y="189" style="stroke: #000000; stroke-width: 1.875"/>
      </g>
     </g>
     <g id="text_38">
      <!-- 2 -->
      <g transform="translate(837.675844 203.78368)scale(0.1485 -0.1485)">
       <use xlink:href="#DejaVuSans-32"/>
      </g>
     </g>
    </g>
    <g id="text_39">
     <!-- sensory (hz) -->
     <g transform="translate(713.635924 223.181484)scale(0.162 -0.162)">
      <use xlink:href="#DejaVuSans-73"/>
      <use xlink:href="#DejaVuSans-65" x="52.099609"/>
      <use xlink:href="#DejaVuSans-6e" x="113.623047"/>
      <use xlink:href="#DejaVuSans-73" x="177.001953"/>
      <use xlink:href="#DejaVuSans-6f" x="229.101562"/>
      <use xlink:href="#DejaVuSans-72" x="290.283203"/>
      <use xlink:href="#DejaVuSans-79" x="331.396484"/>
      <use xlink:href="#DejaVuSans-20" x="390.576172"/>
      <use xlink:href="#DejaVuSans-28" x="422.363281"/>
      <use xlink:href="#DejaVuSans-68" x="461.376953"/>
      <use xlink:href="#DejaVuSans-7a" x="524.755859"/>
      <use xlink:href="#DejaVuSans-29" x="577.246094"/>
     </g>
    </g>
   </g>
   <g id="matplotlib.axis_8">
    <g id="ytick_10">
     <g id="line2d_42">
      <g>
       <use xlink:href="#m1dc2232868" x="684.704348" y="161.82" style="stroke: #000000; stroke-width: 1.875"/>
      </g>
     </g>
     <g id="text_40">
      <!-- 0 -->
      <g transform="translate(671.756035 167.46184)scale(0.1485 -0.1485)">
       <use xlink:href="#DejaVuSans-30"/>
      </g>
     </g>
    </g>
    <g id="ytick_11">
     <g id="line2d_43">
      <g>
       <use xlink:href="#m1dc2232868" x="684.704348" y="93.87" style="stroke: #000000; stroke-width: 1.875"/>
      </g>
     </g>
     <g id="text_41">
      <!-- 1 -->
      <g transform="translate(671.756035 99.51184)scale(0.1485 -0.1485)">
       <use xlink:href="#DejaVuSans-31"/>
      </g>
     </g>
    </g>
    <g id="ytick_12">
     <g id="line2d_44">
      <g>
       <use xlink:href="#m1dc2232868" x="684.704348" y="25.92" style="stroke: #000000; stroke-width: 1.875"/>
      </g>
     </g>
     <g id="text_42">
      <!-- 2 -->
      <g transform="translate(671.756035 31.56184)scale(0.1485 -0.1485)">
       <use xlink:href="#DejaVuSans-32"/>
      </g>
     </g>
    </g>
   </g>
   <g id="line2d_45">
    <path d="M 708.267595 146.900256 
L 705.539115 149.438377 
L 705.75755 144.679366 
L 709.272541 155.13311 
L 707.112281 147.825194 
L 712.449416 142.619638 
L 714.708469 117.311676 
L 706.478373 82.26609 
L 698.617829 72.92324 
L 705.272666 61.134397 
" clip-path="url(#pa130899794)" style="fill: none; stroke: #e7ab79; stroke-width: 3; stroke-linecap: square"/>
   </g>
   <g id="line2d_46">
    <g clip-path="url(#pa130899794)">
     <use xlink:href="#maa06dfff74" x="707.112281" y="147.825194" style="fill: #e7ab79; stroke: #e7ab79"/>
    </g>
   </g>
   <g id="line2d_47">
    <path d="M 715.552408 166.771292 
L 707.997077 172.200382 
L 710.588961 161.885492 
L 719.03534 160.536107 
L 718.51612 164.909993 
L 718.540589 161.782502 
L 726.34289 168.167133 
L 721.325995 155.715157 
L 724.88193 164.336141 
L 724.249638 160.7809 
" clip-path="url(#pa130899794)" style="fill: none; stroke: #808080; stroke-width: 3; stroke-linecap: square"/>
   </g>
   <g id="line2d_48">
    <g clip-path="url(#pa130899794)">
     <use xlink:href="#mad9b7a9d07" x="718.51612" y="164.909993" style="fill: #808080; stroke: #808080"/>
    </g>
   </g>
   <g id="patch_17">
    <path d="M 684.704348 189 
L 684.704348 25.92 
" style="fill: none; stroke: #000000; stroke-width: 1.875; stroke-linejoin: miter; stroke-linecap: square"/>
   </g>
   <g id="patch_18">
    <path d="M 684.704348 189 
L 842.4 189 
" style="fill: none; stroke: #000000; stroke-width: 1.875; stroke-linejoin: miter; stroke-linecap: square"/>
   </g>
   <g id="text_43">
    <!-- pitch subspace -->
    <g transform="translate(702.564236 19.92)scale(0.162 -0.162)">
     <use xlink:href="#DejaVuSans-70"/>
     <use xlink:href="#DejaVuSans-69" x="63.476562"/>
     <use xlink:href="#DejaVuSans-74" x="91.259766"/>
     <use xlink:href="#DejaVuSans-63" x="130.46875"/>
     <use xlink:href="#DejaVuSans-68" x="185.449219"/>
     <use xlink:href="#DejaVuSans-20" x="248.828125"/>
     <use xlink:href="#DejaVuSans-73" x="280.615234"/>
     <use xlink:href="#DejaVuSans-75" x="332.714844"/>
     <use xlink:href="#DejaVuSans-62" x="396.09375"/>
     <use xlink:href="#DejaVuSans-73" x="459.570312"/>
     <use xlink:href="#DejaVuSans-70" x="511.669922"/>
     <use xlink:href="#DejaVuSans-61" x="575.146484"/>
     <use xlink:href="#DejaVuSans-63" x="636.425781"/>
     <use xlink:href="#DejaVuSans-65" x="691.40625"/>
    </g>
   </g>
  </g>
 </g>
 <defs>
  <clipPath id="p2ad041e4fa">
   <rect x="117" y="25.92" width="157.695652" height="163.08"/>
  </clipPath>
  <clipPath id="p23dee32329">
   <rect x="306.234783" y="25.92" width="157.695652" height="163.08"/>
  </clipPath>
  <clipPath id="pdb44726430">
   <rect x="495.469565" y="25.92" width="157.695652" height="163.08"/>
  </clipPath>
  <clipPath id="pa130899794">
   <rect x="684.704348" y="25.92" width="157.695652" height="163.08"/>
  </clipPath>
 </defs>
</svg>
