<?xml version="1.0" encoding="utf-8" standalone="no"?>
<!DOCTYPE svg PUBLIC "-//W3C//DTD SVG 1.1//EN"
  "http://www.w3.org/Graphics/SVG/1.1/DTD/svg11.dtd">
<svg xmlns:xlink="http://www.w3.org/1999/xlink" width="648pt" height="216pt" viewBox="0 0 648 216" xmlns="http://www.w3.org/2000/svg" version="1.1">
 <metadata>
  <rdf:RDF xmlns:dc="http://purl.org/dc/elements/1.1/" xmlns:cc="http://creativecommons.org/ns#" xmlns:rdf="http://www.w3.org/1999/02/22-rdf-syntax-ns#">
   <cc:Work>
    <dc:type rdf:resource="http://purl.org/dc/dcmitype/StillImage"/>
    <dc:date>2022-07-25T12:08:08.195748</dc:date>
    <dc:format>image/svg+xml</dc:format>
    <dc:creator>
     <cc:Agent>
      <dc:title>Matplotlib v3.5.2, https://matplotlib.org/</dc:title>
     </cc:Agent>
    </dc:creator>
   </cc:Work>
  </rdf:RDF>
 </metadata>
 <defs>
  <style type="text/css">*{stroke-linejoin: round; stroke-linecap: butt}</style>
 </defs>
 <g id="figure_1">
  <g id="patch_1">
   <path d="M 0 216 
L 648 216 
L 648 0 
L 0 0 
L 0 216 
z
" style="fill: none"/>
  </g>
  <g id="axes_1">
   <g id="patch_2">
    <path d="M 81 100.047273 
L 228.705882 100.047273 
L 228.705882 25.92 
L 81 25.92 
z
" style="fill: #ffffff"/>
   </g>
   <g id="matplotlib.axis_1">
    <g id="xtick_1">
     <g id="line2d_1">
      <defs>
       <path id="meaa968c6ed" d="M 0 0 
L 0 -9 
" style="stroke: #000000; stroke-width: 1.875"/>
      </defs>
      <g>
       <use xlink:href="#meaa968c6ed" x="95.770588" y="100.047273" style="stroke: #000000; stroke-width: 1.875"/>
      </g>
     </g>
     <g id="text_1">
      <!-- −0.2 -->
      <g transform="translate(77.7406 114.830952)scale(0.1485 -0.1485)">
       <defs>
        <path id="DejaVuSans-2212" d="M 678 2272 
L 4684 2272 
L 4684 1741 
L 678 1741 
L 678 2272 
z
" transform="scale(0.015625)"/>
        <path id="DejaVuSans-30" d="M 2034 4250 
Q 1547 4250 1301 3770 
Q 1056 3291 1056 2328 
Q 1056 1369 1301 889 
Q 1547 409 2034 409 
Q 2525 409 2770 889 
Q 3016 1369 3016 2328 
Q 3016 3291 2770 3770 
Q 2525 4250 2034 4250 
z
M 2034 4750 
Q 2819 4750 3233 4129 
Q 3647 3509 3647 2328 
Q 3647 1150 3233 529 
Q 2819 -91 2034 -91 
Q 1250 -91 836 529 
Q 422 1150 422 2328 
Q 422 3509 836 4129 
Q 1250 4750 2034 4750 
z
" transform="scale(0.015625)"/>
        <path id="DejaVuSans-2e" d="M 684 794 
L 1344 794 
L 1344 0 
L 684 0 
L 684 794 
z
" transform="scale(0.015625)"/>
        <path id="DejaVuSans-32" d="M 1228 531 
L 3431 531 
L 3431 0 
L 469 0 
L 469 531 
Q 828 903 1448 1529 
Q 2069 2156 2228 2338 
Q 2531 2678 2651 2914 
Q 2772 3150 2772 3378 
Q 2772 3750 2511 3984 
Q 2250 4219 1831 4219 
Q 1534 4219 1204 4116 
Q 875 4013 500 3803 
L 500 4441 
Q 881 4594 1212 4672 
Q 1544 4750 1819 4750 
Q 2544 4750 2975 4387 
Q 3406 4025 3406 3419 
Q 3406 3131 3298 2873 
Q 3191 2616 2906 2266 
Q 2828 2175 2409 1742 
Q 1991 1309 1228 531 
z
" transform="scale(0.015625)"/>
       </defs>
       <use xlink:href="#DejaVuSans-2212"/>
       <use xlink:href="#DejaVuSans-30" x="83.789062"/>
       <use xlink:href="#DejaVuSans-2e" x="147.412109"/>
       <use xlink:href="#DejaVuSans-32" x="179.199219"/>
      </g>
     </g>
    </g>
    <g id="xtick_2">
     <g id="line2d_2">
      <g>
       <use xlink:href="#meaa968c6ed" x="154.852941" y="100.047273" style="stroke: #000000; stroke-width: 1.875"/>
      </g>
     </g>
     <g id="text_2">
      <!-- 0.0 -->
      <g transform="translate(143.044871 114.830952)scale(0.1485 -0.1485)">
       <use xlink:href="#DejaVuSans-30"/>
       <use xlink:href="#DejaVuSans-2e" x="63.623047"/>
       <use xlink:href="#DejaVuSans-30" x="95.410156"/>
      </g>
     </g>
    </g>
    <g id="xtick_3">
     <g id="line2d_3">
      <g>
       <use xlink:href="#meaa968c6ed" x="213.935294" y="100.047273" style="stroke: #000000; stroke-width: 1.875"/>
      </g>
     </g>
     <g id="text_3">
      <!-- 0.2 -->
      <g transform="translate(202.127224 114.830952)scale(0.1485 -0.1485)">
       <use xlink:href="#DejaVuSans-30"/>
       <use xlink:href="#DejaVuSans-2e" x="63.623047"/>
       <use xlink:href="#DejaVuSans-32" x="95.410156"/>
      </g>
     </g>
    </g>
   </g>
   <g id="matplotlib.axis_2">
    <g id="ytick_1">
     <g id="line2d_4">
      <defs>
       <path id="m558ace186d" d="M 0 0 
L 9 0 
" style="stroke: #000000; stroke-width: 1.875"/>
      </defs>
      <g>
       <use xlink:href="#m558ace186d" x="81" y="85.606783" style="stroke: #000000; stroke-width: 1.875"/>
      </g>
     </g>
     <g id="text_4">
      <!-- 0.0 -->
      <g transform="translate(53.883859 91.248622)scale(0.1485 -0.1485)">
       <use xlink:href="#DejaVuSans-30"/>
       <use xlink:href="#DejaVuSans-2e" x="63.623047"/>
       <use xlink:href="#DejaVuSans-30" x="95.410156"/>
      </g>
     </g>
    </g>
    <g id="ytick_2">
     <g id="line2d_5">
      <g>
       <use xlink:href="#m558ace186d" x="81" y="46.881316" style="stroke: #000000; stroke-width: 1.875"/>
      </g>
     </g>
     <g id="text_5">
      <!-- 2.5 -->
      <g transform="translate(53.883859 52.523156)scale(0.1485 -0.1485)">
       <defs>
        <path id="DejaVuSans-35" d="M 691 4666 
L 3169 4666 
L 3169 4134 
L 1269 4134 
L 1269 2991 
Q 1406 3038 1543 3061 
Q 1681 3084 1819 3084 
Q 2600 3084 3056 2656 
Q 3513 2228 3513 1497 
Q 3513 744 3044 326 
Q 2575 -91 1722 -91 
Q 1428 -91 1123 -41 
Q 819 9 494 109 
L 494 744 
Q 775 591 1075 516 
Q 1375 441 1709 441 
Q 2250 441 2565 725 
Q 2881 1009 2881 1497 
Q 2881 1984 2565 2268 
Q 2250 2553 1709 2553 
Q 1456 2553 1204 2497 
Q 953 2441 691 2322 
L 691 4666 
z
" transform="scale(0.015625)"/>
       </defs>
       <use xlink:href="#DejaVuSans-32"/>
       <use xlink:href="#DejaVuSans-2e" x="63.623047"/>
       <use xlink:href="#DejaVuSans-35" x="95.410156"/>
      </g>
     </g>
    </g>
   </g>
   <g id="line2d_6">
    <path d="M -1 85.555459 
L -0.238235 85.585948 
L 14.532353 85.190949 
L 29.302941 85.595088 
L 44.073529 85.16113 
L 58.844118 85.705765 
L 73.614706 85.900089 
L 88.385294 86.644238 
L 103.155882 86.289822 
L 117.926471 86.292456 
L 132.697059 84.042738 
L 147.467647 68.591123 
L 162.238235 55.102346 
L 177.008824 47.074014 
L 191.779412 52.986696 
L 206.55 63.882028 
L 221.320588 79.185248 
L 236.091176 83.295879 
L 250.861765 83.595614 
L 265.632353 84.149234 
L 280.402941 84.351923 
L 295.173529 84.719815 
L 309.944118 84.704324 
L 324.714706 84.941634 
L 339.485294 84.299024 
L 354.255882 83.602198 
L 369.026471 82.368869 
L 383.797059 82.591231 
L 398.567647 82.030099 
L 413.338235 81.964343 
L 428.108824 81.954506 
L 442.879412 82.231781 
" clip-path="url(#p1471d6ea5d)" style="fill: none; stroke: #000000; stroke-width: 2.25; stroke-linecap: square"/>
   </g>
   <g id="line2d_7">
    <path d="M -1 85.578623 
L -0.238235 85.584554 
L 14.532353 85.257479 
L 29.302941 84.494974 
L 44.073529 84.430613 
L 58.844118 85.349491 
L 73.614706 86.329322 
L 88.385294 86.106573 
L 103.155882 85.170889 
L 117.926471 85.485417 
L 132.697059 85.897766 
L 147.467647 93.306025 
L 162.238235 95.611584 
L 177.008824 96.677851 
L 191.779412 93.506313 
L 206.55 95.87546 
L 221.320588 91.559661 
L 236.091176 86.255589 
L 250.861765 86.523414 
L 265.632353 87.882756 
L 280.402941 87.212728 
L 295.173529 87.346795 
L 309.944118 89.021517 
L 324.714706 89.665676 
L 339.485294 88.736807 
L 354.255882 89.270676 
L 369.026471 89.895163 
L 383.797059 90.57859 
L 398.567647 89.42736 
L 413.338235 89.303825 
L 428.108824 89.796878 
L 442.879412 90.240672 
" clip-path="url(#p1471d6ea5d)" style="fill: none; stroke: #ff0000; stroke-width: 2.25; stroke-linecap: square"/>
   </g>
   <g id="line2d_8">
    <path d="M -1 85.449223 
L -0.238235 85.467681 
L 14.532353 84.570721 
L 29.302941 85.837974 
L 44.073529 86.115248 
L 58.844118 86.427453 
L 73.614706 85.460943 
L 88.385294 85.54792 
L 103.155882 85.501604 
L 117.926471 85.604459 
L 132.697059 84.369039 
L 147.467647 74.8181 
L 162.238235 55.136037 
L 177.008824 34.191601 
L 191.779412 29.289421 
L 206.55 37.354465 
L 221.320588 54.497454 
L 236.091176 67.352682 
L 250.861765 73.842528 
L 265.632353 80.221697 
L 280.402941 83.021935 
L 295.173529 84.19826 
L 309.944118 85.655964 
L 324.714706 87.380874 
L 339.485294 87.012904 
L 354.255882 85.625681 
L 369.026471 84.237915 
L 383.797059 84.65127 
L 398.567647 85.421133 
L 413.338235 84.934431 
L 428.108824 84.782163 
L 442.879412 85.356151 
" clip-path="url(#p1471d6ea5d)" style="fill: none; stroke-dasharray: 8.325,3.6; stroke-dashoffset: 0; stroke: #000000; stroke-opacity: 0.5; stroke-width: 2.25"/>
   </g>
   <g id="line2d_9">
    <path d="M -1 87.809824 
L -0.238235 87.961678 
L 14.532353 88.045867 
L 29.302941 88.085987 
L 44.073529 86.381834 
L 58.844118 85.460788 
L 73.614706 85.421597 
L 88.385294 84.491876 
L 103.155882 85.179796 
L 117.926471 85.818688 
L 132.697059 85.695077 
L 147.467647 89.144354 
L 162.238235 91.389037 
L 177.008824 94.242562 
L 191.779412 94.066128 
L 206.55 96.123535 
L 221.320588 93.654632 
L 236.091176 88.65804 
L 250.861765 88.469214 
L 265.632353 87.393111 
L 280.402941 87.439117 
L 295.173529 86.836239 
L 309.944118 88.605218 
L 324.714706 89.551281 
L 339.485294 88.928111 
L 354.255882 88.741299 
L 369.026471 88.96095 
L 383.797059 88.764689 
L 398.567647 89.382903 
L 413.338235 90.107689 
L 428.108824 91.228404 
L 442.879412 92.227211 
" clip-path="url(#p1471d6ea5d)" style="fill: none; stroke-dasharray: 8.325,3.6; stroke-dashoffset: 0; stroke: #ff0000; stroke-opacity: 0.5; stroke-width: 2.25"/>
   </g>
   <g id="patch_3">
    <path d="M 81 100.047273 
L 81 25.92 
" style="fill: none; stroke: #000000; stroke-width: 1.875; stroke-linejoin: miter; stroke-linecap: square"/>
   </g>
   <g id="patch_4">
    <path d="M 228.705882 100.047273 
L 228.705882 25.92 
" style="fill: none; stroke: #000000; stroke-width: 1.875; stroke-linejoin: miter; stroke-linecap: square"/>
   </g>
   <g id="patch_5">
    <path d="M 81 100.047273 
L 228.705882 100.047273 
" style="fill: none; stroke: #000000; stroke-width: 1.875; stroke-linejoin: miter; stroke-linecap: square"/>
   </g>
   <g id="patch_6">
    <path d="M 81 25.92 
L 228.705882 25.92 
" style="fill: none; stroke: #000000; stroke-width: 1.875; stroke-linejoin: miter; stroke-linecap: square"/>
   </g>
  </g>
  <g id="axes_2">
   <g id="patch_7">
    <path d="M 258.247059 100.047273 
L 405.952941 100.047273 
L 405.952941 25.92 
L 258.247059 25.92 
z
" style="fill: #ffffff"/>
   </g>
   <g id="matplotlib.axis_3">
    <g id="xtick_4">
     <g id="line2d_10">
      <g>
       <use xlink:href="#meaa968c6ed" x="273.017647" y="100.047273" style="stroke: #000000; stroke-width: 1.875"/>
      </g>
     </g>
     <g id="text_6">
      <!-- −0.2 -->
      <g transform="translate(254.987659 114.830952)scale(0.1485 -0.1485)">
       <use xlink:href="#DejaVuSans-2212"/>
       <use xlink:href="#DejaVuSans-30" x="83.789062"/>
       <use xlink:href="#DejaVuSans-2e" x="147.412109"/>
       <use xlink:href="#DejaVuSans-32" x="179.199219"/>
      </g>
     </g>
    </g>
    <g id="xtick_5">
     <g id="line2d_11">
      <g>
       <use xlink:href="#meaa968c6ed" x="332.1" y="100.047273" style="stroke: #000000; stroke-width: 1.875"/>
      </g>
     </g>
     <g id="text_7">
      <!-- 0.0 -->
      <g transform="translate(320.29193 114.830952)scale(0.1485 -0.1485)">
       <use xlink:href="#DejaVuSans-30"/>
       <use xlink:href="#DejaVuSans-2e" x="63.623047"/>
       <use xlink:href="#DejaVuSans-30" x="95.410156"/>
      </g>
     </g>
    </g>
    <g id="xtick_6">
     <g id="line2d_12">
      <g>
       <use xlink:href="#meaa968c6ed" x="391.182353" y="100.047273" style="stroke: #000000; stroke-width: 1.875"/>
      </g>
     </g>
     <g id="text_8">
      <!-- 0.2 -->
      <g transform="translate(379.374283 114.830952)scale(0.1485 -0.1485)">
       <use xlink:href="#DejaVuSans-30"/>
       <use xlink:href="#DejaVuSans-2e" x="63.623047"/>
       <use xlink:href="#DejaVuSans-32" x="95.410156"/>
      </g>
     </g>
    </g>
   </g>
   <g id="matplotlib.axis_4">
    <g id="ytick_3">
     <g id="line2d_13">
      <g>
       <use xlink:href="#m558ace186d" x="258.247059" y="90.269535" style="stroke: #000000; stroke-width: 1.875"/>
      </g>
     </g>
     <g id="text_9">
      <!-- 0 -->
      <g transform="translate(245.298746 95.911375)scale(0.1485 -0.1485)">
       <use xlink:href="#DejaVuSans-30"/>
      </g>
     </g>
    </g>
    <g id="ytick_4">
     <g id="line2d_14">
      <g>
       <use xlink:href="#m558ace186d" x="258.247059" y="35.495732" style="stroke: #000000; stroke-width: 1.875"/>
      </g>
     </g>
     <g id="text_10">
      <!-- 5 -->
      <g transform="translate(245.298746 41.137571)scale(0.1485 -0.1485)">
       <use xlink:href="#DejaVuSans-35"/>
      </g>
     </g>
    </g>
   </g>
   <g id="line2d_15">
    <path d="M 44.073529 90.638711 
L 58.844118 90.414522 
L 73.614706 90.569586 
L 88.385294 90.969764 
L 103.155882 90.429365 
L 117.926471 90.298839 
L 132.697059 91.425263 
L 147.467647 91.473737 
L 162.238235 91.717919 
L 177.008824 92.188755 
L 191.779412 91.493182 
L 206.55 93.011238 
L 221.320588 92.366715 
L 236.091176 91.283727 
L 250.861765 89.608908 
L 265.632353 90.26488 
L 280.402941 89.950642 
L 295.173529 89.977646 
L 309.944118 89.821924 
L 324.714706 86.569674 
L 339.485294 67.879867 
L 354.255882 41.573652 
L 369.026471 29.289421 
L 383.797059 33.685622 
L 398.567647 49.147007 
L 413.338235 65.551213 
L 428.108824 74.28046 
L 442.879412 84.489475 
L 457.65 87.555493 
L 472.420588 88.561852 
L 487.191176 89.993749 
L 501.961765 91.481789 
L 516.732353 91.110587 
L 531.502941 90.11469 
L 546.273529 88.929275 
L 561.044118 88.421522 
L 575.814706 89.81568 
L 590.585294 89.484024 
L 605.355882 89.81683 
L 620.126471 89.820883 
" clip-path="url(#p82fad3f65c)" style="fill: none; stroke: #000000; stroke-width: 2.25; stroke-linecap: square"/>
   </g>
   <g id="line2d_16">
    <path d="M 44.073529 89.757236 
L 58.844118 89.688769 
L 73.614706 89.629284 
L 88.385294 89.476849 
L 103.155882 89.28043 
L 117.926471 87.082083 
L 132.697059 86.0852 
L 147.467647 89.247073 
L 162.238235 89.681374 
L 177.008824 94.018474 
L 191.779412 93.683039 
L 206.55 94.211332 
L 221.320588 92.540457 
L 236.091176 90.982526 
L 250.861765 89.496677 
L 265.632353 88.156307 
L 280.402941 89.739215 
L 295.173529 90.417808 
L 309.944118 89.982959 
L 324.714706 89.444478 
L 339.485294 91.526265 
L 354.255882 93.160825 
L 369.026471 93.337526 
L 383.797059 92.986261 
L 398.567647 92.042125 
L 413.338235 91.277264 
L 428.108824 92.913576 
L 442.879412 90.918112 
L 457.65 91.972727 
L 472.420588 91.647206 
L 487.191176 93.472872 
L 501.961765 93.922072 
L 516.732353 93.06163 
L 531.502941 92.25169 
L 546.273529 91.91379 
L 561.044118 92.004441 
L 575.814706 93.825889 
L 590.585294 94.98671 
L 605.355882 95.994329 
L 620.126471 96.677851 
" clip-path="url(#p82fad3f65c)" style="fill: none; stroke: #ff0000; stroke-width: 2.25; stroke-linecap: square"/>
   </g>
   <g id="line2d_17">
    <path d="M 44.073529 90.617513 
L 58.844118 90.446017 
L 73.614706 90.550032 
L 88.385294 90.246914 
L 103.155882 90.077553 
L 117.926471 90.22484 
L 132.697059 90.599547 
L 147.467647 90.699784 
L 162.238235 90.197398 
L 177.008824 90.29862 
L 191.779412 89.894006 
L 206.55 90.335647 
L 221.320588 90.298018 
L 236.091176 90.411345 
L 250.861765 90.105214 
L 265.632353 90.145089 
L 280.402941 90.013084 
L 295.173529 90.015878 
L 309.944118 89.664011 
L 324.714706 86.251932 
L 339.485294 78.630321 
L 354.255882 70.270908 
L 369.026471 68.083516 
L 383.797059 71.355648 
L 398.567647 77.93683 
L 413.338235 83.38036 
L 428.108824 85.731197 
L 442.879412 88.312522 
L 457.65 89.225163 
L 472.420588 89.622547 
L 487.191176 90.20775 
L 501.961765 90.939857 
L 516.732353 90.97064 
L 531.502941 90.595056 
L 546.273529 90.058656 
L 561.044118 90.010839 
L 575.814706 90.336524 
L 590.585294 89.859772 
L 605.355882 89.683784 
L 620.126471 89.545809 
" clip-path="url(#p82fad3f65c)" style="fill: none; stroke-dasharray: 8.325,3.6; stroke-dashoffset: 0; stroke: #000000; stroke-opacity: 0.5; stroke-width: 2.25"/>
   </g>
   <g id="line2d_18">
    <path d="M 44.073529 89.800124 
L 58.844118 89.826032 
L 73.614706 90.077279 
L 88.385294 89.714786 
L 103.155882 90.125699 
L 117.926471 89.477561 
L 132.697059 89.343913 
L 147.467647 90.111294 
L 162.238235 90.292431 
L 177.008824 91.091416 
L 191.779412 91.025797 
L 206.55 91.035766 
L 221.320588 90.557098 
L 236.091176 90.043812 
L 250.861765 90.063914 
L 265.632353 89.681484 
L 280.402941 90.111622 
L 295.173529 90.236726 
L 309.944118 90.351313 
L 324.714706 91.547189 
L 339.485294 92.527476 
L 354.255882 93.8352 
L 369.026471 93.67433 
L 383.797059 94.408244 
L 398.567647 93.398544 
L 413.338235 91.454019 
L 428.108824 91.515475 
L 442.879412 90.906062 
L 457.65 90.927752 
L 472.420588 90.650213 
L 487.191176 91.265706 
L 501.961765 91.662214 
L 516.732353 91.48031 
L 531.502941 91.508354 
L 546.273529 91.559951 
L 561.044118 91.383251 
L 575.814706 91.600101 
L 590.585294 91.973165 
L 605.355882 92.370823 
L 620.126471 92.475605 
" clip-path="url(#p82fad3f65c)" style="fill: none; stroke-dasharray: 8.325,3.6; stroke-dashoffset: 0; stroke: #ff0000; stroke-opacity: 0.5; stroke-width: 2.25"/>
   </g>
   <g id="patch_8">
    <path d="M 258.247059 100.047273 
L 258.247059 25.92 
" style="fill: none; stroke: #000000; stroke-width: 1.875; stroke-linejoin: miter; stroke-linecap: square"/>
   </g>
   <g id="patch_9">
    <path d="M 405.952941 100.047273 
L 405.952941 25.92 
" style="fill: none; stroke: #000000; stroke-width: 1.875; stroke-linejoin: miter; stroke-linecap: square"/>
   </g>
   <g id="patch_10">
    <path d="M 258.247059 100.047273 
L 405.952941 100.047273 
" style="fill: none; stroke: #000000; stroke-width: 1.875; stroke-linejoin: miter; stroke-linecap: square"/>
   </g>
   <g id="patch_11">
    <path d="M 258.247059 25.92 
L 405.952941 25.92 
" style="fill: none; stroke: #000000; stroke-width: 1.875; stroke-linejoin: miter; stroke-linecap: square"/>
   </g>
  </g>
  <g id="axes_3">
   <g id="patch_12">
    <path d="M 435.494118 100.047273 
L 583.2 100.047273 
L 583.2 25.92 
L 435.494118 25.92 
z
" style="fill: #ffffff"/>
   </g>
   <g id="matplotlib.axis_5">
    <g id="xtick_7">
     <g id="line2d_19">
      <g>
       <use xlink:href="#meaa968c6ed" x="450.264706" y="100.047273" style="stroke: #000000; stroke-width: 1.875"/>
      </g>
     </g>
     <g id="text_11">
      <!-- −0.2 -->
      <g transform="translate(432.234718 114.830952)scale(0.1485 -0.1485)">
       <use xlink:href="#DejaVuSans-2212"/>
       <use xlink:href="#DejaVuSans-30" x="83.789062"/>
       <use xlink:href="#DejaVuSans-2e" x="147.412109"/>
       <use xlink:href="#DejaVuSans-32" x="179.199219"/>
      </g>
     </g>
    </g>
    <g id="xtick_8">
     <g id="line2d_20">
      <g>
       <use xlink:href="#meaa968c6ed" x="509.347059" y="100.047273" style="stroke: #000000; stroke-width: 1.875"/>
      </g>
     </g>
     <g id="text_12">
      <!-- 0.0 -->
      <g transform="translate(497.538989 114.830952)scale(0.1485 -0.1485)">
       <use xlink:href="#DejaVuSans-30"/>
       <use xlink:href="#DejaVuSans-2e" x="63.623047"/>
       <use xlink:href="#DejaVuSans-30" x="95.410156"/>
      </g>
     </g>
    </g>
    <g id="xtick_9">
     <g id="line2d_21">
      <g>
       <use xlink:href="#meaa968c6ed" x="568.429412" y="100.047273" style="stroke: #000000; stroke-width: 1.875"/>
      </g>
     </g>
     <g id="text_13">
      <!-- 0.2 -->
      <g transform="translate(556.621341 114.830952)scale(0.1485 -0.1485)">
       <use xlink:href="#DejaVuSans-30"/>
       <use xlink:href="#DejaVuSans-2e" x="63.623047"/>
       <use xlink:href="#DejaVuSans-32" x="95.410156"/>
      </g>
     </g>
    </g>
   </g>
   <g id="matplotlib.axis_6">
    <g id="ytick_5">
     <g id="line2d_22">
      <g>
       <use xlink:href="#m558ace186d" x="435.494118" y="83.211912" style="stroke: #000000; stroke-width: 1.875"/>
      </g>
     </g>
     <g id="text_14">
      <!-- 0 -->
      <g transform="translate(422.545805 88.853752)scale(0.1485 -0.1485)">
       <use xlink:href="#DejaVuSans-30"/>
      </g>
     </g>
    </g>
    <g id="ytick_6">
     <g id="line2d_23">
      <g>
       <use xlink:href="#m558ace186d" x="435.494118" y="36.130678" style="stroke: #000000; stroke-width: 1.875"/>
      </g>
     </g>
     <g id="text_15">
      <!-- 2 -->
      <g transform="translate(422.545805 41.772518)scale(0.1485 -0.1485)">
       <use xlink:href="#DejaVuSans-32"/>
      </g>
     </g>
    </g>
   </g>
   <g id="line2d_24">
    <path d="M 221.320588 83.574555 
L 236.091176 83.529593 
L 250.861765 83.168244 
L 265.632353 81.553829 
L 280.402941 82.411766 
L 295.173529 83.492163 
L 309.944118 84.04831 
L 324.714706 83.053955 
L 339.485294 80.653518 
L 354.255882 80.268746 
L 369.026471 79.68953 
L 383.797059 80.593136 
L 398.567647 82.184129 
L 413.338235 83.496871 
L 428.108824 82.906002 
L 442.879412 80.880214 
L 457.65 82.000983 
L 472.420588 82.969091 
L 487.191176 82.202137 
L 501.961765 81.809833 
L 516.732353 79.408572 
L 531.502941 78.210002 
L 546.273529 78.2931 
L 561.044118 78.328058 
L 575.814706 78.583827 
L 590.585294 80.603847 
L 605.355882 84.447441 
L 620.126471 82.275702 
L 634.897059 83.902947 
L 649 83.396213 
" clip-path="url(#pf3f25d9449)" style="fill: none; stroke: #000000; stroke-width: 2.25; stroke-linecap: square"/>
   </g>
   <g id="line2d_25">
    <path d="M 221.320588 82.486155 
L 236.091176 82.134811 
L 250.861765 83.289831 
L 265.632353 82.603269 
L 280.402941 84.33374 
L 295.173529 82.63399 
L 309.944118 83.473331 
L 324.714706 83.359865 
L 339.485294 84.066907 
L 354.255882 82.583024 
L 369.026471 84.342568 
L 383.797059 84.3973 
L 398.567647 84.344922 
L 413.338235 83.120339 
L 428.108824 83.578204 
L 442.879412 83.230745 
L 457.65 83.955089 
L 472.420588 82.96144 
L 487.191176 83.561726 
L 501.961765 83.993107 
L 516.732353 83.922603 
L 531.502941 88.594239 
L 546.273529 91.687594 
L 561.044118 95.771302 
L 575.814706 96.677851 
L 590.585294 90.652513 
L 605.355882 85.333628 
L 620.126471 83.016643 
L 634.897059 82.496395 
L 649 81.429208 
" clip-path="url(#pf3f25d9449)" style="fill: none; stroke: #ff0000; stroke-width: 2.25; stroke-linecap: square"/>
   </g>
   <g id="line2d_26">
    <path d="M 221.320588 83.539362 
L 236.091176 83.345387 
L 250.861765 83.434253 
L 265.632353 83.210853 
L 280.402941 82.869867 
L 295.173529 83.018644 
L 309.944118 84.021945 
L 324.714706 84.037481 
L 339.485294 82.667182 
L 354.255882 82.82255 
L 369.026471 82.020639 
L 383.797059 83.28736 
L 398.567647 83.478156 
L 413.338235 83.669424 
L 428.108824 82.442487 
L 442.879412 82.701434 
L 457.65 82.64423 
L 472.420588 83.041007 
L 487.191176 81.748392 
L 501.961765 72.092031 
L 516.732353 53.168788 
L 531.502941 33.407617 
L 546.273529 29.289421 
L 561.044118 37.017688 
L 575.814706 53.818862 
L 590.585294 66.233477 
L 605.355882 72.645706 
L 620.126471 78.52474 
L 634.897059 80.714723 
L 649 81.618169 
" clip-path="url(#pf3f25d9449)" style="fill: none; stroke-dasharray: 8.325,3.6; stroke-dashoffset: 0; stroke: #000000; stroke-opacity: 0.5; stroke-width: 2.25"/>
   </g>
   <g id="line2d_27">
    <path d="M 221.320588 82.433895 
L 236.091176 82.922245 
L 250.861765 83.172011 
L 265.632353 82.146581 
L 280.402941 83.041007 
L 295.173529 81.101731 
L 309.944118 81.472143 
L 324.714706 83.569141 
L 339.485294 84.054902 
L 354.255882 86.026546 
L 369.026471 86.436388 
L 383.797059 86.332809 
L 398.567647 84.996291 
L 413.338235 83.011699 
L 428.108824 82.740158 
L 442.879412 81.827959 
L 457.65 83.155768 
L 472.420588 83.46568 
L 487.191176 83.577969 
L 501.961765 87.105412 
L 516.732353 89.124138 
L 531.502941 92.464081 
L 546.273529 91.872034 
L 561.044118 93.899823 
L 575.814706 91.240557 
L 590.585294 86.137893 
L 605.355882 85.668375 
L 620.126471 84.546194 
L 634.897059 84.66119 
L 649 84.128608 
" clip-path="url(#pf3f25d9449)" style="fill: none; stroke-dasharray: 8.325,3.6; stroke-dashoffset: 0; stroke: #ff0000; stroke-opacity: 0.5; stroke-width: 2.25"/>
   </g>
   <g id="patch_13">
    <path d="M 435.494118 100.047273 
L 435.494118 25.92 
" style="fill: none; stroke: #000000; stroke-width: 1.875; stroke-linejoin: miter; stroke-linecap: square"/>
   </g>
   <g id="patch_14">
    <path d="M 583.2 100.047273 
L 583.2 25.92 
" style="fill: none; stroke: #000000; stroke-width: 1.875; stroke-linejoin: miter; stroke-linecap: square"/>
   </g>
   <g id="patch_15">
    <path d="M 435.494118 100.047273 
L 583.2 100.047273 
" style="fill: none; stroke: #000000; stroke-width: 1.875; stroke-linejoin: miter; stroke-linecap: square"/>
   </g>
   <g id="patch_16">
    <path d="M 435.494118 25.92 
L 583.2 25.92 
" style="fill: none; stroke: #000000; stroke-width: 1.875; stroke-linejoin: miter; stroke-linecap: square"/>
   </g>
  </g>
 </g>
 <defs>
  <clipPath id="p1471d6ea5d">
   <rect x="81" y="25.92" width="147.705882" height="74.127273"/>
  </clipPath>
  <clipPath id="p82fad3f65c">
   <rect x="258.247059" y="25.92" width="147.705882" height="74.127273"/>
  </clipPath>
  <clipPath id="pf3f25d9449">
   <rect x="435.494118" y="25.92" width="147.705882" height="74.127273"/>
  </clipPath>
 </defs>
</svg>
