<?xml version="1.0" encoding="utf-8" standalone="no"?>
<!DOCTYPE svg PUBLIC "-//W3C//DTD SVG 1.1//EN"
  "http://www.w3.org/Graphics/SVG/1.1/DTD/svg11.dtd">
<svg xmlns:xlink="http://www.w3.org/1999/xlink" width="72pt" height="216pt" viewBox="0 0 72 216" xmlns="http://www.w3.org/2000/svg" version="1.1">
 <metadata>
  <rdf:RDF xmlns:dc="http://purl.org/dc/elements/1.1/" xmlns:cc="http://creativecommons.org/ns#" xmlns:rdf="http://www.w3.org/1999/02/22-rdf-syntax-ns#">
   <cc:Work>
    <dc:type rdf:resource="http://purl.org/dc/dcmitype/StillImage"/>
    <dc:date>2023-05-03T13:23:27.372496</dc:date>
    <dc:format>image/svg+xml</dc:format>
    <dc:creator>
     <cc:Agent>
      <dc:title>Matplotlib v3.5.2, https://matplotlib.org/</dc:title>
     </cc:Agent>
    </dc:creator>
   </cc:Work>
  </rdf:RDF>
 </metadata>
 <defs>
  <style type="text/css">*{stroke-linejoin: round; stroke-linecap: butt}</style>
 </defs>
 <g id="figure_1">
  <g id="patch_1">
   <path d="M 0 216 
L 72 216 
L 72 0 
L 0 0 
z
" style="fill: #ffffff"/>
  </g>
  <g id="axes_1">
   <g id="patch_2">
    <path d="M 9 192.24 
L 64.8 192.24 
L 64.8 25.92 
L 9 25.92 
z
" style="fill: #ffffff"/>
   </g>
   <g id="PolyCollection_1">
    <path d="M 38.026206 86.97893 
L 35.773794 86.97893 
L 35.63036 86.277382 
L 35.494456 85.575834 
L 35.366108 84.874286 
L 35.242065 84.172738 
L 35.115508 83.47119 
L 34.976201 82.769643 
L 34.811113 82.068095 
L 34.605467 81.366547 
L 34.344105 80.664999 
L 34.012998 79.963451 
L 33.600716 79.261903 
L 33.099665 78.560355 
L 32.506934 77.858807 
L 31.824657 77.157259 
L 31.059833 76.455712 
L 30.223599 75.754164 
L 29.330015 75.052616 
L 28.394466 74.351068 
L 27.431842 73.64952 
L 26.454773 72.947972 
L 25.472219 72.246424 
L 24.488754 71.544876 
L 23.504813 70.843328 
L 22.517968 70.141781 
L 21.525105 69.440233 
L 20.525058 68.738685 
L 19.521074 68.037137 
L 18.522433 67.335589 
L 17.54465 66.634041 
L 16.60803 65.932493 
L 15.734737 65.230945 
L 14.945005 64.529398 
L 14.253372 63.82785 
L 13.665939 63.126302 
L 13.17943 62.424754 
L 12.782438 61.723206 
L 12.458638 61.021658 
L 12.191256 60.32011 
L 11.967641 59.618562 
L 11.782747 58.917014 
L 11.640541 58.215467 
L 11.552918 57.513919 
L 11.536364 56.812371 
L 11.607267 56.110823 
L 11.777159 55.409275 
L 12.049153 54.707727 
L 12.416536 54.006179 
L 12.863749 53.304631 
L 13.36938 52.603083 
L 13.910215 51.901536 
L 14.465238 51.199988 
L 15.018626 50.49844 
L 15.56122 49.796892 
L 16.090447 49.095344 
L 16.609068 48.393796 
L 17.123277 47.692248 
L 17.640675 46.9907 
L 18.168452 46.289153 
L 18.711946 45.587605 
L 19.27366 44.886057 
L 19.852788 44.184509 
L 20.445326 43.482961 
L 21.044798 42.781413 
L 21.643552 42.079865 
L 22.234396 41.378317 
L 22.812199 40.676769 
L 23.375054 39.975222 
L 23.924642 39.273674 
L 24.465704 38.572126 
L 25.004769 37.870578 
L 25.548521 37.16903 
L 26.102313 36.467482 
L 26.669206 35.765934 
L 27.249751 35.064386 
L 27.842427 34.362838 
L 28.444434 33.661291 
L 29.052449 32.959743 
L 29.663063 32.258195 
L 30.272767 31.556647 
L 30.877597 30.855099 
L 31.472731 30.153551 
L 32.052284 29.452003 
L 32.609511 28.750455 
L 33.137397 28.048908 
L 33.629479 27.34736 
L 34.080628 26.645812 
L 34.487579 25.944264 
L 34.849086 25.242716 
L 35.165727 24.541168 
L 35.439484 23.83962 
L 35.673276 23.138072 
L 35.870575 22.436524 
L 36.035163 21.734977 
L 36.171029 21.033429 
L 36.282313 20.331881 
L 36.373241 19.630333 
L 36.447985 18.928785 
L 36.510453 18.227237 
L 36.564045 17.525689 
L 37.235955 17.525689 
L 37.235955 17.525689 
L 37.289547 18.227237 
L 37.352015 18.928785 
L 37.426759 19.630333 
L 37.517687 20.331881 
L 37.628971 21.033429 
L 37.764837 21.734977 
L 37.929425 22.436524 
L 38.126724 23.138072 
L 38.360516 23.83962 
L 38.634273 24.541168 
L 38.950914 25.242716 
L 39.312421 25.944264 
L 39.719372 26.645812 
L 40.170521 27.34736 
L 40.662603 28.048908 
L 41.190489 28.750455 
L 41.747716 29.452003 
L 42.327269 30.153551 
L 42.922403 30.855099 
L 43.527233 31.556647 
L 44.136937 32.258195 
L 44.747551 32.959743 
L 45.355566 33.661291 
L 45.957573 34.362838 
L 46.550249 35.064386 
L 47.130794 35.765934 
L 47.697687 36.467482 
L 48.251479 37.16903 
L 48.795231 37.870578 
L 49.334296 38.572126 
L 49.875358 39.273674 
L 50.424946 39.975222 
L 50.987801 40.676769 
L 51.565604 41.378317 
L 52.156448 42.079865 
L 52.755202 42.781413 
L 53.354674 43.482961 
L 53.947212 44.184509 
L 54.52634 44.886057 
L 55.088054 45.587605 
L 55.631548 46.289153 
L 56.159325 46.9907 
L 56.676723 47.692248 
L 57.190932 48.393796 
L 57.709553 49.095344 
L 58.23878 49.796892 
L 58.781374 50.49844 
L 59.334762 51.199988 
L 59.889785 51.901536 
L 60.43062 52.603083 
L 60.936251 53.304631 
L 61.383464 54.006179 
L 61.750847 54.707727 
L 62.022841 55.409275 
L 62.192733 56.110823 
L 62.263636 56.812371 
L 62.247082 57.513919 
L 62.159459 58.215467 
L 62.017253 58.917014 
L 61.832359 59.618562 
L 61.608744 60.32011 
L 61.341362 61.021658 
L 61.017562 61.723206 
L 60.62057 62.424754 
L 60.134061 63.126302 
L 59.546628 63.82785 
L 58.854995 64.529398 
L 58.065263 65.230945 
L 57.19197 65.932493 
L 56.25535 66.634041 
L 55.277567 67.335589 
L 54.278926 68.037137 
L 53.274942 68.738685 
L 52.274895 69.440233 
L 51.282032 70.141781 
L 50.295187 70.843328 
L 49.311246 71.544876 
L 48.327781 72.246424 
L 47.345227 72.947972 
L 46.368158 73.64952 
L 45.405534 74.351068 
L 44.469985 75.052616 
L 43.576401 75.754164 
L 42.740167 76.455712 
L 41.975343 77.157259 
L 41.293066 77.858807 
L 40.700335 78.560355 
L 40.199284 79.261903 
L 39.787002 79.963451 
L 39.455895 80.664999 
L 39.194533 81.366547 
L 38.988887 82.068095 
L 38.823799 82.769643 
L 38.684492 83.47119 
L 38.557935 84.172738 
L 38.433892 84.874286 
L 38.305544 85.575834 
L 38.16964 86.277382 
L 38.026206 86.97893 
z
" clip-path="url(#p6ef2167698)" style="fill: #1f77b4; fill-opacity: 0.3"/>
   </g>
   <g id="PolyCollection_2">
    <path d="M 37.682349 49.665675 
L 36.117651 49.665675 
L 36.07882 49.209967 
L 36.046397 48.754258 
L 36.01902 48.29855 
L 35.995027 47.842842 
L 35.972758 47.387133 
L 35.950839 46.931425 
L 35.92839 46.475716 
L 35.905127 46.020008 
L 35.881339 45.564299 
L 35.857757 45.108591 
L 35.83533 44.652882 
L 35.814936 44.197174 
L 35.797068 43.741465 
L 35.781499 43.285757 
L 35.766945 42.830049 
L 35.750748 42.37434 
L 35.728575 41.918632 
L 35.694169 41.462923 
L 35.639201 41.007215 
L 35.553258 40.551506 
L 35.424019 40.095798 
L 35.237669 39.640089 
L 34.979547 39.184381 
L 34.63501 38.728672 
L 34.190446 38.272964 
L 33.634344 37.817256 
L 32.958292 37.361547 
L 32.157796 36.905839 
L 31.232827 36.45013 
L 30.188032 35.994422 
L 29.032618 35.538713 
L 27.779956 35.083005 
L 26.446994 34.627296 
L 25.05358 34.171588 
L 23.621789 33.715879 
L 22.175314 33.260171 
L 20.738917 32.804463 
L 19.33789 32.348754 
L 17.997452 31.893046 
L 16.741982 31.437337 
L 15.594044 30.981629 
L 14.573219 30.52592 
L 13.694843 30.070212 
L 12.968839 29.614503 
L 12.398865 29.158795 
L 11.98201 28.703086 
L 11.709207 28.247378 
L 11.566399 27.79167 
L 11.536364 27.335961 
L 11.600952 26.880253 
L 11.743385 26.424544 
L 11.950221 25.968836 
L 12.212648 25.513127 
L 12.526889 25.057419 
L 12.893664 24.60171 
L 13.316855 24.146002 
L 13.801666 23.690294 
L 14.35264 23.234585 
L 14.971925 22.778877 
L 15.658058 22.323168 
L 16.405439 21.86746 
L 17.204498 21.411751 
L 18.042436 20.956043 
L 18.904359 20.500334 
L 19.77457 20.044626 
L 20.63787 19.588917 
L 21.480706 19.133209 
L 22.292123 18.677501 
L 23.064455 18.221792 
L 23.793754 17.766084 
L 24.479913 17.310375 
L 25.126454 16.854667 
L 25.739972 16.398958 
L 26.329229 15.94325 
L 26.90398 15.487541 
L 27.47365 15.031833 
L 28.046044 14.576124 
L 28.626259 14.120416 
L 29.215982 13.664708 
L 29.813274 13.208999 
L 30.412849 12.753291 
L 31.006801 12.297582 
L 31.585629 11.841874 
L 32.139403 11.386165 
L 32.658876 10.930457 
L 33.136416 10.474748 
L 33.566645 10.01904 
L 33.946766 9.563331 
L 34.276577 9.107623 
L 34.558237 8.651915 
L 34.795849 8.196206 
L 34.994939 7.740498 
L 35.161902 7.284789 
L 35.303463 6.829081 
L 35.426185 6.373372 
L 35.536068 5.917664 
L 35.63822 5.461955 
L 35.73664 5.006247 
L 35.834098 4.550538 
L 37.965902 4.550538 
L 37.965902 4.550538 
L 38.06336 5.006247 
L 38.16178 5.461955 
L 38.263932 5.917664 
L 38.373815 6.373372 
L 38.496537 6.829081 
L 38.638098 7.284789 
L 38.805061 7.740498 
L 39.004151 8.196206 
L 39.241763 8.651915 
L 39.523423 9.107623 
L 39.853234 9.563331 
L 40.233355 10.01904 
L 40.663584 10.474748 
L 41.141124 10.930457 
L 41.660597 11.386165 
L 42.214371 11.841874 
L 42.793199 12.297582 
L 43.387151 12.753291 
L 43.986726 13.208999 
L 44.584018 13.664708 
L 45.173741 14.120416 
L 45.753956 14.576124 
L 46.32635 15.031833 
L 46.89602 15.487541 
L 47.470771 15.94325 
L 48.060028 16.398958 
L 48.673546 16.854667 
L 49.320087 17.310375 
L 50.006246 17.766084 
L 50.735545 18.221792 
L 51.507877 18.677501 
L 52.319294 19.133209 
L 53.16213 19.588917 
L 54.02543 20.044626 
L 54.895641 20.500334 
L 55.757564 20.956043 
L 56.595502 21.411751 
L 57.394561 21.86746 
L 58.141942 22.323168 
L 58.828075 22.778877 
L 59.44736 23.234585 
L 59.998334 23.690294 
L 60.483145 24.146002 
L 60.906336 24.60171 
L 61.273111 25.057419 
L 61.587352 25.513127 
L 61.849779 25.968836 
L 62.056615 26.424544 
L 62.199048 26.880253 
L 62.263636 27.335961 
L 62.233601 27.79167 
L 62.090793 28.247378 
L 61.81799 28.703086 
L 61.401135 29.158795 
L 60.831161 29.614503 
L 60.105157 30.070212 
L 59.226781 30.52592 
L 58.205956 30.981629 
L 57.058018 31.437337 
L 55.802548 31.893046 
L 54.46211 32.348754 
L 53.061083 32.804463 
L 51.624686 33.260171 
L 50.178211 33.715879 
L 48.74642 34.171588 
L 47.353006 34.627296 
L 46.020044 35.083005 
L 44.767382 35.538713 
L 43.611968 35.994422 
L 42.567173 36.45013 
L 41.642204 36.905839 
L 40.841708 37.361547 
L 40.165656 37.817256 
L 39.609554 38.272964 
L 39.16499 38.728672 
L 38.820453 39.184381 
L 38.562331 39.640089 
L 38.375981 40.095798 
L 38.246742 40.551506 
L 38.160799 41.007215 
L 38.105831 41.462923 
L 38.071425 41.918632 
L 38.049252 42.37434 
L 38.033055 42.830049 
L 38.018501 43.285757 
L 38.002932 43.741465 
L 37.985064 44.197174 
L 37.96467 44.652882 
L 37.942243 45.108591 
L 37.918661 45.564299 
L 37.894873 46.020008 
L 37.87161 46.475716 
L 37.849161 46.931425 
L 37.827242 47.387133 
L 37.804973 47.842842 
L 37.78098 48.29855 
L 37.753603 48.754258 
L 37.72118 49.209967 
L 37.682349 49.665675 
z
" clip-path="url(#p6ef2167698)" style="fill: #808080; fill-opacity: 0.3"/>
   </g>
   <g id="matplotlib.axis_1"/>
   <g id="matplotlib.axis_2">
    <g id="ytick_1">
     <g id="line2d_1">
      <defs>
       <path id="mb148c4709b" d="M 0 0 
L 9 0 
" style="stroke: #000000; stroke-width: 1.875"/>
      </defs>
      <g>
       <use xlink:href="#mb148c4709b" x="9" y="192.24" style="stroke: #000000; stroke-width: 1.875"/>
      </g>
     </g>
     <g id="text_1">
      <!-- 0 -->
      <g transform="translate(-3.948313 197.88184)scale(0.1485 -0.1485)">
       <defs>
        <path id="DejaVuSans-30" d="M 2034 4250 
Q 1547 4250 1301 3770 
Q 1056 3291 1056 2328 
Q 1056 1369 1301 889 
Q 1547 409 2034 409 
Q 2525 409 2770 889 
Q 3016 1369 3016 2328 
Q 3016 3291 2770 3770 
Q 2525 4250 2034 4250 
z
M 2034 4750 
Q 2819 4750 3233 4129 
Q 3647 3509 3647 2328 
Q 3647 1150 3233 529 
Q 2819 -91 2034 -91 
Q 1250 -91 836 529 
Q 422 1150 422 2328 
Q 422 3509 836 4129 
Q 1250 4750 2034 4750 
z
" transform="scale(0.015625)"/>
       </defs>
       <use xlink:href="#DejaVuSans-30"/>
      </g>
     </g>
    </g>
    <g id="ytick_2">
     <g id="line2d_2">
      <g>
       <use xlink:href="#mb148c4709b" x="9" y="55.488" style="stroke: #000000; stroke-width: 1.875"/>
      </g>
     </g>
     <g id="text_2">
      <!-- 74 -->
      <g transform="translate(-13.396625 61.12984)scale(0.1485 -0.1485)">
       <defs>
        <path id="DejaVuSans-37" d="M 525 4666 
L 3525 4666 
L 3525 4397 
L 1831 0 
L 1172 0 
L 2766 4134 
L 525 4134 
L 525 4666 
z
" transform="scale(0.015625)"/>
        <path id="DejaVuSans-34" d="M 2419 4116 
L 825 1625 
L 2419 1625 
L 2419 4116 
z
M 2253 4666 
L 3047 4666 
L 3047 1625 
L 3713 1625 
L 3713 1100 
L 3047 1100 
L 3047 0 
L 2419 0 
L 2419 1100 
L 313 1100 
L 313 1709 
L 2253 4666 
z
" transform="scale(0.015625)"/>
       </defs>
       <use xlink:href="#DejaVuSans-37"/>
       <use xlink:href="#DejaVuSans-34" x="63.623047"/>
      </g>
     </g>
    </g>
    <g id="ytick_3">
     <g id="line2d_3">
      <g>
       <use xlink:href="#mb148c4709b" x="9" y="25.92" style="stroke: #000000; stroke-width: 1.875"/>
      </g>
     </g>
     <g id="text_3">
      <!-- 90 -->
      <g transform="translate(-13.396625 31.56184)scale(0.1485 -0.1485)">
       <defs>
        <path id="DejaVuSans-39" d="M 703 97 
L 703 672 
Q 941 559 1184 500 
Q 1428 441 1663 441 
Q 2288 441 2617 861 
Q 2947 1281 2994 2138 
Q 2813 1869 2534 1725 
Q 2256 1581 1919 1581 
Q 1219 1581 811 2004 
Q 403 2428 403 3163 
Q 403 3881 828 4315 
Q 1253 4750 1959 4750 
Q 2769 4750 3195 4129 
Q 3622 3509 3622 2328 
Q 3622 1225 3098 567 
Q 2575 -91 1691 -91 
Q 1453 -91 1209 -44 
Q 966 3 703 97 
z
M 1959 2075 
Q 2384 2075 2632 2365 
Q 2881 2656 2881 3163 
Q 2881 3666 2632 3958 
Q 2384 4250 1959 4250 
Q 1534 4250 1286 3958 
Q 1038 3666 1038 3163 
Q 1038 2656 1286 2365 
Q 1534 2075 1959 2075 
z
" transform="scale(0.015625)"/>
       </defs>
       <use xlink:href="#DejaVuSans-39"/>
       <use xlink:href="#DejaVuSans-30" x="63.623047"/>
      </g>
     </g>
    </g>
    <g id="text_4">
     <!-- degrees $(\circ)$ -->
     <g transform="translate(-20.798625 155.898)rotate(-90)scale(0.162 -0.162)">
      <defs>
       <path id="DejaVuSans-64" d="M 2906 2969 
L 2906 4863 
L 3481 4863 
L 3481 0 
L 2906 0 
L 2906 525 
Q 2725 213 2448 61 
Q 2172 -91 1784 -91 
Q 1150 -91 751 415 
Q 353 922 353 1747 
Q 353 2572 751 3078 
Q 1150 3584 1784 3584 
Q 2172 3584 2448 3432 
Q 2725 3281 2906 2969 
z
M 947 1747 
Q 947 1113 1208 752 
Q 1469 391 1925 391 
Q 2381 391 2643 752 
Q 2906 1113 2906 1747 
Q 2906 2381 2643 2742 
Q 2381 3103 1925 3103 
Q 1469 3103 1208 2742 
Q 947 2381 947 1747 
z
" transform="scale(0.015625)"/>
       <path id="DejaVuSans-65" d="M 3597 1894 
L 3597 1613 
L 953 1613 
Q 991 1019 1311 708 
Q 1631 397 2203 397 
Q 2534 397 2845 478 
Q 3156 559 3463 722 
L 3463 178 
Q 3153 47 2828 -22 
Q 2503 -91 2169 -91 
Q 1331 -91 842 396 
Q 353 884 353 1716 
Q 353 2575 817 3079 
Q 1281 3584 2069 3584 
Q 2775 3584 3186 3129 
Q 3597 2675 3597 1894 
z
M 3022 2063 
Q 3016 2534 2758 2815 
Q 2500 3097 2075 3097 
Q 1594 3097 1305 2825 
Q 1016 2553 972 2059 
L 3022 2063 
z
" transform="scale(0.015625)"/>
       <path id="DejaVuSans-67" d="M 2906 1791 
Q 2906 2416 2648 2759 
Q 2391 3103 1925 3103 
Q 1463 3103 1205 2759 
Q 947 2416 947 1791 
Q 947 1169 1205 825 
Q 1463 481 1925 481 
Q 2391 481 2648 825 
Q 2906 1169 2906 1791 
z
M 3481 434 
Q 3481 -459 3084 -895 
Q 2688 -1331 1869 -1331 
Q 1566 -1331 1297 -1286 
Q 1028 -1241 775 -1147 
L 775 -588 
Q 1028 -725 1275 -790 
Q 1522 -856 1778 -856 
Q 2344 -856 2625 -561 
Q 2906 -266 2906 331 
L 2906 616 
Q 2728 306 2450 153 
Q 2172 0 1784 0 
Q 1141 0 747 490 
Q 353 981 353 1791 
Q 353 2603 747 3093 
Q 1141 3584 1784 3584 
Q 2172 3584 2450 3431 
Q 2728 3278 2906 2969 
L 2906 3500 
L 3481 3500 
L 3481 434 
z
" transform="scale(0.015625)"/>
       <path id="DejaVuSans-72" d="M 2631 2963 
Q 2534 3019 2420 3045 
Q 2306 3072 2169 3072 
Q 1681 3072 1420 2755 
Q 1159 2438 1159 1844 
L 1159 0 
L 581 0 
L 581 3500 
L 1159 3500 
L 1159 2956 
Q 1341 3275 1631 3429 
Q 1922 3584 2338 3584 
Q 2397 3584 2469 3576 
Q 2541 3569 2628 3553 
L 2631 2963 
z
" transform="scale(0.015625)"/>
       <path id="DejaVuSans-73" d="M 2834 3397 
L 2834 2853 
Q 2591 2978 2328 3040 
Q 2066 3103 1784 3103 
Q 1356 3103 1142 2972 
Q 928 2841 928 2578 
Q 928 2378 1081 2264 
Q 1234 2150 1697 2047 
L 1894 2003 
Q 2506 1872 2764 1633 
Q 3022 1394 3022 966 
Q 3022 478 2636 193 
Q 2250 -91 1575 -91 
Q 1294 -91 989 -36 
Q 684 19 347 128 
L 347 722 
Q 666 556 975 473 
Q 1284 391 1588 391 
Q 1994 391 2212 530 
Q 2431 669 2431 922 
Q 2431 1156 2273 1281 
Q 2116 1406 1581 1522 
L 1381 1569 
Q 847 1681 609 1914 
Q 372 2147 372 2553 
Q 372 3047 722 3315 
Q 1072 3584 1716 3584 
Q 2034 3584 2315 3537 
Q 2597 3491 2834 3397 
z
" transform="scale(0.015625)"/>
       <path id="DejaVuSans-20" transform="scale(0.015625)"/>
       <path id="DejaVuSans-28" d="M 1984 4856 
Q 1566 4138 1362 3434 
Q 1159 2731 1159 2009 
Q 1159 1288 1364 580 
Q 1569 -128 1984 -844 
L 1484 -844 
Q 1016 -109 783 600 
Q 550 1309 550 2009 
Q 550 2706 781 3412 
Q 1013 4119 1484 4856 
L 1984 4856 
z
" transform="scale(0.015625)"/>
       <path id="DejaVuSans-2218" d="M 2000 2619 
Q 1750 2619 1578 2445 
Q 1406 2272 1406 2022 
Q 1406 1775 1578 1605 
Q 1750 1435 2000 1435 
Q 2250 1435 2422 1605 
Q 2594 1775 2594 2022 
Q 2594 2269 2420 2444 
Q 2247 2619 2000 2619 
z
M 2000 3022 
Q 2200 3022 2384 2945 
Q 2569 2869 2703 2725 
Q 2847 2585 2919 2406 
Q 2991 2228 2991 2022 
Q 2991 1610 2702 1324 
Q 2413 1038 1994 1038 
Q 1572 1038 1290 1319 
Q 1009 1600 1009 2022 
Q 1009 2441 1296 2731 
Q 1584 3022 2000 3022 
z
" transform="scale(0.015625)"/>
       <path id="DejaVuSans-29" d="M 513 4856 
L 1013 4856 
Q 1481 4119 1714 3412 
Q 1947 2706 1947 2009 
Q 1947 1309 1714 600 
Q 1481 -109 1013 -844 
L 513 -844 
Q 928 -128 1133 580 
Q 1338 1288 1338 2009 
Q 1338 2731 1133 3434 
Q 928 4138 513 4856 
z
" transform="scale(0.015625)"/>
      </defs>
      <use xlink:href="#DejaVuSans-64" transform="translate(0 0.015625)"/>
      <use xlink:href="#DejaVuSans-65" transform="translate(63.476562 0.015625)"/>
      <use xlink:href="#DejaVuSans-67" transform="translate(125 0.015625)"/>
      <use xlink:href="#DejaVuSans-72" transform="translate(188.476562 0.015625)"/>
      <use xlink:href="#DejaVuSans-65" transform="translate(229.589844 0.015625)"/>
      <use xlink:href="#DejaVuSans-65" transform="translate(291.113281 0.015625)"/>
      <use xlink:href="#DejaVuSans-73" transform="translate(352.636719 0.015625)"/>
      <use xlink:href="#DejaVuSans-20" transform="translate(404.736328 0.015625)"/>
      <use xlink:href="#DejaVuSans-28" transform="translate(436.523438 0.015625)"/>
      <use xlink:href="#DejaVuSans-2218" transform="translate(475.537109 0.015625)"/>
      <use xlink:href="#DejaVuSans-29" transform="translate(538.134766 0.015625)"/>
     </g>
    </g>
   </g>
   <g id="patch_3">
    <path d="M 9 192.24 
L 9 25.92 
" style="fill: none; stroke: #000000; stroke-width: 1.875; stroke-linejoin: miter; stroke-linecap: square"/>
   </g>
  </g>
 </g>
 <defs>
  <clipPath id="p6ef2167698">
   <rect x="9" y="25.92" width="55.8" height="166.32"/>
  </clipPath>
 </defs>
</svg>
