<?xml version="1.0" encoding="utf-8" standalone="no"?>
<!DOCTYPE svg PUBLIC "-//W3C//DTD SVG 1.1//EN"
  "http://www.w3.org/Graphics/SVG/1.1/DTD/svg11.dtd">
<svg xmlns:xlink="http://www.w3.org/1999/xlink" width="72pt" height="216pt" viewBox="0 0 72 216" xmlns="http://www.w3.org/2000/svg" version="1.1">
 <metadata>
  <rdf:RDF xmlns:dc="http://purl.org/dc/elements/1.1/" xmlns:cc="http://creativecommons.org/ns#" xmlns:rdf="http://www.w3.org/1999/02/22-rdf-syntax-ns#">
   <cc:Work>
    <dc:type rdf:resource="http://purl.org/dc/dcmitype/StillImage"/>
    <dc:date>2023-05-03T13:23:27.409445</dc:date>
    <dc:format>image/svg+xml</dc:format>
    <dc:creator>
     <cc:Agent>
      <dc:title>Matplotlib v3.5.2, https://matplotlib.org/</dc:title>
     </cc:Agent>
    </dc:creator>
   </cc:Work>
  </rdf:RDF>
 </metadata>
 <defs>
  <style type="text/css">*{stroke-linejoin: round; stroke-linecap: butt}</style>
 </defs>
 <g id="figure_1">
  <g id="patch_1">
   <path d="M 0 216 
L 72 216 
L 72 0 
L 0 0 
z
" style="fill: #ffffff"/>
  </g>
  <g id="axes_1">
   <g id="patch_2">
    <path d="M 9 192.24 
L 64.8 192.24 
L 64.8 25.92 
L 9 25.92 
z
" style="fill: #ffffff"/>
   </g>
   <g id="PolyCollection_1">
    <path d="M 37.075143 114.85471 
L 36.724857 114.85471 
L 36.729171 114.010701 
L 36.741533 113.166693 
L 36.759957 112.322684 
L 36.781584 111.478675 
L 36.803153 110.634667 
L 36.821406 109.790658 
L 36.833306 108.946649 
L 36.836037 108.102641 
L 36.826856 107.258632 
L 36.802906 106.414623 
L 36.76111 105.570614 
L 36.6982 104.726606 
L 36.610862 103.882597 
L 36.495893 103.038588 
L 36.350254 102.19458 
L 36.170952 101.350571 
L 35.95475 100.506562 
L 35.697838 99.662553 
L 35.395641 98.818545 
L 35.042979 97.974536 
L 34.634669 97.130527 
L 34.166542 96.286519 
L 33.636664 95.44251 
L 33.046366 94.598501 
L 32.400672 93.754493 
L 31.707805 92.910484 
L 30.977758 92.066475 
L 30.220327 91.222466 
L 29.443329 90.378458 
L 28.651766 89.534449 
L 27.848354 88.69044 
L 27.035175 87.846432 
L 26.215578 87.002423 
L 25.395215 86.158414 
L 24.58145 85.314406 
L 23.781154 84.470397 
L 22.997798 83.626388 
L 22.229177 82.782379 
L 21.466899 81.938371 
L 20.698008 81.094362 
L 19.908209 80.250353 
L 19.085626 79.406345 
L 18.224003 78.562336 
L 17.324762 77.718327 
L 16.397906 76.874319 
L 15.462155 76.03031 
L 14.544621 75.186301 
L 13.679998 74.342292 
L 12.908789 73.498284 
L 12.273959 72.654275 
L 11.815726 71.810266 
L 11.564926 70.966258 
L 11.536364 70.122249 
L 11.724188 69.27824 
L 12.101277 68.434232 
L 12.623615 67.590223 
L 13.239001 66.746214 
L 13.897771 65.902205 
L 14.562308 65.058197 
L 15.212509 64.214188 
L 15.845868 63.370179 
L 16.472804 62.526171 
L 17.109464 61.682162 
L 17.770732 60.838153 
L 18.465645 59.994145 
L 19.196098 59.150136 
L 19.958364 58.306127 
L 20.746047 57.462118 
L 21.552916 56.61811 
L 22.374501 55.774101 
L 23.208163 54.930092 
L 24.052019 54.086084 
L 24.903539 53.242075 
L 25.758518 52.398066 
L 26.610753 51.554058 
L 27.452314 50.710049 
L 28.274077 49.86604 
L 29.066242 49.022031 
L 29.818828 48.178023 
L 30.522309 47.334014 
L 31.168552 46.490005 
L 31.751999 45.645997 
L 32.270732 44.801988 
L 32.726965 43.957979 
L 33.126656 43.113971 
L 33.478232 42.269962 
L 33.790829 41.425953 
L 34.0726 40.581944 
L 34.329601 39.737936 
L 34.56553 38.893927 
L 34.78225 38.049918 
L 34.980787 37.20591 
L 35.162374 36.361901 
L 35.32915 35.517892 
L 35.48431 34.673884 
L 35.631657 33.829875 
L 35.774773 32.985866 
L 35.916086 32.141857 
L 36.056197 31.297849 
L 37.743803 31.297849 
L 37.743803 31.297849 
L 37.883914 32.141857 
L 38.025227 32.985866 
L 38.168343 33.829875 
L 38.31569 34.673884 
L 38.47085 35.517892 
L 38.637626 36.361901 
L 38.819213 37.20591 
L 39.01775 38.049918 
L 39.23447 38.893927 
L 39.470399 39.737936 
L 39.7274 40.581944 
L 40.009171 41.425953 
L 40.321768 42.269962 
L 40.673344 43.113971 
L 41.073035 43.957979 
L 41.529268 44.801988 
L 42.048001 45.645997 
L 42.631448 46.490005 
L 43.277691 47.334014 
L 43.981172 48.178023 
L 44.733758 49.022031 
L 45.525923 49.86604 
L 46.347686 50.710049 
L 47.189247 51.554058 
L 48.041482 52.398066 
L 48.896461 53.242075 
L 49.747981 54.086084 
L 50.591837 54.930092 
L 51.425499 55.774101 
L 52.247084 56.61811 
L 53.053953 57.462118 
L 53.841636 58.306127 
L 54.603902 59.150136 
L 55.334355 59.994145 
L 56.029268 60.838153 
L 56.690536 61.682162 
L 57.327196 62.526171 
L 57.954132 63.370179 
L 58.587491 64.214188 
L 59.237692 65.058197 
L 59.902229 65.902205 
L 60.560999 66.746214 
L 61.176385 67.590223 
L 61.698723 68.434232 
L 62.075812 69.27824 
L 62.263636 70.122249 
L 62.235074 70.966258 
L 61.984274 71.810266 
L 61.526041 72.654275 
L 60.891211 73.498284 
L 60.120002 74.342292 
L 59.255379 75.186301 
L 58.337845 76.03031 
L 57.402094 76.874319 
L 56.475238 77.718327 
L 55.575997 78.562336 
L 54.714374 79.406345 
L 53.891791 80.250353 
L 53.101992 81.094362 
L 52.333101 81.938371 
L 51.570823 82.782379 
L 50.802202 83.626388 
L 50.018846 84.470397 
L 49.21855 85.314406 
L 48.404785 86.158414 
L 47.584422 87.002423 
L 46.764825 87.846432 
L 45.951646 88.69044 
L 45.148234 89.534449 
L 44.356671 90.378458 
L 43.579673 91.222466 
L 42.822242 92.066475 
L 42.092195 92.910484 
L 41.399328 93.754493 
L 40.753634 94.598501 
L 40.163336 95.44251 
L 39.633458 96.286519 
L 39.165331 97.130527 
L 38.757021 97.974536 
L 38.404359 98.818545 
L 38.102162 99.662553 
L 37.84525 100.506562 
L 37.629048 101.350571 
L 37.449746 102.19458 
L 37.304107 103.038588 
L 37.189138 103.882597 
L 37.1018 104.726606 
L 37.03889 105.570614 
L 36.997094 106.414623 
L 36.973144 107.258632 
L 36.963963 108.102641 
L 36.966694 108.946649 
L 36.978594 109.790658 
L 36.996847 110.634667 
L 37.018416 111.478675 
L 37.040043 112.322684 
L 37.058467 113.166693 
L 37.070829 114.010701 
L 37.075143 114.85471 
z
" clip-path="url(#p2cd5eb0cfb)" style="fill: #1f77b4; fill-opacity: 0.3"/>
   </g>
   <g id="PolyCollection_2">
    <path d="M 37.648979 48.899885 
L 36.151021 48.899885 
L 36.113281 48.553433 
L 36.080433 48.206981 
L 36.051819 47.860529 
L 36.026445 47.514077 
L 36.003052 47.167625 
L 35.980174 46.821173 
L 35.956184 46.474721 
L 35.929303 46.128268 
L 35.897606 45.781816 
L 35.859002 45.435364 
L 35.811233 45.088912 
L 35.751893 44.74246 
L 35.678493 44.396008 
L 35.588566 44.049556 
L 35.479824 43.703104 
L 35.350352 43.356652 
L 35.198806 43.0102 
L 35.024599 42.663748 
L 34.828045 42.317296 
L 34.61043 41.970844 
L 34.37399 41.624392 
L 34.121808 41.27794 
L 33.857599 40.931488 
L 33.585439 40.585036 
L 33.309435 40.238584 
L 33.033387 39.892132 
L 32.76047 39.54568 
L 32.492973 39.199228 
L 32.232119 38.852776 
L 31.97798 38.506324 
L 31.729496 38.159872 
L 31.484584 37.813419 
L 31.240317 37.466967 
L 30.993157 37.120515 
L 30.7392 36.774063 
L 30.47443 36.427611 
L 30.194929 36.081159 
L 29.897063 35.734707 
L 29.577604 35.388255 
L 29.233798 35.041803 
L 28.86337 34.695351 
L 28.464469 34.348899 
L 28.035567 34.002447 
L 27.575317 33.655995 
L 27.082398 33.309543 
L 26.555387 32.963091 
L 25.992668 32.616639 
L 25.39244 32.270187 
L 24.752824 31.923735 
L 24.072096 31.577283 
L 23.349023 31.230831 
L 22.583285 30.884379 
L 21.77593 30.537927 
L 20.929814 30.191475 
L 20.049963 29.845023 
L 19.143829 29.498571 
L 18.221392 29.152118 
L 17.295104 28.805666 
L 16.379686 28.459214 
L 15.491765 28.112762 
L 14.649406 27.76631 
L 13.871514 27.419858 
L 13.177156 27.073406 
L 12.584792 26.726954 
L 12.111446 26.380502 
L 11.77185 26.03405 
L 11.577593 25.687598 
L 11.536364 25.341146 
L 11.651341 24.994694 
L 11.920836 24.648242 
L 12.338248 24.30179 
L 12.892376 23.955338 
L 13.568109 23.608886 
L 14.347438 23.262434 
L 15.210704 22.915982 
L 16.137961 22.56953 
L 17.110285 22.223078 
L 18.110887 21.876626 
L 19.125893 21.530174 
L 20.14471 21.183722 
L 21.159952 20.837269 
L 22.166966 20.490817 
L 23.16306 20.144365 
L 24.146572 19.797913 
L 25.115946 19.451461 
L 26.068956 19.105009 
L 27.002199 18.758557 
L 27.91092 18.412105 
L 28.789175 18.065653 
L 29.630269 17.719201 
L 30.427379 17.372749 
L 31.174247 17.026297 
L 31.865813 16.679845 
L 32.498687 16.333393 
L 33.071415 15.986941 
L 33.5845 15.640489 
L 34.040199 15.294037 
L 34.442165 14.947585 
L 34.794986 14.601133 
L 39.005014 14.601133 
L 39.005014 14.601133 
L 39.357835 14.947585 
L 39.759801 15.294037 
L 40.2155 15.640489 
L 40.728585 15.986941 
L 41.301313 16.333393 
L 41.934187 16.679845 
L 42.625753 17.026297 
L 43.372621 17.372749 
L 44.169731 17.719201 
L 45.010825 18.065653 
L 45.88908 18.412105 
L 46.797801 18.758557 
L 47.731044 19.105009 
L 48.684054 19.451461 
L 49.653428 19.797913 
L 50.63694 20.144365 
L 51.633034 20.490817 
L 52.640048 20.837269 
L 53.65529 21.183722 
L 54.674107 21.530174 
L 55.689113 21.876626 
L 56.689715 22.223078 
L 57.662039 22.56953 
L 58.589296 22.915982 
L 59.452562 23.262434 
L 60.231891 23.608886 
L 60.907624 23.955338 
L 61.461752 24.30179 
L 61.879164 24.648242 
L 62.148659 24.994694 
L 62.263636 25.341146 
L 62.222407 25.687598 
L 62.02815 26.03405 
L 61.688554 26.380502 
L 61.215208 26.726954 
L 60.622844 27.073406 
L 59.928486 27.419858 
L 59.150594 27.76631 
L 58.308235 28.112762 
L 57.420314 28.459214 
L 56.504896 28.805666 
L 55.578608 29.152118 
L 54.656171 29.498571 
L 53.750037 29.845023 
L 52.870186 30.191475 
L 52.02407 30.537927 
L 51.216715 30.884379 
L 50.450977 31.230831 
L 49.727904 31.577283 
L 49.047176 31.923735 
L 48.40756 32.270187 
L 47.807332 32.616639 
L 47.244613 32.963091 
L 46.717602 33.309543 
L 46.224683 33.655995 
L 45.764433 34.002447 
L 45.335531 34.348899 
L 44.93663 34.695351 
L 44.566202 35.041803 
L 44.222396 35.388255 
L 43.902937 35.734707 
L 43.605071 36.081159 
L 43.32557 36.427611 
L 43.0608 36.774063 
L 42.806843 37.120515 
L 42.559683 37.466967 
L 42.315416 37.813419 
L 42.070504 38.159872 
L 41.82202 38.506324 
L 41.567881 38.852776 
L 41.307027 39.199228 
L 41.03953 39.54568 
L 40.766613 39.892132 
L 40.490565 40.238584 
L 40.214561 40.585036 
L 39.942401 40.931488 
L 39.678192 41.27794 
L 39.42601 41.624392 
L 39.18957 41.970844 
L 38.971955 42.317296 
L 38.775401 42.663748 
L 38.601194 43.0102 
L 38.449648 43.356652 
L 38.320176 43.703104 
L 38.211434 44.049556 
L 38.121507 44.396008 
L 38.048107 44.74246 
L 37.988767 45.088912 
L 37.940998 45.435364 
L 37.902394 45.781816 
L 37.870697 46.128268 
L 37.843816 46.474721 
L 37.819826 46.821173 
L 37.796948 47.167625 
L 37.773555 47.514077 
L 37.748181 47.860529 
L 37.719567 48.206981 
L 37.686719 48.553433 
L 37.648979 48.899885 
z
" clip-path="url(#p2cd5eb0cfb)" style="fill: #808080; fill-opacity: 0.3"/>
   </g>
   <g id="matplotlib.axis_1"/>
   <g id="matplotlib.axis_2">
    <g id="ytick_1">
     <g id="line2d_1">
      <defs>
       <path id="m82d7553f1e" d="M 0 0 
L 9 0 
" style="stroke: #000000; stroke-width: 1.875"/>
      </defs>
      <g>
       <use xlink:href="#m82d7553f1e" x="9" y="192.24" style="stroke: #000000; stroke-width: 1.875"/>
      </g>
     </g>
     <g id="text_1">
      <!-- 0 -->
      <g transform="translate(-3.948313 197.88184)scale(0.1485 -0.1485)">
       <defs>
        <path id="DejaVuSans-30" d="M 2034 4250 
Q 1547 4250 1301 3770 
Q 1056 3291 1056 2328 
Q 1056 1369 1301 889 
Q 1547 409 2034 409 
Q 2525 409 2770 889 
Q 3016 1369 3016 2328 
Q 3016 3291 2770 3770 
Q 2525 4250 2034 4250 
z
M 2034 4750 
Q 2819 4750 3233 4129 
Q 3647 3509 3647 2328 
Q 3647 1150 3233 529 
Q 2819 -91 2034 -91 
Q 1250 -91 836 529 
Q 422 1150 422 2328 
Q 422 3509 836 4129 
Q 1250 4750 2034 4750 
z
" transform="scale(0.015625)"/>
       </defs>
       <use xlink:href="#DejaVuSans-30"/>
      </g>
     </g>
    </g>
    <g id="ytick_2">
     <g id="line2d_2">
      <g>
       <use xlink:href="#m82d7553f1e" x="9" y="70.272" style="stroke: #000000; stroke-width: 1.875"/>
      </g>
     </g>
     <g id="text_2">
      <!-- 66 -->
      <g transform="translate(-13.396625 75.91384)scale(0.1485 -0.1485)">
       <defs>
        <path id="DejaVuSans-36" d="M 2113 2584 
Q 1688 2584 1439 2293 
Q 1191 2003 1191 1497 
Q 1191 994 1439 701 
Q 1688 409 2113 409 
Q 2538 409 2786 701 
Q 3034 994 3034 1497 
Q 3034 2003 2786 2293 
Q 2538 2584 2113 2584 
z
M 3366 4563 
L 3366 3988 
Q 3128 4100 2886 4159 
Q 2644 4219 2406 4219 
Q 1781 4219 1451 3797 
Q 1122 3375 1075 2522 
Q 1259 2794 1537 2939 
Q 1816 3084 2150 3084 
Q 2853 3084 3261 2657 
Q 3669 2231 3669 1497 
Q 3669 778 3244 343 
Q 2819 -91 2113 -91 
Q 1303 -91 875 529 
Q 447 1150 447 2328 
Q 447 3434 972 4092 
Q 1497 4750 2381 4750 
Q 2619 4750 2861 4703 
Q 3103 4656 3366 4563 
z
" transform="scale(0.015625)"/>
       </defs>
       <use xlink:href="#DejaVuSans-36"/>
       <use xlink:href="#DejaVuSans-36" x="63.623047"/>
      </g>
     </g>
    </g>
    <g id="ytick_3">
     <g id="line2d_3">
      <g>
       <use xlink:href="#m82d7553f1e" x="9" y="25.92" style="stroke: #000000; stroke-width: 1.875"/>
      </g>
     </g>
     <g id="text_3">
      <!-- 90 -->
      <g transform="translate(-13.396625 31.56184)scale(0.1485 -0.1485)">
       <defs>
        <path id="DejaVuSans-39" d="M 703 97 
L 703 672 
Q 941 559 1184 500 
Q 1428 441 1663 441 
Q 2288 441 2617 861 
Q 2947 1281 2994 2138 
Q 2813 1869 2534 1725 
Q 2256 1581 1919 1581 
Q 1219 1581 811 2004 
Q 403 2428 403 3163 
Q 403 3881 828 4315 
Q 1253 4750 1959 4750 
Q 2769 4750 3195 4129 
Q 3622 3509 3622 2328 
Q 3622 1225 3098 567 
Q 2575 -91 1691 -91 
Q 1453 -91 1209 -44 
Q 966 3 703 97 
z
M 1959 2075 
Q 2384 2075 2632 2365 
Q 2881 2656 2881 3163 
Q 2881 3666 2632 3958 
Q 2384 4250 1959 4250 
Q 1534 4250 1286 3958 
Q 1038 3666 1038 3163 
Q 1038 2656 1286 2365 
Q 1534 2075 1959 2075 
z
" transform="scale(0.015625)"/>
       </defs>
       <use xlink:href="#DejaVuSans-39"/>
       <use xlink:href="#DejaVuSans-30" x="63.623047"/>
      </g>
     </g>
    </g>
    <g id="text_4">
     <!-- degrees $(\circ)$ -->
     <g transform="translate(-20.798625 155.898)rotate(-90)scale(0.162 -0.162)">
      <defs>
       <path id="DejaVuSans-64" d="M 2906 2969 
L 2906 4863 
L 3481 4863 
L 3481 0 
L 2906 0 
L 2906 525 
Q 2725 213 2448 61 
Q 2172 -91 1784 -91 
Q 1150 -91 751 415 
Q 353 922 353 1747 
Q 353 2572 751 3078 
Q 1150 3584 1784 3584 
Q 2172 3584 2448 3432 
Q 2725 3281 2906 2969 
z
M 947 1747 
Q 947 1113 1208 752 
Q 1469 391 1925 391 
Q 2381 391 2643 752 
Q 2906 1113 2906 1747 
Q 2906 2381 2643 2742 
Q 2381 3103 1925 3103 
Q 1469 3103 1208 2742 
Q 947 2381 947 1747 
z
" transform="scale(0.015625)"/>
       <path id="DejaVuSans-65" d="M 3597 1894 
L 3597 1613 
L 953 1613 
Q 991 1019 1311 708 
Q 1631 397 2203 397 
Q 2534 397 2845 478 
Q 3156 559 3463 722 
L 3463 178 
Q 3153 47 2828 -22 
Q 2503 -91 2169 -91 
Q 1331 -91 842 396 
Q 353 884 353 1716 
Q 353 2575 817 3079 
Q 1281 3584 2069 3584 
Q 2775 3584 3186 3129 
Q 3597 2675 3597 1894 
z
M 3022 2063 
Q 3016 2534 2758 2815 
Q 2500 3097 2075 3097 
Q 1594 3097 1305 2825 
Q 1016 2553 972 2059 
L 3022 2063 
z
" transform="scale(0.015625)"/>
       <path id="DejaVuSans-67" d="M 2906 1791 
Q 2906 2416 2648 2759 
Q 2391 3103 1925 3103 
Q 1463 3103 1205 2759 
Q 947 2416 947 1791 
Q 947 1169 1205 825 
Q 1463 481 1925 481 
Q 2391 481 2648 825 
Q 2906 1169 2906 1791 
z
M 3481 434 
Q 3481 -459 3084 -895 
Q 2688 -1331 1869 -1331 
Q 1566 -1331 1297 -1286 
Q 1028 -1241 775 -1147 
L 775 -588 
Q 1028 -725 1275 -790 
Q 1522 -856 1778 -856 
Q 2344 -856 2625 -561 
Q 2906 -266 2906 331 
L 2906 616 
Q 2728 306 2450 153 
Q 2172 0 1784 0 
Q 1141 0 747 490 
Q 353 981 353 1791 
Q 353 2603 747 3093 
Q 1141 3584 1784 3584 
Q 2172 3584 2450 3431 
Q 2728 3278 2906 2969 
L 2906 3500 
L 3481 3500 
L 3481 434 
z
" transform="scale(0.015625)"/>
       <path id="DejaVuSans-72" d="M 2631 2963 
Q 2534 3019 2420 3045 
Q 2306 3072 2169 3072 
Q 1681 3072 1420 2755 
Q 1159 2438 1159 1844 
L 1159 0 
L 581 0 
L 581 3500 
L 1159 3500 
L 1159 2956 
Q 1341 3275 1631 3429 
Q 1922 3584 2338 3584 
Q 2397 3584 2469 3576 
Q 2541 3569 2628 3553 
L 2631 2963 
z
" transform="scale(0.015625)"/>
       <path id="DejaVuSans-73" d="M 2834 3397 
L 2834 2853 
Q 2591 2978 2328 3040 
Q 2066 3103 1784 3103 
Q 1356 3103 1142 2972 
Q 928 2841 928 2578 
Q 928 2378 1081 2264 
Q 1234 2150 1697 2047 
L 1894 2003 
Q 2506 1872 2764 1633 
Q 3022 1394 3022 966 
Q 3022 478 2636 193 
Q 2250 -91 1575 -91 
Q 1294 -91 989 -36 
Q 684 19 347 128 
L 347 722 
Q 666 556 975 473 
Q 1284 391 1588 391 
Q 1994 391 2212 530 
Q 2431 669 2431 922 
Q 2431 1156 2273 1281 
Q 2116 1406 1581 1522 
L 1381 1569 
Q 847 1681 609 1914 
Q 372 2147 372 2553 
Q 372 3047 722 3315 
Q 1072 3584 1716 3584 
Q 2034 3584 2315 3537 
Q 2597 3491 2834 3397 
z
" transform="scale(0.015625)"/>
       <path id="DejaVuSans-20" transform="scale(0.015625)"/>
       <path id="DejaVuSans-28" d="M 1984 4856 
Q 1566 4138 1362 3434 
Q 1159 2731 1159 2009 
Q 1159 1288 1364 580 
Q 1569 -128 1984 -844 
L 1484 -844 
Q 1016 -109 783 600 
Q 550 1309 550 2009 
Q 550 2706 781 3412 
Q 1013 4119 1484 4856 
L 1984 4856 
z
" transform="scale(0.015625)"/>
       <path id="DejaVuSans-2218" d="M 2000 2619 
Q 1750 2619 1578 2445 
Q 1406 2272 1406 2022 
Q 1406 1775 1578 1605 
Q 1750 1435 2000 1435 
Q 2250 1435 2422 1605 
Q 2594 1775 2594 2022 
Q 2594 2269 2420 2444 
Q 2247 2619 2000 2619 
z
M 2000 3022 
Q 2200 3022 2384 2945 
Q 2569 2869 2703 2725 
Q 2847 2585 2919 2406 
Q 2991 2228 2991 2022 
Q 2991 1610 2702 1324 
Q 2413 1038 1994 1038 
Q 1572 1038 1290 1319 
Q 1009 1600 1009 2022 
Q 1009 2441 1296 2731 
Q 1584 3022 2000 3022 
z
" transform="scale(0.015625)"/>
       <path id="DejaVuSans-29" d="M 513 4856 
L 1013 4856 
Q 1481 4119 1714 3412 
Q 1947 2706 1947 2009 
Q 1947 1309 1714 600 
Q 1481 -109 1013 -844 
L 513 -844 
Q 928 -128 1133 580 
Q 1338 1288 1338 2009 
Q 1338 2731 1133 3434 
Q 928 4138 513 4856 
z
" transform="scale(0.015625)"/>
      </defs>
      <use xlink:href="#DejaVuSans-64" transform="translate(0 0.015625)"/>
      <use xlink:href="#DejaVuSans-65" transform="translate(63.476562 0.015625)"/>
      <use xlink:href="#DejaVuSans-67" transform="translate(125 0.015625)"/>
      <use xlink:href="#DejaVuSans-72" transform="translate(188.476562 0.015625)"/>
      <use xlink:href="#DejaVuSans-65" transform="translate(229.589844 0.015625)"/>
      <use xlink:href="#DejaVuSans-65" transform="translate(291.113281 0.015625)"/>
      <use xlink:href="#DejaVuSans-73" transform="translate(352.636719 0.015625)"/>
      <use xlink:href="#DejaVuSans-20" transform="translate(404.736328 0.015625)"/>
      <use xlink:href="#DejaVuSans-28" transform="translate(436.523438 0.015625)"/>
      <use xlink:href="#DejaVuSans-2218" transform="translate(475.537109 0.015625)"/>
      <use xlink:href="#DejaVuSans-29" transform="translate(538.134766 0.015625)"/>
     </g>
    </g>
   </g>
   <g id="patch_3">
    <path d="M 9 192.24 
L 9 25.92 
" style="fill: none; stroke: #000000; stroke-width: 1.875; stroke-linejoin: miter; stroke-linecap: square"/>
   </g>
  </g>
 </g>
 <defs>
  <clipPath id="p2cd5eb0cfb">
   <rect x="9" y="25.92" width="55.8" height="166.32"/>
  </clipPath>
 </defs>
</svg>
