<?xml version="1.0" encoding="utf-8" standalone="no"?>
<!DOCTYPE svg PUBLIC "-//W3C//DTD SVG 1.1//EN"
  "http://www.w3.org/Graphics/SVG/1.1/DTD/svg11.dtd">
<svg xmlns:xlink="http://www.w3.org/1999/xlink" width="72pt" height="216pt" viewBox="0 0 72 216" xmlns="http://www.w3.org/2000/svg" version="1.1">
 <metadata>
  <rdf:RDF xmlns:dc="http://purl.org/dc/elements/1.1/" xmlns:cc="http://creativecommons.org/ns#" xmlns:rdf="http://www.w3.org/1999/02/22-rdf-syntax-ns#">
   <cc:Work>
    <dc:type rdf:resource="http://purl.org/dc/dcmitype/StillImage"/>
    <dc:date>2023-09-21T15:35:51.291352</dc:date>
    <dc:format>image/svg+xml</dc:format>
    <dc:creator>
     <cc:Agent>
      <dc:title>Matplotlib v3.5.2, https://matplotlib.org/</dc:title>
     </cc:Agent>
    </dc:creator>
   </cc:Work>
  </rdf:RDF>
 </metadata>
 <defs>
  <style type="text/css">*{stroke-linejoin: round; stroke-linecap: butt}</style>
 </defs>
 <g id="figure_1">
  <g id="patch_1">
   <path d="M 0 216 
L 72 216 
L 72 0 
L 0 0 
z
" style="fill: #ffffff"/>
  </g>
  <g id="axes_1">
   <g id="patch_2">
    <path d="M 9 192.24 
L 64.8 192.24 
L 64.8 25.92 
L 9 25.92 
z
" style="fill: #ffffff"/>
   </g>
   <g id="PolyCollection_1">
    <path d="M 38.129075 88.445215 
L 35.670925 88.445215 
L 35.395268 88.132473 
L 35.075051 87.819732 
L 34.706892 87.506991 
L 34.288474 87.194249 
L 33.818986 86.881508 
L 33.29953 86.568766 
L 32.733406 86.256025 
L 32.126262 85.943284 
L 31.486027 85.630542 
L 30.822588 85.317801 
L 30.147177 85.005059 
L 29.471455 84.692318 
L 28.806349 84.379577 
L 28.160761 84.066835 
L 27.540309 83.754094 
L 26.946344 83.441352 
L 26.37543 83.128611 
L 25.819467 82.81587 
L 25.266529 82.503128 
L 24.702377 82.190387 
L 24.112474 81.877645 
L 23.484238 81.564904 
L 22.809175 81.252163 
L 22.08454 80.939421 
L 21.314204 80.62668 
L 20.508558 80.313939 
L 19.683405 80.001197 
L 18.858029 79.688456 
L 18.052741 79.375714 
L 17.286336 79.062973 
L 16.573884 78.750232 
L 15.925196 78.43749 
L 15.344189 78.124749 
L 14.829175 77.812007 
L 14.373944 77.499266 
L 13.969405 77.186525 
L 13.605467 76.873783 
L 13.27284 76.561042 
L 12.964509 76.2483 
L 12.676675 75.935559 
L 12.409107 75.622818 
L 12.164917 75.310076 
L 11.949889 74.997335 
L 11.771524 74.684593 
L 11.638015 74.371852 
L 11.557306 74.059111 
L 11.536364 73.746369 
L 11.580723 73.433628 
L 11.69426 73.120887 
L 11.879146 72.808145 
L 12.135875 72.495404 
L 12.463296 72.182662 
L 12.858608 71.869921 
L 13.317326 71.55718 
L 13.833275 71.244438 
L 14.398679 70.931697 
L 15.004433 70.618955 
L 15.640576 70.306214 
L 16.296962 69.993473 
L 16.964055 69.680731 
L 17.633715 69.36799 
L 18.299846 69.055248 
L 18.958734 68.742507 
L 19.609015 68.429766 
L 20.251225 68.117024 
L 20.887018 67.804283 
L 21.518225 67.491541 
L 22.145939 67.1788 
L 22.769872 66.866059 
L 23.388119 66.553317 
L 23.997407 66.240576 
L 24.593766 65.927835 
L 25.173463 65.615093 
L 25.733971 65.302352 
L 26.274761 64.98961 
L 26.797699 64.676869 
L 27.306995 64.364128 
L 27.80867 64.051386 
L 28.309671 63.738645 
L 28.816779 63.425903 
L 29.335518 63.113162 
L 29.869219 62.800421 
L 30.418403 62.487679 
L 30.980535 62.174938 
L 31.550163 61.862196 
L 32.119414 61.549455 
L 32.678765 61.236714 
L 33.217973 60.923972 
L 33.727084 60.611231 
L 34.197369 60.298489 
L 34.622118 59.985748 
L 34.997174 59.673007 
L 35.32117 59.360265 
L 35.595428 59.047524 
L 35.823567 58.734783 
L 36.010889 58.422041 
L 36.163634 58.1093 
L 36.288246 57.796558 
L 36.390737 57.483817 
L 37.409263 57.483817 
L 37.409263 57.483817 
L 37.511754 57.796558 
L 37.636366 58.1093 
L 37.789111 58.422041 
L 37.976433 58.734783 
L 38.204572 59.047524 
L 38.47883 59.360265 
L 38.802826 59.673007 
L 39.177882 59.985748 
L 39.602631 60.298489 
L 40.072916 60.611231 
L 40.582027 60.923972 
L 41.121235 61.236714 
L 41.680586 61.549455 
L 42.249837 61.862196 
L 42.819465 62.174938 
L 43.381597 62.487679 
L 43.930781 62.800421 
L 44.464482 63.113162 
L 44.983221 63.425903 
L 45.490329 63.738645 
L 45.99133 64.051386 
L 46.493005 64.364128 
L 47.002301 64.676869 
L 47.525239 64.98961 
L 48.066029 65.302352 
L 48.626537 65.615093 
L 49.206234 65.927835 
L 49.802593 66.240576 
L 50.411881 66.553317 
L 51.030128 66.866059 
L 51.654061 67.1788 
L 52.281775 67.491541 
L 52.912982 67.804283 
L 53.548775 68.117024 
L 54.190985 68.429766 
L 54.841266 68.742507 
L 55.500154 69.055248 
L 56.166285 69.36799 
L 56.835945 69.680731 
L 57.503038 69.993473 
L 58.159424 70.306214 
L 58.795567 70.618955 
L 59.401321 70.931697 
L 59.966725 71.244438 
L 60.482674 71.55718 
L 60.941392 71.869921 
L 61.336704 72.182662 
L 61.664125 72.495404 
L 61.920854 72.808145 
L 62.10574 73.120887 
L 62.219277 73.433628 
L 62.263636 73.746369 
L 62.242694 74.059111 
L 62.161985 74.371852 
L 62.028476 74.684593 
L 61.850111 74.997335 
L 61.635083 75.310076 
L 61.390893 75.622818 
L 61.123325 75.935559 
L 60.835491 76.2483 
L 60.52716 76.561042 
L 60.194533 76.873783 
L 59.830595 77.186525 
L 59.426056 77.499266 
L 58.970825 77.812007 
L 58.455811 78.124749 
L 57.874804 78.43749 
L 57.226116 78.750232 
L 56.513664 79.062973 
L 55.747259 79.375714 
L 54.941971 79.688456 
L 54.116595 80.001197 
L 53.291442 80.313939 
L 52.485796 80.62668 
L 51.71546 80.939421 
L 50.990825 81.252163 
L 50.315762 81.564904 
L 49.687526 81.877645 
L 49.097623 82.190387 
L 48.533471 82.503128 
L 47.980533 82.81587 
L 47.42457 83.128611 
L 46.853656 83.441352 
L 46.259691 83.754094 
L 45.639239 84.066835 
L 44.993651 84.379577 
L 44.328545 84.692318 
L 43.652823 85.005059 
L 42.977412 85.317801 
L 42.313973 85.630542 
L 41.673738 85.943284 
L 41.066594 86.256025 
L 40.50047 86.568766 
L 39.981014 86.881508 
L 39.511526 87.194249 
L 39.093108 87.506991 
L 38.724949 87.819732 
L 38.404732 88.132473 
L 38.129075 88.445215 
z
" clip-path="url(#p0ee9c6dbea)" style="fill: #1f77b4; fill-opacity: 0.3"/>
   </g>
   <g id="PolyCollection_2">
    <path d="M 37.551465 51.577103 
L 36.248535 51.577103 
L 36.228753 51.14316 
L 36.212327 50.709217 
L 36.196711 50.275274 
L 36.178725 49.841331 
L 36.154736 49.407387 
L 36.120869 48.973444 
L 36.073212 48.539501 
L 36.007997 48.105558 
L 35.921727 47.671615 
L 35.811249 47.237671 
L 35.673767 46.803728 
L 35.506816 46.369785 
L 35.308237 45.935842 
L 35.076166 45.501899 
L 34.809086 45.067955 
L 34.505966 44.634012 
L 34.166472 44.200069 
L 33.791249 43.766126 
L 33.382227 43.332183 
L 32.942889 42.898239 
L 32.478425 42.464296 
L 31.995728 42.030353 
L 31.503169 41.59641 
L 31.010131 41.162467 
L 30.526358 40.728523 
L 30.061142 40.29458 
L 29.622476 39.860637 
L 29.216269 39.426694 
L 28.845732 38.992751 
L 28.511035 38.558807 
L 28.209277 38.124864 
L 27.934779 37.690921 
L 27.679649 37.256978 
L 27.434561 36.823035 
L 27.189616 36.389091 
L 26.935194 35.955148 
L 26.662697 35.521205 
L 26.365103 35.087262 
L 26.037294 34.653319 
L 25.676151 34.219375 
L 25.280442 33.785432 
L 24.850534 33.351489 
L 24.38798 32.917546 
L 23.895051 32.483602 
L 23.37424 32.049659 
L 22.82781 31.615716 
L 22.257425 31.181773 
L 21.663904 30.74783 
L 21.047153 30.313886 
L 20.406299 29.879943 
L 19.74005 29.446 
L 19.047279 29.012057 
L 18.327801 28.578114 
L 17.583256 28.14417 
L 16.818025 27.710227 
L 16.040015 27.276284 
L 15.261227 26.842341 
L 14.497936 26.408398 
L 13.770453 25.974454 
L 13.102382 25.540511 
L 12.519447 25.106568 
L 12.047946 24.672625 
L 11.712985 24.238682 
L 11.536657 23.804738 
L 11.536364 23.370795 
L 11.723427 22.936852 
L 12.102142 22.502909 
L 12.669347 22.068966 
L 13.41454 21.635022 
L 14.320519 21.201079 
L 15.364458 20.767136 
L 16.519324 20.333193 
L 17.755483 19.89925 
L 19.042379 19.465306 
L 20.350136 19.031363 
L 21.650987 18.59742 
L 22.920434 18.163477 
L 24.138092 17.729534 
L 25.288176 17.29559 
L 26.359661 16.861647 
L 27.346107 16.427704 
L 28.245237 15.993761 
L 29.058307 15.559818 
L 29.789351 15.125874 
L 30.444387 14.691931 
L 31.030634 14.257988 
L 31.555828 13.824045 
L 32.027655 13.390102 
L 32.453343 12.956158 
L 32.839404 12.522215 
L 33.191518 12.088272 
L 33.514524 11.654329 
L 33.812485 11.220386 
L 34.088786 10.786442 
L 34.346232 10.352499 
L 34.587135 9.918556 
L 34.813362 9.484613 
L 35.026367 9.050669 
L 35.227196 8.616726 
L 38.572804 8.616726 
L 38.572804 8.616726 
L 38.773633 9.050669 
L 38.986638 9.484613 
L 39.212865 9.918556 
L 39.453768 10.352499 
L 39.711214 10.786442 
L 39.987515 11.220386 
L 40.285476 11.654329 
L 40.608482 12.088272 
L 40.960596 12.522215 
L 41.346657 12.956158 
L 41.772345 13.390102 
L 42.244172 13.824045 
L 42.769366 14.257988 
L 43.355613 14.691931 
L 44.010649 15.125874 
L 44.741693 15.559818 
L 45.554763 15.993761 
L 46.453893 16.427704 
L 47.440339 16.861647 
L 48.511824 17.29559 
L 49.661908 17.729534 
L 50.879566 18.163477 
L 52.149013 18.59742 
L 53.449864 19.031363 
L 54.757621 19.465306 
L 56.044517 19.89925 
L 57.280676 20.333193 
L 58.435542 20.767136 
L 59.479481 21.201079 
L 60.38546 21.635022 
L 61.130653 22.068966 
L 61.697858 22.502909 
L 62.076573 22.936852 
L 62.263636 23.370795 
L 62.263343 23.804738 
L 62.087015 24.238682 
L 61.752054 24.672625 
L 61.280553 25.106568 
L 60.697618 25.540511 
L 60.029547 25.974454 
L 59.302064 26.408398 
L 58.538773 26.842341 
L 57.759985 27.276284 
L 56.981975 27.710227 
L 56.216744 28.14417 
L 55.472199 28.578114 
L 54.752721 29.012057 
L 54.05995 29.446 
L 53.393701 29.879943 
L 52.752847 30.313886 
L 52.136096 30.74783 
L 51.542575 31.181773 
L 50.97219 31.615716 
L 50.42576 32.049659 
L 49.904949 32.483602 
L 49.41202 32.917546 
L 48.949466 33.351489 
L 48.519558 33.785432 
L 48.123849 34.219375 
L 47.762706 34.653319 
L 47.434897 35.087262 
L 47.137303 35.521205 
L 46.864806 35.955148 
L 46.610384 36.389091 
L 46.365439 36.823035 
L 46.120351 37.256978 
L 45.865221 37.690921 
L 45.590723 38.124864 
L 45.288965 38.558807 
L 44.954268 38.992751 
L 44.583731 39.426694 
L 44.177524 39.860637 
L 43.738858 40.29458 
L 43.273642 40.728523 
L 42.789869 41.162467 
L 42.296831 41.59641 
L 41.804272 42.030353 
L 41.321575 42.464296 
L 40.857111 42.898239 
L 40.417773 43.332183 
L 40.008751 43.766126 
L 39.633528 44.200069 
L 39.294034 44.634012 
L 38.990914 45.067955 
L 38.723834 45.501899 
L 38.491763 45.935842 
L 38.293184 46.369785 
L 38.126233 46.803728 
L 37.988751 47.237671 
L 37.878273 47.671615 
L 37.792003 48.105558 
L 37.726788 48.539501 
L 37.679131 48.973444 
L 37.645264 49.407387 
L 37.621275 49.841331 
L 37.603289 50.275274 
L 37.587673 50.709217 
L 37.571247 51.14316 
L 37.551465 51.577103 
z
" clip-path="url(#p0ee9c6dbea)" style="fill: #808080; fill-opacity: 0.3"/>
   </g>
   <g id="matplotlib.axis_1"/>
   <g id="matplotlib.axis_2">
    <g id="ytick_1">
     <g id="line2d_1">
      <defs>
       <path id="mfe2b316313" d="M 0 0 
L 9 0 
" style="stroke: #000000; stroke-width: 1.875"/>
      </defs>
      <g>
       <use xlink:href="#mfe2b316313" x="9" y="192.24" style="stroke: #000000; stroke-width: 1.875"/>
      </g>
     </g>
     <g id="text_1">
      <!-- 0 -->
      <g transform="translate(-3.948313 197.88184)scale(0.1485 -0.1485)">
       <defs>
        <path id="DejaVuSans-30" d="M 2034 4250 
Q 1547 4250 1301 3770 
Q 1056 3291 1056 2328 
Q 1056 1369 1301 889 
Q 1547 409 2034 409 
Q 2525 409 2770 889 
Q 3016 1369 3016 2328 
Q 3016 3291 2770 3770 
Q 2525 4250 2034 4250 
z
M 2034 4750 
Q 2819 4750 3233 4129 
Q 3647 3509 3647 2328 
Q 3647 1150 3233 529 
Q 2819 -91 2034 -91 
Q 1250 -91 836 529 
Q 422 1150 422 2328 
Q 422 3509 836 4129 
Q 1250 4750 2034 4750 
z
" transform="scale(0.015625)"/>
       </defs>
       <use xlink:href="#DejaVuSans-30"/>
      </g>
     </g>
    </g>
    <g id="ytick_2">
     <g id="line2d_2">
      <g>
       <use xlink:href="#mfe2b316313" x="9" y="73.968" style="stroke: #000000; stroke-width: 1.875"/>
      </g>
     </g>
     <g id="text_2">
      <!-- 64 -->
      <g transform="translate(-13.396625 79.60984)scale(0.1485 -0.1485)">
       <defs>
        <path id="DejaVuSans-36" d="M 2113 2584 
Q 1688 2584 1439 2293 
Q 1191 2003 1191 1497 
Q 1191 994 1439 701 
Q 1688 409 2113 409 
Q 2538 409 2786 701 
Q 3034 994 3034 1497 
Q 3034 2003 2786 2293 
Q 2538 2584 2113 2584 
z
M 3366 4563 
L 3366 3988 
Q 3128 4100 2886 4159 
Q 2644 4219 2406 4219 
Q 1781 4219 1451 3797 
Q 1122 3375 1075 2522 
Q 1259 2794 1537 2939 
Q 1816 3084 2150 3084 
Q 2853 3084 3261 2657 
Q 3669 2231 3669 1497 
Q 3669 778 3244 343 
Q 2819 -91 2113 -91 
Q 1303 -91 875 529 
Q 447 1150 447 2328 
Q 447 3434 972 4092 
Q 1497 4750 2381 4750 
Q 2619 4750 2861 4703 
Q 3103 4656 3366 4563 
z
" transform="scale(0.015625)"/>
        <path id="DejaVuSans-34" d="M 2419 4116 
L 825 1625 
L 2419 1625 
L 2419 4116 
z
M 2253 4666 
L 3047 4666 
L 3047 1625 
L 3713 1625 
L 3713 1100 
L 3047 1100 
L 3047 0 
L 2419 0 
L 2419 1100 
L 313 1100 
L 313 1709 
L 2253 4666 
z
" transform="scale(0.015625)"/>
       </defs>
       <use xlink:href="#DejaVuSans-36"/>
       <use xlink:href="#DejaVuSans-34" x="63.623047"/>
      </g>
     </g>
    </g>
    <g id="ytick_3">
     <g id="line2d_3">
      <g>
       <use xlink:href="#mfe2b316313" x="9" y="25.92" style="stroke: #000000; stroke-width: 1.875"/>
      </g>
     </g>
     <g id="text_3">
      <!-- 90 -->
      <g transform="translate(-13.396625 31.56184)scale(0.1485 -0.1485)">
       <defs>
        <path id="DejaVuSans-39" d="M 703 97 
L 703 672 
Q 941 559 1184 500 
Q 1428 441 1663 441 
Q 2288 441 2617 861 
Q 2947 1281 2994 2138 
Q 2813 1869 2534 1725 
Q 2256 1581 1919 1581 
Q 1219 1581 811 2004 
Q 403 2428 403 3163 
Q 403 3881 828 4315 
Q 1253 4750 1959 4750 
Q 2769 4750 3195 4129 
Q 3622 3509 3622 2328 
Q 3622 1225 3098 567 
Q 2575 -91 1691 -91 
Q 1453 -91 1209 -44 
Q 966 3 703 97 
z
M 1959 2075 
Q 2384 2075 2632 2365 
Q 2881 2656 2881 3163 
Q 2881 3666 2632 3958 
Q 2384 4250 1959 4250 
Q 1534 4250 1286 3958 
Q 1038 3666 1038 3163 
Q 1038 2656 1286 2365 
Q 1534 2075 1959 2075 
z
" transform="scale(0.015625)"/>
       </defs>
       <use xlink:href="#DejaVuSans-39"/>
       <use xlink:href="#DejaVuSans-30" x="63.623047"/>
      </g>
     </g>
    </g>
    <g id="text_4">
     <!-- degrees $(\circ)$ -->
     <g transform="translate(-20.798625 155.898)rotate(-90)scale(0.162 -0.162)">
      <defs>
       <path id="DejaVuSans-64" d="M 2906 2969 
L 2906 4863 
L 3481 4863 
L 3481 0 
L 2906 0 
L 2906 525 
Q 2725 213 2448 61 
Q 2172 -91 1784 -91 
Q 1150 -91 751 415 
Q 353 922 353 1747 
Q 353 2572 751 3078 
Q 1150 3584 1784 3584 
Q 2172 3584 2448 3432 
Q 2725 3281 2906 2969 
z
M 947 1747 
Q 947 1113 1208 752 
Q 1469 391 1925 391 
Q 2381 391 2643 752 
Q 2906 1113 2906 1747 
Q 2906 2381 2643 2742 
Q 2381 3103 1925 3103 
Q 1469 3103 1208 2742 
Q 947 2381 947 1747 
z
" transform="scale(0.015625)"/>
       <path id="DejaVuSans-65" d="M 3597 1894 
L 3597 1613 
L 953 1613 
Q 991 1019 1311 708 
Q 1631 397 2203 397 
Q 2534 397 2845 478 
Q 3156 559 3463 722 
L 3463 178 
Q 3153 47 2828 -22 
Q 2503 -91 2169 -91 
Q 1331 -91 842 396 
Q 353 884 353 1716 
Q 353 2575 817 3079 
Q 1281 3584 2069 3584 
Q 2775 3584 3186 3129 
Q 3597 2675 3597 1894 
z
M 3022 2063 
Q 3016 2534 2758 2815 
Q 2500 3097 2075 3097 
Q 1594 3097 1305 2825 
Q 1016 2553 972 2059 
L 3022 2063 
z
" transform="scale(0.015625)"/>
       <path id="DejaVuSans-67" d="M 2906 1791 
Q 2906 2416 2648 2759 
Q 2391 3103 1925 3103 
Q 1463 3103 1205 2759 
Q 947 2416 947 1791 
Q 947 1169 1205 825 
Q 1463 481 1925 481 
Q 2391 481 2648 825 
Q 2906 1169 2906 1791 
z
M 3481 434 
Q 3481 -459 3084 -895 
Q 2688 -1331 1869 -1331 
Q 1566 -1331 1297 -1286 
Q 1028 -1241 775 -1147 
L 775 -588 
Q 1028 -725 1275 -790 
Q 1522 -856 1778 -856 
Q 2344 -856 2625 -561 
Q 2906 -266 2906 331 
L 2906 616 
Q 2728 306 2450 153 
Q 2172 0 1784 0 
Q 1141 0 747 490 
Q 353 981 353 1791 
Q 353 2603 747 3093 
Q 1141 3584 1784 3584 
Q 2172 3584 2450 3431 
Q 2728 3278 2906 2969 
L 2906 3500 
L 3481 3500 
L 3481 434 
z
" transform="scale(0.015625)"/>
       <path id="DejaVuSans-72" d="M 2631 2963 
Q 2534 3019 2420 3045 
Q 2306 3072 2169 3072 
Q 1681 3072 1420 2755 
Q 1159 2438 1159 1844 
L 1159 0 
L 581 0 
L 581 3500 
L 1159 3500 
L 1159 2956 
Q 1341 3275 1631 3429 
Q 1922 3584 2338 3584 
Q 2397 3584 2469 3576 
Q 2541 3569 2628 3553 
L 2631 2963 
z
" transform="scale(0.015625)"/>
       <path id="DejaVuSans-73" d="M 2834 3397 
L 2834 2853 
Q 2591 2978 2328 3040 
Q 2066 3103 1784 3103 
Q 1356 3103 1142 2972 
Q 928 2841 928 2578 
Q 928 2378 1081 2264 
Q 1234 2150 1697 2047 
L 1894 2003 
Q 2506 1872 2764 1633 
Q 3022 1394 3022 966 
Q 3022 478 2636 193 
Q 2250 -91 1575 -91 
Q 1294 -91 989 -36 
Q 684 19 347 128 
L 347 722 
Q 666 556 975 473 
Q 1284 391 1588 391 
Q 1994 391 2212 530 
Q 2431 669 2431 922 
Q 2431 1156 2273 1281 
Q 2116 1406 1581 1522 
L 1381 1569 
Q 847 1681 609 1914 
Q 372 2147 372 2553 
Q 372 3047 722 3315 
Q 1072 3584 1716 3584 
Q 2034 3584 2315 3537 
Q 2597 3491 2834 3397 
z
" transform="scale(0.015625)"/>
       <path id="DejaVuSans-20" transform="scale(0.015625)"/>
       <path id="DejaVuSans-28" d="M 1984 4856 
Q 1566 4138 1362 3434 
Q 1159 2731 1159 2009 
Q 1159 1288 1364 580 
Q 1569 -128 1984 -844 
L 1484 -844 
Q 1016 -109 783 600 
Q 550 1309 550 2009 
Q 550 2706 781 3412 
Q 1013 4119 1484 4856 
L 1984 4856 
z
" transform="scale(0.015625)"/>
       <path id="DejaVuSans-2218" d="M 2000 2619 
Q 1750 2619 1578 2445 
Q 1406 2272 1406 2022 
Q 1406 1775 1578 1605 
Q 1750 1435 2000 1435 
Q 2250 1435 2422 1605 
Q 2594 1775 2594 2022 
Q 2594 2269 2420 2444 
Q 2247 2619 2000 2619 
z
M 2000 3022 
Q 2200 3022 2384 2945 
Q 2569 2869 2703 2725 
Q 2847 2585 2919 2406 
Q 2991 2228 2991 2022 
Q 2991 1610 2702 1324 
Q 2413 1038 1994 1038 
Q 1572 1038 1290 1319 
Q 1009 1600 1009 2022 
Q 1009 2441 1296 2731 
Q 1584 3022 2000 3022 
z
" transform="scale(0.015625)"/>
       <path id="DejaVuSans-29" d="M 513 4856 
L 1013 4856 
Q 1481 4119 1714 3412 
Q 1947 2706 1947 2009 
Q 1947 1309 1714 600 
Q 1481 -109 1013 -844 
L 513 -844 
Q 928 -128 1133 580 
Q 1338 1288 1338 2009 
Q 1338 2731 1133 3434 
Q 928 4138 513 4856 
z
" transform="scale(0.015625)"/>
      </defs>
      <use xlink:href="#DejaVuSans-64" transform="translate(0 0.015625)"/>
      <use xlink:href="#DejaVuSans-65" transform="translate(63.476562 0.015625)"/>
      <use xlink:href="#DejaVuSans-67" transform="translate(125 0.015625)"/>
      <use xlink:href="#DejaVuSans-72" transform="translate(188.476562 0.015625)"/>
      <use xlink:href="#DejaVuSans-65" transform="translate(229.589844 0.015625)"/>
      <use xlink:href="#DejaVuSans-65" transform="translate(291.113281 0.015625)"/>
      <use xlink:href="#DejaVuSans-73" transform="translate(352.636719 0.015625)"/>
      <use xlink:href="#DejaVuSans-20" transform="translate(404.736328 0.015625)"/>
      <use xlink:href="#DejaVuSans-28" transform="translate(436.523438 0.015625)"/>
      <use xlink:href="#DejaVuSans-2218" transform="translate(475.537109 0.015625)"/>
      <use xlink:href="#DejaVuSans-29" transform="translate(538.134766 0.015625)"/>
     </g>
    </g>
   </g>
   <g id="patch_3">
    <path d="M 9 192.24 
L 9 25.92 
" style="fill: none; stroke: #000000; stroke-width: 1.875; stroke-linejoin: miter; stroke-linecap: square"/>
   </g>
  </g>
 </g>
 <defs>
  <clipPath id="p0ee9c6dbea">
   <rect x="9" y="25.92" width="55.8" height="166.32"/>
  </clipPath>
 </defs>
</svg>
