<?xml version="1.0" encoding="utf-8" standalone="no"?>
<!DOCTYPE svg PUBLIC "-//W3C//DTD SVG 1.1//EN"
  "http://www.w3.org/Graphics/SVG/1.1/DTD/svg11.dtd">
<svg xmlns:xlink="http://www.w3.org/1999/xlink" width="72pt" height="216pt" viewBox="0 0 72 216" xmlns="http://www.w3.org/2000/svg" version="1.1">
 <metadata>
  <rdf:RDF xmlns:dc="http://purl.org/dc/elements/1.1/" xmlns:cc="http://creativecommons.org/ns#" xmlns:rdf="http://www.w3.org/1999/02/22-rdf-syntax-ns#">
   <cc:Work>
    <dc:type rdf:resource="http://purl.org/dc/dcmitype/StillImage"/>
    <dc:date>2023-08-26T01:06:40.731546</dc:date>
    <dc:format>image/svg+xml</dc:format>
    <dc:creator>
     <cc:Agent>
      <dc:title>Matplotlib v3.5.2, https://matplotlib.org/</dc:title>
     </cc:Agent>
    </dc:creator>
   </cc:Work>
  </rdf:RDF>
 </metadata>
 <defs>
  <style type="text/css">*{stroke-linejoin: round; stroke-linecap: butt}</style>
 </defs>
 <g id="figure_1">
  <g id="patch_1">
   <path d="M 0 216 
L 72 216 
L 72 0 
L 0 0 
z
" style="fill: #ffffff"/>
  </g>
  <g id="axes_1">
   <g id="patch_2">
    <path d="M 9 192.24 
L 64.8 192.24 
L 64.8 25.92 
L 9 25.92 
z
" style="fill: #ffffff"/>
   </g>
   <g id="PolyCollection_1">
    <path d="M 37.09364 90.062374 
L 36.70636 90.062374 
L 36.711058 89.606563 
L 36.724643 89.150751 
L 36.744654 88.69494 
L 36.767539 88.239129 
L 36.789201 87.783318 
L 36.805498 87.327506 
L 36.812598 86.871695 
L 36.807187 86.415884 
L 36.786635 85.960072 
L 36.749226 85.504261 
L 36.694505 85.04845 
L 36.623633 84.592638 
L 36.539526 84.136827 
L 36.446505 83.681016 
L 36.349269 83.225204 
L 36.251255 82.769393 
L 36.152763 82.313582 
L 36.049452 81.85777 
L 35.931881 81.401959 
L 35.78655 80.946148 
L 35.59842 80.490336 
L 35.354355 80.034525 
L 35.046477 79.578714 
L 34.674281 79.122902 
L 34.244679 78.667091 
L 33.769828 78.21128 
L 33.263419 77.755468 
L 32.736763 77.299657 
L 32.196122 76.843846 
L 31.642198 76.388035 
L 31.071699 75.932223 
L 30.479917 75.476412 
L 29.862717 75.020601 
L 29.216648 74.564789 
L 28.536887 74.108978 
L 27.813971 73.653167 
L 27.031165 73.197355 
L 26.164404 72.741544 
L 25.185942 72.285733 
L 24.07147 71.829921 
L 22.809104 71.37411 
L 21.407686 70.918299 
L 19.901742 70.462487 
L 18.351035 70.006676 
L 16.833924 69.550865 
L 15.435305 69.095053 
L 14.231443 68.639242 
L 13.275189 68.183431 
L 12.585434 67.727619 
L 12.143956 67.271808 
L 11.90108 66.815997 
L 11.789076 66.360185 
L 11.739751 65.904374 
L 11.701148 65.448563 
L 11.648318 64.992752 
L 11.585056 64.53694 
L 11.536581 64.081129 
L 11.536364 63.625318 
L 11.612251 63.169506 
L 11.776946 62.713695 
L 12.025778 62.257884 
L 12.341605 61.802072 
L 12.703927 61.346261 
L 13.098042 60.89045 
L 13.520672 60.434638 
L 13.980419 59.978827 
L 14.493653 59.523016 
L 15.078058 59.067204 
L 15.746406 58.611393 
L 16.502476 58.155582 
L 17.33976 57.69977 
L 18.242506 57.243959 
L 19.188159 56.788148 
L 20.150366 56.332336 
L 21.102189 55.876525 
L 22.01952 55.420714 
L 22.884647 54.964902 
L 23.689499 54.509091 
L 24.437728 54.05328 
L 25.14463 53.597469 
L 25.834361 53.141657 
L 26.534725 52.685846 
L 27.27068 52.230035 
L 28.058251 51.774223 
L 28.900475 51.318412 
L 29.786363 50.862601 
L 30.692961 50.406789 
L 31.589727 49.950978 
L 32.443974 49.495167 
L 33.226098 49.039355 
L 33.913675 48.583544 
L 34.493908 48.127733 
L 34.964352 47.671921 
L 35.332076 47.21611 
L 35.611542 46.760299 
L 35.82165 46.304487 
L 35.982434 45.848676 
L 36.112014 45.392865 
L 36.224346 44.937053 
L 37.575654 44.937053 
L 37.575654 44.937053 
L 37.687986 45.392865 
L 37.817566 45.848676 
L 37.97835 46.304487 
L 38.188458 46.760299 
L 38.467924 47.21611 
L 38.835648 47.671921 
L 39.306092 48.127733 
L 39.886325 48.583544 
L 40.573902 49.039355 
L 41.356026 49.495167 
L 42.210273 49.950978 
L 43.107039 50.406789 
L 44.013637 50.862601 
L 44.899525 51.318412 
L 45.741749 51.774223 
L 46.52932 52.230035 
L 47.265275 52.685846 
L 47.965639 53.141657 
L 48.65537 53.597469 
L 49.362272 54.05328 
L 50.110501 54.509091 
L 50.915353 54.964902 
L 51.78048 55.420714 
L 52.697811 55.876525 
L 53.649634 56.332336 
L 54.611841 56.788148 
L 55.557494 57.243959 
L 56.46024 57.69977 
L 57.297524 58.155582 
L 58.053594 58.611393 
L 58.721942 59.067204 
L 59.306347 59.523016 
L 59.819581 59.978827 
L 60.279328 60.434638 
L 60.701958 60.89045 
L 61.096073 61.346261 
L 61.458395 61.802072 
L 61.774222 62.257884 
L 62.023054 62.713695 
L 62.187749 63.169506 
L 62.263636 63.625318 
L 62.263419 64.081129 
L 62.214944 64.53694 
L 62.151682 64.992752 
L 62.098852 65.448563 
L 62.060249 65.904374 
L 62.010924 66.360185 
L 61.89892 66.815997 
L 61.656044 67.271808 
L 61.214566 67.727619 
L 60.524811 68.183431 
L 59.568557 68.639242 
L 58.364695 69.095053 
L 56.966076 69.550865 
L 55.448965 70.006676 
L 53.898258 70.462487 
L 52.392314 70.918299 
L 50.990896 71.37411 
L 49.72853 71.829921 
L 48.614058 72.285733 
L 47.635596 72.741544 
L 46.768835 73.197355 
L 45.986029 73.653167 
L 45.263113 74.108978 
L 44.583352 74.564789 
L 43.937283 75.020601 
L 43.320083 75.476412 
L 42.728301 75.932223 
L 42.157802 76.388035 
L 41.603878 76.843846 
L 41.063237 77.299657 
L 40.536581 77.755468 
L 40.030172 78.21128 
L 39.555321 78.667091 
L 39.125719 79.122902 
L 38.753523 79.578714 
L 38.445645 80.034525 
L 38.20158 80.490336 
L 38.01345 80.946148 
L 37.868119 81.401959 
L 37.750548 81.85777 
L 37.647237 82.313582 
L 37.548745 82.769393 
L 37.450731 83.225204 
L 37.353495 83.681016 
L 37.260474 84.136827 
L 37.176367 84.592638 
L 37.105495 85.04845 
L 37.050774 85.504261 
L 37.013365 85.960072 
L 36.992813 86.415884 
L 36.987402 86.871695 
L 36.994502 87.327506 
L 37.010799 87.783318 
L 37.032461 88.239129 
L 37.055346 88.69494 
L 37.075357 89.150751 
L 37.088942 89.606563 
L 37.09364 90.062374 
z
" clip-path="url(#pd2e36c5cf9)" style="fill: #1f77b4; fill-opacity: 0.3"/>
   </g>
   <g id="PolyCollection_2">
    <path d="M 37.761702 44.249372 
L 36.038298 44.249372 
L 35.967394 43.847781 
L 35.886858 43.446191 
L 35.789177 43.0446 
L 35.665807 42.64301 
L 35.50786 42.241419 
L 35.306818 41.839829 
L 35.055167 41.438238 
L 34.746856 41.036648 
L 34.377543 40.635058 
L 33.944647 40.233467 
L 33.447262 39.831877 
L 32.886041 39.430286 
L 32.263139 39.028696 
L 31.582249 38.627105 
L 30.848728 38.225515 
L 30.069709 37.823925 
L 29.254079 37.422334 
L 28.412163 37.020744 
L 27.555036 36.619153 
L 26.693457 36.217563 
L 25.836543 35.815972 
L 24.99043 35.414382 
L 24.157208 35.012791 
L 23.334443 34.611201 
L 22.515516 34.209611 
L 21.690861 33.80802 
L 20.849993 33.40643 
L 19.984049 33.004839 
L 19.088403 32.603249 
L 18.164858 32.201658 
L 17.222942 31.800068 
L 16.279989 31.398477 
L 15.359868 30.996887 
L 14.490505 30.595297 
L 13.700544 30.193706 
L 13.015714 29.792116 
L 12.455518 29.390525 
L 12.030814 28.988935 
L 11.742735 28.587344 
L 11.583121 28.185754 
L 11.536364 27.784163 
L 11.582313 27.382573 
L 11.699691 26.980983 
L 11.869394 26.579392 
L 12.077093 26.177802 
L 12.314739 25.776211 
L 12.580791 25.374621 
L 12.879266 24.97303 
L 13.217951 24.57144 
L 13.60623 24.169849 
L 14.053019 23.768259 
L 14.565209 23.366669 
L 15.146851 22.965078 
L 15.799077 22.563488 
L 16.520621 22.161897 
L 17.308618 21.760307 
L 18.15938 21.358716 
L 19.06888 20.957126 
L 20.032806 20.555536 
L 21.046195 20.153945 
L 22.102781 19.752355 
L 23.194289 19.350764 
L 24.309917 18.949174 
L 25.436199 18.547583 
L 26.557361 18.145993 
L 27.656149 17.744402 
L 28.715035 17.342812 
L 29.717585 16.941222 
L 30.649796 16.539631 
L 31.501166 16.138041 
L 32.265375 15.73645 
L 32.940467 15.33486 
L 33.528569 14.933269 
L 34.035197 14.531679 
L 34.468302 14.130088 
L 34.837185 13.728498 
L 35.151458 13.326908 
L 35.420152 12.925317 
L 35.651075 12.523727 
L 35.850442 12.122136 
L 36.022777 11.720546 
L 36.171036 11.318955 
L 36.296889 10.917365 
L 36.401082 10.515774 
L 36.483819 10.114184 
L 36.545125 9.712594 
L 36.585143 9.311003 
L 36.604387 8.909413 
L 36.603925 8.507822 
L 36.585519 8.106232 
L 36.551702 7.704641 
L 36.505793 7.303051 
L 36.451837 6.90146 
L 36.394436 6.49987 
L 36.338492 6.09828 
L 36.28886 5.696689 
L 36.249944 5.295099 
L 36.22529 4.893508 
L 36.21725 4.491918 
L 37.58275 4.491918 
L 37.58275 4.491918 
L 37.57471 4.893508 
L 37.550056 5.295099 
L 37.51114 5.696689 
L 37.461508 6.09828 
L 37.405564 6.49987 
L 37.348163 6.90146 
L 37.294207 7.303051 
L 37.248298 7.704641 
L 37.214481 8.106232 
L 37.196075 8.507822 
L 37.195613 8.909413 
L 37.214857 9.311003 
L 37.254875 9.712594 
L 37.316181 10.114184 
L 37.398918 10.515774 
L 37.503111 10.917365 
L 37.628964 11.318955 
L 37.777223 11.720546 
L 37.949558 12.122136 
L 38.148925 12.523727 
L 38.379848 12.925317 
L 38.648542 13.326908 
L 38.962815 13.728498 
L 39.331698 14.130088 
L 39.764803 14.531679 
L 40.271431 14.933269 
L 40.859533 15.33486 
L 41.534625 15.73645 
L 42.298834 16.138041 
L 43.150204 16.539631 
L 44.082415 16.941222 
L 45.084965 17.342812 
L 46.143851 17.744402 
L 47.242639 18.145993 
L 48.363801 18.547583 
L 49.490083 18.949174 
L 50.605711 19.350764 
L 51.697219 19.752355 
L 52.753805 20.153945 
L 53.767194 20.555536 
L 54.73112 20.957126 
L 55.64062 21.358716 
L 56.491382 21.760307 
L 57.279379 22.161897 
L 58.000923 22.563488 
L 58.653149 22.965078 
L 59.234791 23.366669 
L 59.746981 23.768259 
L 60.19377 24.169849 
L 60.582049 24.57144 
L 60.920734 24.97303 
L 61.219209 25.374621 
L 61.485261 25.776211 
L 61.722907 26.177802 
L 61.930606 26.579392 
L 62.100309 26.980983 
L 62.217687 27.382573 
L 62.263636 27.784163 
L 62.216879 28.185754 
L 62.057265 28.587344 
L 61.769186 28.988935 
L 61.344482 29.390525 
L 60.784286 29.792116 
L 60.099456 30.193706 
L 59.309495 30.595297 
L 58.440132 30.996887 
L 57.520011 31.398477 
L 56.577058 31.800068 
L 55.635142 32.201658 
L 54.711597 32.603249 
L 53.815951 33.004839 
L 52.950007 33.40643 
L 52.109139 33.80802 
L 51.284484 34.209611 
L 50.465557 34.611201 
L 49.642792 35.012791 
L 48.80957 35.414382 
L 47.963457 35.815972 
L 47.106543 36.217563 
L 46.244964 36.619153 
L 45.387837 37.020744 
L 44.545921 37.422334 
L 43.730291 37.823925 
L 42.951272 38.225515 
L 42.217751 38.627105 
L 41.536861 39.028696 
L 40.913959 39.430286 
L 40.352738 39.831877 
L 39.855353 40.233467 
L 39.422457 40.635058 
L 39.053144 41.036648 
L 38.744833 41.438238 
L 38.493182 41.839829 
L 38.29214 42.241419 
L 38.134193 42.64301 
L 38.010823 43.0446 
L 37.913142 43.446191 
L 37.832606 43.847781 
L 37.761702 44.249372 
z
" clip-path="url(#pd2e36c5cf9)" style="fill: #808080; fill-opacity: 0.3"/>
   </g>
   <g id="matplotlib.axis_1"/>
   <g id="matplotlib.axis_2">
    <g id="ytick_1">
     <g id="line2d_1">
      <defs>
       <path id="mf89fda8c41" d="M 0 0 
L 9 0 
" style="stroke: #000000; stroke-width: 1.875"/>
      </defs>
      <g>
       <use xlink:href="#mf89fda8c41" x="9" y="192.24" style="stroke: #000000; stroke-width: 1.875"/>
      </g>
     </g>
     <g id="text_1">
      <!-- 0 -->
      <g transform="translate(-3.948313 197.88184)scale(0.1485 -0.1485)">
       <defs>
        <path id="DejaVuSans-30" d="M 2034 4250 
Q 1547 4250 1301 3770 
Q 1056 3291 1056 2328 
Q 1056 1369 1301 889 
Q 1547 409 2034 409 
Q 2525 409 2770 889 
Q 3016 1369 3016 2328 
Q 3016 3291 2770 3770 
Q 2525 4250 2034 4250 
z
M 2034 4750 
Q 2819 4750 3233 4129 
Q 3647 3509 3647 2328 
Q 3647 1150 3233 529 
Q 2819 -91 2034 -91 
Q 1250 -91 836 529 
Q 422 1150 422 2328 
Q 422 3509 836 4129 
Q 1250 4750 2034 4750 
z
" transform="scale(0.015625)"/>
       </defs>
       <use xlink:href="#DejaVuSans-30"/>
      </g>
     </g>
    </g>
    <g id="ytick_2">
     <g id="line2d_2">
      <g>
       <use xlink:href="#mf89fda8c41" x="9" y="64.728" style="stroke: #000000; stroke-width: 1.875"/>
      </g>
     </g>
     <g id="text_2">
      <!-- 69 -->
      <g transform="translate(-13.396625 70.36984)scale(0.1485 -0.1485)">
       <defs>
        <path id="DejaVuSans-36" d="M 2113 2584 
Q 1688 2584 1439 2293 
Q 1191 2003 1191 1497 
Q 1191 994 1439 701 
Q 1688 409 2113 409 
Q 2538 409 2786 701 
Q 3034 994 3034 1497 
Q 3034 2003 2786 2293 
Q 2538 2584 2113 2584 
z
M 3366 4563 
L 3366 3988 
Q 3128 4100 2886 4159 
Q 2644 4219 2406 4219 
Q 1781 4219 1451 3797 
Q 1122 3375 1075 2522 
Q 1259 2794 1537 2939 
Q 1816 3084 2150 3084 
Q 2853 3084 3261 2657 
Q 3669 2231 3669 1497 
Q 3669 778 3244 343 
Q 2819 -91 2113 -91 
Q 1303 -91 875 529 
Q 447 1150 447 2328 
Q 447 3434 972 4092 
Q 1497 4750 2381 4750 
Q 2619 4750 2861 4703 
Q 3103 4656 3366 4563 
z
" transform="scale(0.015625)"/>
        <path id="DejaVuSans-39" d="M 703 97 
L 703 672 
Q 941 559 1184 500 
Q 1428 441 1663 441 
Q 2288 441 2617 861 
Q 2947 1281 2994 2138 
Q 2813 1869 2534 1725 
Q 2256 1581 1919 1581 
Q 1219 1581 811 2004 
Q 403 2428 403 3163 
Q 403 3881 828 4315 
Q 1253 4750 1959 4750 
Q 2769 4750 3195 4129 
Q 3622 3509 3622 2328 
Q 3622 1225 3098 567 
Q 2575 -91 1691 -91 
Q 1453 -91 1209 -44 
Q 966 3 703 97 
z
M 1959 2075 
Q 2384 2075 2632 2365 
Q 2881 2656 2881 3163 
Q 2881 3666 2632 3958 
Q 2384 4250 1959 4250 
Q 1534 4250 1286 3958 
Q 1038 3666 1038 3163 
Q 1038 2656 1286 2365 
Q 1534 2075 1959 2075 
z
" transform="scale(0.015625)"/>
       </defs>
       <use xlink:href="#DejaVuSans-36"/>
       <use xlink:href="#DejaVuSans-39" x="63.623047"/>
      </g>
     </g>
    </g>
    <g id="ytick_3">
     <g id="line2d_3">
      <g>
       <use xlink:href="#mf89fda8c41" x="9" y="25.92" style="stroke: #000000; stroke-width: 1.875"/>
      </g>
     </g>
     <g id="text_3">
      <!-- 90 -->
      <g transform="translate(-13.396625 31.56184)scale(0.1485 -0.1485)">
       <use xlink:href="#DejaVuSans-39"/>
       <use xlink:href="#DejaVuSans-30" x="63.623047"/>
      </g>
     </g>
    </g>
    <g id="text_4">
     <!-- degrees $(\circ)$ -->
     <g transform="translate(-20.798625 155.898)rotate(-90)scale(0.162 -0.162)">
      <defs>
       <path id="DejaVuSans-64" d="M 2906 2969 
L 2906 4863 
L 3481 4863 
L 3481 0 
L 2906 0 
L 2906 525 
Q 2725 213 2448 61 
Q 2172 -91 1784 -91 
Q 1150 -91 751 415 
Q 353 922 353 1747 
Q 353 2572 751 3078 
Q 1150 3584 1784 3584 
Q 2172 3584 2448 3432 
Q 2725 3281 2906 2969 
z
M 947 1747 
Q 947 1113 1208 752 
Q 1469 391 1925 391 
Q 2381 391 2643 752 
Q 2906 1113 2906 1747 
Q 2906 2381 2643 2742 
Q 2381 3103 1925 3103 
Q 1469 3103 1208 2742 
Q 947 2381 947 1747 
z
" transform="scale(0.015625)"/>
       <path id="DejaVuSans-65" d="M 3597 1894 
L 3597 1613 
L 953 1613 
Q 991 1019 1311 708 
Q 1631 397 2203 397 
Q 2534 397 2845 478 
Q 3156 559 3463 722 
L 3463 178 
Q 3153 47 2828 -22 
Q 2503 -91 2169 -91 
Q 1331 -91 842 396 
Q 353 884 353 1716 
Q 353 2575 817 3079 
Q 1281 3584 2069 3584 
Q 2775 3584 3186 3129 
Q 3597 2675 3597 1894 
z
M 3022 2063 
Q 3016 2534 2758 2815 
Q 2500 3097 2075 3097 
Q 1594 3097 1305 2825 
Q 1016 2553 972 2059 
L 3022 2063 
z
" transform="scale(0.015625)"/>
       <path id="DejaVuSans-67" d="M 2906 1791 
Q 2906 2416 2648 2759 
Q 2391 3103 1925 3103 
Q 1463 3103 1205 2759 
Q 947 2416 947 1791 
Q 947 1169 1205 825 
Q 1463 481 1925 481 
Q 2391 481 2648 825 
Q 2906 1169 2906 1791 
z
M 3481 434 
Q 3481 -459 3084 -895 
Q 2688 -1331 1869 -1331 
Q 1566 -1331 1297 -1286 
Q 1028 -1241 775 -1147 
L 775 -588 
Q 1028 -725 1275 -790 
Q 1522 -856 1778 -856 
Q 2344 -856 2625 -561 
Q 2906 -266 2906 331 
L 2906 616 
Q 2728 306 2450 153 
Q 2172 0 1784 0 
Q 1141 0 747 490 
Q 353 981 353 1791 
Q 353 2603 747 3093 
Q 1141 3584 1784 3584 
Q 2172 3584 2450 3431 
Q 2728 3278 2906 2969 
L 2906 3500 
L 3481 3500 
L 3481 434 
z
" transform="scale(0.015625)"/>
       <path id="DejaVuSans-72" d="M 2631 2963 
Q 2534 3019 2420 3045 
Q 2306 3072 2169 3072 
Q 1681 3072 1420 2755 
Q 1159 2438 1159 1844 
L 1159 0 
L 581 0 
L 581 3500 
L 1159 3500 
L 1159 2956 
Q 1341 3275 1631 3429 
Q 1922 3584 2338 3584 
Q 2397 3584 2469 3576 
Q 2541 3569 2628 3553 
L 2631 2963 
z
" transform="scale(0.015625)"/>
       <path id="DejaVuSans-73" d="M 2834 3397 
L 2834 2853 
Q 2591 2978 2328 3040 
Q 2066 3103 1784 3103 
Q 1356 3103 1142 2972 
Q 928 2841 928 2578 
Q 928 2378 1081 2264 
Q 1234 2150 1697 2047 
L 1894 2003 
Q 2506 1872 2764 1633 
Q 3022 1394 3022 966 
Q 3022 478 2636 193 
Q 2250 -91 1575 -91 
Q 1294 -91 989 -36 
Q 684 19 347 128 
L 347 722 
Q 666 556 975 473 
Q 1284 391 1588 391 
Q 1994 391 2212 530 
Q 2431 669 2431 922 
Q 2431 1156 2273 1281 
Q 2116 1406 1581 1522 
L 1381 1569 
Q 847 1681 609 1914 
Q 372 2147 372 2553 
Q 372 3047 722 3315 
Q 1072 3584 1716 3584 
Q 2034 3584 2315 3537 
Q 2597 3491 2834 3397 
z
" transform="scale(0.015625)"/>
       <path id="DejaVuSans-20" transform="scale(0.015625)"/>
       <path id="DejaVuSans-28" d="M 1984 4856 
Q 1566 4138 1362 3434 
Q 1159 2731 1159 2009 
Q 1159 1288 1364 580 
Q 1569 -128 1984 -844 
L 1484 -844 
Q 1016 -109 783 600 
Q 550 1309 550 2009 
Q 550 2706 781 3412 
Q 1013 4119 1484 4856 
L 1984 4856 
z
" transform="scale(0.015625)"/>
       <path id="DejaVuSans-2218" d="M 2000 2619 
Q 1750 2619 1578 2445 
Q 1406 2272 1406 2022 
Q 1406 1775 1578 1605 
Q 1750 1435 2000 1435 
Q 2250 1435 2422 1605 
Q 2594 1775 2594 2022 
Q 2594 2269 2420 2444 
Q 2247 2619 2000 2619 
z
M 2000 3022 
Q 2200 3022 2384 2945 
Q 2569 2869 2703 2725 
Q 2847 2585 2919 2406 
Q 2991 2228 2991 2022 
Q 2991 1610 2702 1324 
Q 2413 1038 1994 1038 
Q 1572 1038 1290 1319 
Q 1009 1600 1009 2022 
Q 1009 2441 1296 2731 
Q 1584 3022 2000 3022 
z
" transform="scale(0.015625)"/>
       <path id="DejaVuSans-29" d="M 513 4856 
L 1013 4856 
Q 1481 4119 1714 3412 
Q 1947 2706 1947 2009 
Q 1947 1309 1714 600 
Q 1481 -109 1013 -844 
L 513 -844 
Q 928 -128 1133 580 
Q 1338 1288 1338 2009 
Q 1338 2731 1133 3434 
Q 928 4138 513 4856 
z
" transform="scale(0.015625)"/>
      </defs>
      <use xlink:href="#DejaVuSans-64" transform="translate(0 0.015625)"/>
      <use xlink:href="#DejaVuSans-65" transform="translate(63.476562 0.015625)"/>
      <use xlink:href="#DejaVuSans-67" transform="translate(125 0.015625)"/>
      <use xlink:href="#DejaVuSans-72" transform="translate(188.476562 0.015625)"/>
      <use xlink:href="#DejaVuSans-65" transform="translate(229.589844 0.015625)"/>
      <use xlink:href="#DejaVuSans-65" transform="translate(291.113281 0.015625)"/>
      <use xlink:href="#DejaVuSans-73" transform="translate(352.636719 0.015625)"/>
      <use xlink:href="#DejaVuSans-20" transform="translate(404.736328 0.015625)"/>
      <use xlink:href="#DejaVuSans-28" transform="translate(436.523438 0.015625)"/>
      <use xlink:href="#DejaVuSans-2218" transform="translate(475.537109 0.015625)"/>
      <use xlink:href="#DejaVuSans-29" transform="translate(538.134766 0.015625)"/>
     </g>
    </g>
   </g>
   <g id="patch_3">
    <path d="M 9 192.24 
L 9 25.92 
" style="fill: none; stroke: #000000; stroke-width: 1.875; stroke-linejoin: miter; stroke-linecap: square"/>
   </g>
  </g>
 </g>
 <defs>
  <clipPath id="pd2e36c5cf9">
   <rect x="9" y="25.92" width="55.8" height="166.32"/>
  </clipPath>
 </defs>
</svg>
