<?xml version="1.0" encoding="utf-8" standalone="no"?>
<!DOCTYPE svg PUBLIC "-//W3C//DTD SVG 1.1//EN"
  "http://www.w3.org/Graphics/SVG/1.1/DTD/svg11.dtd">
<svg xmlns:xlink="http://www.w3.org/1999/xlink" width="360pt" height="180pt" viewBox="0 0 360 180" xmlns="http://www.w3.org/2000/svg" version="1.1">
 <metadata>
  <rdf:RDF xmlns:dc="http://purl.org/dc/elements/1.1/" xmlns:cc="http://creativecommons.org/ns#" xmlns:rdf="http://www.w3.org/1999/02/22-rdf-syntax-ns#">
   <cc:Work>
    <dc:type rdf:resource="http://purl.org/dc/dcmitype/StillImage"/>
    <dc:date>2023-05-19T16:20:36.797433</dc:date>
    <dc:format>image/svg+xml</dc:format>
    <dc:creator>
     <cc:Agent>
      <dc:title>Matplotlib v3.5.2, https://matplotlib.org/</dc:title>
     </cc:Agent>
    </dc:creator>
   </cc:Work>
  </rdf:RDF>
 </metadata>
 <defs>
  <style type="text/css">*{stroke-linejoin: round; stroke-linecap: butt}</style>
 </defs>
 <g id="figure_1">
  <g id="patch_1">
   <path d="M 0 180 
L 360 180 
L 360 0 
L 0 0 
z
" style="fill: #ffffff"/>
  </g>
  <g id="axes_1">
   <g id="patch_2">
    <path d="M 45 160.2 
L 171.818182 160.2 
L 171.818182 21.6 
L 45 21.6 
z
" style="fill: #ffffff"/>
   </g>
   <g id="PolyCollection_1">
    <defs>
     <path id="m31ddad54e3" d="M 46.585227 -79.299 
L 46.585227 -35.64 
L 49.755682 -37.521 
L 52.926136 -39.402 
L 56.096591 -43.56 
L 59.267045 -41.58 
L 62.4375 -35.541 
L 65.607955 -35.64 
L 68.778409 -35.442 
L 71.948864 -35.64 
L 75.119318 -39.501 
L 78.289773 -37.323 
L 81.460227 -35.64 
L 84.630682 -35.64 
L 87.801136 -35.64 
L 90.971591 -35.64 
L 94.142045 -37.521 
L 97.3125 -37.62 
L 100.482955 -39.501 
L 103.653409 -39.501 
L 106.823864 -37.62 
L 109.994318 -41.58 
L 113.164773 -37.521 
L 116.335227 -35.541 
L 119.505682 -35.64 
L 122.676136 -41.481 
L 125.846591 -37.521 
L 129.017045 -39.6 
L 132.1875 -39.6 
L 135.357955 -41.481 
L 138.528409 -37.62 
L 141.698864 -35.541 
L 144.869318 -39.402 
L 148.039773 -35.64 
L 151.210227 -33.66 
L 154.380682 -39.6 
L 157.551136 -35.541 
L 160.721591 -39.501 
L 163.892045 -33.561 
L 167.0625 -37.521 
L 170.232955 -39.501 
L 173.403409 -35.64 
L 176.573864 -39.501 
L 179.744318 -37.521 
L 182.914773 -39.6 
L 186.085227 -37.521 
L 189.255682 -39.501 
L 192.426136 -39.501 
L 195.596591 -41.58 
L 198.767045 -39.6 
L 201.9375 -39.6 
L 205.107955 -39.501 
L 208.278409 -39.6 
L 211.448864 -41.382 
L 214.619318 -37.62 
L 217.789773 -33.66 
L 220.960227 -39.6 
L 224.130682 -41.58 
L 227.301136 -41.481 
L 227.301136 -81.279 
L 227.301136 -81.279 
L 224.130682 -81.18 
L 220.960227 -81.18 
L 217.789773 -81.18 
L 214.619318 -77.319 
L 211.448864 -77.319 
L 208.278409 -81.18 
L 205.107955 -77.22 
L 201.9375 -79.2 
L 198.767045 -77.319 
L 195.596591 -77.22 
L 192.426136 -77.22 
L 189.255682 -77.319 
L 186.085227 -83.16 
L 182.914773 -81.18 
L 179.744318 -79.2 
L 176.573864 -85.239 
L 173.403409 -89.1 
L 170.232955 -81.18 
L 167.0625 -79.398 
L 163.892045 -79.299 
L 160.721591 -79.299 
L 157.551136 -85.14 
L 154.380682 -81.279 
L 151.210227 -79.299 
L 148.039773 -77.22 
L 144.869318 -77.22 
L 141.698864 -79.299 
L 138.528409 -83.16 
L 135.357955 -83.259 
L 132.1875 -87.12 
L 129.017045 -85.239 
L 125.846591 -81.18 
L 122.676136 -81.18 
L 119.505682 -79.2 
L 116.335227 -81.18 
L 113.164773 -79.398 
L 109.994318 -85.239 
L 106.823864 -81.18 
L 103.653409 -83.259 
L 100.482955 -83.16 
L 97.3125 -81.18 
L 94.142045 -79.2 
L 90.971591 -79.299 
L 87.801136 -83.16 
L 84.630682 -79.299 
L 81.460227 -79.299 
L 78.289773 -77.319 
L 75.119318 -79.2 
L 71.948864 -79.299 
L 68.778409 -79.299 
L 65.607955 -81.279 
L 62.4375 -81.18 
L 59.267045 -79.2 
L 56.096591 -81.279 
L 52.926136 -79.299 
L 49.755682 -79.2 
L 46.585227 -79.299 
z
" style="stroke: #000000; stroke-opacity: 0.25; stroke-width: 1.5"/>
    </defs>
    <g clip-path="url(#p74dd20194e)">
     <use xlink:href="#m31ddad54e3" x="0" y="180" style="fill-opacity: 0.25; stroke: #000000; stroke-opacity: 0.25; stroke-width: 1.5"/>
    </g>
   </g>
   <g id="PolyCollection_2">
    <defs>
     <path id="mde5f70cef5" d="M 46.585227 -85.239 
L 46.585227 -37.521 
L 49.755682 -35.541 
L 52.926136 -37.422 
L 56.096591 -35.64 
L 59.267045 -39.501 
L 62.4375 -39.6 
L 65.607955 -41.58 
L 68.778409 -35.64 
L 71.948864 -37.521 
L 75.119318 -37.521 
L 78.289773 -41.481 
L 81.460227 -37.521 
L 84.630682 -37.521 
L 87.801136 -39.402 
L 90.971591 -33.561 
L 94.142045 -37.62 
L 97.3125 -37.62 
L 100.482955 -39.501 
L 103.653409 -39.6 
L 106.823864 -39.6 
L 109.994318 -37.521 
L 113.164773 -35.64 
L 116.335227 -39.501 
L 119.505682 -41.481 
L 122.676136 -37.422 
L 125.846591 -37.521 
L 129.017045 -39.501 
L 132.1875 -35.64 
L 135.357955 -35.442 
L 138.528409 -33.66 
L 141.698864 -33.561 
L 144.869318 -35.442 
L 148.039773 -37.521 
L 151.210227 -37.62 
L 154.380682 -39.501 
L 157.551136 -39.402 
L 160.721591 -35.64 
L 163.892045 -39.6 
L 167.0625 -39.501 
L 170.232955 -43.461 
L 173.403409 -39.402 
L 176.573864 -37.521 
L 179.744318 -33.66 
L 182.914773 -33.561 
L 186.085227 -35.442 
L 189.255682 -37.62 
L 192.426136 -35.541 
L 195.596591 -39.6 
L 198.767045 -39.501 
L 201.9375 -37.521 
L 205.107955 -43.362 
L 208.278409 -43.461 
L 211.448864 -41.58 
L 214.619318 -37.521 
L 217.789773 -37.62 
L 220.960227 -37.422 
L 224.130682 -37.62 
L 227.301136 -37.521 
L 227.301136 -81.18 
L 227.301136 -81.18 
L 224.130682 -81.18 
L 220.960227 -83.16 
L 217.789773 -81.279 
L 214.619318 -79.2 
L 211.448864 -77.319 
L 208.278409 -79.398 
L 205.107955 -79.2 
L 201.9375 -83.259 
L 198.767045 -81.279 
L 195.596591 -77.22 
L 192.426136 -77.319 
L 189.255682 -79.2 
L 186.085227 -75.339 
L 182.914773 -79.299 
L 179.744318 -77.22 
L 176.573864 -79.2 
L 173.403409 -79.398 
L 170.232955 -79.2 
L 167.0625 -77.418 
L 163.892045 -83.16 
L 160.721591 -81.18 
L 157.551136 -81.279 
L 154.380682 -81.279 
L 151.210227 -83.259 
L 148.039773 -83.259 
L 144.869318 -81.18 
L 141.698864 -79.2 
L 138.528409 -77.22 
L 135.357955 -79.2 
L 132.1875 -79.2 
L 129.017045 -81.18 
L 125.846591 -79.2 
L 122.676136 -79.299 
L 119.505682 -77.418 
L 116.335227 -81.18 
L 113.164773 -81.279 
L 109.994318 -79.299 
L 106.823864 -79.299 
L 103.653409 -83.259 
L 100.482955 -81.279 
L 97.3125 -81.279 
L 94.142045 -79.2 
L 90.971591 -77.22 
L 87.801136 -75.24 
L 84.630682 -79.2 
L 81.460227 -79.2 
L 78.289773 -81.18 
L 75.119318 -85.14 
L 71.948864 -87.219 
L 68.778409 -85.239 
L 65.607955 -83.259 
L 62.4375 -83.259 
L 59.267045 -83.16 
L 56.096591 -85.14 
L 52.926136 -81.18 
L 49.755682 -79.2 
L 46.585227 -85.239 
z
" style="stroke: #000000; stroke-opacity: 0.25; stroke-width: 1.5"/>
    </defs>
    <g clip-path="url(#p74dd20194e)">
     <use xlink:href="#mde5f70cef5" x="0" y="180" style="fill-opacity: 0.25; stroke: #000000; stroke-opacity: 0.25; stroke-width: 1.5"/>
    </g>
   </g>
   <g id="matplotlib.axis_1">
    <g id="xtick_1">
     <g id="line2d_1">
      <defs>
       <path id="m7248af2147" d="M 0 0 
L 0 -9 
" style="stroke: #000000; stroke-width: 1.875"/>
      </defs>
      <g>
       <use xlink:href="#m7248af2147" x="45" y="160.2" style="stroke: #000000; stroke-width: 1.875"/>
      </g>
     </g>
     <g id="text_1">
      <!-- −0.5 -->
      <g transform="translate(26.970012 174.98368)scale(0.1485 -0.1485)">
       <defs>
        <path id="DejaVuSans-2212" d="M 678 2272 
L 4684 2272 
L 4684 1741 
L 678 1741 
L 678 2272 
z
" transform="scale(0.015625)"/>
        <path id="DejaVuSans-30" d="M 2034 4250 
Q 1547 4250 1301 3770 
Q 1056 3291 1056 2328 
Q 1056 1369 1301 889 
Q 1547 409 2034 409 
Q 2525 409 2770 889 
Q 3016 1369 3016 2328 
Q 3016 3291 2770 3770 
Q 2525 4250 2034 4250 
z
M 2034 4750 
Q 2819 4750 3233 4129 
Q 3647 3509 3647 2328 
Q 3647 1150 3233 529 
Q 2819 -91 2034 -91 
Q 1250 -91 836 529 
Q 422 1150 422 2328 
Q 422 3509 836 4129 
Q 1250 4750 2034 4750 
z
" transform="scale(0.015625)"/>
        <path id="DejaVuSans-2e" d="M 684 794 
L 1344 794 
L 1344 0 
L 684 0 
L 684 794 
z
" transform="scale(0.015625)"/>
        <path id="DejaVuSans-35" d="M 691 4666 
L 3169 4666 
L 3169 4134 
L 1269 4134 
L 1269 2991 
Q 1406 3038 1543 3061 
Q 1681 3084 1819 3084 
Q 2600 3084 3056 2656 
Q 3513 2228 3513 1497 
Q 3513 744 3044 326 
Q 2575 -91 1722 -91 
Q 1428 -91 1123 -41 
Q 819 9 494 109 
L 494 744 
Q 775 591 1075 516 
Q 1375 441 1709 441 
Q 2250 441 2565 725 
Q 2881 1009 2881 1497 
Q 2881 1984 2565 2268 
Q 2250 2553 1709 2553 
Q 1456 2553 1204 2497 
Q 953 2441 691 2322 
L 691 4666 
z
" transform="scale(0.015625)"/>
       </defs>
       <use xlink:href="#DejaVuSans-2212"/>
       <use xlink:href="#DejaVuSans-30" x="83.789062"/>
       <use xlink:href="#DejaVuSans-2e" x="147.412109"/>
       <use xlink:href="#DejaVuSans-35" x="179.199219"/>
      </g>
     </g>
    </g>
    <g id="xtick_2">
     <g id="line2d_2">
      <g>
       <use xlink:href="#m7248af2147" x="108.409091" y="160.2" style="stroke: #000000; stroke-width: 1.875"/>
      </g>
     </g>
     <g id="text_2">
      <!-- 0.0 -->
      <g transform="translate(96.601021 174.98368)scale(0.1485 -0.1485)">
       <use xlink:href="#DejaVuSans-30"/>
       <use xlink:href="#DejaVuSans-2e" x="63.623047"/>
       <use xlink:href="#DejaVuSans-30" x="95.410156"/>
      </g>
     </g>
    </g>
    <g id="xtick_3">
     <g id="line2d_3">
      <g>
       <use xlink:href="#m7248af2147" x="171.818182" y="160.2" style="stroke: #000000; stroke-width: 1.875"/>
      </g>
     </g>
     <g id="text_3">
      <!-- 0.5 -->
      <g transform="translate(160.010112 174.98368)scale(0.1485 -0.1485)">
       <use xlink:href="#DejaVuSans-30"/>
       <use xlink:href="#DejaVuSans-2e" x="63.623047"/>
       <use xlink:href="#DejaVuSans-35" x="95.410156"/>
      </g>
     </g>
    </g>
    <g id="text_4">
     <!-- time from stimulus (sec) -->
     <g transform="translate(9.291669 194.381484)scale(0.162 -0.162)">
      <defs>
       <path id="DejaVuSans-74" d="M 1172 4494 
L 1172 3500 
L 2356 3500 
L 2356 3053 
L 1172 3053 
L 1172 1153 
Q 1172 725 1289 603 
Q 1406 481 1766 481 
L 2356 481 
L 2356 0 
L 1766 0 
Q 1100 0 847 248 
Q 594 497 594 1153 
L 594 3053 
L 172 3053 
L 172 3500 
L 594 3500 
L 594 4494 
L 1172 4494 
z
" transform="scale(0.015625)"/>
       <path id="DejaVuSans-69" d="M 603 3500 
L 1178 3500 
L 1178 0 
L 603 0 
L 603 3500 
z
M 603 4863 
L 1178 4863 
L 1178 4134 
L 603 4134 
L 603 4863 
z
" transform="scale(0.015625)"/>
       <path id="DejaVuSans-6d" d="M 3328 2828 
Q 3544 3216 3844 3400 
Q 4144 3584 4550 3584 
Q 5097 3584 5394 3201 
Q 5691 2819 5691 2113 
L 5691 0 
L 5113 0 
L 5113 2094 
Q 5113 2597 4934 2840 
Q 4756 3084 4391 3084 
Q 3944 3084 3684 2787 
Q 3425 2491 3425 1978 
L 3425 0 
L 2847 0 
L 2847 2094 
Q 2847 2600 2669 2842 
Q 2491 3084 2119 3084 
Q 1678 3084 1418 2786 
Q 1159 2488 1159 1978 
L 1159 0 
L 581 0 
L 581 3500 
L 1159 3500 
L 1159 2956 
Q 1356 3278 1631 3431 
Q 1906 3584 2284 3584 
Q 2666 3584 2933 3390 
Q 3200 3197 3328 2828 
z
" transform="scale(0.015625)"/>
       <path id="DejaVuSans-65" d="M 3597 1894 
L 3597 1613 
L 953 1613 
Q 991 1019 1311 708 
Q 1631 397 2203 397 
Q 2534 397 2845 478 
Q 3156 559 3463 722 
L 3463 178 
Q 3153 47 2828 -22 
Q 2503 -91 2169 -91 
Q 1331 -91 842 396 
Q 353 884 353 1716 
Q 353 2575 817 3079 
Q 1281 3584 2069 3584 
Q 2775 3584 3186 3129 
Q 3597 2675 3597 1894 
z
M 3022 2063 
Q 3016 2534 2758 2815 
Q 2500 3097 2075 3097 
Q 1594 3097 1305 2825 
Q 1016 2553 972 2059 
L 3022 2063 
z
" transform="scale(0.015625)"/>
       <path id="DejaVuSans-20" transform="scale(0.015625)"/>
       <path id="DejaVuSans-66" d="M 2375 4863 
L 2375 4384 
L 1825 4384 
Q 1516 4384 1395 4259 
Q 1275 4134 1275 3809 
L 1275 3500 
L 2222 3500 
L 2222 3053 
L 1275 3053 
L 1275 0 
L 697 0 
L 697 3053 
L 147 3053 
L 147 3500 
L 697 3500 
L 697 3744 
Q 697 4328 969 4595 
Q 1241 4863 1831 4863 
L 2375 4863 
z
" transform="scale(0.015625)"/>
       <path id="DejaVuSans-72" d="M 2631 2963 
Q 2534 3019 2420 3045 
Q 2306 3072 2169 3072 
Q 1681 3072 1420 2755 
Q 1159 2438 1159 1844 
L 1159 0 
L 581 0 
L 581 3500 
L 1159 3500 
L 1159 2956 
Q 1341 3275 1631 3429 
Q 1922 3584 2338 3584 
Q 2397 3584 2469 3576 
Q 2541 3569 2628 3553 
L 2631 2963 
z
" transform="scale(0.015625)"/>
       <path id="DejaVuSans-6f" d="M 1959 3097 
Q 1497 3097 1228 2736 
Q 959 2375 959 1747 
Q 959 1119 1226 758 
Q 1494 397 1959 397 
Q 2419 397 2687 759 
Q 2956 1122 2956 1747 
Q 2956 2369 2687 2733 
Q 2419 3097 1959 3097 
z
M 1959 3584 
Q 2709 3584 3137 3096 
Q 3566 2609 3566 1747 
Q 3566 888 3137 398 
Q 2709 -91 1959 -91 
Q 1206 -91 779 398 
Q 353 888 353 1747 
Q 353 2609 779 3096 
Q 1206 3584 1959 3584 
z
" transform="scale(0.015625)"/>
       <path id="DejaVuSans-73" d="M 2834 3397 
L 2834 2853 
Q 2591 2978 2328 3040 
Q 2066 3103 1784 3103 
Q 1356 3103 1142 2972 
Q 928 2841 928 2578 
Q 928 2378 1081 2264 
Q 1234 2150 1697 2047 
L 1894 2003 
Q 2506 1872 2764 1633 
Q 3022 1394 3022 966 
Q 3022 478 2636 193 
Q 2250 -91 1575 -91 
Q 1294 -91 989 -36 
Q 684 19 347 128 
L 347 722 
Q 666 556 975 473 
Q 1284 391 1588 391 
Q 1994 391 2212 530 
Q 2431 669 2431 922 
Q 2431 1156 2273 1281 
Q 2116 1406 1581 1522 
L 1381 1569 
Q 847 1681 609 1914 
Q 372 2147 372 2553 
Q 372 3047 722 3315 
Q 1072 3584 1716 3584 
Q 2034 3584 2315 3537 
Q 2597 3491 2834 3397 
z
" transform="scale(0.015625)"/>
       <path id="DejaVuSans-75" d="M 544 1381 
L 544 3500 
L 1119 3500 
L 1119 1403 
Q 1119 906 1312 657 
Q 1506 409 1894 409 
Q 2359 409 2629 706 
Q 2900 1003 2900 1516 
L 2900 3500 
L 3475 3500 
L 3475 0 
L 2900 0 
L 2900 538 
Q 2691 219 2414 64 
Q 2138 -91 1772 -91 
Q 1169 -91 856 284 
Q 544 659 544 1381 
z
M 1991 3584 
L 1991 3584 
z
" transform="scale(0.015625)"/>
       <path id="DejaVuSans-6c" d="M 603 4863 
L 1178 4863 
L 1178 0 
L 603 0 
L 603 4863 
z
" transform="scale(0.015625)"/>
       <path id="DejaVuSans-28" d="M 1984 4856 
Q 1566 4138 1362 3434 
Q 1159 2731 1159 2009 
Q 1159 1288 1364 580 
Q 1569 -128 1984 -844 
L 1484 -844 
Q 1016 -109 783 600 
Q 550 1309 550 2009 
Q 550 2706 781 3412 
Q 1013 4119 1484 4856 
L 1984 4856 
z
" transform="scale(0.015625)"/>
       <path id="DejaVuSans-63" d="M 3122 3366 
L 3122 2828 
Q 2878 2963 2633 3030 
Q 2388 3097 2138 3097 
Q 1578 3097 1268 2742 
Q 959 2388 959 1747 
Q 959 1106 1268 751 
Q 1578 397 2138 397 
Q 2388 397 2633 464 
Q 2878 531 3122 666 
L 3122 134 
Q 2881 22 2623 -34 
Q 2366 -91 2075 -91 
Q 1284 -91 818 406 
Q 353 903 353 1747 
Q 353 2603 823 3093 
Q 1294 3584 2113 3584 
Q 2378 3584 2631 3529 
Q 2884 3475 3122 3366 
z
" transform="scale(0.015625)"/>
       <path id="DejaVuSans-29" d="M 513 4856 
L 1013 4856 
Q 1481 4119 1714 3412 
Q 1947 2706 1947 2009 
Q 1947 1309 1714 600 
Q 1481 -109 1013 -844 
L 513 -844 
Q 928 -128 1133 580 
Q 1338 1288 1338 2009 
Q 1338 2731 1133 3434 
Q 928 4138 513 4856 
z
" transform="scale(0.015625)"/>
      </defs>
      <use xlink:href="#DejaVuSans-74"/>
      <use xlink:href="#DejaVuSans-69" x="39.208984"/>
      <use xlink:href="#DejaVuSans-6d" x="66.992188"/>
      <use xlink:href="#DejaVuSans-65" x="164.404297"/>
      <use xlink:href="#DejaVuSans-20" x="225.927734"/>
      <use xlink:href="#DejaVuSans-66" x="257.714844"/>
      <use xlink:href="#DejaVuSans-72" x="292.919922"/>
      <use xlink:href="#DejaVuSans-6f" x="331.783203"/>
      <use xlink:href="#DejaVuSans-6d" x="392.964844"/>
      <use xlink:href="#DejaVuSans-20" x="490.376953"/>
      <use xlink:href="#DejaVuSans-73" x="522.164062"/>
      <use xlink:href="#DejaVuSans-74" x="574.263672"/>
      <use xlink:href="#DejaVuSans-69" x="613.472656"/>
      <use xlink:href="#DejaVuSans-6d" x="641.255859"/>
      <use xlink:href="#DejaVuSans-75" x="738.667969"/>
      <use xlink:href="#DejaVuSans-6c" x="802.046875"/>
      <use xlink:href="#DejaVuSans-75" x="829.830078"/>
      <use xlink:href="#DejaVuSans-73" x="893.208984"/>
      <use xlink:href="#DejaVuSans-20" x="945.308594"/>
      <use xlink:href="#DejaVuSans-28" x="977.095703"/>
      <use xlink:href="#DejaVuSans-73" x="1016.109375"/>
      <use xlink:href="#DejaVuSans-65" x="1068.208984"/>
      <use xlink:href="#DejaVuSans-63" x="1129.732422"/>
      <use xlink:href="#DejaVuSans-29" x="1184.712891"/>
     </g>
    </g>
   </g>
   <g id="matplotlib.axis_2">
    <g id="ytick_1">
     <g id="line2d_4">
      <defs>
       <path id="m37add6b9e6" d="M 0 0 
L 9 0 
" style="stroke: #000000; stroke-width: 1.875"/>
      </defs>
      <g>
       <use xlink:href="#m37add6b9e6" x="45" y="140.4" style="stroke: #000000; stroke-width: 1.875"/>
      </g>
     </g>
     <g id="text_5">
      <!-- 0.4 -->
      <g transform="translate(17.883859 146.04184)scale(0.1485 -0.1485)">
       <defs>
        <path id="DejaVuSans-34" d="M 2419 4116 
L 825 1625 
L 2419 1625 
L 2419 4116 
z
M 2253 4666 
L 3047 4666 
L 3047 1625 
L 3713 1625 
L 3713 1100 
L 3047 1100 
L 3047 0 
L 2419 0 
L 2419 1100 
L 313 1100 
L 313 1709 
L 2253 4666 
z
" transform="scale(0.015625)"/>
       </defs>
       <use xlink:href="#DejaVuSans-30"/>
       <use xlink:href="#DejaVuSans-2e" x="63.623047"/>
       <use xlink:href="#DejaVuSans-34" x="95.410156"/>
      </g>
     </g>
    </g>
    <g id="ytick_2">
     <g id="line2d_5">
      <g>
       <use xlink:href="#m37add6b9e6" x="45" y="100.8" style="stroke: #000000; stroke-width: 1.875"/>
      </g>
     </g>
     <g id="text_6">
      <!-- 0.6 -->
      <g transform="translate(17.883859 106.44184)scale(0.1485 -0.1485)">
       <defs>
        <path id="DejaVuSans-36" d="M 2113 2584 
Q 1688 2584 1439 2293 
Q 1191 2003 1191 1497 
Q 1191 994 1439 701 
Q 1688 409 2113 409 
Q 2538 409 2786 701 
Q 3034 994 3034 1497 
Q 3034 2003 2786 2293 
Q 2538 2584 2113 2584 
z
M 3366 4563 
L 3366 3988 
Q 3128 4100 2886 4159 
Q 2644 4219 2406 4219 
Q 1781 4219 1451 3797 
Q 1122 3375 1075 2522 
Q 1259 2794 1537 2939 
Q 1816 3084 2150 3084 
Q 2853 3084 3261 2657 
Q 3669 2231 3669 1497 
Q 3669 778 3244 343 
Q 2819 -91 2113 -91 
Q 1303 -91 875 529 
Q 447 1150 447 2328 
Q 447 3434 972 4092 
Q 1497 4750 2381 4750 
Q 2619 4750 2861 4703 
Q 3103 4656 3366 4563 
z
" transform="scale(0.015625)"/>
       </defs>
       <use xlink:href="#DejaVuSans-30"/>
       <use xlink:href="#DejaVuSans-2e" x="63.623047"/>
       <use xlink:href="#DejaVuSans-36" x="95.410156"/>
      </g>
     </g>
    </g>
    <g id="ytick_3">
     <g id="line2d_6">
      <g>
       <use xlink:href="#m37add6b9e6" x="45" y="61.2" style="stroke: #000000; stroke-width: 1.875"/>
      </g>
     </g>
     <g id="text_7">
      <!-- 0.8 -->
      <g transform="translate(17.883859 66.84184)scale(0.1485 -0.1485)">
       <defs>
        <path id="DejaVuSans-38" d="M 2034 2216 
Q 1584 2216 1326 1975 
Q 1069 1734 1069 1313 
Q 1069 891 1326 650 
Q 1584 409 2034 409 
Q 2484 409 2743 651 
Q 3003 894 3003 1313 
Q 3003 1734 2745 1975 
Q 2488 2216 2034 2216 
z
M 1403 2484 
Q 997 2584 770 2862 
Q 544 3141 544 3541 
Q 544 4100 942 4425 
Q 1341 4750 2034 4750 
Q 2731 4750 3128 4425 
Q 3525 4100 3525 3541 
Q 3525 3141 3298 2862 
Q 3072 2584 2669 2484 
Q 3125 2378 3379 2068 
Q 3634 1759 3634 1313 
Q 3634 634 3220 271 
Q 2806 -91 2034 -91 
Q 1263 -91 848 271 
Q 434 634 434 1313 
Q 434 1759 690 2068 
Q 947 2378 1403 2484 
z
M 1172 3481 
Q 1172 3119 1398 2916 
Q 1625 2713 2034 2713 
Q 2441 2713 2670 2916 
Q 2900 3119 2900 3481 
Q 2900 3844 2670 4047 
Q 2441 4250 2034 4250 
Q 1625 4250 1398 4047 
Q 1172 3844 1172 3481 
z
" transform="scale(0.015625)"/>
       </defs>
       <use xlink:href="#DejaVuSans-30"/>
       <use xlink:href="#DejaVuSans-2e" x="63.623047"/>
       <use xlink:href="#DejaVuSans-38" x="95.410156"/>
      </g>
     </g>
    </g>
    <g id="ytick_4">
     <g id="line2d_7">
      <g>
       <use xlink:href="#m37add6b9e6" x="45" y="21.6" style="stroke: #000000; stroke-width: 1.875"/>
      </g>
     </g>
     <g id="text_8">
      <!-- 1.0 -->
      <g transform="translate(17.883859 27.24184)scale(0.1485 -0.1485)">
       <defs>
        <path id="DejaVuSans-31" d="M 794 531 
L 1825 531 
L 1825 4091 
L 703 3866 
L 703 4441 
L 1819 4666 
L 2450 4666 
L 2450 531 
L 3481 531 
L 3481 0 
L 794 0 
L 794 531 
z
" transform="scale(0.015625)"/>
       </defs>
       <use xlink:href="#DejaVuSans-31"/>
       <use xlink:href="#DejaVuSans-2e" x="63.623047"/>
       <use xlink:href="#DejaVuSans-30" x="95.410156"/>
      </g>
     </g>
    </g>
    <g id="text_9">
     <!-- accuracy -->
     <g transform="translate(10.514766 127.446187)rotate(-90)scale(0.162 -0.162)">
      <defs>
       <path id="DejaVuSans-61" d="M 2194 1759 
Q 1497 1759 1228 1600 
Q 959 1441 959 1056 
Q 959 750 1161 570 
Q 1363 391 1709 391 
Q 2188 391 2477 730 
Q 2766 1069 2766 1631 
L 2766 1759 
L 2194 1759 
z
M 3341 1997 
L 3341 0 
L 2766 0 
L 2766 531 
Q 2569 213 2275 61 
Q 1981 -91 1556 -91 
Q 1019 -91 701 211 
Q 384 513 384 1019 
Q 384 1609 779 1909 
Q 1175 2209 1959 2209 
L 2766 2209 
L 2766 2266 
Q 2766 2663 2505 2880 
Q 2244 3097 1772 3097 
Q 1472 3097 1187 3025 
Q 903 2953 641 2809 
L 641 3341 
Q 956 3463 1253 3523 
Q 1550 3584 1831 3584 
Q 2591 3584 2966 3190 
Q 3341 2797 3341 1997 
z
" transform="scale(0.015625)"/>
       <path id="DejaVuSans-79" d="M 2059 -325 
Q 1816 -950 1584 -1140 
Q 1353 -1331 966 -1331 
L 506 -1331 
L 506 -850 
L 844 -850 
Q 1081 -850 1212 -737 
Q 1344 -625 1503 -206 
L 1606 56 
L 191 3500 
L 800 3500 
L 1894 763 
L 2988 3500 
L 3597 3500 
L 2059 -325 
z
" transform="scale(0.015625)"/>
      </defs>
      <use xlink:href="#DejaVuSans-61"/>
      <use xlink:href="#DejaVuSans-63" x="61.279297"/>
      <use xlink:href="#DejaVuSans-63" x="116.259766"/>
      <use xlink:href="#DejaVuSans-75" x="171.240234"/>
      <use xlink:href="#DejaVuSans-72" x="234.619141"/>
      <use xlink:href="#DejaVuSans-61" x="275.732422"/>
      <use xlink:href="#DejaVuSans-63" x="337.011719"/>
      <use xlink:href="#DejaVuSans-79" x="391.992188"/>
     </g>
    </g>
   </g>
   <g id="line2d_8">
    <path d="M 46.585227 120.6 
L 49.755682 120.6 
L 52.926136 120.6 
L 56.096591 120.6 
L 59.267045 120.6 
L 62.4375 120.6 
L 65.607955 120.6 
L 68.778409 120.6 
L 71.948864 120.6 
L 75.119318 120.6 
L 78.289773 120.6 
L 81.460227 120.6 
L 84.630682 120.6 
L 87.801136 120.6 
L 90.971591 120.6 
L 94.142045 120.6 
L 97.3125 120.6 
L 100.482955 120.6 
L 103.653409 120.6 
L 106.823864 120.6 
L 109.994318 120.6 
L 113.164773 120.6 
L 116.335227 120.6 
L 119.505682 120.6 
L 122.676136 120.6 
L 125.846591 120.6 
L 129.017045 120.6 
L 132.1875 120.6 
L 135.357955 120.6 
L 138.528409 120.6 
L 141.698864 120.6 
L 144.869318 120.6 
L 148.039773 120.6 
L 151.210227 120.6 
L 154.380682 120.6 
L 157.551136 120.6 
L 160.721591 120.6 
L 163.892045 120.6 
L 167.0625 120.6 
L 170.232955 120.6 
L 173.403409 120.6 
L 176.573864 120.6 
L 179.744318 120.6 
L 182.914773 120.6 
L 186.085227 120.6 
L 189.255682 120.6 
L 192.426136 120.6 
L 195.596591 120.6 
L 198.767045 120.6 
L 201.9375 120.6 
L 205.107955 120.6 
L 208.278409 120.6 
L 211.448864 120.6 
L 214.619318 120.6 
L 217.789773 120.6 
L 220.960227 120.6 
L 224.130682 120.6 
L 227.301136 120.6 
" clip-path="url(#p74dd20194e)" style="fill: none; stroke-dasharray: 8.325,3.6; stroke-dashoffset: 0; stroke: #000000; stroke-width: 2.25"/>
   </g>
   <g id="line2d_9">
    <path d="M 46.585227 121.8474 
L 49.755682 121.293 
L 52.926136 121.194 
L 56.096591 116.838 
L 59.267045 112.6008 
L 62.4375 109.5714 
L 65.607955 108.8586 
L 68.778409 108.3042 
L 71.948864 108.7992 
L 75.119318 113.2938 
L 78.289773 117.0558 
L 81.460227 118.7982 
L 84.630682 115.155 
L 87.801136 112.1454 
L 90.971591 111.8484 
L 94.142045 113.7096 
L 97.3125 114.6006 
L 100.482955 114.5016 
L 103.653409 112.3434 
L 106.823864 108.9972 
L 109.994318 107.7696 
L 113.164773 104.2056 
L 116.335227 99.0774 
L 119.505682 90.4842 
L 122.676136 85.1382 
L 125.846591 81.99 
L 129.017045 79.9506 
L 132.1875 76.05 
L 135.357955 72.1098 
L 138.528409 71.3574 
L 141.698864 74.2878 
L 144.869318 74.862 
L 148.039773 74.3076 
L 151.210227 73.7136 
L 154.380682 74.9412 
L 157.551136 78.6042 
L 160.721591 83.5938 
L 163.892045 88.9794 
L 167.0625 91.4148 
L 170.232955 92.7216 
L 173.403409 92.8206 
L 176.573864 92.4642 
L 179.744318 90.207 
L 182.914773 88.1874 
L 186.085227 86.247 
L 189.255682 88.8012 
L 192.426136 92.9196 
L 195.596591 96.5034 
L 198.767045 97.83 
L 201.9375 98.5626 
L 205.107955 97.731 
L 208.278409 94.0482 
L 211.448864 88.3656 
L 214.619318 82.98 
L 217.789773 78.9606 
L 220.960227 75.4956 
L 224.130682 74.5452 
L 227.301136 77.1588 
" clip-path="url(#p74dd20194e)" style="fill: none; stroke: #1f77b4; stroke-width: 2.25; stroke-linecap: square"/>
   </g>
   <g id="line2d_10">
    <path d="M 46.585227 113.1948 
L 49.755682 114.4422 
L 52.926136 115.8282 
L 56.096591 116.2044 
L 59.267045 115.353 
L 62.4375 114.5214 
L 65.607955 113.2542 
L 68.778409 111.195 
L 71.948864 109.314 
L 75.119318 107.5914 
L 78.289773 105.6114 
L 81.460227 103.4928 
L 84.630682 101.8098 
L 87.801136 102.7206 
L 90.971591 106.0074 
L 94.142045 109.8288 
L 97.3125 113.8086 
L 100.482955 113.7492 
L 103.653409 111.492 
L 106.823864 107.3142 
L 109.994318 100.0674 
L 113.164773 88.0884 
L 116.335227 71.8524 
L 119.505682 57.24 
L 122.676136 44.8848 
L 125.846591 37.5984 
L 129.017045 33.6582 
L 132.1875 31.5 
L 135.357955 30.1932 
L 138.528409 30.2328 
L 141.698864 31.0842 
L 144.869318 33.381 
L 148.039773 34.1136 
L 151.210227 34.9056 
L 154.380682 34.4502 
L 157.551136 34.1532 
L 160.721591 33.0444 
L 163.892045 31.5594 
L 167.0625 30.4506 
L 170.232955 30.4308 
L 173.403409 30.2526 
L 176.573864 30.7872 
L 179.744318 31.4208 
L 182.914773 32.0148 
L 186.085227 33.1434 
L 189.255682 34.569 
L 192.426136 35.1432 
L 195.596591 35.0838 
L 198.767045 35.163 
L 201.9375 36.0936 
L 205.107955 36.8262 
L 208.278409 36.945 
L 211.448864 37.5984 
L 214.619318 36.9054 
L 217.789773 34.8858 
L 220.960227 34.272 
L 224.130682 34.9254 
L 227.301136 37.3806 
" clip-path="url(#p74dd20194e)" style="fill: none; stroke: #ff7f0e; stroke-width: 2.25; stroke-linecap: square"/>
   </g>
   <g id="line2d_11">
    <path d="M 46.585227 116.541 
L 49.755682 115.9668 
L 52.926136 114.8184 
L 56.096591 109.9872 
L 59.267045 105.0174 
L 62.4375 103.2156 
L 65.607955 104.265 
L 68.778409 105.5322 
L 71.948864 106.938 
L 75.119318 110.304 
L 78.289773 113.3136 
L 81.460227 115.947 
L 84.630682 114.1254 
L 87.801136 114.8184 
L 90.971591 114.2244 
L 94.142045 116.0262 
L 97.3125 116.6994 
L 100.482955 117.234 
L 103.653409 117.2142 
L 106.823864 115.7886 
L 109.994318 114.4818 
L 113.164773 111.9474 
L 116.335227 106.2252 
L 119.505682 99.5922 
L 122.676136 96.4044 
L 125.846591 96.147 
L 129.017045 95.4342 
L 132.1875 92.2266 
L 135.357955 86.5044 
L 138.528409 81.7524 
L 141.698864 78.624 
L 144.869318 73.278 
L 148.039773 70.803 
L 151.210227 69.3972 
L 154.380682 70.6248 
L 157.551136 73.4166 
L 160.721591 76.5054 
L 163.892045 79.0398 
L 167.0625 78.2478 
L 170.232955 76.446 
L 173.403409 75.951 
L 176.573864 75.7926 
L 179.744318 74.3868 
L 182.914773 74.3868 
L 186.085227 75.2184 
L 189.255682 79.02 
L 192.426136 82.782 
L 195.596591 87.5538 
L 198.767045 90.108 
L 201.9375 91.3752 
L 205.107955 90.9 
L 208.278409 86.5044 
L 211.448864 79.5348 
L 214.619318 74.6244 
L 217.789773 73.8522 
L 220.960227 74.0502 
L 224.130682 76.644 
L 227.301136 82.386 
" clip-path="url(#p74dd20194e)" style="fill: none; stroke: #2ca02c; stroke-width: 2.25; stroke-linecap: square"/>
   </g>
   <g id="patch_3">
    <path d="M 45 160.2 
L 45 21.6 
" style="fill: none; stroke: #000000; stroke-width: 1.875; stroke-linejoin: miter; stroke-linecap: square"/>
   </g>
   <g id="patch_4">
    <path d="M 45 160.2 
L 171.818182 160.2 
" style="fill: none; stroke: #000000; stroke-width: 1.875; stroke-linejoin: miter; stroke-linecap: square"/>
   </g>
   <g id="text_10">
    <!-- PFC -->
    <g transform="translate(93.2102 15.6)scale(0.162 -0.162)">
     <defs>
      <path id="DejaVuSans-50" d="M 1259 4147 
L 1259 2394 
L 2053 2394 
Q 2494 2394 2734 2622 
Q 2975 2850 2975 3272 
Q 2975 3691 2734 3919 
Q 2494 4147 2053 4147 
L 1259 4147 
z
M 628 4666 
L 2053 4666 
Q 2838 4666 3239 4311 
Q 3641 3956 3641 3272 
Q 3641 2581 3239 2228 
Q 2838 1875 2053 1875 
L 1259 1875 
L 1259 0 
L 628 0 
L 628 4666 
z
" transform="scale(0.015625)"/>
      <path id="DejaVuSans-46" d="M 628 4666 
L 3309 4666 
L 3309 4134 
L 1259 4134 
L 1259 2759 
L 3109 2759 
L 3109 2228 
L 1259 2228 
L 1259 0 
L 628 0 
L 628 4666 
z
" transform="scale(0.015625)"/>
      <path id="DejaVuSans-43" d="M 4122 4306 
L 4122 3641 
Q 3803 3938 3442 4084 
Q 3081 4231 2675 4231 
Q 1875 4231 1450 3742 
Q 1025 3253 1025 2328 
Q 1025 1406 1450 917 
Q 1875 428 2675 428 
Q 3081 428 3442 575 
Q 3803 722 4122 1019 
L 4122 359 
Q 3791 134 3420 21 
Q 3050 -91 2638 -91 
Q 1578 -91 968 557 
Q 359 1206 359 2328 
Q 359 3453 968 4101 
Q 1578 4750 2638 4750 
Q 3056 4750 3426 4639 
Q 3797 4528 4122 4306 
z
" transform="scale(0.015625)"/>
     </defs>
     <use xlink:href="#DejaVuSans-50"/>
     <use xlink:href="#DejaVuSans-46" x="60.302734"/>
     <use xlink:href="#DejaVuSans-43" x="117.822266"/>
    </g>
   </g>
  </g>
  <g id="axes_2">
   <g id="patch_5">
    <path d="M 197.181818 160.2 
L 324 160.2 
L 324 21.6 
L 197.181818 21.6 
z
" style="fill: #ffffff"/>
   </g>
   <g id="PolyCollection_3">
    <defs>
     <path id="m7e0a30751c" d="M 198.767045 -85.239 
L 198.767045 -37.521 
L 201.9375 -37.62 
L 205.107955 -37.521 
L 208.278409 -39.6 
L 211.448864 -39.501 
L 214.619318 -35.64 
L 217.789773 -35.64 
L 220.960227 -37.521 
L 224.130682 -35.64 
L 227.301136 -39.6 
L 230.471591 -39.501 
L 233.642045 -37.521 
L 236.8125 -35.64 
L 239.982955 -35.541 
L 243.153409 -35.541 
L 246.323864 -37.62 
L 249.494318 -35.64 
L 252.664773 -37.521 
L 255.835227 -33.561 
L 259.005682 -37.521 
L 262.176136 -37.62 
L 265.346591 -37.62 
L 268.517045 -41.481 
L 271.6875 -37.62 
L 274.857955 -37.521 
L 278.028409 -37.521 
L 281.198864 -35.64 
L 284.369318 -37.521 
L 287.539773 -35.541 
L 290.710227 -35.541 
L 293.880682 -35.64 
L 297.051136 -35.541 
L 300.221591 -35.541 
L 303.392045 -37.62 
L 306.5625 -37.521 
L 309.732955 -33.66 
L 312.903409 -33.66 
L 316.073864 -35.64 
L 319.244318 -39.501 
L 322.414773 -37.62 
L 325.585227 -37.521 
L 328.755682 -33.66 
L 331.926136 -41.481 
L 335.096591 -41.58 
L 338.267045 -43.56 
L 341.4375 -39.6 
L 344.607955 -39.6 
L 347.778409 -41.58 
L 350.948864 -39.402 
L 354.119318 -37.62 
L 357.289773 -33.66 
L 360.460227 -35.64 
L 363.630682 -39.501 
L 366.801136 -35.64 
L 369.971591 -35.541 
L 373.142045 -39.6 
L 376.3125 -37.62 
L 379.482955 -41.58 
L 379.482955 -81.18 
L 379.482955 -81.18 
L 376.3125 -83.16 
L 373.142045 -81.279 
L 369.971591 -79.299 
L 366.801136 -79.2 
L 363.630682 -79.2 
L 360.460227 -81.18 
L 357.289773 -81.279 
L 354.119318 -81.18 
L 350.948864 -81.18 
L 347.778409 -83.358 
L 344.607955 -87.219 
L 341.4375 -85.239 
L 338.267045 -83.16 
L 335.096591 -85.239 
L 331.926136 -79.398 
L 328.755682 -81.18 
L 325.585227 -81.18 
L 322.414773 -79.398 
L 319.244318 -81.279 
L 316.073864 -85.14 
L 312.903409 -85.239 
L 309.732955 -83.16 
L 306.5625 -77.319 
L 303.392045 -79.299 
L 300.221591 -77.22 
L 297.051136 -77.22 
L 293.880682 -77.319 
L 290.710227 -79.299 
L 287.539773 -81.18 
L 284.369318 -79.2 
L 281.198864 -79.2 
L 278.028409 -83.358 
L 274.857955 -81.279 
L 271.6875 -85.14 
L 268.517045 -85.14 
L 265.346591 -83.358 
L 262.176136 -83.16 
L 259.005682 -87.12 
L 255.835227 -81.378 
L 252.664773 -81.279 
L 249.494318 -81.18 
L 246.323864 -81.675 
L 243.153409 -81.18 
L 239.982955 -85.14 
L 236.8125 -81.18 
L 233.642045 -81.18 
L 230.471591 -79.299 
L 227.301136 -81.378 
L 224.130682 -85.14 
L 220.960227 -77.22 
L 217.789773 -77.22 
L 214.619318 -81.279 
L 211.448864 -81.18 
L 208.278409 -77.319 
L 205.107955 -79.2 
L 201.9375 -81.18 
L 198.767045 -85.239 
z
" style="stroke: #000000; stroke-opacity: 0.25; stroke-width: 1.5"/>
    </defs>
    <g clip-path="url(#p883ec13e43)">
     <use xlink:href="#m7e0a30751c" x="0" y="180" style="fill-opacity: 0.25; stroke: #000000; stroke-opacity: 0.25; stroke-width: 1.5"/>
    </g>
   </g>
   <g id="PolyCollection_4">
    <defs>
     <path id="m2363436292" d="M 198.767045 -79.398 
L 198.767045 -35.541 
L 201.9375 -37.521 
L 205.107955 -33.66 
L 208.278409 -31.68 
L 211.448864 -35.541 
L 214.619318 -41.481 
L 217.789773 -41.481 
L 220.960227 -41.58 
L 224.130682 -39.501 
L 227.301136 -39.402 
L 230.471591 -37.62 
L 233.642045 -33.66 
L 236.8125 -35.64 
L 239.982955 -37.422 
L 243.153409 -35.541 
L 246.323864 -35.442 
L 249.494318 -31.68 
L 252.664773 -39.501 
L 255.835227 -41.481 
L 259.005682 -43.461 
L 262.176136 -39.6 
L 265.346591 -35.64 
L 268.517045 -37.422 
L 271.6875 -37.521 
L 274.857955 -35.64 
L 278.028409 -35.442 
L 281.198864 -33.66 
L 284.369318 -37.521 
L 287.539773 -37.62 
L 290.710227 -39.501 
L 293.880682 -37.62 
L 297.051136 -37.62 
L 300.221591 -33.66 
L 303.392045 -31.482 
L 306.5625 -33.66 
L 309.732955 -33.66 
L 312.903409 -33.66 
L 316.073864 -33.66 
L 319.244318 -33.66 
L 322.414773 -35.64 
L 325.585227 -37.62 
L 328.755682 -41.58 
L 331.926136 -39.6 
L 335.096591 -41.382 
L 338.267045 -41.481 
L 341.4375 -37.62 
L 344.607955 -37.62 
L 347.778409 -37.521 
L 350.948864 -37.62 
L 354.119318 -37.521 
L 357.289773 -37.521 
L 360.460227 -39.303 
L 363.630682 -39.501 
L 366.801136 -39.6 
L 369.971591 -35.64 
L 373.142045 -37.323 
L 376.3125 -33.561 
L 379.482955 -37.62 
L 379.482955 -81.279 
L 379.482955 -81.279 
L 376.3125 -85.239 
L 373.142045 -87.219 
L 369.971591 -89.199 
L 366.801136 -85.338 
L 363.630682 -81.279 
L 360.460227 -83.259 
L 357.289773 -81.279 
L 354.119318 -79.2 
L 350.948864 -79.2 
L 347.778409 -83.358 
L 344.607955 -79.2 
L 341.4375 -75.339 
L 338.267045 -79.2 
L 335.096591 -81.18 
L 331.926136 -89.1 
L 328.755682 -83.16 
L 325.585227 -81.279 
L 322.414773 -83.259 
L 319.244318 -79.299 
L 316.073864 -85.239 
L 312.903409 -85.239 
L 309.732955 -87.219 
L 306.5625 -83.259 
L 303.392045 -81.279 
L 300.221591 -81.18 
L 297.051136 -83.259 
L 293.880682 -85.14 
L 290.710227 -83.16 
L 287.539773 -79.299 
L 284.369318 -79.2 
L 281.198864 -83.16 
L 278.028409 -83.358 
L 274.857955 -81.279 
L 271.6875 -83.259 
L 268.517045 -83.16 
L 265.346591 -83.16 
L 262.176136 -79.2 
L 259.005682 -75.24 
L 255.835227 -79.398 
L 252.664773 -81.279 
L 249.494318 -81.279 
L 246.323864 -79.299 
L 243.153409 -79.2 
L 239.982955 -81.279 
L 236.8125 -81.279 
L 233.642045 -85.14 
L 230.471591 -81.18 
L 227.301136 -81.18 
L 224.130682 -79.299 
L 220.960227 -81.18 
L 217.789773 -79.299 
L 214.619318 -79.398 
L 211.448864 -79.2 
L 208.278409 -79.2 
L 205.107955 -79.2 
L 201.9375 -81.378 
L 198.767045 -79.398 
z
" style="stroke: #000000; stroke-opacity: 0.25; stroke-width: 1.5"/>
    </defs>
    <g clip-path="url(#p883ec13e43)">
     <use xlink:href="#m2363436292" x="0" y="180" style="fill-opacity: 0.25; stroke: #000000; stroke-opacity: 0.25; stroke-width: 1.5"/>
    </g>
   </g>
   <g id="matplotlib.axis_3">
    <g id="xtick_4">
     <g id="line2d_12">
      <g>
       <use xlink:href="#m7248af2147" x="197.181818" y="160.2" style="stroke: #000000; stroke-width: 1.875"/>
      </g>
     </g>
     <g id="text_11">
      <!-- −0.5 -->
      <g transform="translate(179.15183 174.98368)scale(0.1485 -0.1485)">
       <use xlink:href="#DejaVuSans-2212"/>
       <use xlink:href="#DejaVuSans-30" x="83.789062"/>
       <use xlink:href="#DejaVuSans-2e" x="147.412109"/>
       <use xlink:href="#DejaVuSans-35" x="179.199219"/>
      </g>
     </g>
    </g>
    <g id="xtick_5">
     <g id="line2d_13">
      <g>
       <use xlink:href="#m7248af2147" x="260.590909" y="160.2" style="stroke: #000000; stroke-width: 1.875"/>
      </g>
     </g>
     <g id="text_12">
      <!-- 0.0 -->
      <g transform="translate(248.782839 174.98368)scale(0.1485 -0.1485)">
       <use xlink:href="#DejaVuSans-30"/>
       <use xlink:href="#DejaVuSans-2e" x="63.623047"/>
       <use xlink:href="#DejaVuSans-30" x="95.410156"/>
      </g>
     </g>
    </g>
    <g id="xtick_6">
     <g id="line2d_14">
      <g>
       <use xlink:href="#m7248af2147" x="324" y="160.2" style="stroke: #000000; stroke-width: 1.875"/>
      </g>
     </g>
     <g id="text_13">
      <!-- 0.5 -->
      <g transform="translate(312.19193 174.98368)scale(0.1485 -0.1485)">
       <use xlink:href="#DejaVuSans-30"/>
       <use xlink:href="#DejaVuSans-2e" x="63.623047"/>
       <use xlink:href="#DejaVuSans-35" x="95.410156"/>
      </g>
     </g>
    </g>
   </g>
   <g id="matplotlib.axis_4">
    <g id="ytick_5">
     <g id="line2d_15">
      <g>
       <use xlink:href="#m37add6b9e6" x="197.181818" y="140.4" style="stroke: #000000; stroke-width: 1.875"/>
      </g>
     </g>
    </g>
    <g id="ytick_6">
     <g id="line2d_16">
      <g>
       <use xlink:href="#m37add6b9e6" x="197.181818" y="100.8" style="stroke: #000000; stroke-width: 1.875"/>
      </g>
     </g>
    </g>
    <g id="ytick_7">
     <g id="line2d_17">
      <g>
       <use xlink:href="#m37add6b9e6" x="197.181818" y="61.2" style="stroke: #000000; stroke-width: 1.875"/>
      </g>
     </g>
    </g>
    <g id="ytick_8">
     <g id="line2d_18">
      <g>
       <use xlink:href="#m37add6b9e6" x="197.181818" y="21.6" style="stroke: #000000; stroke-width: 1.875"/>
      </g>
     </g>
    </g>
   </g>
   <g id="line2d_19">
    <path d="M 198.767045 120.6 
L 201.9375 120.6 
L 205.107955 120.6 
L 208.278409 120.6 
L 211.448864 120.6 
L 214.619318 120.6 
L 217.789773 120.6 
L 220.960227 120.6 
L 224.130682 120.6 
L 227.301136 120.6 
L 230.471591 120.6 
L 233.642045 120.6 
L 236.8125 120.6 
L 239.982955 120.6 
L 243.153409 120.6 
L 246.323864 120.6 
L 249.494318 120.6 
L 252.664773 120.6 
L 255.835227 120.6 
L 259.005682 120.6 
L 262.176136 120.6 
L 265.346591 120.6 
L 268.517045 120.6 
L 271.6875 120.6 
L 274.857955 120.6 
L 278.028409 120.6 
L 281.198864 120.6 
L 284.369318 120.6 
L 287.539773 120.6 
L 290.710227 120.6 
L 293.880682 120.6 
L 297.051136 120.6 
L 300.221591 120.6 
L 303.392045 120.6 
L 306.5625 120.6 
L 309.732955 120.6 
L 312.903409 120.6 
L 316.073864 120.6 
L 319.244318 120.6 
L 322.414773 120.6 
L 325.585227 120.6 
L 328.755682 120.6 
L 331.926136 120.6 
L 335.096591 120.6 
L 338.267045 120.6 
L 341.4375 120.6 
L 344.607955 120.6 
L 347.778409 120.6 
L 350.948864 120.6 
L 354.119318 120.6 
L 357.289773 120.6 
L 360.460227 120.6 
L 361 120.6 
" clip-path="url(#p883ec13e43)" style="fill: none; stroke-dasharray: 8.325,3.6; stroke-dashoffset: 0; stroke: #000000; stroke-width: 2.25"/>
   </g>
   <g id="line2d_20">
    <path d="M 198.767045 101.2554 
L 201.9375 101.2554 
L 205.107955 102.681 
L 208.278409 105.3342 
L 211.448864 107.2152 
L 214.619318 107.3142 
L 217.789773 104.5224 
L 220.960227 103.0374 
L 224.130682 104.265 
L 227.301136 105.7104 
L 230.471591 108.8586 
L 233.642045 110.106 
L 236.8125 110.898 
L 239.982955 112.6008 
L 243.153409 115.551 
L 246.323864 116.937 
L 249.494318 115.0758 
L 252.664773 113.5314 
L 255.835227 106.5024 
L 259.005682 88.6428 
L 262.176136 68.7438 
L 265.346591 55.2996 
L 268.517045 50.9832 
L 271.6875 51.399 
L 274.857955 53.1216 
L 278.028409 55.2006 
L 281.198864 57.3588 
L 284.369318 60.1506 
L 287.539773 62.982 
L 290.710227 68.4468 
L 293.880682 76.5846 
L 297.051136 85.9302 
L 300.221591 93.177 
L 303.392045 96.8004 
L 306.5625 100.0872 
L 309.732955 104.1066 
L 312.903409 106.7598 
L 316.073864 107.4132 
L 319.244318 107.3538 
L 322.414773 106.8786 
L 325.585227 105.2946 
L 328.755682 102.6018 
L 331.926136 99.8694 
L 335.096591 96.9786 
L 338.267045 93.7116 
L 341.4375 89.1378 
L 344.607955 85.6926 
L 347.778409 82.0098 
L 350.948864 79.515 
L 354.119318 77.9508 
L 357.289773 77.3766 
L 360.460227 78.8616 
L 361 79.229035 
" clip-path="url(#p883ec13e43)" style="fill: none; stroke: #1f77b4; stroke-width: 2.25; stroke-linecap: square"/>
   </g>
   <g id="line2d_21">
    <path d="M 198.767045 121.5306 
L 201.9375 116.838 
L 205.107955 112.3434 
L 208.278409 111.4524 
L 211.448864 112.9176 
L 214.619318 116.9568 
L 217.789773 118.6002 
L 220.960227 118.4418 
L 224.130682 116.64 
L 227.301136 114.7392 
L 230.471591 114.2046 
L 233.642045 113.9868 
L 236.8125 113.3136 
L 239.982955 112.7394 
L 243.153409 114.3432 
L 246.323864 115.6896 
L 249.494318 118.0854 
L 252.664773 116.5014 
L 255.835227 107.0568 
L 259.005682 85.8312 
L 262.176136 65.6748 
L 265.346591 53.775 
L 268.517045 46.9836 
L 271.6875 44.6274 
L 274.857955 41.004 
L 278.028409 37.7568 
L 281.198864 34.965 
L 284.369318 33.1434 
L 287.539773 33.1236 
L 290.710227 35.4204 
L 293.880682 37.0242 
L 297.051136 37.6974 
L 300.221591 38.6082 
L 303.392045 39.4794 
L 306.5625 39.9744 
L 309.732955 40.9842 
L 312.903409 42.0336 
L 316.073864 42.2316 
L 319.244318 40.7268 
L 322.414773 39.3804 
L 325.585227 36.9846 
L 328.755682 35.1432 
L 331.926136 34.2522 
L 335.096591 33.084 
L 338.267045 32.2524 
L 341.4375 32.391 
L 344.607955 32.589 
L 347.778409 32.7276 
L 350.948864 33.9156 
L 354.119318 34.569 
L 357.289773 33.8562 
L 360.460227 33.48 
L 361 33.321565 
" clip-path="url(#p883ec13e43)" style="fill: none; stroke: #ff7f0e; stroke-width: 2.25; stroke-linecap: square"/>
   </g>
   <g id="line2d_22">
    <path d="M 198.767045 95.2956 
L 201.9375 93.7314 
L 205.107955 94.9194 
L 208.278409 98.9388 
L 211.448864 102.0276 
L 214.619318 104.067 
L 217.789773 102.9582 
L 220.960227 102.582 
L 224.130682 102.1464 
L 227.301136 101.6712 
L 230.471591 104.7798 
L 233.642045 107.9676 
L 236.8125 112.2048 
L 239.982955 114.0462 
L 243.153409 114.8976 
L 246.323864 113.8482 
L 249.494318 109.4526 
L 252.664773 107.5716 
L 255.835227 102.8394 
L 259.005682 95.5926 
L 262.176136 84.5442 
L 265.346591 73.6938 
L 268.517045 68.2686 
L 271.6875 64.566 
L 274.857955 62.289 
L 278.028409 61.4376 
L 281.198864 61.1406 
L 284.369318 61.794 
L 287.539773 63.3582 
L 290.710227 64.665 
L 293.880682 65.5758 
L 297.051136 67.2588 
L 300.221591 69.2388 
L 303.392045 71.1594 
L 306.5625 73.5156 
L 309.732955 76.2876 
L 312.903409 79.8318 
L 316.073864 81.8514 
L 319.244318 81.396 
L 322.414773 81 
L 325.585227 79.4754 
L 328.755682 74.2284 
L 331.926136 69.7932 
L 335.096591 66.7638 
L 338.267045 65.1798 
L 341.4375 64.1106 
L 344.607955 62.5662 
L 347.778409 60.7446 
L 350.948864 58.032 
L 354.119318 57.4776 
L 357.289773 57.1806 
L 360.460227 59.3388 
L 361 59.712977 
" clip-path="url(#p883ec13e43)" style="fill: none; stroke: #2ca02c; stroke-width: 2.25; stroke-linecap: square"/>
   </g>
   <g id="patch_6">
    <path d="M 197.181818 160.2 
L 197.181818 21.6 
" style="fill: none; stroke: #000000; stroke-width: 1.875; stroke-linejoin: miter; stroke-linecap: square"/>
   </g>
   <g id="patch_7">
    <path d="M 197.181818 160.2 
L 324 160.2 
" style="fill: none; stroke: #000000; stroke-width: 1.875; stroke-linejoin: miter; stroke-linecap: square"/>
   </g>
   <g id="text_14">
    <!-- A1 -->
    <g transform="translate(249.896378 15.6)scale(0.162 -0.162)">
     <defs>
      <path id="DejaVuSans-41" d="M 2188 4044 
L 1331 1722 
L 3047 1722 
L 2188 4044 
z
M 1831 4666 
L 2547 4666 
L 4325 0 
L 3669 0 
L 3244 1197 
L 1141 1197 
L 716 0 
L 50 0 
L 1831 4666 
z
" transform="scale(0.015625)"/>
     </defs>
     <use xlink:href="#DejaVuSans-41"/>
     <use xlink:href="#DejaVuSans-31" x="68.408203"/>
    </g>
   </g>
   <g id="legend_1">
    <g id="patch_8">
     <path d="M 334.395 189.968062 
L 525.44257 189.968062 
Q 528.41257 189.968062 528.41257 186.998062 
L 528.41257 101.295 
Q 528.41257 98.325 525.44257 98.325 
L 334.395 98.325 
Q 331.425 98.325 331.425 101.295 
L 331.425 186.998062 
Q 331.425 189.968062 334.395 189.968062 
z
" style="fill: #ffffff; opacity: 0.8; stroke: #cccccc; stroke-width: 1.5; stroke-linejoin: miter"/>
    </g>
    <g id="patch_9">
     <path d="M 337.365 115.54868 
L 367.065 115.54868 
L 367.065 105.15368 
L 337.365 105.15368 
z
" style="fill-opacity: 0.25; stroke: #000000; stroke-opacity: 0.25; stroke-width: 1.5; stroke-linejoin: miter"/>
    </g>
    <g id="text_15">
     <!-- shuffle -->
     <g transform="translate(378.945 115.54868)scale(0.1485 -0.1485)">
      <defs>
       <path id="DejaVuSans-68" d="M 3513 2113 
L 3513 0 
L 2938 0 
L 2938 2094 
Q 2938 2591 2744 2837 
Q 2550 3084 2163 3084 
Q 1697 3084 1428 2787 
Q 1159 2491 1159 1978 
L 1159 0 
L 581 0 
L 581 4863 
L 1159 4863 
L 1159 2956 
Q 1366 3272 1645 3428 
Q 1925 3584 2291 3584 
Q 2894 3584 3203 3211 
Q 3513 2838 3513 2113 
z
" transform="scale(0.015625)"/>
      </defs>
      <use xlink:href="#DejaVuSans-73"/>
      <use xlink:href="#DejaVuSans-68" x="52.099609"/>
      <use xlink:href="#DejaVuSans-75" x="115.478516"/>
      <use xlink:href="#DejaVuSans-66" x="178.857422"/>
      <use xlink:href="#DejaVuSans-66" x="214.0625"/>
      <use xlink:href="#DejaVuSans-6c" x="249.267578"/>
      <use xlink:href="#DejaVuSans-65" x="277.050781"/>
     </g>
    </g>
    <g id="line2d_23">
     <path d="M 337.365 132.148195 
L 361 132.148195 
" style="fill: none; stroke: #1f77b4; stroke-width: 2.25; stroke-linecap: square"/>
    </g>
    <g id="line2d_24"/>
    <g id="text_16">
     <!-- relevant (w/ errors) -->
     <g transform="translate(378.945 137.345695)scale(0.1485 -0.1485)">
      <defs>
       <path id="DejaVuSans-76" d="M 191 3500 
L 800 3500 
L 1894 563 
L 2988 3500 
L 3597 3500 
L 2284 0 
L 1503 0 
L 191 3500 
z
" transform="scale(0.015625)"/>
       <path id="DejaVuSans-6e" d="M 3513 2113 
L 3513 0 
L 2938 0 
L 2938 2094 
Q 2938 2591 2744 2837 
Q 2550 3084 2163 3084 
Q 1697 3084 1428 2787 
Q 1159 2491 1159 1978 
L 1159 0 
L 581 0 
L 581 3500 
L 1159 3500 
L 1159 2956 
Q 1366 3272 1645 3428 
Q 1925 3584 2291 3584 
Q 2894 3584 3203 3211 
Q 3513 2838 3513 2113 
z
" transform="scale(0.015625)"/>
       <path id="DejaVuSans-77" d="M 269 3500 
L 844 3500 
L 1563 769 
L 2278 3500 
L 2956 3500 
L 3675 769 
L 4391 3500 
L 4966 3500 
L 4050 0 
L 3372 0 
L 2619 2869 
L 1863 0 
L 1184 0 
L 269 3500 
z
" transform="scale(0.015625)"/>
       <path id="DejaVuSans-2f" d="M 1625 4666 
L 2156 4666 
L 531 -594 
L 0 -594 
L 1625 4666 
z
" transform="scale(0.015625)"/>
      </defs>
      <use xlink:href="#DejaVuSans-72"/>
      <use xlink:href="#DejaVuSans-65" x="38.863281"/>
      <use xlink:href="#DejaVuSans-6c" x="100.386719"/>
      <use xlink:href="#DejaVuSans-65" x="128.169922"/>
      <use xlink:href="#DejaVuSans-76" x="189.693359"/>
      <use xlink:href="#DejaVuSans-61" x="248.873047"/>
      <use xlink:href="#DejaVuSans-6e" x="310.152344"/>
      <use xlink:href="#DejaVuSans-74" x="373.53125"/>
      <use xlink:href="#DejaVuSans-20" x="412.740234"/>
      <use xlink:href="#DejaVuSans-28" x="444.527344"/>
      <use xlink:href="#DejaVuSans-77" x="483.541016"/>
      <use xlink:href="#DejaVuSans-2f" x="565.328125"/>
      <use xlink:href="#DejaVuSans-20" x="599.019531"/>
      <use xlink:href="#DejaVuSans-65" x="630.806641"/>
      <use xlink:href="#DejaVuSans-72" x="692.330078"/>
      <use xlink:href="#DejaVuSans-72" x="731.693359"/>
      <use xlink:href="#DejaVuSans-6f" x="770.556641"/>
      <use xlink:href="#DejaVuSans-72" x="831.738281"/>
      <use xlink:href="#DejaVuSans-73" x="872.851562"/>
      <use xlink:href="#DejaVuSans-29" x="924.951172"/>
     </g>
    </g>
    <g id="line2d_25">
     <path d="M 337.365 153.945211 
L 361 153.945211 
" style="fill: none; stroke: #ff7f0e; stroke-width: 2.25; stroke-linecap: square"/>
    </g>
    <g id="line2d_26"/>
    <g id="text_17">
     <!-- relevant &amp; decision -->
     <g transform="translate(378.945 159.142711)scale(0.1485 -0.1485)">
      <defs>
       <path id="DejaVuSans-26" d="M 1556 2509 
Q 1272 2256 1139 2004 
Q 1006 1753 1006 1478 
Q 1006 1022 1337 719 
Q 1669 416 2169 416 
Q 2466 416 2725 514 
Q 2984 613 3213 813 
L 1556 2509 
z
M 1997 2859 
L 3584 1234 
Q 3769 1513 3872 1830 
Q 3975 2147 3994 2503 
L 4575 2503 
Q 4538 2091 4375 1687 
Q 4213 1284 3922 891 
L 4794 0 
L 4006 0 
L 3559 459 
Q 3234 181 2878 45 
Q 2522 -91 2113 -91 
Q 1359 -91 881 339 
Q 403 769 403 1441 
Q 403 1841 612 2192 
Q 822 2544 1241 2853 
Q 1091 3050 1012 3245 
Q 934 3441 934 3628 
Q 934 4134 1281 4442 
Q 1628 4750 2203 4750 
Q 2463 4750 2720 4694 
Q 2978 4638 3244 4525 
L 3244 3956 
Q 2972 4103 2725 4179 
Q 2478 4256 2266 4256 
Q 1938 4256 1733 4082 
Q 1528 3909 1528 3634 
Q 1528 3475 1620 3314 
Q 1713 3153 1997 2859 
z
" transform="scale(0.015625)"/>
       <path id="DejaVuSans-64" d="M 2906 2969 
L 2906 4863 
L 3481 4863 
L 3481 0 
L 2906 0 
L 2906 525 
Q 2725 213 2448 61 
Q 2172 -91 1784 -91 
Q 1150 -91 751 415 
Q 353 922 353 1747 
Q 353 2572 751 3078 
Q 1150 3584 1784 3584 
Q 2172 3584 2448 3432 
Q 2725 3281 2906 2969 
z
M 947 1747 
Q 947 1113 1208 752 
Q 1469 391 1925 391 
Q 2381 391 2643 752 
Q 2906 1113 2906 1747 
Q 2906 2381 2643 2742 
Q 2381 3103 1925 3103 
Q 1469 3103 1208 2742 
Q 947 2381 947 1747 
z
" transform="scale(0.015625)"/>
      </defs>
      <use xlink:href="#DejaVuSans-72"/>
      <use xlink:href="#DejaVuSans-65" x="38.863281"/>
      <use xlink:href="#DejaVuSans-6c" x="100.386719"/>
      <use xlink:href="#DejaVuSans-65" x="128.169922"/>
      <use xlink:href="#DejaVuSans-76" x="189.693359"/>
      <use xlink:href="#DejaVuSans-61" x="248.873047"/>
      <use xlink:href="#DejaVuSans-6e" x="310.152344"/>
      <use xlink:href="#DejaVuSans-74" x="373.53125"/>
      <use xlink:href="#DejaVuSans-20" x="412.740234"/>
      <use xlink:href="#DejaVuSans-26" x="444.527344"/>
      <use xlink:href="#DejaVuSans-20" x="522.505859"/>
      <use xlink:href="#DejaVuSans-64" x="554.292969"/>
      <use xlink:href="#DejaVuSans-65" x="617.769531"/>
      <use xlink:href="#DejaVuSans-63" x="679.292969"/>
      <use xlink:href="#DejaVuSans-69" x="734.273438"/>
      <use xlink:href="#DejaVuSans-73" x="762.056641"/>
      <use xlink:href="#DejaVuSans-69" x="814.15625"/>
      <use xlink:href="#DejaVuSans-6f" x="841.939453"/>
      <use xlink:href="#DejaVuSans-6e" x="903.121094"/>
     </g>
    </g>
    <g id="line2d_27">
     <path d="M 337.365 175.742227 
L 361 175.742227 
" style="fill: none; stroke: #2ca02c; stroke-width: 2.25; stroke-linecap: square"/>
    </g>
    <g id="line2d_28"/>
    <g id="text_18">
     <!-- decision (w/ errors) -->
     <g transform="translate(378.945 180.939727)scale(0.1485 -0.1485)">
      <use xlink:href="#DejaVuSans-64"/>
      <use xlink:href="#DejaVuSans-65" x="63.476562"/>
      <use xlink:href="#DejaVuSans-63" x="125"/>
      <use xlink:href="#DejaVuSans-69" x="179.980469"/>
      <use xlink:href="#DejaVuSans-73" x="207.763672"/>
      <use xlink:href="#DejaVuSans-69" x="259.863281"/>
      <use xlink:href="#DejaVuSans-6f" x="287.646484"/>
      <use xlink:href="#DejaVuSans-6e" x="348.828125"/>
      <use xlink:href="#DejaVuSans-20" x="412.207031"/>
      <use xlink:href="#DejaVuSans-28" x="443.994141"/>
      <use xlink:href="#DejaVuSans-77" x="483.007812"/>
      <use xlink:href="#DejaVuSans-2f" x="564.794922"/>
      <use xlink:href="#DejaVuSans-20" x="598.486328"/>
      <use xlink:href="#DejaVuSans-65" x="630.273438"/>
      <use xlink:href="#DejaVuSans-72" x="691.796875"/>
      <use xlink:href="#DejaVuSans-72" x="731.160156"/>
      <use xlink:href="#DejaVuSans-6f" x="770.023438"/>
      <use xlink:href="#DejaVuSans-72" x="831.205078"/>
      <use xlink:href="#DejaVuSans-73" x="872.318359"/>
      <use xlink:href="#DejaVuSans-29" x="924.417969"/>
     </g>
    </g>
   </g>
  </g>
 </g>
 <defs>
  <clipPath id="p74dd20194e">
   <rect x="45" y="21.6" width="126.818182" height="138.6"/>
  </clipPath>
  <clipPath id="p883ec13e43">
   <rect x="197.181818" y="21.6" width="126.818182" height="138.6"/>
  </clipPath>
 </defs>
</svg>
