<?xml version="1.0" encoding="utf-8" standalone="no"?>
<!DOCTYPE svg PUBLIC "-//W3C//DTD SVG 1.1//EN"
  "http://www.w3.org/Graphics/SVG/1.1/DTD/svg11.dtd">
<svg xmlns:xlink="http://www.w3.org/1999/xlink" width="432pt" height="216pt" viewBox="0 0 432 216" xmlns="http://www.w3.org/2000/svg" version="1.1">
 <metadata>
  <rdf:RDF xmlns:dc="http://purl.org/dc/elements/1.1/" xmlns:cc="http://creativecommons.org/ns#" xmlns:rdf="http://www.w3.org/1999/02/22-rdf-syntax-ns#">
   <cc:Work>
    <dc:type rdf:resource="http://purl.org/dc/dcmitype/StillImage"/>
    <dc:date>2023-03-27T12:41:43.294953</dc:date>
    <dc:format>image/svg+xml</dc:format>
    <dc:creator>
     <cc:Agent>
      <dc:title>Matplotlib v3.5.2, https://matplotlib.org/</dc:title>
     </cc:Agent>
    </dc:creator>
   </cc:Work>
  </rdf:RDF>
 </metadata>
 <defs>
  <style type="text/css">*{stroke-linejoin: round; stroke-linecap: butt}</style>
 </defs>
 <g id="figure_1">
  <g id="patch_1">
   <path d="M 0 216 
L 432 216 
L 432 0 
L 0 0 
z
" style="fill: #ffffff"/>
  </g>
  <g id="axes_1">
   <g id="patch_2">
    <path d="M 54 192.24 
L 206.181818 192.24 
L 206.181818 25.92 
L 54 25.92 
z
" style="fill: #ffffff"/>
   </g>
   <g id="PolyCollection_1">
    <defs>
     <path id="m1688e4f851" d="M -18.286364 -99.1584 
L -18.286364 -69.974784 
L -10.677273 -70.3296 
L -3.068182 -72.5472 
L 4.540909 -65.8944 
L 12.15 -61.4592 
L 19.759091 -72.192384 
L 27.368182 -72.5472 
L 34.977273 -68.112 
L 42.586364 -63.6768 
L 50.195455 -68.112 
L 57.804545 -65.8944 
L 65.413636 -61.4592 
L 73.022727 -63.6768 
L 80.631818 -65.8944 
L 88.240909 -63.6768 
L 95.85 -63.6768 
L 103.459091 -52.5888 
L 111.068182 -57.024 
L 118.677273 -59.2416 
L 126.286364 -74.7648 
L 133.895455 -139.0752 
L 141.504545 -174.5568 
L 149.113636 -181.2096 
L 156.722727 -183.4272 
L 164.331818 -178.992 
L 171.940909 -181.2096 
L 179.55 -181.2096 
L 187.159091 -183.4272 
L 194.768182 -185.6448 
L 202.377273 -183.4272 
L 202.377273 -190.08 
L 202.377273 -190.08 
L 194.768182 -190.08 
L 187.159091 -190.08 
L 179.55 -190.08 
L 171.940909 -190.08 
L 164.331818 -187.8624 
L 156.722727 -190.08 
L 149.113636 -187.8624 
L 141.504545 -185.6448 
L 133.895455 -161.2512 
L 126.286364 -103.5936 
L 118.677273 -88.0704 
L 111.068182 -83.6352 
L 103.459091 -81.4176 
L 95.85 -92.5056 
L 88.240909 -92.5056 
L 80.631818 -94.7232 
L 73.022727 -92.5056 
L 65.413636 -92.5056 
L 57.804545 -94.7232 
L 50.195455 -99.1584 
L 42.586364 -94.7232 
L 34.977273 -96.9408 
L 27.368182 -101.376 
L 19.759091 -99.1584 
L 12.15 -85.8528 
L 4.540909 -94.7232 
L -3.068182 -101.376 
L -10.677273 -101.376 
L -18.286364 -99.1584 
z
" style="stroke: #800080; stroke-opacity: 0.2; stroke-width: 1.5"/>
    </defs>
    <g clip-path="url(#pb366b720fa)">
     <use xlink:href="#m1688e4f851" x="0" y="216" style="fill: #800080; fill-opacity: 0.2; stroke: #800080; stroke-opacity: 0.2; stroke-width: 1.5"/>
    </g>
   </g>
   <g id="PolyCollection_2">
    <defs>
     <path id="m6d79052a75" d="M -18.286364 -94.7232 
L -18.286364 -68.112 
L -10.677273 -61.4592 
L -3.068182 -61.4592 
L 4.540909 -65.8944 
L 12.15 -65.8944 
L 19.759091 -68.112 
L 27.368182 -68.112 
L 34.977273 -65.8944 
L 42.586364 -68.112 
L 50.195455 -63.6768 
L 57.804545 -59.2416 
L 65.413636 -63.6768 
L 73.022727 -68.112 
L 80.631818 -61.4592 
L 88.240909 -65.8944 
L 95.85 -68.112 
L 103.459091 -65.8944 
L 111.068182 -68.112 
L 118.677273 -63.6768 
L 126.286364 -65.8944 
L 133.895455 -74.7648 
L 141.504545 -92.5056 
L 149.113636 -101.376 
L 156.722727 -130.2048 
L 164.331818 -147.9456 
L 171.940909 -159.0336 
L 179.55 -161.2512 
L 187.159091 -159.0336 
L 194.768182 -161.2512 
L 202.377273 -165.6864 
L 202.377273 -178.992 
L 202.377273 -178.992 
L 194.768182 -176.7744 
L 187.159091 -174.5568 
L 179.55 -176.7744 
L 171.940909 -174.5568 
L 164.331818 -167.904 
L 156.722727 -152.3808 
L 149.113636 -130.2048 
L 141.504545 -121.3344 
L 133.895455 -105.8112 
L 126.286364 -92.860416 
L 118.677273 -92.5056 
L 111.068182 -96.9408 
L 103.459091 -92.5056 
L 95.85 -96.9408 
L 88.240909 -94.7232 
L 80.631818 -90.288 
L 73.022727 -96.9408 
L 65.413636 -94.7232 
L 57.804545 -88.0704 
L 50.195455 -90.288 
L 42.586364 -94.7232 
L 34.977273 -94.7232 
L 27.368182 -96.9408 
L 19.759091 -99.1584 
L 12.15 -96.9408 
L 4.540909 -95.078016 
L -3.068182 -90.288 
L -10.677273 -88.0704 
L -18.286364 -94.7232 
z
" style="stroke: #006400; stroke-opacity: 0.2; stroke-width: 1.5"/>
    </defs>
    <g clip-path="url(#pb366b720fa)">
     <use xlink:href="#m6d79052a75" x="0" y="216" style="fill: #006400; fill-opacity: 0.2; stroke: #006400; stroke-opacity: 0.2; stroke-width: 1.5"/>
    </g>
   </g>
   <g id="PolyCollection_3">
    <defs>
     <path id="m3880c46ed1" d="M 130.090909 -29.304 
L 130.090909 -23.76 
L 206.181818 -23.76 
L 206.181818 -29.304 
L 206.181818 -29.304 
L 130.090909 -29.304 
z
" style="stroke: #000000; stroke-opacity: 0.2; stroke-width: 1.5"/>
    </defs>
    <g clip-path="url(#pb366b720fa)">
     <use xlink:href="#m3880c46ed1" x="0" y="216" style="fill-opacity: 0.2; stroke: #000000; stroke-opacity: 0.2; stroke-width: 1.5"/>
    </g>
   </g>
   <g id="matplotlib.axis_1">
    <g id="xtick_1">
     <g id="line2d_1">
      <defs>
       <path id="mc5a0ae4f54" d="M 0 0 
L 0 -9 
" style="stroke: #000000; stroke-width: 1.875"/>
      </defs>
      <g>
       <use xlink:href="#mc5a0ae4f54" x="54" y="192.24" style="stroke: #000000; stroke-width: 1.875"/>
      </g>
     </g>
     <g id="text_1">
      <!-- -0.25 -->
      <g transform="translate(34.788973 207.02368)scale(0.1485 -0.1485)">
       <defs>
        <path id="DejaVuSans-2d" d="M 313 2009 
L 1997 2009 
L 1997 1497 
L 313 1497 
L 313 2009 
z
" transform="scale(0.015625)"/>
        <path id="DejaVuSans-30" d="M 2034 4250 
Q 1547 4250 1301 3770 
Q 1056 3291 1056 2328 
Q 1056 1369 1301 889 
Q 1547 409 2034 409 
Q 2525 409 2770 889 
Q 3016 1369 3016 2328 
Q 3016 3291 2770 3770 
Q 2525 4250 2034 4250 
z
M 2034 4750 
Q 2819 4750 3233 4129 
Q 3647 3509 3647 2328 
Q 3647 1150 3233 529 
Q 2819 -91 2034 -91 
Q 1250 -91 836 529 
Q 422 1150 422 2328 
Q 422 3509 836 4129 
Q 1250 4750 2034 4750 
z
" transform="scale(0.015625)"/>
        <path id="DejaVuSans-2e" d="M 684 794 
L 1344 794 
L 1344 0 
L 684 0 
L 684 794 
z
" transform="scale(0.015625)"/>
        <path id="DejaVuSans-32" d="M 1228 531 
L 3431 531 
L 3431 0 
L 469 0 
L 469 531 
Q 828 903 1448 1529 
Q 2069 2156 2228 2338 
Q 2531 2678 2651 2914 
Q 2772 3150 2772 3378 
Q 2772 3750 2511 3984 
Q 2250 4219 1831 4219 
Q 1534 4219 1204 4116 
Q 875 4013 500 3803 
L 500 4441 
Q 881 4594 1212 4672 
Q 1544 4750 1819 4750 
Q 2544 4750 2975 4387 
Q 3406 4025 3406 3419 
Q 3406 3131 3298 2873 
Q 3191 2616 2906 2266 
Q 2828 2175 2409 1742 
Q 1991 1309 1228 531 
z
" transform="scale(0.015625)"/>
        <path id="DejaVuSans-35" d="M 691 4666 
L 3169 4666 
L 3169 4134 
L 1269 4134 
L 1269 2991 
Q 1406 3038 1543 3061 
Q 1681 3084 1819 3084 
Q 2600 3084 3056 2656 
Q 3513 2228 3513 1497 
Q 3513 744 3044 326 
Q 2575 -91 1722 -91 
Q 1428 -91 1123 -41 
Q 819 9 494 109 
L 494 744 
Q 775 591 1075 516 
Q 1375 441 1709 441 
Q 2250 441 2565 725 
Q 2881 1009 2881 1497 
Q 2881 1984 2565 2268 
Q 2250 2553 1709 2553 
Q 1456 2553 1204 2497 
Q 953 2441 691 2322 
L 691 4666 
z
" transform="scale(0.015625)"/>
       </defs>
       <use xlink:href="#DejaVuSans-2d"/>
       <use xlink:href="#DejaVuSans-30" x="36.083984"/>
       <use xlink:href="#DejaVuSans-2e" x="99.707031"/>
       <use xlink:href="#DejaVuSans-32" x="131.494141"/>
       <use xlink:href="#DejaVuSans-35" x="195.117188"/>
      </g>
     </g>
    </g>
    <g id="xtick_2">
     <g id="line2d_2">
      <g>
       <use xlink:href="#mc5a0ae4f54" x="130.090909" y="192.24" style="stroke: #000000; stroke-width: 1.875"/>
      </g>
     </g>
     <g id="text_2">
      <!-- 0 -->
      <g transform="translate(125.366753 207.02368)scale(0.1485 -0.1485)">
       <use xlink:href="#DejaVuSans-30"/>
      </g>
     </g>
    </g>
    <g id="xtick_3">
     <g id="line2d_3">
      <g>
       <use xlink:href="#mc5a0ae4f54" x="206.181818" y="192.24" style="stroke: #000000; stroke-width: 1.875"/>
      </g>
     </g>
     <g id="text_3">
      <!-- 0.25 -->
      <g transform="translate(189.649592 207.02368)scale(0.1485 -0.1485)">
       <use xlink:href="#DejaVuSans-30"/>
       <use xlink:href="#DejaVuSans-2e" x="63.623047"/>
       <use xlink:href="#DejaVuSans-32" x="95.410156"/>
       <use xlink:href="#DejaVuSans-35" x="159.033203"/>
      </g>
     </g>
    </g>
    <g id="text_4">
     <!-- time from stimulus (sec) -->
     <g transform="translate(30.973487 226.421484)scale(0.162 -0.162)">
      <defs>
       <path id="DejaVuSans-74" d="M 1172 4494 
L 1172 3500 
L 2356 3500 
L 2356 3053 
L 1172 3053 
L 1172 1153 
Q 1172 725 1289 603 
Q 1406 481 1766 481 
L 2356 481 
L 2356 0 
L 1766 0 
Q 1100 0 847 248 
Q 594 497 594 1153 
L 594 3053 
L 172 3053 
L 172 3500 
L 594 3500 
L 594 4494 
L 1172 4494 
z
" transform="scale(0.015625)"/>
       <path id="DejaVuSans-69" d="M 603 3500 
L 1178 3500 
L 1178 0 
L 603 0 
L 603 3500 
z
M 603 4863 
L 1178 4863 
L 1178 4134 
L 603 4134 
L 603 4863 
z
" transform="scale(0.015625)"/>
       <path id="DejaVuSans-6d" d="M 3328 2828 
Q 3544 3216 3844 3400 
Q 4144 3584 4550 3584 
Q 5097 3584 5394 3201 
Q 5691 2819 5691 2113 
L 5691 0 
L 5113 0 
L 5113 2094 
Q 5113 2597 4934 2840 
Q 4756 3084 4391 3084 
Q 3944 3084 3684 2787 
Q 3425 2491 3425 1978 
L 3425 0 
L 2847 0 
L 2847 2094 
Q 2847 2600 2669 2842 
Q 2491 3084 2119 3084 
Q 1678 3084 1418 2786 
Q 1159 2488 1159 1978 
L 1159 0 
L 581 0 
L 581 3500 
L 1159 3500 
L 1159 2956 
Q 1356 3278 1631 3431 
Q 1906 3584 2284 3584 
Q 2666 3584 2933 3390 
Q 3200 3197 3328 2828 
z
" transform="scale(0.015625)"/>
       <path id="DejaVuSans-65" d="M 3597 1894 
L 3597 1613 
L 953 1613 
Q 991 1019 1311 708 
Q 1631 397 2203 397 
Q 2534 397 2845 478 
Q 3156 559 3463 722 
L 3463 178 
Q 3153 47 2828 -22 
Q 2503 -91 2169 -91 
Q 1331 -91 842 396 
Q 353 884 353 1716 
Q 353 2575 817 3079 
Q 1281 3584 2069 3584 
Q 2775 3584 3186 3129 
Q 3597 2675 3597 1894 
z
M 3022 2063 
Q 3016 2534 2758 2815 
Q 2500 3097 2075 3097 
Q 1594 3097 1305 2825 
Q 1016 2553 972 2059 
L 3022 2063 
z
" transform="scale(0.015625)"/>
       <path id="DejaVuSans-20" transform="scale(0.015625)"/>
       <path id="DejaVuSans-66" d="M 2375 4863 
L 2375 4384 
L 1825 4384 
Q 1516 4384 1395 4259 
Q 1275 4134 1275 3809 
L 1275 3500 
L 2222 3500 
L 2222 3053 
L 1275 3053 
L 1275 0 
L 697 0 
L 697 3053 
L 147 3053 
L 147 3500 
L 697 3500 
L 697 3744 
Q 697 4328 969 4595 
Q 1241 4863 1831 4863 
L 2375 4863 
z
" transform="scale(0.015625)"/>
       <path id="DejaVuSans-72" d="M 2631 2963 
Q 2534 3019 2420 3045 
Q 2306 3072 2169 3072 
Q 1681 3072 1420 2755 
Q 1159 2438 1159 1844 
L 1159 0 
L 581 0 
L 581 3500 
L 1159 3500 
L 1159 2956 
Q 1341 3275 1631 3429 
Q 1922 3584 2338 3584 
Q 2397 3584 2469 3576 
Q 2541 3569 2628 3553 
L 2631 2963 
z
" transform="scale(0.015625)"/>
       <path id="DejaVuSans-6f" d="M 1959 3097 
Q 1497 3097 1228 2736 
Q 959 2375 959 1747 
Q 959 1119 1226 758 
Q 1494 397 1959 397 
Q 2419 397 2687 759 
Q 2956 1122 2956 1747 
Q 2956 2369 2687 2733 
Q 2419 3097 1959 3097 
z
M 1959 3584 
Q 2709 3584 3137 3096 
Q 3566 2609 3566 1747 
Q 3566 888 3137 398 
Q 2709 -91 1959 -91 
Q 1206 -91 779 398 
Q 353 888 353 1747 
Q 353 2609 779 3096 
Q 1206 3584 1959 3584 
z
" transform="scale(0.015625)"/>
       <path id="DejaVuSans-73" d="M 2834 3397 
L 2834 2853 
Q 2591 2978 2328 3040 
Q 2066 3103 1784 3103 
Q 1356 3103 1142 2972 
Q 928 2841 928 2578 
Q 928 2378 1081 2264 
Q 1234 2150 1697 2047 
L 1894 2003 
Q 2506 1872 2764 1633 
Q 3022 1394 3022 966 
Q 3022 478 2636 193 
Q 2250 -91 1575 -91 
Q 1294 -91 989 -36 
Q 684 19 347 128 
L 347 722 
Q 666 556 975 473 
Q 1284 391 1588 391 
Q 1994 391 2212 530 
Q 2431 669 2431 922 
Q 2431 1156 2273 1281 
Q 2116 1406 1581 1522 
L 1381 1569 
Q 847 1681 609 1914 
Q 372 2147 372 2553 
Q 372 3047 722 3315 
Q 1072 3584 1716 3584 
Q 2034 3584 2315 3537 
Q 2597 3491 2834 3397 
z
" transform="scale(0.015625)"/>
       <path id="DejaVuSans-75" d="M 544 1381 
L 544 3500 
L 1119 3500 
L 1119 1403 
Q 1119 906 1312 657 
Q 1506 409 1894 409 
Q 2359 409 2629 706 
Q 2900 1003 2900 1516 
L 2900 3500 
L 3475 3500 
L 3475 0 
L 2900 0 
L 2900 538 
Q 2691 219 2414 64 
Q 2138 -91 1772 -91 
Q 1169 -91 856 284 
Q 544 659 544 1381 
z
M 1991 3584 
L 1991 3584 
z
" transform="scale(0.015625)"/>
       <path id="DejaVuSans-6c" d="M 603 4863 
L 1178 4863 
L 1178 0 
L 603 0 
L 603 4863 
z
" transform="scale(0.015625)"/>
       <path id="DejaVuSans-28" d="M 1984 4856 
Q 1566 4138 1362 3434 
Q 1159 2731 1159 2009 
Q 1159 1288 1364 580 
Q 1569 -128 1984 -844 
L 1484 -844 
Q 1016 -109 783 600 
Q 550 1309 550 2009 
Q 550 2706 781 3412 
Q 1013 4119 1484 4856 
L 1984 4856 
z
" transform="scale(0.015625)"/>
       <path id="DejaVuSans-63" d="M 3122 3366 
L 3122 2828 
Q 2878 2963 2633 3030 
Q 2388 3097 2138 3097 
Q 1578 3097 1268 2742 
Q 959 2388 959 1747 
Q 959 1106 1268 751 
Q 1578 397 2138 397 
Q 2388 397 2633 464 
Q 2878 531 3122 666 
L 3122 134 
Q 2881 22 2623 -34 
Q 2366 -91 2075 -91 
Q 1284 -91 818 406 
Q 353 903 353 1747 
Q 353 2603 823 3093 
Q 1294 3584 2113 3584 
Q 2378 3584 2631 3529 
Q 2884 3475 3122 3366 
z
" transform="scale(0.015625)"/>
       <path id="DejaVuSans-29" d="M 513 4856 
L 1013 4856 
Q 1481 4119 1714 3412 
Q 1947 2706 1947 2009 
Q 1947 1309 1714 600 
Q 1481 -109 1013 -844 
L 513 -844 
Q 928 -128 1133 580 
Q 1338 1288 1338 2009 
Q 1338 2731 1133 3434 
Q 928 4138 513 4856 
z
" transform="scale(0.015625)"/>
      </defs>
      <use xlink:href="#DejaVuSans-74"/>
      <use xlink:href="#DejaVuSans-69" x="39.208984"/>
      <use xlink:href="#DejaVuSans-6d" x="66.992188"/>
      <use xlink:href="#DejaVuSans-65" x="164.404297"/>
      <use xlink:href="#DejaVuSans-20" x="225.927734"/>
      <use xlink:href="#DejaVuSans-66" x="257.714844"/>
      <use xlink:href="#DejaVuSans-72" x="292.919922"/>
      <use xlink:href="#DejaVuSans-6f" x="331.783203"/>
      <use xlink:href="#DejaVuSans-6d" x="392.964844"/>
      <use xlink:href="#DejaVuSans-20" x="490.376953"/>
      <use xlink:href="#DejaVuSans-73" x="522.164062"/>
      <use xlink:href="#DejaVuSans-74" x="574.263672"/>
      <use xlink:href="#DejaVuSans-69" x="613.472656"/>
      <use xlink:href="#DejaVuSans-6d" x="641.255859"/>
      <use xlink:href="#DejaVuSans-75" x="738.667969"/>
      <use xlink:href="#DejaVuSans-6c" x="802.046875"/>
      <use xlink:href="#DejaVuSans-75" x="829.830078"/>
      <use xlink:href="#DejaVuSans-73" x="893.208984"/>
      <use xlink:href="#DejaVuSans-20" x="945.308594"/>
      <use xlink:href="#DejaVuSans-28" x="977.095703"/>
      <use xlink:href="#DejaVuSans-73" x="1016.109375"/>
      <use xlink:href="#DejaVuSans-65" x="1068.208984"/>
      <use xlink:href="#DejaVuSans-63" x="1129.732422"/>
      <use xlink:href="#DejaVuSans-29" x="1184.712891"/>
     </g>
    </g>
   </g>
   <g id="matplotlib.axis_2">
    <g id="ytick_1">
     <g id="line2d_4">
      <defs>
       <path id="m25f0614981" d="M 0 0 
L 9 0 
" style="stroke: #000000; stroke-width: 1.875"/>
      </defs>
      <g>
       <use xlink:href="#m25f0614981" x="54" y="192.24" style="stroke: #000000; stroke-width: 1.875"/>
      </g>
     </g>
    </g>
    <g id="ytick_2">
     <g id="line2d_5">
      <g>
       <use xlink:href="#m25f0614981" x="54" y="136.8" style="stroke: #000000; stroke-width: 1.875"/>
      </g>
     </g>
     <g id="text_5">
      <!-- 50 -->
      <g transform="translate(31.603375 142.44184)scale(0.1485 -0.1485)">
       <use xlink:href="#DejaVuSans-35"/>
       <use xlink:href="#DejaVuSans-30" x="63.623047"/>
      </g>
     </g>
    </g>
    <g id="ytick_3">
     <g id="line2d_6">
      <g>
       <use xlink:href="#m25f0614981" x="54" y="25.92" style="stroke: #000000; stroke-width: 1.875"/>
      </g>
     </g>
     <g id="text_6">
      <!-- 100 -->
      <g transform="translate(22.155062 31.56184)scale(0.1485 -0.1485)">
       <defs>
        <path id="DejaVuSans-31" d="M 794 531 
L 1825 531 
L 1825 4091 
L 703 3866 
L 703 4441 
L 1819 4666 
L 2450 4666 
L 2450 531 
L 3481 531 
L 3481 0 
L 794 0 
L 794 531 
z
" transform="scale(0.015625)"/>
       </defs>
       <use xlink:href="#DejaVuSans-31"/>
       <use xlink:href="#DejaVuSans-30" x="63.623047"/>
       <use xlink:href="#DejaVuSans-30" x="127.246094"/>
      </g>
     </g>
    </g>
    <g id="text_7">
     <!-- decoding accuracy (%) -->
     <g transform="translate(14.785969 201.995859)rotate(-90)scale(0.162 -0.162)">
      <defs>
       <path id="DejaVuSans-64" d="M 2906 2969 
L 2906 4863 
L 3481 4863 
L 3481 0 
L 2906 0 
L 2906 525 
Q 2725 213 2448 61 
Q 2172 -91 1784 -91 
Q 1150 -91 751 415 
Q 353 922 353 1747 
Q 353 2572 751 3078 
Q 1150 3584 1784 3584 
Q 2172 3584 2448 3432 
Q 2725 3281 2906 2969 
z
M 947 1747 
Q 947 1113 1208 752 
Q 1469 391 1925 391 
Q 2381 391 2643 752 
Q 2906 1113 2906 1747 
Q 2906 2381 2643 2742 
Q 2381 3103 1925 3103 
Q 1469 3103 1208 2742 
Q 947 2381 947 1747 
z
" transform="scale(0.015625)"/>
       <path id="DejaVuSans-6e" d="M 3513 2113 
L 3513 0 
L 2938 0 
L 2938 2094 
Q 2938 2591 2744 2837 
Q 2550 3084 2163 3084 
Q 1697 3084 1428 2787 
Q 1159 2491 1159 1978 
L 1159 0 
L 581 0 
L 581 3500 
L 1159 3500 
L 1159 2956 
Q 1366 3272 1645 3428 
Q 1925 3584 2291 3584 
Q 2894 3584 3203 3211 
Q 3513 2838 3513 2113 
z
" transform="scale(0.015625)"/>
       <path id="DejaVuSans-67" d="M 2906 1791 
Q 2906 2416 2648 2759 
Q 2391 3103 1925 3103 
Q 1463 3103 1205 2759 
Q 947 2416 947 1791 
Q 947 1169 1205 825 
Q 1463 481 1925 481 
Q 2391 481 2648 825 
Q 2906 1169 2906 1791 
z
M 3481 434 
Q 3481 -459 3084 -895 
Q 2688 -1331 1869 -1331 
Q 1566 -1331 1297 -1286 
Q 1028 -1241 775 -1147 
L 775 -588 
Q 1028 -725 1275 -790 
Q 1522 -856 1778 -856 
Q 2344 -856 2625 -561 
Q 2906 -266 2906 331 
L 2906 616 
Q 2728 306 2450 153 
Q 2172 0 1784 0 
Q 1141 0 747 490 
Q 353 981 353 1791 
Q 353 2603 747 3093 
Q 1141 3584 1784 3584 
Q 2172 3584 2450 3431 
Q 2728 3278 2906 2969 
L 2906 3500 
L 3481 3500 
L 3481 434 
z
" transform="scale(0.015625)"/>
       <path id="DejaVuSans-61" d="M 2194 1759 
Q 1497 1759 1228 1600 
Q 959 1441 959 1056 
Q 959 750 1161 570 
Q 1363 391 1709 391 
Q 2188 391 2477 730 
Q 2766 1069 2766 1631 
L 2766 1759 
L 2194 1759 
z
M 3341 1997 
L 3341 0 
L 2766 0 
L 2766 531 
Q 2569 213 2275 61 
Q 1981 -91 1556 -91 
Q 1019 -91 701 211 
Q 384 513 384 1019 
Q 384 1609 779 1909 
Q 1175 2209 1959 2209 
L 2766 2209 
L 2766 2266 
Q 2766 2663 2505 2880 
Q 2244 3097 1772 3097 
Q 1472 3097 1187 3025 
Q 903 2953 641 2809 
L 641 3341 
Q 956 3463 1253 3523 
Q 1550 3584 1831 3584 
Q 2591 3584 2966 3190 
Q 3341 2797 3341 1997 
z
" transform="scale(0.015625)"/>
       <path id="DejaVuSans-79" d="M 2059 -325 
Q 1816 -950 1584 -1140 
Q 1353 -1331 966 -1331 
L 506 -1331 
L 506 -850 
L 844 -850 
Q 1081 -850 1212 -737 
Q 1344 -625 1503 -206 
L 1606 56 
L 191 3500 
L 800 3500 
L 1894 763 
L 2988 3500 
L 3597 3500 
L 2059 -325 
z
" transform="scale(0.015625)"/>
       <path id="DejaVuSans-25" d="M 4653 2053 
Q 4381 2053 4226 1822 
Q 4072 1591 4072 1178 
Q 4072 772 4226 539 
Q 4381 306 4653 306 
Q 4919 306 5073 539 
Q 5228 772 5228 1178 
Q 5228 1588 5073 1820 
Q 4919 2053 4653 2053 
z
M 4653 2450 
Q 5147 2450 5437 2106 
Q 5728 1763 5728 1178 
Q 5728 594 5436 251 
Q 5144 -91 4653 -91 
Q 4153 -91 3862 251 
Q 3572 594 3572 1178 
Q 3572 1766 3864 2108 
Q 4156 2450 4653 2450 
z
M 1428 4353 
Q 1159 4353 1004 4120 
Q 850 3888 850 3481 
Q 850 3069 1003 2837 
Q 1156 2606 1428 2606 
Q 1700 2606 1854 2837 
Q 2009 3069 2009 3481 
Q 2009 3884 1853 4118 
Q 1697 4353 1428 4353 
z
M 4250 4750 
L 4750 4750 
L 1831 -91 
L 1331 -91 
L 4250 4750 
z
M 1428 4750 
Q 1922 4750 2215 4408 
Q 2509 4066 2509 3481 
Q 2509 2891 2217 2550 
Q 1925 2209 1428 2209 
Q 931 2209 642 2551 
Q 353 2894 353 3481 
Q 353 4063 643 4406 
Q 934 4750 1428 4750 
z
" transform="scale(0.015625)"/>
      </defs>
      <use xlink:href="#DejaVuSans-64"/>
      <use xlink:href="#DejaVuSans-65" x="63.476562"/>
      <use xlink:href="#DejaVuSans-63" x="125"/>
      <use xlink:href="#DejaVuSans-6f" x="179.980469"/>
      <use xlink:href="#DejaVuSans-64" x="241.162109"/>
      <use xlink:href="#DejaVuSans-69" x="304.638672"/>
      <use xlink:href="#DejaVuSans-6e" x="332.421875"/>
      <use xlink:href="#DejaVuSans-67" x="395.800781"/>
      <use xlink:href="#DejaVuSans-20" x="459.277344"/>
      <use xlink:href="#DejaVuSans-61" x="491.064453"/>
      <use xlink:href="#DejaVuSans-63" x="552.34375"/>
      <use xlink:href="#DejaVuSans-63" x="607.324219"/>
      <use xlink:href="#DejaVuSans-75" x="662.304688"/>
      <use xlink:href="#DejaVuSans-72" x="725.683594"/>
      <use xlink:href="#DejaVuSans-61" x="766.796875"/>
      <use xlink:href="#DejaVuSans-63" x="828.076172"/>
      <use xlink:href="#DejaVuSans-79" x="883.056641"/>
      <use xlink:href="#DejaVuSans-20" x="942.236328"/>
      <use xlink:href="#DejaVuSans-28" x="974.023438"/>
      <use xlink:href="#DejaVuSans-25" x="1013.037109"/>
      <use xlink:href="#DejaVuSans-29" x="1108.056641"/>
     </g>
    </g>
   </g>
   <g id="line2d_7">
    <path d="M -1 130.66978 
L 4.540909 134.698824 
L 12.15 141.628824 
L 19.759091 130.041864 
L 27.368182 128.883168 
L 34.977273 133.66764 
L 42.586364 136.583784 
L 50.195455 132.492312 
L 57.804545 134.892864 
L 65.413636 138.951072 
L 73.022727 137.670408 
L 80.631818 135.901872 
L 88.240909 138.219264 
L 95.85 138.252528 
L 103.459091 148.569912 
L 111.068182 145.443096 
L 118.677273 142.532496 
L 126.286364 126.51588 
L 133.895455 65.398824 
L 141.504545 35.749512 
L 149.113636 30.693384 
L 156.722727 30.321936 
L 164.331818 32.262336 
L 171.940909 30.926232 
L 179.55 30.571416 
L 187.159091 29.451528 
L 194.768182 28.315008 
L 202.377273 28.825056 
" clip-path="url(#pb366b720fa)" style="fill: none; stroke: #800080; stroke-width: 2.25; stroke-linecap: square"/>
   </g>
   <g id="line2d_8">
    <defs>
     <path id="mfc5fd4866e" d="M 0 4.5 
C 1.193414 4.5 2.338109 4.025852 3.181981 3.181981 
C 4.025852 2.338109 4.5 1.193414 4.5 0 
C 4.5 -1.193414 4.025852 -2.338109 3.181981 -3.181981 
C 2.338109 -4.025852 1.193414 -4.5 0 -4.5 
C -1.193414 -4.5 -2.338109 -4.025852 -3.181981 -3.181981 
C -4.025852 -2.338109 -4.5 -1.193414 -4.5 0 
C -4.5 1.193414 -4.025852 2.338109 -3.181981 3.181981 
C -2.338109 4.025852 -1.193414 4.5 0 4.5 
z
" style="stroke: #800080"/>
    </defs>
    <g clip-path="url(#pb366b720fa)">
     <use xlink:href="#mfc5fd4866e" x="-1" y="130.66978" style="fill: #ffffff; stroke: #800080"/>
     <use xlink:href="#mfc5fd4866e" x="4.540909" y="134.698824" style="fill: #ffffff; stroke: #800080"/>
     <use xlink:href="#mfc5fd4866e" x="12.15" y="141.628824" style="fill: #ffffff; stroke: #800080"/>
     <use xlink:href="#mfc5fd4866e" x="19.759091" y="130.041864" style="fill: #ffffff; stroke: #800080"/>
     <use xlink:href="#mfc5fd4866e" x="27.368182" y="128.883168" style="fill: #ffffff; stroke: #800080"/>
     <use xlink:href="#mfc5fd4866e" x="34.977273" y="133.66764" style="fill: #ffffff; stroke: #800080"/>
     <use xlink:href="#mfc5fd4866e" x="42.586364" y="136.583784" style="fill: #ffffff; stroke: #800080"/>
     <use xlink:href="#mfc5fd4866e" x="50.195455" y="132.492312" style="fill: #ffffff; stroke: #800080"/>
     <use xlink:href="#mfc5fd4866e" x="57.804545" y="134.892864" style="fill: #ffffff; stroke: #800080"/>
     <use xlink:href="#mfc5fd4866e" x="65.413636" y="138.951072" style="fill: #ffffff; stroke: #800080"/>
     <use xlink:href="#mfc5fd4866e" x="73.022727" y="137.670408" style="fill: #ffffff; stroke: #800080"/>
     <use xlink:href="#mfc5fd4866e" x="80.631818" y="135.901872" style="fill: #ffffff; stroke: #800080"/>
     <use xlink:href="#mfc5fd4866e" x="88.240909" y="138.219264" style="fill: #ffffff; stroke: #800080"/>
     <use xlink:href="#mfc5fd4866e" x="95.85" y="138.252528" style="fill: #ffffff; stroke: #800080"/>
     <use xlink:href="#mfc5fd4866e" x="103.459091" y="148.569912" style="fill: #ffffff; stroke: #800080"/>
     <use xlink:href="#mfc5fd4866e" x="111.068182" y="145.443096" style="fill: #ffffff; stroke: #800080"/>
     <use xlink:href="#mfc5fd4866e" x="118.677273" y="142.532496" style="fill: #ffffff; stroke: #800080"/>
     <use xlink:href="#mfc5fd4866e" x="126.286364" y="126.51588" style="fill: #ffffff; stroke: #800080"/>
     <use xlink:href="#mfc5fd4866e" x="133.895455" y="65.398824" style="fill: #ffffff; stroke: #800080"/>
     <use xlink:href="#mfc5fd4866e" x="141.504545" y="35.749512" style="fill: #ffffff; stroke: #800080"/>
     <use xlink:href="#mfc5fd4866e" x="149.113636" y="30.693384" style="fill: #ffffff; stroke: #800080"/>
     <use xlink:href="#mfc5fd4866e" x="156.722727" y="30.321936" style="fill: #ffffff; stroke: #800080"/>
     <use xlink:href="#mfc5fd4866e" x="164.331818" y="32.262336" style="fill: #ffffff; stroke: #800080"/>
     <use xlink:href="#mfc5fd4866e" x="171.940909" y="30.926232" style="fill: #ffffff; stroke: #800080"/>
     <use xlink:href="#mfc5fd4866e" x="179.55" y="30.571416" style="fill: #ffffff; stroke: #800080"/>
     <use xlink:href="#mfc5fd4866e" x="187.159091" y="29.451528" style="fill: #ffffff; stroke: #800080"/>
     <use xlink:href="#mfc5fd4866e" x="194.768182" y="28.315008" style="fill: #ffffff; stroke: #800080"/>
     <use xlink:href="#mfc5fd4866e" x="202.377273" y="28.825056" style="fill: #ffffff; stroke: #800080"/>
    </g>
   </g>
   <g id="line2d_9">
    <defs>
     <path id="me4e082b378" d="M 0 4.5 
C 1.193414 4.5 2.338109 4.025852 3.181981 3.181981 
C 4.025852 2.338109 4.5 1.193414 4.5 0 
C 4.5 -1.193414 4.025852 -2.338109 3.181981 -3.181981 
C 2.338109 -4.025852 1.193414 -4.5 0 -4.5 
C -1.193414 -4.5 -2.338109 -4.025852 -3.181981 -3.181981 
C -4.025852 -2.338109 -4.5 -1.193414 -4.5 0 
C -4.5 1.193414 -4.025852 2.338109 -3.181981 3.181981 
C -2.338109 4.025852 -1.193414 4.5 0 4.5 
z
" style="stroke: #800080"/>
    </defs>
    <g clip-path="url(#pb366b720fa)">
     <use xlink:href="#me4e082b378" x="133.895455" y="65.398824" style="fill: #800080; stroke: #800080"/>
     <use xlink:href="#me4e082b378" x="141.504545" y="35.749512" style="fill: #800080; stroke: #800080"/>
     <use xlink:href="#me4e082b378" x="149.113636" y="30.693384" style="fill: #800080; stroke: #800080"/>
     <use xlink:href="#me4e082b378" x="156.722727" y="30.321936" style="fill: #800080; stroke: #800080"/>
     <use xlink:href="#me4e082b378" x="164.331818" y="32.262336" style="fill: #800080; stroke: #800080"/>
     <use xlink:href="#me4e082b378" x="171.940909" y="30.926232" style="fill: #800080; stroke: #800080"/>
     <use xlink:href="#me4e082b378" x="179.55" y="30.571416" style="fill: #800080; stroke: #800080"/>
     <use xlink:href="#me4e082b378" x="187.159091" y="29.451528" style="fill: #800080; stroke: #800080"/>
     <use xlink:href="#me4e082b378" x="194.768182" y="28.315008" style="fill: #800080; stroke: #800080"/>
     <use xlink:href="#me4e082b378" x="202.377273" y="28.825056" style="fill: #800080; stroke: #800080"/>
    </g>
   </g>
   <g id="line2d_10">
    <path d="M -1 138.764709 
L 4.540909 134.299656 
L 12.15 134.61012 
L 19.759091 132.985728 
L 27.368182 134.460432 
L 34.977273 135.585864 
L 42.586364 134.427168 
L 50.195455 138.917808 
L 57.804545 143.402904 
L 65.413636 136.362024 
L 73.022727 133.811784 
L 80.631818 140.48676 
L 88.240909 135.502704 
L 95.85 132.508944 
L 103.459091 137.493 
L 111.068182 133.068888 
L 118.677273 138.529728 
L 126.286364 135.979488 
L 133.895455 124.287192 
L 141.504545 109.529064 
L 149.113636 99.998928 
L 156.722727 75.34476 
L 164.331818 57.526344 
L 171.940909 48.672576 
L 179.55 47.469528 
L 187.159091 48.739104 
L 194.768182 46.333008 
L 202.377273 43.627536 
" clip-path="url(#pb366b720fa)" style="fill: none; stroke: #006400; stroke-width: 2.25; stroke-linecap: square"/>
   </g>
   <g id="line2d_11">
    <defs>
     <path id="m171a5ec5f0" d="M 0 4.5 
C 1.193414 4.5 2.338109 4.025852 3.181981 3.181981 
C 4.025852 2.338109 4.5 1.193414 4.5 0 
C 4.5 -1.193414 4.025852 -2.338109 3.181981 -3.181981 
C 2.338109 -4.025852 1.193414 -4.5 0 -4.5 
C -1.193414 -4.5 -2.338109 -4.025852 -3.181981 -3.181981 
C -4.025852 -2.338109 -4.5 -1.193414 -4.5 0 
C -4.5 1.193414 -4.025852 2.338109 -3.181981 3.181981 
C -2.338109 4.025852 -1.193414 4.5 0 4.5 
z
" style="stroke: #006400"/>
    </defs>
    <g clip-path="url(#pb366b720fa)">
     <use xlink:href="#m171a5ec5f0" x="-1" y="138.764709" style="fill: #ffffff; stroke: #006400"/>
     <use xlink:href="#m171a5ec5f0" x="4.540909" y="134.299656" style="fill: #ffffff; stroke: #006400"/>
     <use xlink:href="#m171a5ec5f0" x="12.15" y="134.61012" style="fill: #ffffff; stroke: #006400"/>
     <use xlink:href="#m171a5ec5f0" x="19.759091" y="132.985728" style="fill: #ffffff; stroke: #006400"/>
     <use xlink:href="#m171a5ec5f0" x="27.368182" y="134.460432" style="fill: #ffffff; stroke: #006400"/>
     <use xlink:href="#m171a5ec5f0" x="34.977273" y="135.585864" style="fill: #ffffff; stroke: #006400"/>
     <use xlink:href="#m171a5ec5f0" x="42.586364" y="134.427168" style="fill: #ffffff; stroke: #006400"/>
     <use xlink:href="#m171a5ec5f0" x="50.195455" y="138.917808" style="fill: #ffffff; stroke: #006400"/>
     <use xlink:href="#m171a5ec5f0" x="57.804545" y="143.402904" style="fill: #ffffff; stroke: #006400"/>
     <use xlink:href="#m171a5ec5f0" x="65.413636" y="136.362024" style="fill: #ffffff; stroke: #006400"/>
     <use xlink:href="#m171a5ec5f0" x="73.022727" y="133.811784" style="fill: #ffffff; stroke: #006400"/>
     <use xlink:href="#m171a5ec5f0" x="80.631818" y="140.48676" style="fill: #ffffff; stroke: #006400"/>
     <use xlink:href="#m171a5ec5f0" x="88.240909" y="135.502704" style="fill: #ffffff; stroke: #006400"/>
     <use xlink:href="#m171a5ec5f0" x="95.85" y="132.508944" style="fill: #ffffff; stroke: #006400"/>
     <use xlink:href="#m171a5ec5f0" x="103.459091" y="137.493" style="fill: #ffffff; stroke: #006400"/>
     <use xlink:href="#m171a5ec5f0" x="111.068182" y="133.068888" style="fill: #ffffff; stroke: #006400"/>
     <use xlink:href="#m171a5ec5f0" x="118.677273" y="138.529728" style="fill: #ffffff; stroke: #006400"/>
     <use xlink:href="#m171a5ec5f0" x="126.286364" y="135.979488" style="fill: #ffffff; stroke: #006400"/>
     <use xlink:href="#m171a5ec5f0" x="133.895455" y="124.287192" style="fill: #ffffff; stroke: #006400"/>
     <use xlink:href="#m171a5ec5f0" x="141.504545" y="109.529064" style="fill: #ffffff; stroke: #006400"/>
     <use xlink:href="#m171a5ec5f0" x="149.113636" y="99.998928" style="fill: #ffffff; stroke: #006400"/>
     <use xlink:href="#m171a5ec5f0" x="156.722727" y="75.34476" style="fill: #ffffff; stroke: #006400"/>
     <use xlink:href="#m171a5ec5f0" x="164.331818" y="57.526344" style="fill: #ffffff; stroke: #006400"/>
     <use xlink:href="#m171a5ec5f0" x="171.940909" y="48.672576" style="fill: #ffffff; stroke: #006400"/>
     <use xlink:href="#m171a5ec5f0" x="179.55" y="47.469528" style="fill: #ffffff; stroke: #006400"/>
     <use xlink:href="#m171a5ec5f0" x="187.159091" y="48.739104" style="fill: #ffffff; stroke: #006400"/>
     <use xlink:href="#m171a5ec5f0" x="194.768182" y="46.333008" style="fill: #ffffff; stroke: #006400"/>
     <use xlink:href="#m171a5ec5f0" x="202.377273" y="43.627536" style="fill: #ffffff; stroke: #006400"/>
    </g>
   </g>
   <g id="line2d_12">
    <defs>
     <path id="m5675862313" d="M 0 4.5 
C 1.193414 4.5 2.338109 4.025852 3.181981 3.181981 
C 4.025852 2.338109 4.5 1.193414 4.5 0 
C 4.5 -1.193414 4.025852 -2.338109 3.181981 -3.181981 
C 2.338109 -4.025852 1.193414 -4.5 0 -4.5 
C -1.193414 -4.5 -2.338109 -4.025852 -3.181981 -3.181981 
C -4.025852 -2.338109 -4.5 -1.193414 -4.5 0 
C -4.5 1.193414 -4.025852 2.338109 -3.181981 3.181981 
C -2.338109 4.025852 -1.193414 4.5 0 4.5 
z
" style="stroke: #006400"/>
    </defs>
    <g clip-path="url(#pb366b720fa)">
     <use xlink:href="#m5675862313" x="149.113636" y="99.998928" style="fill: #006400; stroke: #006400"/>
     <use xlink:href="#m5675862313" x="156.722727" y="75.34476" style="fill: #006400; stroke: #006400"/>
     <use xlink:href="#m5675862313" x="164.331818" y="57.526344" style="fill: #006400; stroke: #006400"/>
     <use xlink:href="#m5675862313" x="171.940909" y="48.672576" style="fill: #006400; stroke: #006400"/>
     <use xlink:href="#m5675862313" x="179.55" y="47.469528" style="fill: #006400; stroke: #006400"/>
     <use xlink:href="#m5675862313" x="187.159091" y="48.739104" style="fill: #006400; stroke: #006400"/>
     <use xlink:href="#m5675862313" x="194.768182" y="46.333008" style="fill: #006400; stroke: #006400"/>
     <use xlink:href="#m5675862313" x="202.377273" y="43.627536" style="fill: #006400; stroke: #006400"/>
    </g>
   </g>
   <g id="line2d_13">
    <path d="M -1 136.8 
L 4.540909 136.8 
L 12.15 136.8 
L 19.759091 136.8 
L 27.368182 136.8 
L 34.977273 136.8 
L 42.586364 136.8 
L 50.195455 136.8 
L 57.804545 136.8 
L 65.413636 136.8 
L 73.022727 136.8 
L 80.631818 136.8 
L 88.240909 136.8 
L 95.85 136.8 
L 103.459091 136.8 
L 111.068182 136.8 
L 118.677273 136.8 
L 126.286364 136.8 
L 133.895455 136.8 
L 141.504545 136.8 
L 149.113636 136.8 
L 156.722727 136.8 
L 164.331818 136.8 
L 171.940909 136.8 
L 179.55 136.8 
L 187.159091 136.8 
L 194.768182 136.8 
L 202.377273 136.8 
" clip-path="url(#pb366b720fa)" style="fill: none; stroke-dasharray: 8.325,3.6; stroke-dashoffset: 0; stroke: #000000; stroke-width: 2.25"/>
   </g>
   <g id="patch_3">
    <path d="M 54 192.24 
L 54 25.92 
" style="fill: none; stroke: #000000; stroke-width: 1.875; stroke-linejoin: miter; stroke-linecap: square"/>
   </g>
   <g id="patch_4">
    <path d="M 54 192.24 
L 206.181818 192.24 
" style="fill: none; stroke: #000000; stroke-width: 1.875; stroke-linejoin: miter; stroke-linecap: square"/>
   </g>
   <g id="legend_1">
    <g id="line2d_14">
     <g>
      <use xlink:href="#mfc5fd4866e" x="82.215" y="45.37118" style="fill: #ffffff; stroke: #800080"/>
     </g>
    </g>
    <g id="text_8">
     <!-- not sig. -->
     <g transform="translate(108.945 50.56868)scale(0.1485 -0.1485)">
      <use xlink:href="#DejaVuSans-6e"/>
      <use xlink:href="#DejaVuSans-6f" x="63.378906"/>
      <use xlink:href="#DejaVuSans-74" x="124.560547"/>
      <use xlink:href="#DejaVuSans-20" x="163.769531"/>
      <use xlink:href="#DejaVuSans-73" x="195.556641"/>
      <use xlink:href="#DejaVuSans-69" x="247.65625"/>
      <use xlink:href="#DejaVuSans-67" x="275.439453"/>
      <use xlink:href="#DejaVuSans-2e" x="338.916016"/>
     </g>
    </g>
    <g id="line2d_15">
     <g>
      <use xlink:href="#me4e082b378" x="82.215" y="67.168195" style="fill: #800080; stroke: #800080"/>
     </g>
    </g>
    <g id="text_9">
     <!-- sig. -->
     <g transform="translate(108.945 72.365695)scale(0.1485 -0.1485)">
      <use xlink:href="#DejaVuSans-73"/>
      <use xlink:href="#DejaVuSans-69" x="52.099609"/>
      <use xlink:href="#DejaVuSans-67" x="79.882812"/>
      <use xlink:href="#DejaVuSans-2e" x="143.359375"/>
     </g>
    </g>
    <g id="line2d_16">
     <g>
      <use xlink:href="#m171a5ec5f0" x="82.215" y="88.965211" style="fill: #ffffff; stroke: #006400"/>
     </g>
    </g>
    <g id="text_10">
     <!-- not sig. -->
     <g transform="translate(108.945 94.162711)scale(0.1485 -0.1485)">
      <use xlink:href="#DejaVuSans-6e"/>
      <use xlink:href="#DejaVuSans-6f" x="63.378906"/>
      <use xlink:href="#DejaVuSans-74" x="124.560547"/>
      <use xlink:href="#DejaVuSans-20" x="163.769531"/>
      <use xlink:href="#DejaVuSans-73" x="195.556641"/>
      <use xlink:href="#DejaVuSans-69" x="247.65625"/>
      <use xlink:href="#DejaVuSans-67" x="275.439453"/>
      <use xlink:href="#DejaVuSans-2e" x="338.916016"/>
     </g>
    </g>
    <g id="line2d_17">
     <g>
      <use xlink:href="#m5675862313" x="82.215" y="110.762227" style="fill: #006400; stroke: #006400"/>
     </g>
    </g>
    <g id="text_11">
     <!-- sig. -->
     <g transform="translate(108.945 115.959727)scale(0.1485 -0.1485)">
      <use xlink:href="#DejaVuSans-73"/>
      <use xlink:href="#DejaVuSans-69" x="52.099609"/>
      <use xlink:href="#DejaVuSans-67" x="79.882812"/>
      <use xlink:href="#DejaVuSans-2e" x="143.359375"/>
     </g>
    </g>
   </g>
  </g>
  <g id="axes_2">
   <g id="patch_5">
    <path d="M 236.618182 192.24 
L 388.8 192.24 
L 388.8 25.92 
L 236.618182 25.92 
z
" style="fill: #ffffff"/>
   </g>
   <g id="PolyCollection_4">
    <defs>
     <path id="me4c21a55c3" d="M 164.331818 -94.7232 
L 164.331818 -63.6768 
L 171.940909 -72.5472 
L 179.55 -68.112 
L 187.159091 -79.2 
L 194.768182 -74.7648 
L 202.377273 -76.9824 
L 209.986364 -72.5472 
L 217.595455 -68.112 
L 225.204545 -76.9824 
L 232.813636 -68.112 
L 240.422727 -54.8064 
L 248.031818 -70.3296 
L 255.640909 -65.8944 
L 263.25 -68.112 
L 270.859091 -70.3296 
L 278.468182 -70.3296 
L 286.077273 -58.886784 
L 293.686364 -65.8944 
L 301.295455 -63.6768 
L 308.904545 -61.4592 
L 316.513636 -90.288 
L 324.122727 -132.4224 
L 331.731818 -145.728 
L 339.340909 -147.9456 
L 346.95 -136.8576 
L 354.559091 -139.0752 
L 362.168182 -145.728 
L 369.777273 -156.816 
L 377.386364 -147.9456 
L 384.995455 -145.728 
L 384.995455 -165.6864 
L 384.995455 -165.6864 
L 377.386364 -167.904 
L 369.777273 -172.3392 
L 362.168182 -165.6864 
L 354.559091 -161.2512 
L 346.95 -161.2512 
L 339.340909 -167.904 
L 331.731818 -167.904 
L 324.122727 -159.0336 
L 316.513636 -121.3344 
L 308.904545 -92.5056 
L 301.295455 -92.5056 
L 293.686364 -95.078016 
L 286.077273 -90.288 
L 278.468182 -103.5936 
L 270.859091 -99.1584 
L 263.25 -96.9408 
L 255.640909 -96.9408 
L 248.031818 -101.376 
L 240.422727 -88.425216 
L 232.813636 -96.9408 
L 225.204545 -105.8112 
L 217.595455 -99.1584 
L 209.986364 -105.8112 
L 202.377273 -105.8112 
L 194.768182 -105.8112 
L 187.159091 -108.0288 
L 179.55 -99.1584 
L 171.940909 -101.376 
L 164.331818 -94.7232 
z
" style="stroke: #800080; stroke-opacity: 0.2; stroke-width: 1.5"/>
    </defs>
    <g clip-path="url(#pff371fb660)">
     <use xlink:href="#me4c21a55c3" x="0" y="216" style="fill: #800080; fill-opacity: 0.2; stroke: #800080; stroke-opacity: 0.2; stroke-width: 1.5"/>
    </g>
   </g>
   <g id="PolyCollection_5">
    <defs>
     <path id="m77ceaf1545" d="M 164.331818 -103.5936 
L 164.331818 -74.7648 
L 171.940909 -76.9824 
L 179.55 -70.3296 
L 187.159091 -81.4176 
L 194.768182 -74.7648 
L 202.377273 -68.112 
L 209.986364 -68.112 
L 217.595455 -83.6352 
L 225.204545 -83.6352 
L 232.813636 -85.497984 
L 240.422727 -76.9824 
L 248.031818 -79.2 
L 255.640909 -89.933184 
L 263.25 -88.0704 
L 270.859091 -87.715584 
L 278.468182 -79.2 
L 286.077273 -74.409984 
L 293.686364 -83.6352 
L 301.295455 -83.6352 
L 308.904545 -81.4176 
L 316.513636 -72.192384 
L 324.122727 -79.2 
L 331.731818 -85.8528 
L 339.340909 -114.6816 
L 346.95 -139.0752 
L 354.559091 -154.5984 
L 362.168182 -161.2512 
L 369.777273 -165.6864 
L 377.386364 -172.3392 
L 384.995455 -172.3392 
L 384.995455 -183.4272 
L 384.995455 -183.4272 
L 377.386364 -183.4272 
L 369.777273 -178.992 
L 362.168182 -174.5568 
L 354.559091 -174.5568 
L 346.95 -159.388416 
L 339.340909 -139.0752 
L 331.731818 -114.6816 
L 324.122727 -105.8112 
L 316.513636 -99.1584 
L 308.904545 -108.0288 
L 301.295455 -112.464 
L 293.686364 -110.2464 
L 286.077273 -99.1584 
L 278.468182 -108.0288 
L 270.859091 -114.6816 
L 263.25 -116.8992 
L 255.640909 -116.8992 
L 248.031818 -110.2464 
L 240.422727 -108.0288 
L 232.813636 -112.818816 
L 225.204545 -108.0288 
L 217.595455 -110.2464 
L 209.986364 -96.9408 
L 202.377273 -94.7232 
L 194.768182 -101.376 
L 187.159091 -108.0288 
L 179.55 -99.1584 
L 171.940909 -101.376 
L 164.331818 -103.5936 
z
" style="stroke: #006400; stroke-opacity: 0.2; stroke-width: 1.5"/>
    </defs>
    <g clip-path="url(#pff371fb660)">
     <use xlink:href="#m77ceaf1545" x="0" y="216" style="fill: #006400; fill-opacity: 0.2; stroke: #006400; stroke-opacity: 0.2; stroke-width: 1.5"/>
    </g>
   </g>
   <g id="PolyCollection_6">
    <defs>
     <path id="m033bad3bbf" d="M 312.709091 -29.304 
L 312.709091 -23.76 
L 388.8 -23.76 
L 388.8 -29.304 
L 388.8 -29.304 
L 312.709091 -29.304 
z
" style="stroke: #000000; stroke-opacity: 0.2; stroke-width: 1.5"/>
    </defs>
    <g clip-path="url(#pff371fb660)">
     <use xlink:href="#m033bad3bbf" x="0" y="216" style="fill-opacity: 0.2; stroke: #000000; stroke-opacity: 0.2; stroke-width: 1.5"/>
    </g>
   </g>
   <g id="matplotlib.axis_3">
    <g id="xtick_4">
     <g id="line2d_18">
      <g>
       <use xlink:href="#mc5a0ae4f54" x="236.618182" y="192.24" style="stroke: #000000; stroke-width: 1.875"/>
      </g>
     </g>
     <g id="text_12">
      <!-- -0.25 -->
      <g transform="translate(217.407154 207.02368)scale(0.1485 -0.1485)">
       <use xlink:href="#DejaVuSans-2d"/>
       <use xlink:href="#DejaVuSans-30" x="36.083984"/>
       <use xlink:href="#DejaVuSans-2e" x="99.707031"/>
       <use xlink:href="#DejaVuSans-32" x="131.494141"/>
       <use xlink:href="#DejaVuSans-35" x="195.117188"/>
      </g>
     </g>
    </g>
    <g id="xtick_5">
     <g id="line2d_19">
      <g>
       <use xlink:href="#mc5a0ae4f54" x="312.709091" y="192.24" style="stroke: #000000; stroke-width: 1.875"/>
      </g>
     </g>
     <g id="text_13">
      <!-- 0 -->
      <g transform="translate(307.984935 207.02368)scale(0.1485 -0.1485)">
       <use xlink:href="#DejaVuSans-30"/>
      </g>
     </g>
    </g>
    <g id="xtick_6">
     <g id="line2d_20">
      <g>
       <use xlink:href="#mc5a0ae4f54" x="388.8" y="192.24" style="stroke: #000000; stroke-width: 1.875"/>
      </g>
     </g>
     <g id="text_14">
      <!-- 0.25 -->
      <g transform="translate(372.267773 207.02368)scale(0.1485 -0.1485)">
       <use xlink:href="#DejaVuSans-30"/>
       <use xlink:href="#DejaVuSans-2e" x="63.623047"/>
       <use xlink:href="#DejaVuSans-32" x="95.410156"/>
       <use xlink:href="#DejaVuSans-35" x="159.033203"/>
      </g>
     </g>
    </g>
    <g id="text_15">
     <!-- time from stimulus (sec) -->
     <g transform="translate(213.591669 226.421484)scale(0.162 -0.162)">
      <use xlink:href="#DejaVuSans-74"/>
      <use xlink:href="#DejaVuSans-69" x="39.208984"/>
      <use xlink:href="#DejaVuSans-6d" x="66.992188"/>
      <use xlink:href="#DejaVuSans-65" x="164.404297"/>
      <use xlink:href="#DejaVuSans-20" x="225.927734"/>
      <use xlink:href="#DejaVuSans-66" x="257.714844"/>
      <use xlink:href="#DejaVuSans-72" x="292.919922"/>
      <use xlink:href="#DejaVuSans-6f" x="331.783203"/>
      <use xlink:href="#DejaVuSans-6d" x="392.964844"/>
      <use xlink:href="#DejaVuSans-20" x="490.376953"/>
      <use xlink:href="#DejaVuSans-73" x="522.164062"/>
      <use xlink:href="#DejaVuSans-74" x="574.263672"/>
      <use xlink:href="#DejaVuSans-69" x="613.472656"/>
      <use xlink:href="#DejaVuSans-6d" x="641.255859"/>
      <use xlink:href="#DejaVuSans-75" x="738.667969"/>
      <use xlink:href="#DejaVuSans-6c" x="802.046875"/>
      <use xlink:href="#DejaVuSans-75" x="829.830078"/>
      <use xlink:href="#DejaVuSans-73" x="893.208984"/>
      <use xlink:href="#DejaVuSans-20" x="945.308594"/>
      <use xlink:href="#DejaVuSans-28" x="977.095703"/>
      <use xlink:href="#DejaVuSans-73" x="1016.109375"/>
      <use xlink:href="#DejaVuSans-65" x="1068.208984"/>
      <use xlink:href="#DejaVuSans-63" x="1129.732422"/>
      <use xlink:href="#DejaVuSans-29" x="1184.712891"/>
     </g>
    </g>
   </g>
   <g id="matplotlib.axis_4">
    <g id="ytick_4">
     <g id="line2d_21">
      <g>
       <use xlink:href="#m25f0614981" x="236.618182" y="192.24" style="stroke: #000000; stroke-width: 1.875"/>
      </g>
     </g>
    </g>
    <g id="ytick_5">
     <g id="line2d_22">
      <g>
       <use xlink:href="#m25f0614981" x="236.618182" y="136.8" style="stroke: #000000; stroke-width: 1.875"/>
      </g>
     </g>
     <g id="text_16">
      <!-- 50 -->
      <g transform="translate(214.221557 142.44184)scale(0.1485 -0.1485)">
       <use xlink:href="#DejaVuSans-35"/>
       <use xlink:href="#DejaVuSans-30" x="63.623047"/>
      </g>
     </g>
    </g>
    <g id="ytick_6">
     <g id="line2d_23">
      <g>
       <use xlink:href="#m25f0614981" x="236.618182" y="25.92" style="stroke: #000000; stroke-width: 1.875"/>
      </g>
     </g>
     <g id="text_17">
      <!-- 100 -->
      <g transform="translate(204.773244 31.56184)scale(0.1485 -0.1485)">
       <use xlink:href="#DejaVuSans-31"/>
       <use xlink:href="#DejaVuSans-30" x="63.623047"/>
       <use xlink:href="#DejaVuSans-30" x="127.246094"/>
      </g>
     </g>
    </g>
    <g id="text_18">
     <!-- decoding accuracy (%) -->
     <g transform="translate(197.404151 201.995859)rotate(-90)scale(0.162 -0.162)">
      <use xlink:href="#DejaVuSans-64"/>
      <use xlink:href="#DejaVuSans-65" x="63.476562"/>
      <use xlink:href="#DejaVuSans-63" x="125"/>
      <use xlink:href="#DejaVuSans-6f" x="179.980469"/>
      <use xlink:href="#DejaVuSans-64" x="241.162109"/>
      <use xlink:href="#DejaVuSans-69" x="304.638672"/>
      <use xlink:href="#DejaVuSans-6e" x="332.421875"/>
      <use xlink:href="#DejaVuSans-67" x="395.800781"/>
      <use xlink:href="#DejaVuSans-20" x="459.277344"/>
      <use xlink:href="#DejaVuSans-61" x="491.064453"/>
      <use xlink:href="#DejaVuSans-63" x="552.34375"/>
      <use xlink:href="#DejaVuSans-63" x="607.324219"/>
      <use xlink:href="#DejaVuSans-75" x="662.304688"/>
      <use xlink:href="#DejaVuSans-72" x="725.683594"/>
      <use xlink:href="#DejaVuSans-61" x="766.796875"/>
      <use xlink:href="#DejaVuSans-63" x="828.076172"/>
      <use xlink:href="#DejaVuSans-79" x="883.056641"/>
      <use xlink:href="#DejaVuSans-20" x="942.236328"/>
      <use xlink:href="#DejaVuSans-28" x="974.023438"/>
      <use xlink:href="#DejaVuSans-25" x="1013.037109"/>
      <use xlink:href="#DejaVuSans-29" x="1108.056641"/>
     </g>
    </g>
   </g>
   <g id="line2d_24">
    <path d="M 164.331818 136.766736 
L 171.940909 129.748032 
L 179.55 132.109776 
L 187.159091 122.174928 
L 194.768182 124.702992 
L 202.377273 125.2962 
L 209.986364 125.900496 
L 217.595455 131.45004 
L 225.204545 124.79724 
L 232.813636 132.94692 
L 240.422727 143.940672 
L 248.031818 130.468752 
L 255.640909 134.732088 
L 263.25 133.024536 
L 270.859091 130.917816 
L 278.468182 129.609432 
L 286.077273 142.227576 
L 293.686364 136.295496 
L 301.295455 137.614968 
L 308.904545 138.169368 
L 316.513636 110.848536 
L 324.122727 69.88392 
L 331.731818 59.394672 
L 339.340909 56.766816 
L 346.95 66.978864 
L 354.559091 66.136176 
L 362.168182 60.509016 
L 369.777273 51.561 
L 377.386364 58.369032 
L 384.995455 59.838192 
" clip-path="url(#pff371fb660)" style="fill: none; stroke: #800080; stroke-width: 2.25; stroke-linecap: square"/>
   </g>
   <g id="line2d_25">
    <g clip-path="url(#pff371fb660)">
     <use xlink:href="#mfc5fd4866e" x="164.331818" y="136.766736" style="fill: #ffffff; stroke: #800080"/>
     <use xlink:href="#mfc5fd4866e" x="171.940909" y="129.748032" style="fill: #ffffff; stroke: #800080"/>
     <use xlink:href="#mfc5fd4866e" x="179.55" y="132.109776" style="fill: #ffffff; stroke: #800080"/>
     <use xlink:href="#mfc5fd4866e" x="187.159091" y="122.174928" style="fill: #ffffff; stroke: #800080"/>
     <use xlink:href="#mfc5fd4866e" x="194.768182" y="124.702992" style="fill: #ffffff; stroke: #800080"/>
     <use xlink:href="#mfc5fd4866e" x="202.377273" y="125.2962" style="fill: #ffffff; stroke: #800080"/>
     <use xlink:href="#mfc5fd4866e" x="209.986364" y="125.900496" style="fill: #ffffff; stroke: #800080"/>
     <use xlink:href="#mfc5fd4866e" x="217.595455" y="131.45004" style="fill: #ffffff; stroke: #800080"/>
     <use xlink:href="#mfc5fd4866e" x="225.204545" y="124.79724" style="fill: #ffffff; stroke: #800080"/>
     <use xlink:href="#mfc5fd4866e" x="232.813636" y="132.94692" style="fill: #ffffff; stroke: #800080"/>
     <use xlink:href="#mfc5fd4866e" x="240.422727" y="143.940672" style="fill: #ffffff; stroke: #800080"/>
     <use xlink:href="#mfc5fd4866e" x="248.031818" y="130.468752" style="fill: #ffffff; stroke: #800080"/>
     <use xlink:href="#mfc5fd4866e" x="255.640909" y="134.732088" style="fill: #ffffff; stroke: #800080"/>
     <use xlink:href="#mfc5fd4866e" x="263.25" y="133.024536" style="fill: #ffffff; stroke: #800080"/>
     <use xlink:href="#mfc5fd4866e" x="270.859091" y="130.917816" style="fill: #ffffff; stroke: #800080"/>
     <use xlink:href="#mfc5fd4866e" x="278.468182" y="129.609432" style="fill: #ffffff; stroke: #800080"/>
     <use xlink:href="#mfc5fd4866e" x="286.077273" y="142.227576" style="fill: #ffffff; stroke: #800080"/>
     <use xlink:href="#mfc5fd4866e" x="293.686364" y="136.295496" style="fill: #ffffff; stroke: #800080"/>
     <use xlink:href="#mfc5fd4866e" x="301.295455" y="137.614968" style="fill: #ffffff; stroke: #800080"/>
     <use xlink:href="#mfc5fd4866e" x="308.904545" y="138.169368" style="fill: #ffffff; stroke: #800080"/>
     <use xlink:href="#mfc5fd4866e" x="316.513636" y="110.848536" style="fill: #ffffff; stroke: #800080"/>
     <use xlink:href="#mfc5fd4866e" x="324.122727" y="69.88392" style="fill: #ffffff; stroke: #800080"/>
     <use xlink:href="#mfc5fd4866e" x="331.731818" y="59.394672" style="fill: #ffffff; stroke: #800080"/>
     <use xlink:href="#mfc5fd4866e" x="339.340909" y="56.766816" style="fill: #ffffff; stroke: #800080"/>
     <use xlink:href="#mfc5fd4866e" x="346.95" y="66.978864" style="fill: #ffffff; stroke: #800080"/>
     <use xlink:href="#mfc5fd4866e" x="354.559091" y="66.136176" style="fill: #ffffff; stroke: #800080"/>
     <use xlink:href="#mfc5fd4866e" x="362.168182" y="60.509016" style="fill: #ffffff; stroke: #800080"/>
     <use xlink:href="#mfc5fd4866e" x="369.777273" y="51.561" style="fill: #ffffff; stroke: #800080"/>
     <use xlink:href="#mfc5fd4866e" x="377.386364" y="58.369032" style="fill: #ffffff; stroke: #800080"/>
     <use xlink:href="#mfc5fd4866e" x="384.995455" y="59.838192" style="fill: #ffffff; stroke: #800080"/>
    </g>
   </g>
   <g id="line2d_26">
    <g clip-path="url(#pff371fb660)">
     <use xlink:href="#me4e082b378" x="324.122727" y="69.88392" style="fill: #800080; stroke: #800080"/>
     <use xlink:href="#me4e082b378" x="331.731818" y="59.394672" style="fill: #800080; stroke: #800080"/>
     <use xlink:href="#me4e082b378" x="339.340909" y="56.766816" style="fill: #800080; stroke: #800080"/>
     <use xlink:href="#me4e082b378" x="346.95" y="66.978864" style="fill: #800080; stroke: #800080"/>
     <use xlink:href="#me4e082b378" x="354.559091" y="66.136176" style="fill: #800080; stroke: #800080"/>
     <use xlink:href="#me4e082b378" x="362.168182" y="60.509016" style="fill: #800080; stroke: #800080"/>
     <use xlink:href="#me4e082b378" x="369.777273" y="51.561" style="fill: #800080; stroke: #800080"/>
     <use xlink:href="#me4e082b378" x="377.386364" y="58.369032" style="fill: #800080; stroke: #800080"/>
     <use xlink:href="#me4e082b378" x="384.995455" y="59.838192" style="fill: #800080; stroke: #800080"/>
    </g>
   </g>
   <g id="line2d_27">
    <path d="M 164.331818 127.142352 
L 171.940909 125.745264 
L 179.55 132.043248 
L 187.159091 122.396688 
L 194.768182 128.0682 
L 202.377273 134.421624 
L 209.986364 133.129872 
L 217.595455 119.120184 
L 225.204545 121.049496 
L 232.813636 117.628848 
L 240.422727 122.945544 
L 248.031818 120.423024 
L 255.640909 112.456296 
L 263.25 113.40432 
L 270.859091 115.139592 
L 278.468182 122.014152 
L 286.077273 129.060576 
L 293.686364 119.347488 
L 301.295455 118.67112 
L 308.904545 120.97188 
L 316.513636 130.751496 
L 324.122727 124.237296 
L 331.731818 115.62192 
L 339.340909 89.84232 
L 346.95 66.2526 
L 354.559091 52.608816 
L 362.168182 49.470912 
L 369.777273 43.27272 
L 377.386364 38.316384 
L 384.995455 38.388456 
" clip-path="url(#pff371fb660)" style="fill: none; stroke: #006400; stroke-width: 2.25; stroke-linecap: square"/>
   </g>
   <g id="line2d_28">
    <g clip-path="url(#pff371fb660)">
     <use xlink:href="#m171a5ec5f0" x="164.331818" y="127.142352" style="fill: #ffffff; stroke: #006400"/>
     <use xlink:href="#m171a5ec5f0" x="171.940909" y="125.745264" style="fill: #ffffff; stroke: #006400"/>
     <use xlink:href="#m171a5ec5f0" x="179.55" y="132.043248" style="fill: #ffffff; stroke: #006400"/>
     <use xlink:href="#m171a5ec5f0" x="187.159091" y="122.396688" style="fill: #ffffff; stroke: #006400"/>
     <use xlink:href="#m171a5ec5f0" x="194.768182" y="128.0682" style="fill: #ffffff; stroke: #006400"/>
     <use xlink:href="#m171a5ec5f0" x="202.377273" y="134.421624" style="fill: #ffffff; stroke: #006400"/>
     <use xlink:href="#m171a5ec5f0" x="209.986364" y="133.129872" style="fill: #ffffff; stroke: #006400"/>
     <use xlink:href="#m171a5ec5f0" x="217.595455" y="119.120184" style="fill: #ffffff; stroke: #006400"/>
     <use xlink:href="#m171a5ec5f0" x="225.204545" y="121.049496" style="fill: #ffffff; stroke: #006400"/>
     <use xlink:href="#m171a5ec5f0" x="232.813636" y="117.628848" style="fill: #ffffff; stroke: #006400"/>
     <use xlink:href="#m171a5ec5f0" x="240.422727" y="122.945544" style="fill: #ffffff; stroke: #006400"/>
     <use xlink:href="#m171a5ec5f0" x="248.031818" y="120.423024" style="fill: #ffffff; stroke: #006400"/>
     <use xlink:href="#m171a5ec5f0" x="255.640909" y="112.456296" style="fill: #ffffff; stroke: #006400"/>
     <use xlink:href="#m171a5ec5f0" x="263.25" y="113.40432" style="fill: #ffffff; stroke: #006400"/>
     <use xlink:href="#m171a5ec5f0" x="270.859091" y="115.139592" style="fill: #ffffff; stroke: #006400"/>
     <use xlink:href="#m171a5ec5f0" x="278.468182" y="122.014152" style="fill: #ffffff; stroke: #006400"/>
     <use xlink:href="#m171a5ec5f0" x="286.077273" y="129.060576" style="fill: #ffffff; stroke: #006400"/>
     <use xlink:href="#m171a5ec5f0" x="293.686364" y="119.347488" style="fill: #ffffff; stroke: #006400"/>
     <use xlink:href="#m171a5ec5f0" x="301.295455" y="118.67112" style="fill: #ffffff; stroke: #006400"/>
     <use xlink:href="#m171a5ec5f0" x="308.904545" y="120.97188" style="fill: #ffffff; stroke: #006400"/>
     <use xlink:href="#m171a5ec5f0" x="316.513636" y="130.751496" style="fill: #ffffff; stroke: #006400"/>
     <use xlink:href="#m171a5ec5f0" x="324.122727" y="124.237296" style="fill: #ffffff; stroke: #006400"/>
     <use xlink:href="#m171a5ec5f0" x="331.731818" y="115.62192" style="fill: #ffffff; stroke: #006400"/>
     <use xlink:href="#m171a5ec5f0" x="339.340909" y="89.84232" style="fill: #ffffff; stroke: #006400"/>
     <use xlink:href="#m171a5ec5f0" x="346.95" y="66.2526" style="fill: #ffffff; stroke: #006400"/>
     <use xlink:href="#m171a5ec5f0" x="354.559091" y="52.608816" style="fill: #ffffff; stroke: #006400"/>
     <use xlink:href="#m171a5ec5f0" x="362.168182" y="49.470912" style="fill: #ffffff; stroke: #006400"/>
     <use xlink:href="#m171a5ec5f0" x="369.777273" y="43.27272" style="fill: #ffffff; stroke: #006400"/>
     <use xlink:href="#m171a5ec5f0" x="377.386364" y="38.316384" style="fill: #ffffff; stroke: #006400"/>
     <use xlink:href="#m171a5ec5f0" x="384.995455" y="38.388456" style="fill: #ffffff; stroke: #006400"/>
    </g>
   </g>
   <g id="line2d_29">
    <g clip-path="url(#pff371fb660)">
     <use xlink:href="#m5675862313" x="339.340909" y="89.84232" style="fill: #006400; stroke: #006400"/>
     <use xlink:href="#m5675862313" x="346.95" y="66.2526" style="fill: #006400; stroke: #006400"/>
     <use xlink:href="#m5675862313" x="354.559091" y="52.608816" style="fill: #006400; stroke: #006400"/>
     <use xlink:href="#m5675862313" x="362.168182" y="49.470912" style="fill: #006400; stroke: #006400"/>
     <use xlink:href="#m5675862313" x="369.777273" y="43.27272" style="fill: #006400; stroke: #006400"/>
     <use xlink:href="#m5675862313" x="377.386364" y="38.316384" style="fill: #006400; stroke: #006400"/>
     <use xlink:href="#m5675862313" x="384.995455" y="38.388456" style="fill: #006400; stroke: #006400"/>
    </g>
   </g>
   <g id="line2d_30">
    <path d="M 164.331818 136.8 
L 171.940909 136.8 
L 179.55 136.8 
L 187.159091 136.8 
L 194.768182 136.8 
L 202.377273 136.8 
L 209.986364 136.8 
L 217.595455 136.8 
L 225.204545 136.8 
L 232.813636 136.8 
L 240.422727 136.8 
L 248.031818 136.8 
L 255.640909 136.8 
L 263.25 136.8 
L 270.859091 136.8 
L 278.468182 136.8 
L 286.077273 136.8 
L 293.686364 136.8 
L 301.295455 136.8 
L 308.904545 136.8 
L 316.513636 136.8 
L 324.122727 136.8 
L 331.731818 136.8 
L 339.340909 136.8 
L 346.95 136.8 
L 354.559091 136.8 
L 362.168182 136.8 
L 369.777273 136.8 
L 377.386364 136.8 
L 384.995455 136.8 
" clip-path="url(#pff371fb660)" style="fill: none; stroke-dasharray: 8.325,3.6; stroke-dashoffset: 0; stroke: #000000; stroke-width: 2.25"/>
   </g>
   <g id="patch_6">
    <path d="M 236.618182 192.24 
L 236.618182 25.92 
" style="fill: none; stroke: #000000; stroke-width: 1.875; stroke-linejoin: miter; stroke-linecap: square"/>
   </g>
   <g id="patch_7">
    <path d="M 236.618182 192.24 
L 388.8 192.24 
" style="fill: none; stroke: #000000; stroke-width: 1.875; stroke-linejoin: miter; stroke-linecap: square"/>
   </g>
   <g id="legend_2">
    <g id="line2d_31">
     <g>
      <use xlink:href="#mfc5fd4866e" x="264.833182" y="45.37118" style="fill: #ffffff; stroke: #800080"/>
     </g>
    </g>
    <g id="text_19">
     <!-- not sig. -->
     <g transform="translate(291.563182 50.56868)scale(0.1485 -0.1485)">
      <use xlink:href="#DejaVuSans-6e"/>
      <use xlink:href="#DejaVuSans-6f" x="63.378906"/>
      <use xlink:href="#DejaVuSans-74" x="124.560547"/>
      <use xlink:href="#DejaVuSans-20" x="163.769531"/>
      <use xlink:href="#DejaVuSans-73" x="195.556641"/>
      <use xlink:href="#DejaVuSans-69" x="247.65625"/>
      <use xlink:href="#DejaVuSans-67" x="275.439453"/>
      <use xlink:href="#DejaVuSans-2e" x="338.916016"/>
     </g>
    </g>
    <g id="line2d_32">
     <g>
      <use xlink:href="#me4e082b378" x="264.833182" y="67.168195" style="fill: #800080; stroke: #800080"/>
     </g>
    </g>
    <g id="text_20">
     <!-- sig. -->
     <g transform="translate(291.563182 72.365695)scale(0.1485 -0.1485)">
      <use xlink:href="#DejaVuSans-73"/>
      <use xlink:href="#DejaVuSans-69" x="52.099609"/>
      <use xlink:href="#DejaVuSans-67" x="79.882812"/>
      <use xlink:href="#DejaVuSans-2e" x="143.359375"/>
     </g>
    </g>
    <g id="line2d_33">
     <g>
      <use xlink:href="#m171a5ec5f0" x="264.833182" y="88.965211" style="fill: #ffffff; stroke: #006400"/>
     </g>
    </g>
    <g id="text_21">
     <!-- not sig. -->
     <g transform="translate(291.563182 94.162711)scale(0.1485 -0.1485)">
      <use xlink:href="#DejaVuSans-6e"/>
      <use xlink:href="#DejaVuSans-6f" x="63.378906"/>
      <use xlink:href="#DejaVuSans-74" x="124.560547"/>
      <use xlink:href="#DejaVuSans-20" x="163.769531"/>
      <use xlink:href="#DejaVuSans-73" x="195.556641"/>
      <use xlink:href="#DejaVuSans-69" x="247.65625"/>
      <use xlink:href="#DejaVuSans-67" x="275.439453"/>
      <use xlink:href="#DejaVuSans-2e" x="338.916016"/>
     </g>
    </g>
    <g id="line2d_34">
     <g>
      <use xlink:href="#m5675862313" x="264.833182" y="110.762227" style="fill: #006400; stroke: #006400"/>
     </g>
    </g>
    <g id="text_22">
     <!-- sig. -->
     <g transform="translate(291.563182 115.959727)scale(0.1485 -0.1485)">
      <use xlink:href="#DejaVuSans-73"/>
      <use xlink:href="#DejaVuSans-69" x="52.099609"/>
      <use xlink:href="#DejaVuSans-67" x="79.882812"/>
      <use xlink:href="#DejaVuSans-2e" x="143.359375"/>
     </g>
    </g>
   </g>
  </g>
 </g>
 <defs>
  <clipPath id="pb366b720fa">
   <rect x="54" y="25.92" width="152.181818" height="166.32"/>
  </clipPath>
  <clipPath id="pff371fb660">
   <rect x="236.618182" y="25.92" width="152.181818" height="166.32"/>
  </clipPath>
 </defs>
</svg>
