<?xml version="1.0" encoding="utf-8" standalone="no"?>
<!DOCTYPE svg PUBLIC "-//W3C//DTD SVG 1.1//EN"
  "http://www.w3.org/Graphics/SVG/1.1/DTD/svg11.dtd">
<svg xmlns:xlink="http://www.w3.org/1999/xlink" width="936pt" height="216pt" viewBox="0 0 936 216" xmlns="http://www.w3.org/2000/svg" version="1.1">
 <metadata>
  <rdf:RDF xmlns:dc="http://purl.org/dc/elements/1.1/" xmlns:cc="http://creativecommons.org/ns#" xmlns:rdf="http://www.w3.org/1999/02/22-rdf-syntax-ns#">
   <cc:Work>
    <dc:type rdf:resource="http://purl.org/dc/dcmitype/StillImage"/>
    <dc:date>2023-03-15T17:08:40.783098</dc:date>
    <dc:format>image/svg+xml</dc:format>
    <dc:creator>
     <cc:Agent>
      <dc:title>Matplotlib v3.5.2, https://matplotlib.org/</dc:title>
     </cc:Agent>
    </dc:creator>
   </cc:Work>
  </rdf:RDF>
 </metadata>
 <defs>
  <style type="text/css">*{stroke-linejoin: round; stroke-linecap: butt}</style>
 </defs>
 <g id="figure_1">
  <g id="patch_1">
   <path d="M 0 216 
L 936 216 
L 936 0 
L 0 0 
z
" style="fill: #ffffff"/>
  </g>
  <g id="axes_1">
   <g id="patch_2">
    <path d="M 117 192.24 
L 274.695652 192.24 
L 274.695652 25.92 
L 117 25.92 
z
" style="fill: #ffffff"/>
   </g>
   <g id="PolyCollection_1">
    <defs>
     <path id="m04ae3d1087" d="M 113.846087 -87.912 
L 113.846087 -61.776 
L 120.153913 -64.152 
L 126.461739 -66.528 
L 132.769565 -64.152 
L 139.077391 -57.024 
L 145.385217 -64.152 
L 151.693043 -61.776 
L 158.00087 -61.776 
L 164.308696 -61.776 
L 170.616522 -64.152 
L 176.924348 -71.28 
L 183.232174 -142.56 
L 189.54 -168.696 
L 195.847826 -159.192 
L 202.155652 -163.944 
L 208.463478 -171.072 
L 214.771304 -118.8 
L 221.07913 -76.032 
L 227.386957 -73.656 
L 233.694783 -73.656 
L 240.002609 -78.408 
L 246.310435 -71.28 
L 252.618261 -61.776 
L 258.926087 -61.776 
L 265.233913 -52.272 
L 271.541739 -66.528 
L 277.849565 -52.272 
L 284.157391 -57.024 
L 290.465217 -57.024 
L 296.773043 -49.46832 
L 296.773043 -76.032 
L 296.773043 -76.032 
L 290.465217 -83.16 
L 284.157391 -80.784 
L 277.849565 -76.032 
L 271.541739 -90.288 
L 265.233913 -80.784 
L 258.926087 -87.912 
L 252.618261 -90.288 
L 246.310435 -97.416 
L 240.002609 -104.544 
L 233.694783 -97.416 
L 227.386957 -99.792 
L 221.07913 -109.296 
L 214.771304 -144.936 
L 208.463478 -182.952 
L 202.155652 -178.2 
L 195.847826 -173.448 
L 189.54 -182.952 
L 183.232174 -163.944 
L 176.924348 -80.784 
L 170.616522 -78.408 
L 164.308696 -76.032 
L 158.00087 -76.032 
L 151.693043 -78.408 
L 145.385217 -80.784 
L 139.077391 -80.784 
L 132.769565 -85.536 
L 126.461739 -90.288 
L 120.153913 -87.912 
L 113.846087 -87.912 
z
" style="stroke: #808080; stroke-opacity: 0.3; stroke-width: 1.5"/>
    </defs>
    <g clip-path="url(#p72377cd1de)">
     <use xlink:href="#m04ae3d1087" x="0" y="216" style="fill: #808080; fill-opacity: 0.3; stroke: #808080; stroke-opacity: 0.3; stroke-width: 1.5"/>
    </g>
   </g>
   <g id="PolyCollection_2">
    <defs>
     <path id="m3daf8a2536" d="M 113.846087 -92.664 
L 113.846087 -66.528 
L 120.153913 -66.528 
L 126.461739 -64.152 
L 132.769565 -64.152 
L 139.077391 -64.152 
L 145.385217 -47.52 
L 151.693043 -61.776 
L 158.00087 -66.528 
L 164.308696 -66.528 
L 170.616522 -61.776 
L 176.924348 -76.032 
L 183.232174 -104.544 
L 189.54 -144.936 
L 195.847826 -125.928 
L 202.155652 -144.936 
L 208.463478 -154.44 
L 214.771304 -116.424 
L 221.07913 -95.04 
L 227.386957 -95.04 
L 233.694783 -92.664 
L 240.002609 -97.416 
L 246.310435 -83.16 
L 252.618261 -71.28 
L 258.926087 -66.528 
L 265.233913 -54.648 
L 271.541739 -57.024 
L 277.849565 -71.28 
L 284.157391 -77.98032 
L 290.465217 -71.28 
L 296.773043 -73.656 
L 296.773043 -97.416 
L 296.773043 -97.416 
L 290.465217 -97.416 
L 284.157391 -104.544 
L 277.849565 -99.792 
L 271.541739 -85.536 
L 265.233913 -83.16 
L 258.926087 -95.04 
L 252.618261 -102.168 
L 246.310435 -109.296 
L 240.002609 -123.552 
L 233.694783 -116.424 
L 227.386957 -118.8 
L 221.07913 -121.176 
L 214.771304 -149.688 
L 208.463478 -171.072 
L 202.155652 -166.32 
L 195.847826 -154.44 
L 189.54 -166.32 
L 183.232174 -133.056 
L 176.924348 -92.664 
L 170.616522 -83.16 
L 164.308696 -87.912 
L 158.00087 -90.288 
L 151.693043 -85.536 
L 145.385217 -73.656 
L 139.077391 -85.536 
L 132.769565 -87.912 
L 126.461739 -92.664 
L 120.153913 -95.04 
L 113.846087 -92.664 
z
" style="stroke: #e7ab79; stroke-opacity: 0.3; stroke-width: 1.5"/>
    </defs>
    <g clip-path="url(#p72377cd1de)">
     <use xlink:href="#m3daf8a2536" x="0" y="216" style="fill: #e7ab79; fill-opacity: 0.3; stroke: #e7ab79; stroke-opacity: 0.3; stroke-width: 1.5"/>
    </g>
   </g>
   <g id="PolyCollection_3">
    <defs>
     <path id="mf1ce9e6d6c" d="M 180.078261 -29.7 
L 180.078261 -23.76 
L 211.617391 -23.76 
L 211.617391 -29.7 
L 211.617391 -29.7 
L 180.078261 -29.7 
z
" style="stroke: #000000; stroke-opacity: 0.2; stroke-width: 1.5"/>
    </defs>
    <g clip-path="url(#p72377cd1de)">
     <use xlink:href="#mf1ce9e6d6c" x="0" y="216" style="fill-opacity: 0.2; stroke: #000000; stroke-opacity: 0.2; stroke-width: 1.5"/>
    </g>
   </g>
   <g id="matplotlib.axis_1">
    <g id="xtick_1">
     <g id="line2d_1">
      <defs>
       <path id="m62a6915391" d="M 0 0 
L 0 -9 
" style="stroke: #000000; stroke-width: 1.875"/>
      </defs>
      <g>
       <use xlink:href="#m62a6915391" x="117" y="192.24" style="stroke: #000000; stroke-width: 1.875"/>
      </g>
     </g>
     <g id="text_1">
      <!-- -.5 -->
      <g transform="translate(107.237285 207.02368)scale(0.1485 -0.1485)">
       <defs>
        <path id="DejaVuSans-2d" d="M 313 2009 
L 1997 2009 
L 1997 1497 
L 313 1497 
L 313 2009 
z
" transform="scale(0.015625)"/>
        <path id="DejaVuSans-2e" d="M 684 794 
L 1344 794 
L 1344 0 
L 684 0 
L 684 794 
z
" transform="scale(0.015625)"/>
        <path id="DejaVuSans-35" d="M 691 4666 
L 3169 4666 
L 3169 4134 
L 1269 4134 
L 1269 2991 
Q 1406 3038 1543 3061 
Q 1681 3084 1819 3084 
Q 2600 3084 3056 2656 
Q 3513 2228 3513 1497 
Q 3513 744 3044 326 
Q 2575 -91 1722 -91 
Q 1428 -91 1123 -41 
Q 819 9 494 109 
L 494 744 
Q 775 591 1075 516 
Q 1375 441 1709 441 
Q 2250 441 2565 725 
Q 2881 1009 2881 1497 
Q 2881 1984 2565 2268 
Q 2250 2553 1709 2553 
Q 1456 2553 1204 2497 
Q 953 2441 691 2322 
L 691 4666 
z
" transform="scale(0.015625)"/>
       </defs>
       <use xlink:href="#DejaVuSans-2d"/>
       <use xlink:href="#DejaVuSans-2e" x="36.083984"/>
       <use xlink:href="#DejaVuSans-35" x="67.871094"/>
      </g>
     </g>
    </g>
    <g id="xtick_2">
     <g id="line2d_2">
      <g>
       <use xlink:href="#m62a6915391" x="148.53913" y="192.24" style="stroke: #000000; stroke-width: 1.875"/>
      </g>
     </g>
     <g id="text_2">
      <!-- -.25 -->
      <g transform="translate(134.052259 207.02368)scale(0.1485 -0.1485)">
       <defs>
        <path id="DejaVuSans-32" d="M 1228 531 
L 3431 531 
L 3431 0 
L 469 0 
L 469 531 
Q 828 903 1448 1529 
Q 2069 2156 2228 2338 
Q 2531 2678 2651 2914 
Q 2772 3150 2772 3378 
Q 2772 3750 2511 3984 
Q 2250 4219 1831 4219 
Q 1534 4219 1204 4116 
Q 875 4013 500 3803 
L 500 4441 
Q 881 4594 1212 4672 
Q 1544 4750 1819 4750 
Q 2544 4750 2975 4387 
Q 3406 4025 3406 3419 
Q 3406 3131 3298 2873 
Q 3191 2616 2906 2266 
Q 2828 2175 2409 1742 
Q 1991 1309 1228 531 
z
" transform="scale(0.015625)"/>
       </defs>
       <use xlink:href="#DejaVuSans-2d"/>
       <use xlink:href="#DejaVuSans-2e" x="36.083984"/>
       <use xlink:href="#DejaVuSans-32" x="67.871094"/>
       <use xlink:href="#DejaVuSans-35" x="131.494141"/>
      </g>
     </g>
    </g>
    <g id="xtick_3">
     <g id="line2d_3">
      <g>
       <use xlink:href="#m62a6915391" x="180.078261" y="192.24" style="stroke: #000000; stroke-width: 1.875"/>
      </g>
     </g>
     <g id="text_3">
      <!-- 0 -->
      <g transform="translate(175.354105 207.02368)scale(0.1485 -0.1485)">
       <defs>
        <path id="DejaVuSans-30" d="M 2034 4250 
Q 1547 4250 1301 3770 
Q 1056 3291 1056 2328 
Q 1056 1369 1301 889 
Q 1547 409 2034 409 
Q 2525 409 2770 889 
Q 3016 1369 3016 2328 
Q 3016 3291 2770 3770 
Q 2525 4250 2034 4250 
z
M 2034 4750 
Q 2819 4750 3233 4129 
Q 3647 3509 3647 2328 
Q 3647 1150 3233 529 
Q 2819 -91 2034 -91 
Q 1250 -91 836 529 
Q 422 1150 422 2328 
Q 422 3509 836 4129 
Q 1250 4750 2034 4750 
z
" transform="scale(0.015625)"/>
       </defs>
       <use xlink:href="#DejaVuSans-30"/>
      </g>
     </g>
    </g>
    <g id="xtick_4">
     <g id="line2d_4">
      <g>
       <use xlink:href="#m62a6915391" x="211.617391" y="192.24" style="stroke: #000000; stroke-width: 1.875"/>
      </g>
     </g>
     <g id="text_4">
      <!-- .25 -->
      <g transform="translate(199.809321 207.02368)scale(0.1485 -0.1485)">
       <use xlink:href="#DejaVuSans-2e"/>
       <use xlink:href="#DejaVuSans-32" x="31.787109"/>
       <use xlink:href="#DejaVuSans-35" x="95.410156"/>
      </g>
     </g>
    </g>
    <g id="xtick_5">
     <g id="line2d_5">
      <g>
       <use xlink:href="#m62a6915391" x="243.156522" y="192.24" style="stroke: #000000; stroke-width: 1.875"/>
      </g>
     </g>
     <g id="text_5">
      <!-- .5 -->
      <g transform="translate(236.072608 207.02368)scale(0.1485 -0.1485)">
       <use xlink:href="#DejaVuSans-2e"/>
       <use xlink:href="#DejaVuSans-35" x="31.787109"/>
      </g>
     </g>
    </g>
    <g id="xtick_6">
     <g id="line2d_6">
      <g>
       <use xlink:href="#m62a6915391" x="274.695652" y="192.24" style="stroke: #000000; stroke-width: 1.875"/>
      </g>
     </g>
     <g id="text_6">
      <!-- .75 -->
      <g transform="translate(262.887582 207.02368)scale(0.1485 -0.1485)">
       <defs>
        <path id="DejaVuSans-37" d="M 525 4666 
L 3525 4666 
L 3525 4397 
L 1831 0 
L 1172 0 
L 2766 4134 
L 525 4134 
L 525 4666 
z
" transform="scale(0.015625)"/>
       </defs>
       <use xlink:href="#DejaVuSans-2e"/>
       <use xlink:href="#DejaVuSans-37" x="31.787109"/>
       <use xlink:href="#DejaVuSans-35" x="95.410156"/>
      </g>
     </g>
    </g>
    <g id="text_7">
     <!-- time from stimulus (s) -->
     <g transform="translate(106.16817 226.421484)scale(0.162 -0.162)">
      <defs>
       <path id="DejaVuSans-74" d="M 1172 4494 
L 1172 3500 
L 2356 3500 
L 2356 3053 
L 1172 3053 
L 1172 1153 
Q 1172 725 1289 603 
Q 1406 481 1766 481 
L 2356 481 
L 2356 0 
L 1766 0 
Q 1100 0 847 248 
Q 594 497 594 1153 
L 594 3053 
L 172 3053 
L 172 3500 
L 594 3500 
L 594 4494 
L 1172 4494 
z
" transform="scale(0.015625)"/>
       <path id="DejaVuSans-69" d="M 603 3500 
L 1178 3500 
L 1178 0 
L 603 0 
L 603 3500 
z
M 603 4863 
L 1178 4863 
L 1178 4134 
L 603 4134 
L 603 4863 
z
" transform="scale(0.015625)"/>
       <path id="DejaVuSans-6d" d="M 3328 2828 
Q 3544 3216 3844 3400 
Q 4144 3584 4550 3584 
Q 5097 3584 5394 3201 
Q 5691 2819 5691 2113 
L 5691 0 
L 5113 0 
L 5113 2094 
Q 5113 2597 4934 2840 
Q 4756 3084 4391 3084 
Q 3944 3084 3684 2787 
Q 3425 2491 3425 1978 
L 3425 0 
L 2847 0 
L 2847 2094 
Q 2847 2600 2669 2842 
Q 2491 3084 2119 3084 
Q 1678 3084 1418 2786 
Q 1159 2488 1159 1978 
L 1159 0 
L 581 0 
L 581 3500 
L 1159 3500 
L 1159 2956 
Q 1356 3278 1631 3431 
Q 1906 3584 2284 3584 
Q 2666 3584 2933 3390 
Q 3200 3197 3328 2828 
z
" transform="scale(0.015625)"/>
       <path id="DejaVuSans-65" d="M 3597 1894 
L 3597 1613 
L 953 1613 
Q 991 1019 1311 708 
Q 1631 397 2203 397 
Q 2534 397 2845 478 
Q 3156 559 3463 722 
L 3463 178 
Q 3153 47 2828 -22 
Q 2503 -91 2169 -91 
Q 1331 -91 842 396 
Q 353 884 353 1716 
Q 353 2575 817 3079 
Q 1281 3584 2069 3584 
Q 2775 3584 3186 3129 
Q 3597 2675 3597 1894 
z
M 3022 2063 
Q 3016 2534 2758 2815 
Q 2500 3097 2075 3097 
Q 1594 3097 1305 2825 
Q 1016 2553 972 2059 
L 3022 2063 
z
" transform="scale(0.015625)"/>
       <path id="DejaVuSans-20" transform="scale(0.015625)"/>
       <path id="DejaVuSans-66" d="M 2375 4863 
L 2375 4384 
L 1825 4384 
Q 1516 4384 1395 4259 
Q 1275 4134 1275 3809 
L 1275 3500 
L 2222 3500 
L 2222 3053 
L 1275 3053 
L 1275 0 
L 697 0 
L 697 3053 
L 147 3053 
L 147 3500 
L 697 3500 
L 697 3744 
Q 697 4328 969 4595 
Q 1241 4863 1831 4863 
L 2375 4863 
z
" transform="scale(0.015625)"/>
       <path id="DejaVuSans-72" d="M 2631 2963 
Q 2534 3019 2420 3045 
Q 2306 3072 2169 3072 
Q 1681 3072 1420 2755 
Q 1159 2438 1159 1844 
L 1159 0 
L 581 0 
L 581 3500 
L 1159 3500 
L 1159 2956 
Q 1341 3275 1631 3429 
Q 1922 3584 2338 3584 
Q 2397 3584 2469 3576 
Q 2541 3569 2628 3553 
L 2631 2963 
z
" transform="scale(0.015625)"/>
       <path id="DejaVuSans-6f" d="M 1959 3097 
Q 1497 3097 1228 2736 
Q 959 2375 959 1747 
Q 959 1119 1226 758 
Q 1494 397 1959 397 
Q 2419 397 2687 759 
Q 2956 1122 2956 1747 
Q 2956 2369 2687 2733 
Q 2419 3097 1959 3097 
z
M 1959 3584 
Q 2709 3584 3137 3096 
Q 3566 2609 3566 1747 
Q 3566 888 3137 398 
Q 2709 -91 1959 -91 
Q 1206 -91 779 398 
Q 353 888 353 1747 
Q 353 2609 779 3096 
Q 1206 3584 1959 3584 
z
" transform="scale(0.015625)"/>
       <path id="DejaVuSans-73" d="M 2834 3397 
L 2834 2853 
Q 2591 2978 2328 3040 
Q 2066 3103 1784 3103 
Q 1356 3103 1142 2972 
Q 928 2841 928 2578 
Q 928 2378 1081 2264 
Q 1234 2150 1697 2047 
L 1894 2003 
Q 2506 1872 2764 1633 
Q 3022 1394 3022 966 
Q 3022 478 2636 193 
Q 2250 -91 1575 -91 
Q 1294 -91 989 -36 
Q 684 19 347 128 
L 347 722 
Q 666 556 975 473 
Q 1284 391 1588 391 
Q 1994 391 2212 530 
Q 2431 669 2431 922 
Q 2431 1156 2273 1281 
Q 2116 1406 1581 1522 
L 1381 1569 
Q 847 1681 609 1914 
Q 372 2147 372 2553 
Q 372 3047 722 3315 
Q 1072 3584 1716 3584 
Q 2034 3584 2315 3537 
Q 2597 3491 2834 3397 
z
" transform="scale(0.015625)"/>
       <path id="DejaVuSans-75" d="M 544 1381 
L 544 3500 
L 1119 3500 
L 1119 1403 
Q 1119 906 1312 657 
Q 1506 409 1894 409 
Q 2359 409 2629 706 
Q 2900 1003 2900 1516 
L 2900 3500 
L 3475 3500 
L 3475 0 
L 2900 0 
L 2900 538 
Q 2691 219 2414 64 
Q 2138 -91 1772 -91 
Q 1169 -91 856 284 
Q 544 659 544 1381 
z
M 1991 3584 
L 1991 3584 
z
" transform="scale(0.015625)"/>
       <path id="DejaVuSans-6c" d="M 603 4863 
L 1178 4863 
L 1178 0 
L 603 0 
L 603 4863 
z
" transform="scale(0.015625)"/>
       <path id="DejaVuSans-28" d="M 1984 4856 
Q 1566 4138 1362 3434 
Q 1159 2731 1159 2009 
Q 1159 1288 1364 580 
Q 1569 -128 1984 -844 
L 1484 -844 
Q 1016 -109 783 600 
Q 550 1309 550 2009 
Q 550 2706 781 3412 
Q 1013 4119 1484 4856 
L 1984 4856 
z
" transform="scale(0.015625)"/>
       <path id="DejaVuSans-29" d="M 513 4856 
L 1013 4856 
Q 1481 4119 1714 3412 
Q 1947 2706 1947 2009 
Q 1947 1309 1714 600 
Q 1481 -109 1013 -844 
L 513 -844 
Q 928 -128 1133 580 
Q 1338 1288 1338 2009 
Q 1338 2731 1133 3434 
Q 928 4138 513 4856 
z
" transform="scale(0.015625)"/>
      </defs>
      <use xlink:href="#DejaVuSans-74"/>
      <use xlink:href="#DejaVuSans-69" x="39.208984"/>
      <use xlink:href="#DejaVuSans-6d" x="66.992188"/>
      <use xlink:href="#DejaVuSans-65" x="164.404297"/>
      <use xlink:href="#DejaVuSans-20" x="225.927734"/>
      <use xlink:href="#DejaVuSans-66" x="257.714844"/>
      <use xlink:href="#DejaVuSans-72" x="292.919922"/>
      <use xlink:href="#DejaVuSans-6f" x="331.783203"/>
      <use xlink:href="#DejaVuSans-6d" x="392.964844"/>
      <use xlink:href="#DejaVuSans-20" x="490.376953"/>
      <use xlink:href="#DejaVuSans-73" x="522.164062"/>
      <use xlink:href="#DejaVuSans-74" x="574.263672"/>
      <use xlink:href="#DejaVuSans-69" x="613.472656"/>
      <use xlink:href="#DejaVuSans-6d" x="641.255859"/>
      <use xlink:href="#DejaVuSans-75" x="738.667969"/>
      <use xlink:href="#DejaVuSans-6c" x="802.046875"/>
      <use xlink:href="#DejaVuSans-75" x="829.830078"/>
      <use xlink:href="#DejaVuSans-73" x="893.208984"/>
      <use xlink:href="#DejaVuSans-20" x="945.308594"/>
      <use xlink:href="#DejaVuSans-28" x="977.095703"/>
      <use xlink:href="#DejaVuSans-73" x="1016.109375"/>
      <use xlink:href="#DejaVuSans-29" x="1068.208984"/>
     </g>
    </g>
   </g>
   <g id="matplotlib.axis_2">
    <g id="ytick_1">
     <g id="line2d_7">
      <defs>
       <path id="md1b7285759" d="M 0 0 
L 9 0 
" style="stroke: #000000; stroke-width: 1.875"/>
      </defs>
      <g>
       <use xlink:href="#md1b7285759" x="117" y="144.72" style="stroke: #000000; stroke-width: 1.875"/>
      </g>
     </g>
     <g id="text_8">
      <!-- 50 -->
      <g transform="translate(94.603375 150.36184)scale(0.1485 -0.1485)">
       <use xlink:href="#DejaVuSans-35"/>
       <use xlink:href="#DejaVuSans-30" x="63.623047"/>
      </g>
     </g>
    </g>
    <g id="ytick_2">
     <g id="line2d_8">
      <g>
       <use xlink:href="#md1b7285759" x="117" y="25.92" style="stroke: #000000; stroke-width: 1.875"/>
      </g>
     </g>
     <g id="text_9">
      <!-- 100 -->
      <g transform="translate(85.155062 31.56184)scale(0.1485 -0.1485)">
       <defs>
        <path id="DejaVuSans-31" d="M 794 531 
L 1825 531 
L 1825 4091 
L 703 3866 
L 703 4441 
L 1819 4666 
L 2450 4666 
L 2450 531 
L 3481 531 
L 3481 0 
L 794 0 
L 794 531 
z
" transform="scale(0.015625)"/>
       </defs>
       <use xlink:href="#DejaVuSans-31"/>
       <use xlink:href="#DejaVuSans-30" x="63.623047"/>
       <use xlink:href="#DejaVuSans-30" x="127.246094"/>
      </g>
     </g>
    </g>
    <g id="text_10">
     <!-- accuracy (%) -->
     <g transform="translate(77.785969 162.217266)rotate(-90)scale(0.162 -0.162)">
      <defs>
       <path id="DejaVuSans-61" d="M 2194 1759 
Q 1497 1759 1228 1600 
Q 959 1441 959 1056 
Q 959 750 1161 570 
Q 1363 391 1709 391 
Q 2188 391 2477 730 
Q 2766 1069 2766 1631 
L 2766 1759 
L 2194 1759 
z
M 3341 1997 
L 3341 0 
L 2766 0 
L 2766 531 
Q 2569 213 2275 61 
Q 1981 -91 1556 -91 
Q 1019 -91 701 211 
Q 384 513 384 1019 
Q 384 1609 779 1909 
Q 1175 2209 1959 2209 
L 2766 2209 
L 2766 2266 
Q 2766 2663 2505 2880 
Q 2244 3097 1772 3097 
Q 1472 3097 1187 3025 
Q 903 2953 641 2809 
L 641 3341 
Q 956 3463 1253 3523 
Q 1550 3584 1831 3584 
Q 2591 3584 2966 3190 
Q 3341 2797 3341 1997 
z
" transform="scale(0.015625)"/>
       <path id="DejaVuSans-63" d="M 3122 3366 
L 3122 2828 
Q 2878 2963 2633 3030 
Q 2388 3097 2138 3097 
Q 1578 3097 1268 2742 
Q 959 2388 959 1747 
Q 959 1106 1268 751 
Q 1578 397 2138 397 
Q 2388 397 2633 464 
Q 2878 531 3122 666 
L 3122 134 
Q 2881 22 2623 -34 
Q 2366 -91 2075 -91 
Q 1284 -91 818 406 
Q 353 903 353 1747 
Q 353 2603 823 3093 
Q 1294 3584 2113 3584 
Q 2378 3584 2631 3529 
Q 2884 3475 3122 3366 
z
" transform="scale(0.015625)"/>
       <path id="DejaVuSans-79" d="M 2059 -325 
Q 1816 -950 1584 -1140 
Q 1353 -1331 966 -1331 
L 506 -1331 
L 506 -850 
L 844 -850 
Q 1081 -850 1212 -737 
Q 1344 -625 1503 -206 
L 1606 56 
L 191 3500 
L 800 3500 
L 1894 763 
L 2988 3500 
L 3597 3500 
L 2059 -325 
z
" transform="scale(0.015625)"/>
       <path id="DejaVuSans-25" d="M 4653 2053 
Q 4381 2053 4226 1822 
Q 4072 1591 4072 1178 
Q 4072 772 4226 539 
Q 4381 306 4653 306 
Q 4919 306 5073 539 
Q 5228 772 5228 1178 
Q 5228 1588 5073 1820 
Q 4919 2053 4653 2053 
z
M 4653 2450 
Q 5147 2450 5437 2106 
Q 5728 1763 5728 1178 
Q 5728 594 5436 251 
Q 5144 -91 4653 -91 
Q 4153 -91 3862 251 
Q 3572 594 3572 1178 
Q 3572 1766 3864 2108 
Q 4156 2450 4653 2450 
z
M 1428 4353 
Q 1159 4353 1004 4120 
Q 850 3888 850 3481 
Q 850 3069 1003 2837 
Q 1156 2606 1428 2606 
Q 1700 2606 1854 2837 
Q 2009 3069 2009 3481 
Q 2009 3884 1853 4118 
Q 1697 4353 1428 4353 
z
M 4250 4750 
L 4750 4750 
L 1831 -91 
L 1331 -91 
L 4250 4750 
z
M 1428 4750 
Q 1922 4750 2215 4408 
Q 2509 4066 2509 3481 
Q 2509 2891 2217 2550 
Q 1925 2209 1428 2209 
Q 931 2209 642 2551 
Q 353 2894 353 3481 
Q 353 4063 643 4406 
Q 934 4750 1428 4750 
z
" transform="scale(0.015625)"/>
      </defs>
      <use xlink:href="#DejaVuSans-61"/>
      <use xlink:href="#DejaVuSans-63" x="61.279297"/>
      <use xlink:href="#DejaVuSans-63" x="116.259766"/>
      <use xlink:href="#DejaVuSans-75" x="171.240234"/>
      <use xlink:href="#DejaVuSans-72" x="234.619141"/>
      <use xlink:href="#DejaVuSans-61" x="275.732422"/>
      <use xlink:href="#DejaVuSans-63" x="337.011719"/>
      <use xlink:href="#DejaVuSans-79" x="391.992188"/>
      <use xlink:href="#DejaVuSans-20" x="451.171875"/>
      <use xlink:href="#DejaVuSans-28" x="482.958984"/>
      <use xlink:href="#DejaVuSans-25" x="521.972656"/>
      <use xlink:href="#DejaVuSans-29" x="616.992188"/>
     </g>
    </g>
   </g>
   <g id="line2d_9">
    <path d="M 113.846087 141.141744 
L 120.153913 141.146496 
L 126.461739 139.293216 
L 132.769565 141.184512 
L 139.077391 147.038976 
L 145.385217 144.843552 
L 151.693043 147.04848 
L 158.00087 148.250736 
L 164.308696 147.884832 
L 170.616522 144.79128 
L 176.924348 140.856624 
L 183.232174 63.075888 
L 189.54 41.230944 
L 195.847826 49.817808 
L 202.155652 44.980272 
L 208.463478 39.268368 
L 214.771304 84.431376 
L 221.07913 125.232048 
L 227.386957 129.214224 
L 233.694783 131.43816 
L 240.002609 125.488656 
L 246.310435 132.013152 
L 252.618261 140.614272 
L 258.926087 142.253712 
L 265.233913 149.87592 
L 271.541739 138.143232 
L 277.849565 152.223408 
L 284.157391 147.14352 
L 290.465217 145.618128 
L 296.773043 153.658512 
" clip-path="url(#p72377cd1de)" style="fill: none; stroke: #808080; stroke-width: 2.25; stroke-linecap: square"/>
   </g>
   <g id="line2d_10">
    <path d="M 113.846087 136.180656 
L 120.153913 135.5724 
L 126.461739 137.85336 
L 132.769565 140.647536 
L 139.077391 142.329744 
L 145.385217 155.283696 
L 151.693043 143.113824 
L 158.00087 138.452112 
L 164.308696 138.32856 
L 170.616522 143.821872 
L 176.924348 131.718528 
L 183.232174 97.903296 
L 189.54 60.623856 
L 195.847826 77.417424 
L 202.155652 61.127568 
L 208.463478 54.21816 
L 214.771304 83.414448 
L 221.07913 108.362448 
L 227.386957 109.203552 
L 233.694783 112.78656 
L 240.002609 106.9416 
L 246.310435 119.610432 
L 252.618261 129.836736 
L 258.926087 135.895536 
L 265.233913 148.298256 
L 271.541739 145.565856 
L 277.849565 131.385888 
L 284.157391 125.930592 
L 290.465217 132.05592 
L 296.773043 130.611312 
" clip-path="url(#p72377cd1de)" style="fill: none; stroke: #e7ab79; stroke-width: 2.25; stroke-linecap: square"/>
   </g>
   <g id="line2d_11">
    <path d="M 113.846087 144.72 
L 120.153913 144.72 
L 126.461739 144.72 
L 132.769565 144.72 
L 139.077391 144.72 
L 145.385217 144.72 
L 151.693043 144.72 
L 158.00087 144.72 
L 164.308696 144.72 
L 170.616522 144.72 
L 176.924348 144.72 
L 183.232174 144.72 
L 189.54 144.72 
L 195.847826 144.72 
L 202.155652 144.72 
L 208.463478 144.72 
L 214.771304 144.72 
L 221.07913 144.72 
L 227.386957 144.72 
L 233.694783 144.72 
L 240.002609 144.72 
L 246.310435 144.72 
L 252.618261 144.72 
L 258.926087 144.72 
L 265.233913 144.72 
L 271.541739 144.72 
L 277.849565 144.72 
L 284.157391 144.72 
L 290.465217 144.72 
L 296.773043 144.72 
" clip-path="url(#p72377cd1de)" style="fill: none; stroke-dasharray: 8.325,3.6; stroke-dashoffset: 0; stroke: #000000; stroke-width: 2.25"/>
   </g>
   <g id="patch_3">
    <path d="M 117 192.24 
L 117 25.92 
" style="fill: none; stroke: #000000; stroke-width: 1.875; stroke-linejoin: miter; stroke-linecap: square"/>
   </g>
   <g id="patch_4">
    <path d="M 117 192.24 
L 274.695652 192.24 
" style="fill: none; stroke: #000000; stroke-width: 1.875; stroke-linejoin: miter; stroke-linecap: square"/>
   </g>
   <g id="text_11">
    <!-- trained on irrelevant feature -->
    <g transform="translate(80.945529 19.92)scale(0.162 -0.162)">
     <defs>
      <path id="DejaVuSans-6e" d="M 3513 2113 
L 3513 0 
L 2938 0 
L 2938 2094 
Q 2938 2591 2744 2837 
Q 2550 3084 2163 3084 
Q 1697 3084 1428 2787 
Q 1159 2491 1159 1978 
L 1159 0 
L 581 0 
L 581 3500 
L 1159 3500 
L 1159 2956 
Q 1366 3272 1645 3428 
Q 1925 3584 2291 3584 
Q 2894 3584 3203 3211 
Q 3513 2838 3513 2113 
z
" transform="scale(0.015625)"/>
      <path id="DejaVuSans-64" d="M 2906 2969 
L 2906 4863 
L 3481 4863 
L 3481 0 
L 2906 0 
L 2906 525 
Q 2725 213 2448 61 
Q 2172 -91 1784 -91 
Q 1150 -91 751 415 
Q 353 922 353 1747 
Q 353 2572 751 3078 
Q 1150 3584 1784 3584 
Q 2172 3584 2448 3432 
Q 2725 3281 2906 2969 
z
M 947 1747 
Q 947 1113 1208 752 
Q 1469 391 1925 391 
Q 2381 391 2643 752 
Q 2906 1113 2906 1747 
Q 2906 2381 2643 2742 
Q 2381 3103 1925 3103 
Q 1469 3103 1208 2742 
Q 947 2381 947 1747 
z
" transform="scale(0.015625)"/>
      <path id="DejaVuSans-76" d="M 191 3500 
L 800 3500 
L 1894 563 
L 2988 3500 
L 3597 3500 
L 2284 0 
L 1503 0 
L 191 3500 
z
" transform="scale(0.015625)"/>
     </defs>
     <use xlink:href="#DejaVuSans-74"/>
     <use xlink:href="#DejaVuSans-72" x="39.208984"/>
     <use xlink:href="#DejaVuSans-61" x="80.322266"/>
     <use xlink:href="#DejaVuSans-69" x="141.601562"/>
     <use xlink:href="#DejaVuSans-6e" x="169.384766"/>
     <use xlink:href="#DejaVuSans-65" x="232.763672"/>
     <use xlink:href="#DejaVuSans-64" x="294.287109"/>
     <use xlink:href="#DejaVuSans-20" x="357.763672"/>
     <use xlink:href="#DejaVuSans-6f" x="389.550781"/>
     <use xlink:href="#DejaVuSans-6e" x="450.732422"/>
     <use xlink:href="#DejaVuSans-20" x="514.111328"/>
     <use xlink:href="#DejaVuSans-69" x="545.898438"/>
     <use xlink:href="#DejaVuSans-72" x="573.681641"/>
     <use xlink:href="#DejaVuSans-72" x="613.044922"/>
     <use xlink:href="#DejaVuSans-65" x="651.908203"/>
     <use xlink:href="#DejaVuSans-6c" x="713.431641"/>
     <use xlink:href="#DejaVuSans-65" x="741.214844"/>
     <use xlink:href="#DejaVuSans-76" x="802.738281"/>
     <use xlink:href="#DejaVuSans-61" x="861.917969"/>
     <use xlink:href="#DejaVuSans-6e" x="923.197266"/>
     <use xlink:href="#DejaVuSans-74" x="986.576172"/>
     <use xlink:href="#DejaVuSans-20" x="1025.785156"/>
     <use xlink:href="#DejaVuSans-66" x="1057.572266"/>
     <use xlink:href="#DejaVuSans-65" x="1092.777344"/>
     <use xlink:href="#DejaVuSans-61" x="1154.300781"/>
     <use xlink:href="#DejaVuSans-74" x="1215.580078"/>
     <use xlink:href="#DejaVuSans-75" x="1254.789062"/>
     <use xlink:href="#DejaVuSans-72" x="1318.167969"/>
     <use xlink:href="#DejaVuSans-65" x="1357.03125"/>
    </g>
   </g>
   <g id="legend_1">
    <g id="patch_5">
     <path d="M 237.186957 90.452125 
L 349.171644 90.452125 
Q 351.971644 90.452125 351.971644 87.652125 
L 351.971644 27.404 
Q 351.971644 24.604 349.171644 24.604 
L 237.186957 24.604 
Q 234.386957 24.604 234.386957 27.404 
L 234.386957 87.652125 
Q 234.386957 90.452125 237.186957 90.452125 
z
" style="fill: #ffffff; opacity: 0.8; stroke: #cccccc; stroke-width: 1.5; stroke-linejoin: miter"/>
    </g>
    <g id="text_12">
     <!-- tested on -->
     <g transform="translate(260.041957 40.841813)scale(0.14 -0.14)">
      <use xlink:href="#DejaVuSans-74"/>
      <use xlink:href="#DejaVuSans-65" x="39.208984"/>
      <use xlink:href="#DejaVuSans-73" x="100.732422"/>
      <use xlink:href="#DejaVuSans-74" x="152.832031"/>
      <use xlink:href="#DejaVuSans-65" x="192.041016"/>
      <use xlink:href="#DejaVuSans-64" x="253.564453"/>
      <use xlink:href="#DejaVuSans-20" x="317.041016"/>
      <use xlink:href="#DejaVuSans-6f" x="348.828125"/>
      <use xlink:href="#DejaVuSans-6e" x="410.009766"/>
     </g>
    </g>
    <g id="line2d_12">
     <path d="M 239.986957 56.491188 
L 253.986957 56.491188 
L 267.986957 56.491188 
" style="fill: none; stroke: #808080; stroke-width: 2.25; stroke-linecap: square"/>
    </g>
    <g id="text_13">
     <!-- irrelevant -->
     <g transform="translate(279.186957 61.391188)scale(0.14 -0.14)">
      <use xlink:href="#DejaVuSans-69"/>
      <use xlink:href="#DejaVuSans-72" x="27.783203"/>
      <use xlink:href="#DejaVuSans-72" x="67.146484"/>
      <use xlink:href="#DejaVuSans-65" x="106.009766"/>
      <use xlink:href="#DejaVuSans-6c" x="167.533203"/>
      <use xlink:href="#DejaVuSans-65" x="195.316406"/>
      <use xlink:href="#DejaVuSans-76" x="256.839844"/>
      <use xlink:href="#DejaVuSans-61" x="316.019531"/>
      <use xlink:href="#DejaVuSans-6e" x="377.298828"/>
      <use xlink:href="#DejaVuSans-74" x="440.677734"/>
     </g>
    </g>
    <g id="line2d_13">
     <path d="M 239.986957 77.040562 
L 253.986957 77.040562 
L 267.986957 77.040562 
" style="fill: none; stroke: #e7ab79; stroke-width: 2.25; stroke-linecap: square"/>
    </g>
    <g id="text_14">
     <!-- relevant -->
     <g transform="translate(279.186957 81.940562)scale(0.14 -0.14)">
      <use xlink:href="#DejaVuSans-72"/>
      <use xlink:href="#DejaVuSans-65" x="38.863281"/>
      <use xlink:href="#DejaVuSans-6c" x="100.386719"/>
      <use xlink:href="#DejaVuSans-65" x="128.169922"/>
      <use xlink:href="#DejaVuSans-76" x="189.693359"/>
      <use xlink:href="#DejaVuSans-61" x="248.873047"/>
      <use xlink:href="#DejaVuSans-6e" x="310.152344"/>
      <use xlink:href="#DejaVuSans-74" x="373.53125"/>
     </g>
    </g>
   </g>
  </g>
  <g id="axes_2">
   <g id="patch_6">
    <path d="M 306.234783 192.24 
L 463.930435 192.24 
L 463.930435 25.92 
L 306.234783 25.92 
z
" style="fill: #ffffff"/>
   </g>
   <g id="PolyCollection_4">
    <defs>
     <path id="mfc885cc732" d="M 303.08087 -80.784 
L 303.08087 -66.528 
L 309.388696 -59.4 
L 315.696522 -59.4 
L 322.004348 -61.776 
L 328.312174 -57.024 
L 334.62 -57.024 
L 340.927826 -61.776 
L 347.235652 -66.528 
L 353.543478 -68.904 
L 359.851304 -61.776 
L 366.15913 -64.152 
L 372.466957 -104.544 
L 378.774783 -152.064 
L 385.082609 -178.2 
L 391.390435 -178.2 
L 397.698261 -178.2 
L 404.006087 -166.32 
L 410.313913 -147.312 
L 416.621739 -111.672 
L 422.929565 -87.912 
L 429.237391 -78.408 
L 435.545217 -64.152 
L 441.853043 -66.528 
L 448.16087 -61.776 
L 454.468696 -59.4 
L 460.776522 -58.97232 
L 467.084348 -64.152 
L 473.392174 -64.152 
L 479.7 -61.776 
L 486.007826 -66.528 
L 486.007826 -83.16 
L 486.007826 -83.16 
L 479.7 -76.032 
L 473.392174 -78.408 
L 467.084348 -76.032 
L 460.776522 -71.28 
L 454.468696 -73.656 
L 448.16087 -76.032 
L 441.853043 -83.16 
L 435.545217 -83.16 
L 429.237391 -106.92 
L 422.929565 -121.176 
L 416.621739 -142.56 
L 410.313913 -168.696 
L 404.006087 -180.576 
L 397.698261 -187.704 
L 391.390435 -187.704 
L 385.082609 -187.704 
L 378.774783 -173.448 
L 372.466957 -133.056 
L 366.15913 -76.032 
L 359.851304 -73.656 
L 353.543478 -83.16 
L 347.235652 -81.16416 
L 340.927826 -76.032 
L 334.62 -71.28 
L 328.312174 -76.032 
L 322.004348 -78.408 
L 315.696522 -76.032 
L 309.388696 -76.032 
L 303.08087 -80.784 
z
" style="stroke: #e7ab79; stroke-opacity: 0.3; stroke-width: 1.5"/>
    </defs>
    <g clip-path="url(#p063db15b82)">
     <use xlink:href="#mfc885cc732" x="0" y="216" style="fill: #e7ab79; fill-opacity: 0.3; stroke: #e7ab79; stroke-opacity: 0.3; stroke-width: 1.5"/>
    </g>
   </g>
   <g id="PolyCollection_5">
    <defs>
     <path id="m6f621eaddb" d="M 303.08087 -80.784 
L 303.08087 -61.34832 
L 309.388696 -61.776 
L 315.696522 -61.776 
L 322.004348 -68.904 
L 328.312174 -64.152 
L 334.62 -59.4 
L 340.927826 -66.528 
L 347.235652 -49.896 
L 353.543478 -52.272 
L 359.851304 -63.72432 
L 366.15913 -66.528 
L 372.466957 -73.656 
L 378.774783 -76.032 
L 385.082609 -76.032 
L 391.390435 -99.792 
L 397.698261 -97.416 
L 404.006087 -78.408 
L 410.313913 -71.28 
L 416.621739 -58.97232 
L 422.929565 -68.904 
L 429.237391 -66.528 
L 435.545217 -66.528 
L 441.853043 -61.776 
L 448.16087 -59.4 
L 454.468696 -61.776 
L 460.776522 -61.776 
L 467.084348 -66.528 
L 473.392174 -57.024 
L 479.7 -64.152 
L 486.007826 -64.152 
L 486.007826 -78.408 
L 486.007826 -78.408 
L 479.7 -78.408 
L 473.392174 -73.656 
L 467.084348 -80.784 
L 460.776522 -78.408 
L 454.468696 -73.656 
L 448.16087 -73.656 
L 441.853043 -78.408 
L 435.545217 -83.16 
L 429.237391 -87.912 
L 422.929565 -90.288 
L 416.621739 -80.784 
L 410.313913 -88.29216 
L 404.006087 -99.792 
L 397.698261 -133.056 
L 391.390435 -130.68 
L 385.082609 -95.04 
L 378.774783 -90.288 
L 372.466957 -92.664 
L 366.15913 -87.912 
L 359.851304 -83.54016 
L 353.543478 -76.032 
L 347.235652 -73.656 
L 340.927826 -92.664 
L 334.62 -83.16 
L 328.312174 -87.912 
L 322.004348 -90.288 
L 315.696522 -80.784 
L 309.388696 -80.784 
L 303.08087 -80.784 
z
" style="stroke: #808080; stroke-opacity: 0.3; stroke-width: 1.5"/>
    </defs>
    <g clip-path="url(#p063db15b82)">
     <use xlink:href="#m6f621eaddb" x="0" y="216" style="fill: #808080; fill-opacity: 0.3; stroke: #808080; stroke-opacity: 0.3; stroke-width: 1.5"/>
    </g>
   </g>
   <g id="PolyCollection_6">
    <defs>
     <path id="mfef741f499" d="M 369.313043 -29.7 
L 369.313043 -23.76 
L 400.852174 -23.76 
L 400.852174 -29.7 
L 400.852174 -29.7 
L 369.313043 -29.7 
z
" style="stroke: #000000; stroke-opacity: 0.2; stroke-width: 1.5"/>
    </defs>
    <g clip-path="url(#p063db15b82)">
     <use xlink:href="#mfef741f499" x="0" y="216" style="fill-opacity: 0.2; stroke: #000000; stroke-opacity: 0.2; stroke-width: 1.5"/>
    </g>
   </g>
   <g id="matplotlib.axis_3">
    <g id="xtick_7">
     <g id="line2d_14">
      <g>
       <use xlink:href="#m62a6915391" x="306.234783" y="192.24" style="stroke: #000000; stroke-width: 1.875"/>
      </g>
     </g>
     <g id="text_15">
      <!-- -.5 -->
      <g transform="translate(296.472068 207.02368)scale(0.1485 -0.1485)">
       <use xlink:href="#DejaVuSans-2d"/>
       <use xlink:href="#DejaVuSans-2e" x="36.083984"/>
       <use xlink:href="#DejaVuSans-35" x="67.871094"/>
      </g>
     </g>
    </g>
    <g id="xtick_8">
     <g id="line2d_15">
      <g>
       <use xlink:href="#m62a6915391" x="337.773913" y="192.24" style="stroke: #000000; stroke-width: 1.875"/>
      </g>
     </g>
     <g id="text_16">
      <!-- -.25 -->
      <g transform="translate(323.287042 207.02368)scale(0.1485 -0.1485)">
       <use xlink:href="#DejaVuSans-2d"/>
       <use xlink:href="#DejaVuSans-2e" x="36.083984"/>
       <use xlink:href="#DejaVuSans-32" x="67.871094"/>
       <use xlink:href="#DejaVuSans-35" x="131.494141"/>
      </g>
     </g>
    </g>
    <g id="xtick_9">
     <g id="line2d_16">
      <g>
       <use xlink:href="#m62a6915391" x="369.313043" y="192.24" style="stroke: #000000; stroke-width: 1.875"/>
      </g>
     </g>
     <g id="text_17">
      <!-- 0 -->
      <g transform="translate(364.588887 207.02368)scale(0.1485 -0.1485)">
       <use xlink:href="#DejaVuSans-30"/>
      </g>
     </g>
    </g>
    <g id="xtick_10">
     <g id="line2d_17">
      <g>
       <use xlink:href="#m62a6915391" x="400.852174" y="192.24" style="stroke: #000000; stroke-width: 1.875"/>
      </g>
     </g>
     <g id="text_18">
      <!-- .25 -->
      <g transform="translate(389.044104 207.02368)scale(0.1485 -0.1485)">
       <use xlink:href="#DejaVuSans-2e"/>
       <use xlink:href="#DejaVuSans-32" x="31.787109"/>
       <use xlink:href="#DejaVuSans-35" x="95.410156"/>
      </g>
     </g>
    </g>
    <g id="xtick_11">
     <g id="line2d_18">
      <g>
       <use xlink:href="#m62a6915391" x="432.391304" y="192.24" style="stroke: #000000; stroke-width: 1.875"/>
      </g>
     </g>
     <g id="text_19">
      <!-- .5 -->
      <g transform="translate(425.30739 207.02368)scale(0.1485 -0.1485)">
       <use xlink:href="#DejaVuSans-2e"/>
       <use xlink:href="#DejaVuSans-35" x="31.787109"/>
      </g>
     </g>
    </g>
    <g id="xtick_12">
     <g id="line2d_19">
      <g>
       <use xlink:href="#m62a6915391" x="463.930435" y="192.24" style="stroke: #000000; stroke-width: 1.875"/>
      </g>
     </g>
     <g id="text_20">
      <!-- .75 -->
      <g transform="translate(452.122364 207.02368)scale(0.1485 -0.1485)">
       <use xlink:href="#DejaVuSans-2e"/>
       <use xlink:href="#DejaVuSans-37" x="31.787109"/>
       <use xlink:href="#DejaVuSans-35" x="95.410156"/>
      </g>
     </g>
    </g>
    <g id="text_21">
     <!-- time from stimulus (s) -->
     <g transform="translate(295.402952 226.421484)scale(0.162 -0.162)">
      <use xlink:href="#DejaVuSans-74"/>
      <use xlink:href="#DejaVuSans-69" x="39.208984"/>
      <use xlink:href="#DejaVuSans-6d" x="66.992188"/>
      <use xlink:href="#DejaVuSans-65" x="164.404297"/>
      <use xlink:href="#DejaVuSans-20" x="225.927734"/>
      <use xlink:href="#DejaVuSans-66" x="257.714844"/>
      <use xlink:href="#DejaVuSans-72" x="292.919922"/>
      <use xlink:href="#DejaVuSans-6f" x="331.783203"/>
      <use xlink:href="#DejaVuSans-6d" x="392.964844"/>
      <use xlink:href="#DejaVuSans-20" x="490.376953"/>
      <use xlink:href="#DejaVuSans-73" x="522.164062"/>
      <use xlink:href="#DejaVuSans-74" x="574.263672"/>
      <use xlink:href="#DejaVuSans-69" x="613.472656"/>
      <use xlink:href="#DejaVuSans-6d" x="641.255859"/>
      <use xlink:href="#DejaVuSans-75" x="738.667969"/>
      <use xlink:href="#DejaVuSans-6c" x="802.046875"/>
      <use xlink:href="#DejaVuSans-75" x="829.830078"/>
      <use xlink:href="#DejaVuSans-73" x="893.208984"/>
      <use xlink:href="#DejaVuSans-20" x="945.308594"/>
      <use xlink:href="#DejaVuSans-28" x="977.095703"/>
      <use xlink:href="#DejaVuSans-73" x="1016.109375"/>
      <use xlink:href="#DejaVuSans-29" x="1068.208984"/>
     </g>
    </g>
   </g>
   <g id="matplotlib.axis_4">
    <g id="ytick_3">
     <g id="line2d_20">
      <g>
       <use xlink:href="#md1b7285759" x="306.234783" y="144.72" style="stroke: #000000; stroke-width: 1.875"/>
      </g>
     </g>
    </g>
    <g id="ytick_4">
     <g id="line2d_21">
      <g>
       <use xlink:href="#md1b7285759" x="306.234783" y="25.92" style="stroke: #000000; stroke-width: 1.875"/>
      </g>
     </g>
    </g>
   </g>
   <g id="line2d_22">
    <path d="M 303.08087 143.118576 
L 309.388696 147.747024 
L 315.696522 149.533776 
L 322.004348 146.554272 
L 328.312174 150.455664 
L 334.62 152.076096 
L 340.927826 147.851568 
L 347.235652 142.543584 
L 353.543478 139.877712 
L 359.851304 147.613968 
L 366.15913 147.115008 
L 372.466957 96.316128 
L 378.774783 53.215488 
L 385.082609 33.979392 
L 391.390435 32.777136 
L 397.698261 33.988896 
L 404.006087 42.357168 
L 410.313913 58.656528 
L 416.621739 89.064576 
L 422.929565 112.553712 
L 429.237391 123.336 
L 435.545217 143.161344 
L 441.853043 141.688224 
L 448.16087 147.005712 
L 454.468696 149.338944 
L 460.776522 150.583968 
L 467.084348 145.831968 
L 473.392174 144.796032 
L 479.7 146.920176 
L 486.007826 141.930576 
" clip-path="url(#p063db15b82)" style="fill: none; stroke: #e7ab79; stroke-width: 2.25; stroke-linecap: square"/>
   </g>
   <g id="line2d_23">
    <path d="M 303.08087 145.418544 
L 309.388696 145.190448 
L 315.696522 145.76544 
L 322.004348 137.131056 
L 328.312174 140.951664 
L 334.62 144.853056 
L 340.927826 137.325888 
L 347.235652 155.725632 
L 353.543478 152.009568 
L 359.851304 142.899984 
L 366.15913 139.226688 
L 372.466957 133.562304 
L 378.774783 132.706944 
L 385.082609 131.229072 
L 391.390435 100.66896 
L 397.698261 101.044368 
L 404.006087 127.617552 
L 410.313913 136.123632 
L 416.621739 147.243312 
L 422.929565 137.131056 
L 429.237391 139.221936 
L 435.545217 141.20352 
L 441.853043 146.64456 
L 448.16087 149.472 
L 454.468696 149.096592 
L 460.776522 145.038384 
L 467.084348 142.695648 
L 473.392174 150.617232 
L 479.7 145.561104 
L 486.007826 145.656144 
" clip-path="url(#p063db15b82)" style="fill: none; stroke: #808080; stroke-width: 2.25; stroke-linecap: square"/>
   </g>
   <g id="line2d_24">
    <path d="M 303.08087 144.72 
L 309.388696 144.72 
L 315.696522 144.72 
L 322.004348 144.72 
L 328.312174 144.72 
L 334.62 144.72 
L 340.927826 144.72 
L 347.235652 144.72 
L 353.543478 144.72 
L 359.851304 144.72 
L 366.15913 144.72 
L 372.466957 144.72 
L 378.774783 144.72 
L 385.082609 144.72 
L 391.390435 144.72 
L 397.698261 144.72 
L 404.006087 144.72 
L 410.313913 144.72 
L 416.621739 144.72 
L 422.929565 144.72 
L 429.237391 144.72 
L 435.545217 144.72 
L 441.853043 144.72 
L 448.16087 144.72 
L 454.468696 144.72 
L 460.776522 144.72 
L 467.084348 144.72 
L 473.392174 144.72 
L 479.7 144.72 
L 486.007826 144.72 
" clip-path="url(#p063db15b82)" style="fill: none; stroke-dasharray: 8.325,3.6; stroke-dashoffset: 0; stroke: #000000; stroke-width: 2.25"/>
   </g>
   <g id="patch_7">
    <path d="M 306.234783 192.24 
L 306.234783 25.92 
" style="fill: none; stroke: #000000; stroke-width: 1.875; stroke-linejoin: miter; stroke-linecap: square"/>
   </g>
   <g id="patch_8">
    <path d="M 306.234783 192.24 
L 463.930435 192.24 
" style="fill: none; stroke: #000000; stroke-width: 1.875; stroke-linejoin: miter; stroke-linecap: square"/>
   </g>
   <g id="text_22">
    <!-- trained on relevant feature -->
    <g transform="translate(275.618702 19.92)scale(0.162 -0.162)">
     <use xlink:href="#DejaVuSans-74"/>
     <use xlink:href="#DejaVuSans-72" x="39.208984"/>
     <use xlink:href="#DejaVuSans-61" x="80.322266"/>
     <use xlink:href="#DejaVuSans-69" x="141.601562"/>
     <use xlink:href="#DejaVuSans-6e" x="169.384766"/>
     <use xlink:href="#DejaVuSans-65" x="232.763672"/>
     <use xlink:href="#DejaVuSans-64" x="294.287109"/>
     <use xlink:href="#DejaVuSans-20" x="357.763672"/>
     <use xlink:href="#DejaVuSans-6f" x="389.550781"/>
     <use xlink:href="#DejaVuSans-6e" x="450.732422"/>
     <use xlink:href="#DejaVuSans-20" x="514.111328"/>
     <use xlink:href="#DejaVuSans-72" x="545.898438"/>
     <use xlink:href="#DejaVuSans-65" x="584.761719"/>
     <use xlink:href="#DejaVuSans-6c" x="646.285156"/>
     <use xlink:href="#DejaVuSans-65" x="674.068359"/>
     <use xlink:href="#DejaVuSans-76" x="735.591797"/>
     <use xlink:href="#DejaVuSans-61" x="794.771484"/>
     <use xlink:href="#DejaVuSans-6e" x="856.050781"/>
     <use xlink:href="#DejaVuSans-74" x="919.429688"/>
     <use xlink:href="#DejaVuSans-20" x="958.638672"/>
     <use xlink:href="#DejaVuSans-66" x="990.425781"/>
     <use xlink:href="#DejaVuSans-65" x="1025.630859"/>
     <use xlink:href="#DejaVuSans-61" x="1087.154297"/>
     <use xlink:href="#DejaVuSans-74" x="1148.433594"/>
     <use xlink:href="#DejaVuSans-75" x="1187.642578"/>
     <use xlink:href="#DejaVuSans-72" x="1251.021484"/>
     <use xlink:href="#DejaVuSans-65" x="1289.884766"/>
    </g>
   </g>
  </g>
  <g id="axes_3">
   <g id="patch_9">
    <path d="M 495.469565 192.24 
L 653.165217 192.24 
L 653.165217 25.92 
L 495.469565 25.92 
z
" style="fill: #ffffff"/>
   </g>
   <g id="patch_10">
    <path d="M 572.3227 65.752596 
L 567.440261 58.413977 
L 569.998758 57.608408 
L 565.089465 40.264354 
L 565.123807 40.253541 
L 570.0331 57.597595 
L 572.591598 56.792026 
z
" clip-path="url(#pdbc1fdc606)" style="fill: #e7ab79; stroke: #e7ab79; stroke-linejoin: miter"/>
   </g>
   <g id="patch_11">
    <path d="M 607.79764 163.827435 
L 600.962627 169.157086 
L 600.135692 166.479446 
L 586.914376 171.021408 
L 586.903276 170.985466 
L 600.124592 166.443505 
L 599.297657 163.765865 
z
" clip-path="url(#pdbc1fdc606)" style="fill: #808080; stroke: #808080; stroke-linejoin: miter"/>
   </g>
   <g id="matplotlib.axis_5">
    <g id="xtick_13">
     <g id="line2d_25">
      <g>
       <use xlink:href="#m62a6915391" x="509.805534" y="192.24" style="stroke: #000000; stroke-width: 1.875"/>
      </g>
     </g>
     <g id="text_23">
      <!-- 0 -->
      <g transform="translate(505.081377 207.02368)scale(0.1485 -0.1485)">
       <use xlink:href="#DejaVuSans-30"/>
      </g>
     </g>
    </g>
    <g id="xtick_14">
     <g id="line2d_26">
      <g>
       <use xlink:href="#m62a6915391" x="545.645455" y="192.24" style="stroke: #000000; stroke-width: 1.875"/>
      </g>
     </g>
     <g id="text_24">
      <!-- 1 -->
      <g transform="translate(540.921298 207.02368)scale(0.1485 -0.1485)">
       <use xlink:href="#DejaVuSans-31"/>
      </g>
     </g>
    </g>
    <g id="xtick_15">
     <g id="line2d_27">
      <g>
       <use xlink:href="#m62a6915391" x="581.485375" y="192.24" style="stroke: #000000; stroke-width: 1.875"/>
      </g>
     </g>
     <g id="text_25">
      <!-- 2 -->
      <g transform="translate(576.761219 207.02368)scale(0.1485 -0.1485)">
       <use xlink:href="#DejaVuSans-32"/>
      </g>
     </g>
    </g>
    <g id="xtick_16">
     <g id="line2d_28">
      <g>
       <use xlink:href="#m62a6915391" x="617.325296" y="192.24" style="stroke: #000000; stroke-width: 1.875"/>
      </g>
     </g>
     <g id="text_26">
      <!-- 3 -->
      <g transform="translate(612.60114 207.02368)scale(0.1485 -0.1485)">
       <defs>
        <path id="DejaVuSans-33" d="M 2597 2516 
Q 3050 2419 3304 2112 
Q 3559 1806 3559 1356 
Q 3559 666 3084 287 
Q 2609 -91 1734 -91 
Q 1441 -91 1130 -33 
Q 819 25 488 141 
L 488 750 
Q 750 597 1062 519 
Q 1375 441 1716 441 
Q 2309 441 2620 675 
Q 2931 909 2931 1356 
Q 2931 1769 2642 2001 
Q 2353 2234 1838 2234 
L 1294 2234 
L 1294 2753 
L 1863 2753 
Q 2328 2753 2575 2939 
Q 2822 3125 2822 3475 
Q 2822 3834 2567 4026 
Q 2313 4219 1838 4219 
Q 1578 4219 1281 4162 
Q 984 4106 628 3988 
L 628 4550 
Q 988 4650 1302 4700 
Q 1616 4750 1894 4750 
Q 2613 4750 3031 4423 
Q 3450 4097 3450 3541 
Q 3450 3153 3228 2886 
Q 3006 2619 2597 2516 
z
" transform="scale(0.015625)"/>
       </defs>
       <use xlink:href="#DejaVuSans-33"/>
      </g>
     </g>
    </g>
    <g id="xtick_17">
     <g id="line2d_29">
      <g>
       <use xlink:href="#m62a6915391" x="653.165217" y="192.24" style="stroke: #000000; stroke-width: 1.875"/>
      </g>
     </g>
     <g id="text_27">
      <!-- 4 -->
      <g transform="translate(648.441061 207.02368)scale(0.1485 -0.1485)">
       <defs>
        <path id="DejaVuSans-34" d="M 2419 4116 
L 825 1625 
L 2419 1625 
L 2419 4116 
z
M 2253 4666 
L 3047 4666 
L 3047 1625 
L 3713 1625 
L 3713 1100 
L 3047 1100 
L 3047 0 
L 2419 0 
L 2419 1100 
L 313 1100 
L 313 1709 
L 2253 4666 
z
" transform="scale(0.015625)"/>
       </defs>
       <use xlink:href="#DejaVuSans-34"/>
      </g>
     </g>
    </g>
    <g id="text_28">
     <!-- sensory (hz) -->
     <g transform="translate(524.401141 226.421484)scale(0.162 -0.162)">
      <defs>
       <path id="DejaVuSans-68" d="M 3513 2113 
L 3513 0 
L 2938 0 
L 2938 2094 
Q 2938 2591 2744 2837 
Q 2550 3084 2163 3084 
Q 1697 3084 1428 2787 
Q 1159 2491 1159 1978 
L 1159 0 
L 581 0 
L 581 4863 
L 1159 4863 
L 1159 2956 
Q 1366 3272 1645 3428 
Q 1925 3584 2291 3584 
Q 2894 3584 3203 3211 
Q 3513 2838 3513 2113 
z
" transform="scale(0.015625)"/>
       <path id="DejaVuSans-7a" d="M 353 3500 
L 3084 3500 
L 3084 2975 
L 922 459 
L 3084 459 
L 3084 0 
L 275 0 
L 275 525 
L 2438 3041 
L 353 3041 
L 353 3500 
z
" transform="scale(0.015625)"/>
      </defs>
      <use xlink:href="#DejaVuSans-73"/>
      <use xlink:href="#DejaVuSans-65" x="52.099609"/>
      <use xlink:href="#DejaVuSans-6e" x="113.623047"/>
      <use xlink:href="#DejaVuSans-73" x="177.001953"/>
      <use xlink:href="#DejaVuSans-6f" x="229.101562"/>
      <use xlink:href="#DejaVuSans-72" x="290.283203"/>
      <use xlink:href="#DejaVuSans-79" x="331.396484"/>
      <use xlink:href="#DejaVuSans-20" x="390.576172"/>
      <use xlink:href="#DejaVuSans-28" x="422.363281"/>
      <use xlink:href="#DejaVuSans-68" x="461.376953"/>
      <use xlink:href="#DejaVuSans-7a" x="524.755859"/>
      <use xlink:href="#DejaVuSans-29" x="577.246094"/>
     </g>
    </g>
   </g>
   <g id="matplotlib.axis_6">
    <g id="ytick_5">
     <g id="line2d_30">
      <g>
       <use xlink:href="#md1b7285759" x="495.469565" y="177.12" style="stroke: #000000; stroke-width: 1.875"/>
      </g>
     </g>
     <g id="text_29">
      <!-- 0 -->
      <g transform="translate(482.521253 182.76184)scale(0.1485 -0.1485)">
       <use xlink:href="#DejaVuSans-30"/>
      </g>
     </g>
    </g>
    <g id="ytick_6">
     <g id="line2d_31">
      <g>
       <use xlink:href="#md1b7285759" x="495.469565" y="139.32" style="stroke: #000000; stroke-width: 1.875"/>
      </g>
     </g>
     <g id="text_30">
      <!-- 1 -->
      <g transform="translate(482.521253 144.96184)scale(0.1485 -0.1485)">
       <use xlink:href="#DejaVuSans-31"/>
      </g>
     </g>
    </g>
    <g id="ytick_7">
     <g id="line2d_32">
      <g>
       <use xlink:href="#md1b7285759" x="495.469565" y="101.52" style="stroke: #000000; stroke-width: 1.875"/>
      </g>
     </g>
     <g id="text_31">
      <!-- 2 -->
      <g transform="translate(482.521253 107.16184)scale(0.1485 -0.1485)">
       <use xlink:href="#DejaVuSans-32"/>
      </g>
     </g>
    </g>
    <g id="ytick_8">
     <g id="line2d_33">
      <g>
       <use xlink:href="#md1b7285759" x="495.469565" y="63.72" style="stroke: #000000; stroke-width: 1.875"/>
      </g>
     </g>
     <g id="text_32">
      <!-- 3 -->
      <g transform="translate(482.521253 69.36184)scale(0.1485 -0.1485)">
       <use xlink:href="#DejaVuSans-33"/>
      </g>
     </g>
    </g>
    <g id="ytick_9">
     <g id="line2d_34">
      <g>
       <use xlink:href="#md1b7285759" x="495.469565" y="25.92" style="stroke: #000000; stroke-width: 1.875"/>
      </g>
     </g>
     <g id="text_33">
      <!-- 4 -->
      <g transform="translate(482.521253 31.56184)scale(0.1485 -0.1485)">
       <use xlink:href="#DejaVuSans-34"/>
      </g>
     </g>
    </g>
    <g id="text_34">
     <!-- selection (hz) -->
     <g transform="translate(475.152159 163.766391)rotate(-90)scale(0.162 -0.162)">
      <use xlink:href="#DejaVuSans-73"/>
      <use xlink:href="#DejaVuSans-65" x="52.099609"/>
      <use xlink:href="#DejaVuSans-6c" x="113.623047"/>
      <use xlink:href="#DejaVuSans-65" x="141.40625"/>
      <use xlink:href="#DejaVuSans-63" x="202.929688"/>
      <use xlink:href="#DejaVuSans-74" x="257.910156"/>
      <use xlink:href="#DejaVuSans-69" x="297.119141"/>
      <use xlink:href="#DejaVuSans-6f" x="324.902344"/>
      <use xlink:href="#DejaVuSans-6e" x="386.083984"/>
      <use xlink:href="#DejaVuSans-20" x="449.462891"/>
      <use xlink:href="#DejaVuSans-28" x="481.25"/>
      <use xlink:href="#DejaVuSans-68" x="520.263672"/>
      <use xlink:href="#DejaVuSans-7a" x="583.642578"/>
      <use xlink:href="#DejaVuSans-29" x="636.132812"/>
     </g>
    </g>
   </g>
   <g id="line2d_35">
    <path d="M 511.077538 180.340274 
L 513.577749 174.312439 
L 515.845677 172.08848 
L 506.54596 177.71123 
L 516.115398 182.317563 
L 534.310198 126.389917 
L 557.858704 102.728045 
L 549.501329 66.815383 
L 565.106636 40.258948 
L 570.015929 57.603001 
" clip-path="url(#pdbc1fdc606)" style="fill: none; stroke: #e7ab79; stroke-width: 3; stroke-linecap: square"/>
   </g>
   <g id="line2d_36">
    <defs>
     <path id="md065100589" d="M 0 5 
C 1.326016 5 2.597899 4.473168 3.535534 3.535534 
C 4.473168 2.597899 5 1.326016 5 0 
C 5 -1.326016 4.473168 -2.597899 3.535534 -3.535534 
C 2.597899 -4.473168 1.326016 -5 0 -5 
C -1.326016 -5 -2.597899 -4.473168 -3.535534 -3.535534 
C -4.473168 -2.597899 -5 -1.326016 -5 0 
C -5 1.326016 -4.473168 2.597899 -3.535534 3.535534 
C -2.597899 4.473168 -1.326016 5 0 5 
z
" style="stroke: #e7ab79"/>
    </defs>
    <g clip-path="url(#pdbc1fdc606)">
     <use xlink:href="#md065100589" x="516.115398" y="182.317563" style="fill: #e7ab79; stroke: #e7ab79"/>
    </g>
   </g>
   <g id="line2d_37">
    <path d="M 510.345437 172.017831 
L 506.130071 183.084217 
L 506.215739 182.201525 
L 510.240351 176.448636 
L 518.199651 177.075124 
L 566.728553 177.902355 
L 581.120784 161.360067 
L 575.432684 173.705155 
L 586.908826 171.003437 
L 600.130142 166.461475 
" clip-path="url(#pdbc1fdc606)" style="fill: none; stroke: #808080; stroke-width: 3; stroke-linecap: square"/>
   </g>
   <g id="line2d_38">
    <defs>
     <path id="mb748210ba6" d="M 0 5 
C 1.326016 5 2.597899 4.473168 3.535534 3.535534 
C 4.473168 2.597899 5 1.326016 5 0 
C 5 -1.326016 4.473168 -2.597899 3.535534 -3.535534 
C 2.597899 -4.473168 1.326016 -5 0 -5 
C -1.326016 -5 -2.597899 -4.473168 -3.535534 -3.535534 
C -4.473168 -2.597899 -5 -1.326016 -5 0 
C -5 1.326016 -4.473168 2.597899 -3.535534 3.535534 
C -2.597899 4.473168 -1.326016 5 0 5 
z
" style="stroke: #808080"/>
    </defs>
    <g clip-path="url(#pdbc1fdc606)">
     <use xlink:href="#mb748210ba6" x="518.199651" y="177.075124" style="fill: #808080; stroke: #808080"/>
    </g>
   </g>
   <g id="patch_12">
    <path d="M 495.469565 192.24 
L 495.469565 25.92 
" style="fill: none; stroke: #000000; stroke-width: 1.875; stroke-linejoin: miter; stroke-linecap: square"/>
   </g>
   <g id="patch_13">
    <path d="M 495.469565 192.24 
L 653.165217 192.24 
" style="fill: none; stroke: #000000; stroke-width: 1.875; stroke-linejoin: miter; stroke-linecap: square"/>
   </g>
   <g id="text_35">
    <!-- location subspace -->
    <g transform="translate(501.345251 19.92)scale(0.162 -0.162)">
     <defs>
      <path id="DejaVuSans-62" d="M 3116 1747 
Q 3116 2381 2855 2742 
Q 2594 3103 2138 3103 
Q 1681 3103 1420 2742 
Q 1159 2381 1159 1747 
Q 1159 1113 1420 752 
Q 1681 391 2138 391 
Q 2594 391 2855 752 
Q 3116 1113 3116 1747 
z
M 1159 2969 
Q 1341 3281 1617 3432 
Q 1894 3584 2278 3584 
Q 2916 3584 3314 3078 
Q 3713 2572 3713 1747 
Q 3713 922 3314 415 
Q 2916 -91 2278 -91 
Q 1894 -91 1617 61 
Q 1341 213 1159 525 
L 1159 0 
L 581 0 
L 581 4863 
L 1159 4863 
L 1159 2969 
z
" transform="scale(0.015625)"/>
      <path id="DejaVuSans-70" d="M 1159 525 
L 1159 -1331 
L 581 -1331 
L 581 3500 
L 1159 3500 
L 1159 2969 
Q 1341 3281 1617 3432 
Q 1894 3584 2278 3584 
Q 2916 3584 3314 3078 
Q 3713 2572 3713 1747 
Q 3713 922 3314 415 
Q 2916 -91 2278 -91 
Q 1894 -91 1617 61 
Q 1341 213 1159 525 
z
M 3116 1747 
Q 3116 2381 2855 2742 
Q 2594 3103 2138 3103 
Q 1681 3103 1420 2742 
Q 1159 2381 1159 1747 
Q 1159 1113 1420 752 
Q 1681 391 2138 391 
Q 2594 391 2855 752 
Q 3116 1113 3116 1747 
z
" transform="scale(0.015625)"/>
     </defs>
     <use xlink:href="#DejaVuSans-6c"/>
     <use xlink:href="#DejaVuSans-6f" x="27.783203"/>
     <use xlink:href="#DejaVuSans-63" x="88.964844"/>
     <use xlink:href="#DejaVuSans-61" x="143.945312"/>
     <use xlink:href="#DejaVuSans-74" x="205.224609"/>
     <use xlink:href="#DejaVuSans-69" x="244.433594"/>
     <use xlink:href="#DejaVuSans-6f" x="272.216797"/>
     <use xlink:href="#DejaVuSans-6e" x="333.398438"/>
     <use xlink:href="#DejaVuSans-20" x="396.777344"/>
     <use xlink:href="#DejaVuSans-73" x="428.564453"/>
     <use xlink:href="#DejaVuSans-75" x="480.664062"/>
     <use xlink:href="#DejaVuSans-62" x="544.042969"/>
     <use xlink:href="#DejaVuSans-73" x="607.519531"/>
     <use xlink:href="#DejaVuSans-70" x="659.619141"/>
     <use xlink:href="#DejaVuSans-61" x="723.095703"/>
     <use xlink:href="#DejaVuSans-63" x="784.375"/>
     <use xlink:href="#DejaVuSans-65" x="839.355469"/>
    </g>
   </g>
  </g>
  <g id="axes_4">
   <g id="patch_14">
    <path d="M 684.704348 192.24 
L 842.4 192.24 
L 842.4 25.92 
L 684.704348 25.92 
z
" style="fill: #ffffff"/>
   </g>
   <g id="patch_15">
    <path d="M 757.316323 90.726143 
L 758.565022 82.614389 
L 760.718391 83.804578 
L 766.346156 72.478275 
L 766.404355 72.510443 
L 760.77659 83.836745 
L 762.929959 85.026933 
z
" clip-path="url(#pc1bad39488)" style="fill: #e7ab79; stroke: #e7ab79; stroke-linejoin: miter"/>
   </g>
   <g id="patch_16">
    <path d="M 797.723638 143.199758 
L 790.115329 144.972868 
L 790.36839 142.422697 
L 782.113999 141.511545 
L 782.120838 141.442622 
L 790.37523 142.353773 
L 790.628291 139.803602 
z
" clip-path="url(#pc1bad39488)" style="fill: #808080; stroke: #808080; stroke-linejoin: miter"/>
   </g>
   <g id="matplotlib.axis_7">
    <g id="xtick_18">
     <g id="line2d_39">
      <g>
       <use xlink:href="#m62a6915391" x="710.986957" y="192.24" style="stroke: #000000; stroke-width: 1.875"/>
      </g>
     </g>
     <g id="text_36">
      <!-- 0 -->
      <g transform="translate(706.2628 207.02368)scale(0.1485 -0.1485)">
       <use xlink:href="#DejaVuSans-30"/>
      </g>
     </g>
    </g>
    <g id="xtick_19">
     <g id="line2d_40">
      <g>
       <use xlink:href="#m62a6915391" x="776.693478" y="192.24" style="stroke: #000000; stroke-width: 1.875"/>
      </g>
     </g>
     <g id="text_37">
      <!-- 1 -->
      <g transform="translate(771.969322 207.02368)scale(0.1485 -0.1485)">
       <use xlink:href="#DejaVuSans-31"/>
      </g>
     </g>
    </g>
    <g id="xtick_20">
     <g id="line2d_41">
      <g>
       <use xlink:href="#m62a6915391" x="842.4" y="192.24" style="stroke: #000000; stroke-width: 1.875"/>
      </g>
     </g>
     <g id="text_38">
      <!-- 2 -->
      <g transform="translate(837.675844 207.02368)scale(0.1485 -0.1485)">
       <use xlink:href="#DejaVuSans-32"/>
      </g>
     </g>
    </g>
    <g id="text_39">
     <!-- sensory (hz) -->
     <g transform="translate(713.635924 226.421484)scale(0.162 -0.162)">
      <use xlink:href="#DejaVuSans-73"/>
      <use xlink:href="#DejaVuSans-65" x="52.099609"/>
      <use xlink:href="#DejaVuSans-6e" x="113.623047"/>
      <use xlink:href="#DejaVuSans-73" x="177.001953"/>
      <use xlink:href="#DejaVuSans-6f" x="229.101562"/>
      <use xlink:href="#DejaVuSans-72" x="290.283203"/>
      <use xlink:href="#DejaVuSans-79" x="331.396484"/>
      <use xlink:href="#DejaVuSans-20" x="390.576172"/>
      <use xlink:href="#DejaVuSans-28" x="422.363281"/>
      <use xlink:href="#DejaVuSans-68" x="461.376953"/>
      <use xlink:href="#DejaVuSans-7a" x="524.755859"/>
      <use xlink:href="#DejaVuSans-29" x="577.246094"/>
     </g>
    </g>
   </g>
   <g id="matplotlib.axis_8">
    <g id="ytick_10">
     <g id="line2d_42">
      <g>
       <use xlink:href="#md1b7285759" x="684.704348" y="164.52" style="stroke: #000000; stroke-width: 1.875"/>
      </g>
     </g>
     <g id="text_40">
      <!-- 0 -->
      <g transform="translate(671.756035 170.16184)scale(0.1485 -0.1485)">
       <use xlink:href="#DejaVuSans-30"/>
      </g>
     </g>
    </g>
    <g id="ytick_11">
     <g id="line2d_43">
      <g>
       <use xlink:href="#md1b7285759" x="684.704348" y="95.22" style="stroke: #000000; stroke-width: 1.875"/>
      </g>
     </g>
     <g id="text_41">
      <!-- 1 -->
      <g transform="translate(671.756035 100.86184)scale(0.1485 -0.1485)">
       <use xlink:href="#DejaVuSans-31"/>
      </g>
     </g>
    </g>
    <g id="ytick_12">
     <g id="line2d_44">
      <g>
       <use xlink:href="#md1b7285759" x="684.704348" y="25.92" style="stroke: #000000; stroke-width: 1.875"/>
      </g>
     </g>
     <g id="text_42">
      <!-- 2 -->
      <g transform="translate(671.756035 31.56184)scale(0.1485 -0.1485)">
       <use xlink:href="#DejaVuSans-32"/>
      </g>
     </g>
    </g>
   </g>
   <g id="line2d_45">
    <path d="M 701.828362 160.324361 
L 711.383817 170.997068 
L 707.634964 176.335669 
L 716.635977 148.492516 
L 717.378132 162.807905 
L 744.779822 119.952783 
L 767.149212 94.820454 
L 745.825449 92.118744 
L 766.375256 72.494359 
L 760.74749 83.820661 
" clip-path="url(#pc1bad39488)" style="fill: none; stroke: #e7ab79; stroke-width: 3; stroke-linecap: square"/>
   </g>
   <g id="line2d_46">
    <g clip-path="url(#pc1bad39488)">
     <use xlink:href="#md065100589" x="717.378132" y="162.807905" style="fill: #e7ab79; stroke: #e7ab79"/>
    </g>
   </g>
   <g id="line2d_47">
    <path d="M 715.397558 172.438619 
L 724.934336 161.67313 
L 713.593788 169.744757 
L 710.472592 172.741907 
L 703.629126 173.993026 
L 761.451268 155.966463 
L 777.196723 138.343941 
L 785.111568 141.786409 
L 782.117418 141.477083 
L 790.37181 142.388235 
" clip-path="url(#pc1bad39488)" style="fill: none; stroke: #808080; stroke-width: 3; stroke-linecap: square"/>
   </g>
   <g id="line2d_48">
    <g clip-path="url(#pc1bad39488)">
     <use xlink:href="#mb748210ba6" x="703.629126" y="173.993026" style="fill: #808080; stroke: #808080"/>
    </g>
   </g>
   <g id="patch_17">
    <path d="M 684.704348 192.24 
L 684.704348 25.92 
" style="fill: none; stroke: #000000; stroke-width: 1.875; stroke-linejoin: miter; stroke-linecap: square"/>
   </g>
   <g id="patch_18">
    <path d="M 684.704348 192.24 
L 842.4 192.24 
" style="fill: none; stroke: #000000; stroke-width: 1.875; stroke-linejoin: miter; stroke-linecap: square"/>
   </g>
   <g id="text_43">
    <!-- pitch subspace -->
    <g transform="translate(702.564236 19.92)scale(0.162 -0.162)">
     <use xlink:href="#DejaVuSans-70"/>
     <use xlink:href="#DejaVuSans-69" x="63.476562"/>
     <use xlink:href="#DejaVuSans-74" x="91.259766"/>
     <use xlink:href="#DejaVuSans-63" x="130.46875"/>
     <use xlink:href="#DejaVuSans-68" x="185.449219"/>
     <use xlink:href="#DejaVuSans-20" x="248.828125"/>
     <use xlink:href="#DejaVuSans-73" x="280.615234"/>
     <use xlink:href="#DejaVuSans-75" x="332.714844"/>
     <use xlink:href="#DejaVuSans-62" x="396.09375"/>
     <use xlink:href="#DejaVuSans-73" x="459.570312"/>
     <use xlink:href="#DejaVuSans-70" x="511.669922"/>
     <use xlink:href="#DejaVuSans-61" x="575.146484"/>
     <use xlink:href="#DejaVuSans-63" x="636.425781"/>
     <use xlink:href="#DejaVuSans-65" x="691.40625"/>
    </g>
   </g>
  </g>
 </g>
 <defs>
  <clipPath id="p72377cd1de">
   <rect x="117" y="25.92" width="157.695652" height="166.32"/>
  </clipPath>
  <clipPath id="p063db15b82">
   <rect x="306.234783" y="25.92" width="157.695652" height="166.32"/>
  </clipPath>
  <clipPath id="pdbc1fdc606">
   <rect x="495.469565" y="25.92" width="157.695652" height="166.32"/>
  </clipPath>
  <clipPath id="pc1bad39488">
   <rect x="684.704348" y="25.92" width="157.695652" height="166.32"/>
  </clipPath>
 </defs>
</svg>
