<?xml version="1.0" encoding="utf-8" standalone="no"?>
<!DOCTYPE svg PUBLIC "-//W3C//DTD SVG 1.1//EN"
  "http://www.w3.org/Graphics/SVG/1.1/DTD/svg11.dtd">
<svg xmlns:xlink="http://www.w3.org/1999/xlink" width="432pt" height="576pt" viewBox="0 0 432 576" xmlns="http://www.w3.org/2000/svg" version="1.1">
 <metadata>
  <rdf:RDF xmlns:dc="http://purl.org/dc/elements/1.1/" xmlns:cc="http://creativecommons.org/ns#" xmlns:rdf="http://www.w3.org/1999/02/22-rdf-syntax-ns#">
   <cc:Work>
    <dc:type rdf:resource="http://purl.org/dc/dcmitype/StillImage"/>
    <dc:date>2023-03-05T18:47:03.083347</dc:date>
    <dc:format>image/svg+xml</dc:format>
    <dc:creator>
     <cc:Agent>
      <dc:title>Matplotlib v3.5.2, https://matplotlib.org/</dc:title>
     </cc:Agent>
    </dc:creator>
   </cc:Work>
  </rdf:RDF>
 </metadata>
 <defs>
  <style type="text/css">*{stroke-linejoin: round; stroke-linecap: butt}</style>
 </defs>
 <g id="figure_1">
  <g id="patch_1">
   <path d="M 0 576 
L 432 576 
L 432 0 
L 0 0 
z
" style="fill: #ffffff"/>
  </g>
  <g id="axes_1">
   <g id="patch_2">
    <path d="M 77.97 170.58 
L 217.694 170.58 
L 217.694 35.016 
L 77.97 35.016 
z
" style="fill: #ffffff"/>
   </g>
   <g id="PolyCollection_1">
    <path d="M -192.74525 95.569728 
L -192.74525 126.657264 
L -175.27975 128.012904 
L -157.81425 127.606212 
L -140.34875 128.484667 
L -122.88325 126.814518 
L -105.41775 124.759368 
L -87.95225 125.366695 
L -70.48675 125.594442 
L -53.02125 123.268164 
L -35.55575 121.370268 
L -18.09025 123.967674 
L -0.62475 123.425418 
L 16.84075 117.05391 
L 34.30625 122.340906 
L 51.77175 121.79865 
L 69.23725 120.171882 
L 86.70275 117.482292 
L 104.16825 120.285756 
L 121.63375 118.930116 
L 139.09925 116.647218 
L 156.56475 113.914248 
L 174.03025 105.802098 
L 191.49575 98.346078 
L 208.96125 95.499234 
L 226.42675 93.736902 
L 243.89225 89.91942 
L 261.35775 88.970472 
L 278.82325 85.467498 
L 296.28875 92.495136 
L 313.75425 94.121904 
L 331.21975 96.155364 
L 348.68525 93.780283 
L 366.15075 101.577924 
L 383.61625 103.611384 
L 401.08175 108.670632 
L 418.54725 107.428866 
L 436.01275 106.366044 
L 453.47825 112.466424 
L 470.94375 118.724059 
L 488.40925 137.225833 
L 488.40925 69.834258 
L 488.40925 69.834258 
L 470.94375 69.156438 
L 453.47825 71.054334 
L 436.01275 65.881212 
L 418.54725 69.698694 
L 401.08175 73.022723 
L 383.61625 68.684675 
L 366.15075 64.888883 
L 348.68525 56.277858 
L 331.21975 57.752794 
L 313.75425 56.66286 
L 296.28875 57.069552 
L 278.82325 45.389357 
L 261.35775 43.82766 
L 243.89225 48.670006 
L 226.42675 58.7397 
L 208.96125 57.725681 
L 191.49575 60.686399 
L 174.03025 67.822488 
L 156.56475 74.806745 
L 139.09925 83.417771 
L 121.63375 87.571452 
L 104.16825 86.50863 
L 86.70275 85.445808 
L 69.23725 87.777509 
L 51.77175 87.072576 
L 34.30625 87.528071 
L 16.84075 87.435888 
L -0.62475 92.430065 
L -18.09025 91.638372 
L -35.55575 92.158937 
L -53.02125 92.901828 
L -70.48675 96.968748 
L -87.95225 97.896006 
L -105.41775 96.269238 
L -122.88325 94.078524 
L -140.34875 94.100214 
L -157.81425 93.829086 
L -175.27975 95.184726 
L -192.74525 95.569728 
z
" clip-path="url(#p6e80fdba6c)" style="fill: #eba071; fill-opacity: 0.1; stroke: #eba071; stroke-opacity: 0.1; stroke-width: 1.5"/>
   </g>
   <g id="PolyCollection_2">
    <path d="M -192.74525 89.377164 
L -192.74525 119.879064 
L -175.27975 121.885411 
L -157.81425 122.45478 
L -140.34875 122.736753 
L -122.88325 121.09914 
L -105.41775 122.205342 
L -87.95225 122.319216 
L -70.48675 122.069778 
L -53.02125 121.413648 
L -35.55575 124.103238 
L -18.09025 120.193572 
L -0.62475 120.828012 
L 16.84075 118.658988 
L 34.30625 120.171882 
L 51.77175 119.515752 
L 69.23725 116.126652 
L 86.70275 114.022699 
L 104.16825 113.800374 
L 121.63375 117.03222 
L 139.09925 115.812144 
L 156.56475 115.69827 
L 174.03025 111.924168 
L 191.49575 110.704092 
L 208.96125 114.049812 
L 226.42675 113.030371 
L 243.89225 120.985266 
L 261.35775 118.973496 
L 278.82325 117.73173 
L 296.28875 118.181803 
L 313.75425 114.749322 
L 331.21975 118.680678 
L 348.68525 115.405452 
L 366.15075 119.515752 
L 383.61625 117.0756 
L 401.08175 118.43124 
L 418.54725 114.863196 
L 436.01275 115.562706 
L 453.47825 115.584396 
L 470.94375 123.018726 
L 488.40925 133.023349 
L 488.40925 70.24095 
L 488.40925 70.24095 
L 470.94375 81.042689 
L 453.47825 80.42994 
L 436.01275 80.185925 
L 418.54725 82.013328 
L 401.08175 86.937012 
L 383.61625 85.559682 
L 366.15075 86.259192 
L 348.68525 83.09784 
L 331.21975 92.224008 
L 313.75425 85.8525 
L 296.28875 89.740476 
L 278.82325 87.479268 
L 261.35775 88.135398 
L 243.89225 87.300324 
L 226.42675 83.77566 
L 208.96125 82.848402 
L 191.49575 78.645918 
L 174.03025 81.78558 
L 156.56475 85.988064 
L 139.09925 88.791528 
L 121.63375 89.084346 
L 104.16825 86.964125 
L 86.70275 86.850251 
L 69.23725 89.583221 
L 51.77175 91.410624 
L 34.30625 92.066754 
L 16.84075 91.188299 
L -0.62475 91.93119 
L -18.09025 89.133149 
L -35.55575 91.345553 
L -53.02125 92.60901 
L -70.48675 92.880138 
L -87.95225 94.235778 
L -105.41775 94.778034 
L -122.88325 91.096116 
L -140.34875 90.168858 
L -157.81425 86.915322 
L -175.27975 90.803297 
L -192.74525 89.377164 
z
" clip-path="url(#p6e80fdba6c)" style="fill: #808080; fill-opacity: 0.1; stroke: #808080; stroke-opacity: 0.1; stroke-width: 1.5"/>
   </g>
   <g id="PolyCollection_3"/>
   <g id="PolyCollection_4">
    <defs>
     <path id="m019f8bdf3e" d="M 243.89225 -540.984 
L 243.89225 -537.5949 
L 261.35775 -537.5949 
L 278.82325 -537.5949 
L 296.28875 -537.5949 
L 331.21975 -537.5949 
L 331.21975 -540.984 
L 331.21975 -540.984 
L 296.28875 -540.984 
L 278.82325 -540.984 
L 261.35775 -540.984 
L 243.89225 -540.984 
z
" style="stroke: #000000; stroke-width: 1.5"/>
    </defs>
    <g clip-path="url(#p6e80fdba6c)">
     <use xlink:href="#m019f8bdf3e" x="0" y="576" style="stroke: #000000; stroke-width: 1.5"/>
    </g>
   </g>
   <g id="matplotlib.axis_1">
    <g id="xtick_1">
     <g id="line2d_1">
      <defs>
       <path id="m3ad318fbca" d="M 0 0 
L 0 -9 
" style="stroke: #000000; stroke-width: 1.875"/>
      </defs>
      <g>
       <use xlink:href="#m3ad318fbca" x="77.97" y="170.58" style="stroke: #000000; stroke-width: 1.875"/>
      </g>
     </g>
    </g>
    <g id="xtick_2">
     <g id="line2d_2">
      <g>
       <use xlink:href="#m3ad318fbca" x="147.832" y="170.58" style="stroke: #000000; stroke-width: 1.875"/>
      </g>
     </g>
    </g>
    <g id="xtick_3">
     <g id="line2d_3">
      <g>
       <use xlink:href="#m3ad318fbca" x="217.694" y="170.58" style="stroke: #000000; stroke-width: 1.875"/>
      </g>
     </g>
    </g>
   </g>
   <g id="matplotlib.axis_2">
    <g id="ytick_1">
     <g id="line2d_4">
      <defs>
       <path id="mf38abcdbf2" d="M 0 0 
L 9 0 
" style="stroke: #000000; stroke-width: 1.875"/>
      </defs>
      <g>
       <use xlink:href="#mf38abcdbf2" x="77.97" y="170.58" style="stroke: #000000; stroke-width: 1.875"/>
      </g>
     </g>
     <g id="text_1">
      <!-- −1 -->
      <g transform="translate(52.577852 176.22184)scale(0.1485 -0.1485)">
       <defs>
        <path id="DejaVuSans-2212" d="M 678 2272 
L 4684 2272 
L 4684 1741 
L 678 1741 
L 678 2272 
z
" transform="scale(0.015625)"/>
        <path id="DejaVuSans-31" d="M 794 531 
L 1825 531 
L 1825 4091 
L 703 3866 
L 703 4441 
L 1819 4666 
L 2450 4666 
L 2450 531 
L 3481 531 
L 3481 0 
L 794 0 
L 794 531 
z
" transform="scale(0.015625)"/>
       </defs>
       <use xlink:href="#DejaVuSans-2212"/>
       <use xlink:href="#DejaVuSans-31" x="83.789062"/>
      </g>
     </g>
    </g>
    <g id="ytick_2">
     <g id="line2d_5">
      <g>
       <use xlink:href="#mf38abcdbf2" x="77.97" y="102.798" style="stroke: #000000; stroke-width: 1.875"/>
      </g>
     </g>
     <g id="text_2">
      <!-- 0 -->
      <g transform="translate(65.021687 108.43984)scale(0.1485 -0.1485)">
       <defs>
        <path id="DejaVuSans-30" d="M 2034 4250 
Q 1547 4250 1301 3770 
Q 1056 3291 1056 2328 
Q 1056 1369 1301 889 
Q 1547 409 2034 409 
Q 2525 409 2770 889 
Q 3016 1369 3016 2328 
Q 3016 3291 2770 3770 
Q 2525 4250 2034 4250 
z
M 2034 4750 
Q 2819 4750 3233 4129 
Q 3647 3509 3647 2328 
Q 3647 1150 3233 529 
Q 2819 -91 2034 -91 
Q 1250 -91 836 529 
Q 422 1150 422 2328 
Q 422 3509 836 4129 
Q 1250 4750 2034 4750 
z
" transform="scale(0.015625)"/>
       </defs>
       <use xlink:href="#DejaVuSans-30"/>
      </g>
     </g>
    </g>
    <g id="ytick_3">
     <g id="line2d_6">
      <g>
       <use xlink:href="#mf38abcdbf2" x="77.97" y="35.016" style="stroke: #000000; stroke-width: 1.875"/>
      </g>
     </g>
     <g id="text_3">
      <!-- 1 -->
      <g transform="translate(65.021687 40.65784)scale(0.1485 -0.1485)">
       <use xlink:href="#DejaVuSans-31"/>
      </g>
     </g>
    </g>
    <g id="text_4">
     <!-- output  -->
     <g transform="translate(27.068302 132.088359)rotate(-90)scale(0.162 -0.162)">
      <defs>
       <path id="DejaVuSans-6f" d="M 1959 3097 
Q 1497 3097 1228 2736 
Q 959 2375 959 1747 
Q 959 1119 1226 758 
Q 1494 397 1959 397 
Q 2419 397 2687 759 
Q 2956 1122 2956 1747 
Q 2956 2369 2687 2733 
Q 2419 3097 1959 3097 
z
M 1959 3584 
Q 2709 3584 3137 3096 
Q 3566 2609 3566 1747 
Q 3566 888 3137 398 
Q 2709 -91 1959 -91 
Q 1206 -91 779 398 
Q 353 888 353 1747 
Q 353 2609 779 3096 
Q 1206 3584 1959 3584 
z
" transform="scale(0.015625)"/>
       <path id="DejaVuSans-75" d="M 544 1381 
L 544 3500 
L 1119 3500 
L 1119 1403 
Q 1119 906 1312 657 
Q 1506 409 1894 409 
Q 2359 409 2629 706 
Q 2900 1003 2900 1516 
L 2900 3500 
L 3475 3500 
L 3475 0 
L 2900 0 
L 2900 538 
Q 2691 219 2414 64 
Q 2138 -91 1772 -91 
Q 1169 -91 856 284 
Q 544 659 544 1381 
z
M 1991 3584 
L 1991 3584 
z
" transform="scale(0.015625)"/>
       <path id="DejaVuSans-74" d="M 1172 4494 
L 1172 3500 
L 2356 3500 
L 2356 3053 
L 1172 3053 
L 1172 1153 
Q 1172 725 1289 603 
Q 1406 481 1766 481 
L 2356 481 
L 2356 0 
L 1766 0 
Q 1100 0 847 248 
Q 594 497 594 1153 
L 594 3053 
L 172 3053 
L 172 3500 
L 594 3500 
L 594 4494 
L 1172 4494 
z
" transform="scale(0.015625)"/>
       <path id="DejaVuSans-70" d="M 1159 525 
L 1159 -1331 
L 581 -1331 
L 581 3500 
L 1159 3500 
L 1159 2969 
Q 1341 3281 1617 3432 
Q 1894 3584 2278 3584 
Q 2916 3584 3314 3078 
Q 3713 2572 3713 1747 
Q 3713 922 3314 415 
Q 2916 -91 2278 -91 
Q 1894 -91 1617 61 
Q 1341 213 1159 525 
z
M 3116 1747 
Q 3116 2381 2855 2742 
Q 2594 3103 2138 3103 
Q 1681 3103 1420 2742 
Q 1159 2381 1159 1747 
Q 1159 1113 1420 752 
Q 1681 391 2138 391 
Q 2594 391 2855 752 
Q 3116 1113 3116 1747 
z
" transform="scale(0.015625)"/>
       <path id="DejaVuSans-20" transform="scale(0.015625)"/>
      </defs>
      <use xlink:href="#DejaVuSans-6f"/>
      <use xlink:href="#DejaVuSans-75" x="61.181641"/>
      <use xlink:href="#DejaVuSans-74" x="124.560547"/>
      <use xlink:href="#DejaVuSans-70" x="163.769531"/>
      <use xlink:href="#DejaVuSans-75" x="227.246094"/>
      <use xlink:href="#DejaVuSans-74" x="290.625"/>
      <use xlink:href="#DejaVuSans-20" x="329.833984"/>
     </g>
     <!-- (pop #0) -->
     <g transform="translate(45.208758 138.874641)rotate(-90)scale(0.162 -0.162)">
      <defs>
       <path id="DejaVuSans-28" d="M 1984 4856 
Q 1566 4138 1362 3434 
Q 1159 2731 1159 2009 
Q 1159 1288 1364 580 
Q 1569 -128 1984 -844 
L 1484 -844 
Q 1016 -109 783 600 
Q 550 1309 550 2009 
Q 550 2706 781 3412 
Q 1013 4119 1484 4856 
L 1984 4856 
z
" transform="scale(0.015625)"/>
       <path id="DejaVuSans-23" d="M 3272 2816 
L 2363 2816 
L 2100 1772 
L 3016 1772 
L 3272 2816 
z
M 2803 4594 
L 2478 3297 
L 3391 3297 
L 3719 4594 
L 4219 4594 
L 3897 3297 
L 4872 3297 
L 4872 2816 
L 3775 2816 
L 3519 1772 
L 4513 1772 
L 4513 1294 
L 3397 1294 
L 3072 0 
L 2572 0 
L 2894 1294 
L 1978 1294 
L 1656 0 
L 1153 0 
L 1478 1294 
L 494 1294 
L 494 1772 
L 1594 1772 
L 1856 2816 
L 850 2816 
L 850 3297 
L 1978 3297 
L 2297 4594 
L 2803 4594 
z
" transform="scale(0.015625)"/>
       <path id="DejaVuSans-29" d="M 513 4856 
L 1013 4856 
Q 1481 4119 1714 3412 
Q 1947 2706 1947 2009 
Q 1947 1309 1714 600 
Q 1481 -109 1013 -844 
L 513 -844 
Q 928 -128 1133 580 
Q 1338 1288 1338 2009 
Q 1338 2731 1133 3434 
Q 928 4138 513 4856 
z
" transform="scale(0.015625)"/>
      </defs>
      <use xlink:href="#DejaVuSans-28"/>
      <use xlink:href="#DejaVuSans-70" x="39.013672"/>
      <use xlink:href="#DejaVuSans-6f" x="102.490234"/>
      <use xlink:href="#DejaVuSans-70" x="163.671875"/>
      <use xlink:href="#DejaVuSans-20" x="227.148438"/>
      <use xlink:href="#DejaVuSans-23" x="258.935547"/>
      <use xlink:href="#DejaVuSans-30" x="342.724609"/>
      <use xlink:href="#DejaVuSans-29" x="406.347656"/>
     </g>
    </g>
   </g>
   <g id="line2d_7">
    <path d="M -1 107.268753 
L -0.62475 107.274323 
L 16.84075 102.290652 
L 34.30625 105.697714 
L 51.77175 104.285137 
L 69.23725 104.088908 
L 86.70275 101.864981 
L 104.16825 103.229432 
L 121.63375 103.10573 
L 139.09925 100.363948 
L 156.56475 94.267296 
L 174.03025 86.476772 
L 191.49575 78.266677 
L 208.96125 76.344041 
L 226.42675 75.491343 
L 243.89225 69.139831 
L 261.35775 66.973518 
L 278.82325 65.216948 
L 296.28875 74.281774 
L 313.75425 74.957221 
L 331.21975 77.033045 
L 348.68525 74.78031 
L 366.15075 83.050392 
L 383.61625 85.875885 
L 401.08175 91.25032 
L 418.54725 88.453295 
L 433 87.369921 
" clip-path="url(#p6e80fdba6c)" style="fill: none; stroke: #eba071; stroke-width: 2.25; stroke-linecap: square"/>
   </g>
   <g id="line2d_8">
    <path d="M -1 105.412222 
L -0.62475 105.433703 
L 16.84075 105.128684 
L 34.30625 106.029507 
L 51.77175 105.771935 
L 69.23725 102.45604 
L 86.70275 100.831305 
L 104.16825 101.001099 
L 121.63375 102.901706 
L 139.09925 102.392664 
L 156.56475 100.555771 
L 174.03025 97.14532 
L 191.49575 94.88174 
L 208.96125 98.860205 
L 226.42675 98.830381 
L 243.89225 104.486789 
L 261.35775 102.875271 
L 278.82325 102.330643 
L 296.28875 103.646292 
L 313.75425 100.494768 
L 331.21975 105.48454 
L 348.68525 99.221822 
L 366.15075 103.434134 
L 383.61625 101.325436 
L 401.08175 102.640407 
L 418.54725 97.954637 
L 433 97.134324 
" clip-path="url(#p6e80fdba6c)" style="fill: none; stroke: #808080; stroke-width: 2.25; stroke-linecap: square"/>
   </g>
   <g id="line2d_9">
    <path d="M -1 102.798 
L -0.62475 102.798 
L 16.84075 102.798 
L 34.30625 102.798 
L 51.77175 102.798 
L 69.23725 102.798 
L 86.70275 102.798 
L 104.16825 102.798 
L 121.63375 102.798 
L 139.09925 102.798 
L 156.56475 102.798 
L 174.03025 102.798 
L 191.49575 102.798 
L 208.96125 102.798 
L 226.42675 102.798 
L 243.89225 102.798 
L 261.35775 102.798 
L 278.82325 102.798 
L 296.28875 102.798 
L 313.75425 102.798 
L 331.21975 102.798 
L 348.68525 102.798 
L 366.15075 102.798 
L 383.61625 102.798 
L 401.08175 102.798 
L 418.54725 102.798 
L 433 102.798 
" clip-path="url(#p6e80fdba6c)" style="fill: none; stroke-dasharray: 8.325,3.6; stroke-dashoffset: 0; stroke: #000000; stroke-opacity: 0.5; stroke-width: 2.25"/>
   </g>
   <g id="patch_3">
    <path d="M 77.97 170.58 
L 77.97 35.016 
" style="fill: none; stroke: #000000; stroke-width: 1.875; stroke-linejoin: miter; stroke-linecap: square"/>
   </g>
   <g id="patch_4">
    <path d="M 77.97 170.58 
L 217.694 170.58 
" style="fill: none; stroke: #000000; stroke-width: 1.875; stroke-linejoin: miter; stroke-linecap: square"/>
   </g>
   <g id="text_5">
    <!-- location context -->
    <g transform="translate(82.587766 29.016)scale(0.162 -0.162)">
     <defs>
      <path id="DejaVuSans-6c" d="M 603 4863 
L 1178 4863 
L 1178 0 
L 603 0 
L 603 4863 
z
" transform="scale(0.015625)"/>
      <path id="DejaVuSans-63" d="M 3122 3366 
L 3122 2828 
Q 2878 2963 2633 3030 
Q 2388 3097 2138 3097 
Q 1578 3097 1268 2742 
Q 959 2388 959 1747 
Q 959 1106 1268 751 
Q 1578 397 2138 397 
Q 2388 397 2633 464 
Q 2878 531 3122 666 
L 3122 134 
Q 2881 22 2623 -34 
Q 2366 -91 2075 -91 
Q 1284 -91 818 406 
Q 353 903 353 1747 
Q 353 2603 823 3093 
Q 1294 3584 2113 3584 
Q 2378 3584 2631 3529 
Q 2884 3475 3122 3366 
z
" transform="scale(0.015625)"/>
      <path id="DejaVuSans-61" d="M 2194 1759 
Q 1497 1759 1228 1600 
Q 959 1441 959 1056 
Q 959 750 1161 570 
Q 1363 391 1709 391 
Q 2188 391 2477 730 
Q 2766 1069 2766 1631 
L 2766 1759 
L 2194 1759 
z
M 3341 1997 
L 3341 0 
L 2766 0 
L 2766 531 
Q 2569 213 2275 61 
Q 1981 -91 1556 -91 
Q 1019 -91 701 211 
Q 384 513 384 1019 
Q 384 1609 779 1909 
Q 1175 2209 1959 2209 
L 2766 2209 
L 2766 2266 
Q 2766 2663 2505 2880 
Q 2244 3097 1772 3097 
Q 1472 3097 1187 3025 
Q 903 2953 641 2809 
L 641 3341 
Q 956 3463 1253 3523 
Q 1550 3584 1831 3584 
Q 2591 3584 2966 3190 
Q 3341 2797 3341 1997 
z
" transform="scale(0.015625)"/>
      <path id="DejaVuSans-69" d="M 603 3500 
L 1178 3500 
L 1178 0 
L 603 0 
L 603 3500 
z
M 603 4863 
L 1178 4863 
L 1178 4134 
L 603 4134 
L 603 4863 
z
" transform="scale(0.015625)"/>
      <path id="DejaVuSans-6e" d="M 3513 2113 
L 3513 0 
L 2938 0 
L 2938 2094 
Q 2938 2591 2744 2837 
Q 2550 3084 2163 3084 
Q 1697 3084 1428 2787 
Q 1159 2491 1159 1978 
L 1159 0 
L 581 0 
L 581 3500 
L 1159 3500 
L 1159 2956 
Q 1366 3272 1645 3428 
Q 1925 3584 2291 3584 
Q 2894 3584 3203 3211 
Q 3513 2838 3513 2113 
z
" transform="scale(0.015625)"/>
      <path id="DejaVuSans-65" d="M 3597 1894 
L 3597 1613 
L 953 1613 
Q 991 1019 1311 708 
Q 1631 397 2203 397 
Q 2534 397 2845 478 
Q 3156 559 3463 722 
L 3463 178 
Q 3153 47 2828 -22 
Q 2503 -91 2169 -91 
Q 1331 -91 842 396 
Q 353 884 353 1716 
Q 353 2575 817 3079 
Q 1281 3584 2069 3584 
Q 2775 3584 3186 3129 
Q 3597 2675 3597 1894 
z
M 3022 2063 
Q 3016 2534 2758 2815 
Q 2500 3097 2075 3097 
Q 1594 3097 1305 2825 
Q 1016 2553 972 2059 
L 3022 2063 
z
" transform="scale(0.015625)"/>
      <path id="DejaVuSans-78" d="M 3513 3500 
L 2247 1797 
L 3578 0 
L 2900 0 
L 1881 1375 
L 863 0 
L 184 0 
L 1544 1831 
L 300 3500 
L 978 3500 
L 1906 2253 
L 2834 3500 
L 3513 3500 
z
" transform="scale(0.015625)"/>
     </defs>
     <use xlink:href="#DejaVuSans-6c"/>
     <use xlink:href="#DejaVuSans-6f" x="27.783203"/>
     <use xlink:href="#DejaVuSans-63" x="88.964844"/>
     <use xlink:href="#DejaVuSans-61" x="143.945312"/>
     <use xlink:href="#DejaVuSans-74" x="205.224609"/>
     <use xlink:href="#DejaVuSans-69" x="244.433594"/>
     <use xlink:href="#DejaVuSans-6f" x="272.216797"/>
     <use xlink:href="#DejaVuSans-6e" x="333.398438"/>
     <use xlink:href="#DejaVuSans-20" x="396.777344"/>
     <use xlink:href="#DejaVuSans-63" x="428.564453"/>
     <use xlink:href="#DejaVuSans-6f" x="483.544922"/>
     <use xlink:href="#DejaVuSans-6e" x="544.726562"/>
     <use xlink:href="#DejaVuSans-74" x="608.105469"/>
     <use xlink:href="#DejaVuSans-65" x="647.314453"/>
     <use xlink:href="#DejaVuSans-78" x="707.087891"/>
     <use xlink:href="#DejaVuSans-74" x="766.267578"/>
    </g>
   </g>
  </g>
  <g id="axes_2">
   <g id="patch_5">
    <path d="M 77.97 338.04 
L 217.694 338.04 
L 217.694 202.476 
L 77.97 202.476 
z
" style="fill: #ffffff"/>
   </g>
   <g id="PolyCollection_5">
    <path d="M -192.74525 273.918228 
L -192.74525 287.474628 
L -175.27975 287.631882 
L -157.81425 288.038574 
L -140.34875 288.174138 
L -122.88325 289.372524 
L -105.41775 288.445266 
L -87.95225 287.90301 
L -70.48675 287.360754 
L -53.02125 287.496318 
L -35.55575 284.378346 
L -18.09025 284.898912 
L -0.62475 286.975752 
L 16.84075 283.001016 
L 34.30625 284.107218 
L 51.77175 283.8144 
L 69.23725 283.700526 
L 86.70275 281.80263 
L 104.16825 283.700526 
L 121.63375 282.887142 
L 139.09925 280.696428 
L 156.56475 279.883044 
L 174.03025 277.71402 
L 191.49575 277.71402 
L 208.96125 280.154172 
L 226.42675 280.696428 
L 243.89225 283.272144 
L 261.35775 289.665342 
L 278.82325 288.965832 
L 296.28875 290.185908 
L 313.75425 286.818498 
L 331.21975 290.5926 
L 348.68525 290.207598 
L 366.15075 289.123086 
L 383.61625 287.339064 
L 401.08175 288.288012 
L 418.54725 289.123086 
L 436.01275 286.411806 
L 453.47825 283.407708 
L 470.94375 286.52568 
L 488.40925 308.21592 
L 488.40925 280.788612 
L 488.40925 280.788612 
L 470.94375 272.134206 
L 453.47825 271.749204 
L 436.01275 273.104844 
L 418.54725 274.731612 
L 401.08175 273.354282 
L 383.61625 272.020332 
L 366.15075 273.375972 
L 348.68525 275.816124 
L 331.21975 275.138304 
L 313.75425 274.552668 
L 296.28875 275.794434 
L 278.82325 274.867176 
L 261.35775 273.6471 
L 243.89225 271.206948 
L 226.42675 270.93582 
L 208.96125 270.800256 
L 191.49575 269.715744 
L 174.03025 269.309052 
L 156.56475 270.122436 
L 139.09925 271.071384 
L 121.63375 271.206948 
L 104.16825 271.884768 
L 86.70275 271.749204 
L 69.23725 273.083154 
L 51.77175 273.104844 
L 34.30625 273.240408 
L 16.84075 273.489846 
L -0.62475 274.867176 
L -18.09025 273.918228 
L -35.55575 273.511536 
L -53.02125 274.460484 
L -70.48675 274.731612 
L -87.95225 274.709922 
L -105.41775 274.574358 
L -122.88325 274.709922 
L -140.34875 274.30323 
L -157.81425 274.167666 
L -175.27975 274.574358 
L -192.74525 273.918228 
z
" clip-path="url(#p8198f8454f)" style="fill: #eba071; fill-opacity: 0.1; stroke: #eba071; stroke-opacity: 0.1; stroke-width: 1.5"/>
   </g>
   <g id="PolyCollection_6">
    <path d="M -192.74525 277.150074 
L -192.74525 292.354932 
L -175.27975 293.032752 
L -157.81425 295.630158 
L -140.34875 294.930648 
L -122.88325 292.262748 
L -105.41775 291.405984 
L -87.95225 289.93647 
L -70.48675 293.596698 
L -53.02125 288.016884 
L -35.55575 288.55914 
L -18.09025 288.716394 
L -0.62475 291.563238 
L 16.84075 290.5926 
L 34.30625 289.25865 
L 51.77175 286.54737 
L 69.23725 287.067936 
L 86.70275 284.242782 
L 104.16825 286.118988 
L 121.63375 288.851958 
L 139.09925 287.339064 
L 156.56475 287.22519 
L 174.03025 283.8144 
L 191.49575 284.51391 
L 208.96125 284.242782 
L 226.42675 283.543272 
L 243.89225 285.19173 
L 261.35775 286.254552 
L 278.82325 286.52568 
L 296.28875 287.360754 
L 313.75425 288.038574 
L 331.21975 288.738084 
L 348.68525 286.954062 
L 366.15075 291.134856 
L 383.61625 289.779216 
L 401.08175 287.610192 
L 418.54725 288.423576 
L 436.01275 290.207598 
L 453.47825 289.643652 
L 470.94375 289.551468 
L 488.40925 304.691256 
L 488.40925 280.517484 
L 488.40925 280.517484 
L 470.94375 274.438794 
L 453.47825 276.35838 
L 436.01275 275.68056 
L 418.54725 274.438794 
L 401.08175 273.782664 
L 383.61625 274.189356 
L 366.15075 275.252178 
L 348.68525 273.083154 
L 331.21975 273.218718 
L 313.75425 272.812026 
L 296.28875 273.489846 
L 278.82325 273.918228 
L 261.35775 273.918228 
L 243.89225 273.104844 
L 226.42675 272.29146 
L 208.96125 272.26977 
L 191.49575 272.427024 
L 174.03025 272.427024 
L 156.56475 274.596048 
L 139.09925 275.116614 
L 121.63375 276.065562 
L 104.16825 275.00274 
L 86.70275 272.676462 
L 69.23725 274.596048 
L 51.77175 274.167666 
L 34.30625 275.68056 
L 16.84075 275.366052 
L -0.62475 276.493944 
L -18.09025 275.816124 
L -35.55575 276.087252 
L -53.02125 275.68056 
L -70.48675 278.934096 
L -87.95225 276.087252 
L -105.41775 277.0362 
L -122.88325 277.963458 
L -140.34875 277.985148 
L -157.81425 276.765072 
L -175.27975 276.857256 
L -192.74525 277.150074 
z
" clip-path="url(#p8198f8454f)" style="fill: #808080; fill-opacity: 0.1; stroke: #808080; stroke-opacity: 0.1; stroke-width: 1.5"/>
   </g>
   <g id="PolyCollection_7"/>
   <g id="PolyCollection_8"/>
   <g id="matplotlib.axis_3">
    <g id="xtick_4">
     <g id="line2d_10">
      <g>
       <use xlink:href="#m3ad318fbca" x="77.97" y="338.04" style="stroke: #000000; stroke-width: 1.875"/>
      </g>
     </g>
    </g>
    <g id="xtick_5">
     <g id="line2d_11">
      <g>
       <use xlink:href="#m3ad318fbca" x="147.832" y="338.04" style="stroke: #000000; stroke-width: 1.875"/>
      </g>
     </g>
    </g>
    <g id="xtick_6">
     <g id="line2d_12">
      <g>
       <use xlink:href="#m3ad318fbca" x="217.694" y="338.04" style="stroke: #000000; stroke-width: 1.875"/>
      </g>
     </g>
    </g>
   </g>
   <g id="matplotlib.axis_4">
    <g id="ytick_4">
     <g id="line2d_13">
      <g>
       <use xlink:href="#mf38abcdbf2" x="77.97" y="338.04" style="stroke: #000000; stroke-width: 1.875"/>
      </g>
     </g>
     <g id="text_6">
      <!-- −1 -->
      <g transform="translate(52.577852 343.68184)scale(0.1485 -0.1485)">
       <use xlink:href="#DejaVuSans-2212"/>
       <use xlink:href="#DejaVuSans-31" x="83.789062"/>
      </g>
     </g>
    </g>
    <g id="ytick_5">
     <g id="line2d_14">
      <g>
       <use xlink:href="#mf38abcdbf2" x="77.97" y="270.258" style="stroke: #000000; stroke-width: 1.875"/>
      </g>
     </g>
     <g id="text_7">
      <!-- 0 -->
      <g transform="translate(65.021687 275.89984)scale(0.1485 -0.1485)">
       <use xlink:href="#DejaVuSans-30"/>
      </g>
     </g>
    </g>
    <g id="ytick_6">
     <g id="line2d_15">
      <g>
       <use xlink:href="#mf38abcdbf2" x="77.97" y="202.476" style="stroke: #000000; stroke-width: 1.875"/>
      </g>
     </g>
     <g id="text_8">
      <!-- 1 -->
      <g transform="translate(65.021687 208.11784)scale(0.1485 -0.1485)">
       <use xlink:href="#DejaVuSans-31"/>
      </g>
     </g>
    </g>
    <g id="text_9">
     <!-- output  -->
     <g transform="translate(27.068302 299.548359)rotate(-90)scale(0.162 -0.162)">
      <use xlink:href="#DejaVuSans-6f"/>
      <use xlink:href="#DejaVuSans-75" x="61.181641"/>
      <use xlink:href="#DejaVuSans-74" x="124.560547"/>
      <use xlink:href="#DejaVuSans-70" x="163.769531"/>
      <use xlink:href="#DejaVuSans-75" x="227.246094"/>
      <use xlink:href="#DejaVuSans-74" x="290.625"/>
      <use xlink:href="#DejaVuSans-20" x="329.833984"/>
     </g>
     <!-- (pop #1) -->
     <g transform="translate(45.208758 306.334641)rotate(-90)scale(0.162 -0.162)">
      <use xlink:href="#DejaVuSans-28"/>
      <use xlink:href="#DejaVuSans-70" x="39.013672"/>
      <use xlink:href="#DejaVuSans-6f" x="102.490234"/>
      <use xlink:href="#DejaVuSans-70" x="163.671875"/>
      <use xlink:href="#DejaVuSans-20" x="227.148438"/>
      <use xlink:href="#DejaVuSans-23" x="258.935547"/>
      <use xlink:href="#DejaVuSans-31" x="342.724609"/>
      <use xlink:href="#DejaVuSans-29" x="406.347656"/>
     </g>
    </g>
   </g>
   <g id="line2d_16">
    <path d="M -1 281.031826 
L -0.62475 281.067534 
L 16.84075 278.493513 
L 34.30625 278.880548 
L 51.77175 278.502664 
L 69.23725 278.318974 
L 86.70275 276.686106 
L 104.16825 277.592351 
L 121.63375 276.557998 
L 139.09925 275.576176 
L 156.56475 275.043409 
L 174.03025 273.496285 
L 191.49575 273.935174 
L 208.96125 275.409093 
L 226.42675 275.787656 
L 243.89225 277.193115 
L 261.35775 281.572171 
L 278.82325 281.964629 
L 296.28875 283.115906 
L 313.75425 280.625935 
L 331.21975 282.862063 
L 348.68525 283.166404 
L 366.15075 280.970945 
L 383.61625 279.749513 
L 401.08175 280.748281 
L 418.54725 281.802969 
L 433 279.952006 
" clip-path="url(#p8198f8454f)" style="fill: none; stroke: #eba071; stroke-width: 2.25; stroke-linecap: square"/>
   </g>
   <g id="line2d_17">
    <path d="M -1 283.979845 
L -0.62475 284.017068 
L 16.84075 283.261977 
L 34.30625 282.465199 
L 51.77175 280.335828 
L 69.23725 281.002464 
L 86.70275 278.866992 
L 104.16825 280.716763 
L 121.63375 282.38725 
L 139.09925 281.083463 
L 156.56475 280.585604 
L 174.03025 278.210862 
L 191.49575 278.396246 
L 208.96125 278.322363 
L 226.42675 277.67979 
L 243.89225 279.118802 
L 261.35775 280.158917 
L 278.82325 280.501216 
L 296.28875 280.62424 
L 313.75425 280.958744 
L 331.21975 281.170224 
L 348.68525 280.053516 
L 366.15075 282.766151 
L 383.61625 281.76535 
L 401.08175 280.413777 
L 418.54725 281.23055 
L 433 282.568572 
" clip-path="url(#p8198f8454f)" style="fill: none; stroke: #808080; stroke-width: 2.25; stroke-linecap: square"/>
   </g>
   <g id="line2d_18">
    <path d="M -1 270.258 
L -0.62475 270.258 
L 16.84075 270.258 
L 34.30625 270.258 
L 51.77175 270.258 
L 69.23725 270.258 
L 86.70275 270.258 
L 104.16825 270.258 
L 121.63375 270.258 
L 139.09925 270.258 
L 156.56475 270.258 
L 174.03025 270.258 
L 191.49575 270.258 
L 208.96125 270.258 
L 226.42675 270.258 
L 243.89225 270.258 
L 261.35775 270.258 
L 278.82325 270.258 
L 296.28875 270.258 
L 313.75425 270.258 
L 331.21975 270.258 
L 348.68525 270.258 
L 366.15075 270.258 
L 383.61625 270.258 
L 401.08175 270.258 
L 418.54725 270.258 
L 433 270.258 
" clip-path="url(#p8198f8454f)" style="fill: none; stroke-dasharray: 8.325,3.6; stroke-dashoffset: 0; stroke: #000000; stroke-opacity: 0.5; stroke-width: 2.25"/>
   </g>
   <g id="patch_6">
    <path d="M 77.97 338.04 
L 77.97 202.476 
" style="fill: none; stroke: #000000; stroke-width: 1.875; stroke-linejoin: miter; stroke-linecap: square"/>
   </g>
   <g id="patch_7">
    <path d="M 77.97 338.04 
L 217.694 338.04 
" style="fill: none; stroke: #000000; stroke-width: 1.875; stroke-linejoin: miter; stroke-linecap: square"/>
   </g>
  </g>
  <g id="axes_3">
   <g id="patch_8">
    <path d="M 77.97 505.5 
L 217.694 505.5 
L 217.694 369.936 
L 77.97 369.936 
z
" style="fill: #ffffff"/>
   </g>
   <g id="PolyCollection_9">
    <path d="M -192.74525 398.111622 
L -192.74525 425.403366 
L -175.27975 428.770776 
L -157.81425 429.063594 
L -140.34875 431.63931 
L -122.88325 434.35059 
L -105.41775 432.566568 
L -87.95225 435.277848 
L -70.48675 436.633488 
L -53.02125 439.615896 
L -35.55575 435.820104 
L -18.09025 435.749611 
L -0.62475 435.548976 
L 16.84075 440.158152 
L 34.30625 439.637586 
L 51.77175 430.397544 
L 69.23725 428.635212 
L 86.70275 427.5507 
L 104.16825 429.356412 
L 121.63375 423.641034 
L 139.09925 422.014266 
L 156.56475 420.929754 
L 174.03025 427.686264 
L 191.49575 432.99495 
L 208.96125 437.468562 
L 226.42675 440.722098 
L 243.89225 440.293716 
L 261.35775 437.219124 
L 278.82325 440.857662 
L 296.28875 438.959766 
L 313.75425 437.468562 
L 331.21975 436.248486 
L 348.68525 435.72792 
L 366.15075 436.519614 
L 383.61625 436.790742 
L 401.08175 436.904616 
L 418.54725 433.266078 
L 436.01275 435.207355 
L 453.47825 435.548976 
L 470.94375 441.378228 
L 488.40925 450.211578 
L 488.40925 402.200232 
L 488.40925 402.200232 
L 470.94375 411.125766 
L 453.47825 407.942723 
L 436.01275 410.062944 
L 418.54725 409.770126 
L 401.08175 411.646332 
L 383.61625 413.29479 
L 366.15075 414.921558 
L 348.68525 413.837046 
L 331.21975 414.878177 
L 313.75425 417.204456 
L 296.28875 419.124042 
L 278.82325 420.365808 
L 261.35775 415.463814 
L 243.89225 418.988478 
L 226.42675 416.797764 
L 208.96125 413.452044 
L 191.49575 407.601102 
L 174.03025 399.06057 
L 156.56475 388.622142 
L 139.09925 392.689062 
L 121.63375 393.345192 
L 104.16825 402.991926 
L 86.70275 399.76008 
L 69.23725 405.83877 
L 51.77175 400.41621 
L 34.30625 413.522537 
L 16.84075 412.367532 
L -0.62475 409.884 
L -18.09025 408.300612 
L -35.55575 406.787718 
L -53.02125 410.654003 
L -70.48675 409.770126 
L -87.95225 404.754258 
L -105.41775 404.846441 
L -122.88325 408.121668 
L -140.34875 407.828849 
L -157.81425 405.16095 
L -175.27975 399.488952 
L -192.74525 398.111622 
z
" clip-path="url(#pd9eeddb10c)" style="fill: #eba071; fill-opacity: 0.1; stroke: #eba071; stroke-opacity: 0.1; stroke-width: 1.5"/>
   </g>
   <g id="PolyCollection_10">
    <path d="M -192.74525 408.842868 
L -192.74525 430.148106 
L -175.27975 433.173895 
L -157.81425 433.108824 
L -140.34875 434.871156 
L -122.88325 438.574764 
L -105.41775 441.242664 
L -87.95225 437.989128 
L -70.48675 437.718 
L -53.02125 440.065968 
L -35.55575 437.197434 
L -18.09025 434.914536 
L -0.62475 427.729644 
L 16.84075 431.61762 
L 34.30625 428.2719 
L 51.77175 430.98318 
L 69.23725 432.224947 
L 86.70275 430.077613 
L 104.16825 430.554798 
L 121.63375 427.979082 
L 139.09925 428.792466 
L 156.56475 431.210928 
L 174.03025 436.926306 
L 191.49575 440.45097 
L 208.96125 437.989128 
L 226.42675 432.97326 
L 243.89225 428.25021 
L 261.35775 427.051824 
L 278.82325 429.470286 
L 296.28875 429.876978 
L 313.75425 430.012542 
L 331.21975 432.046002 
L 348.68525 430.26198 
L 366.15075 431.075364 
L 383.61625 430.126416 
L 401.08175 435.841794 
L 418.54725 435.413412 
L 436.01275 437.175744 
L 453.47825 432.99495 
L 470.94375 432.046002 
L 488.40925 442.191612 
L 488.40925 401.07234 
L 488.40925 401.07234 
L 470.94375 399.73839 
L 453.47825 408.663924 
L 436.01275 414.536556 
L 418.54725 410.740764 
L 401.08175 408.685614 
L 383.61625 403.691436 
L 366.15075 403.940874 
L 348.68525 401.77185 
L 331.21975 402.812981 
L 313.75425 398.247186 
L 296.28875 401.050649 
L 278.82325 396.235416 
L 261.35775 397.862184 
L 243.89225 395.964288 
L 226.42675 399.065992 
L 208.96125 406.51659 
L 191.49575 412.324152 
L 174.03025 406.652154 
L 156.56475 402.878052 
L 139.09925 397.0488 
L 121.63375 403.284744 
L 104.16825 402.200232 
L 86.70275 405.047076 
L 69.23725 405.18264 
L 51.77175 409.092306 
L 34.30625 405.703206 
L 16.84075 409.24956 
L -0.62475 402.178542 
L -18.09025 410.469636 
L -35.55575 407.329974 
L -53.02125 411.125766 
L -70.48675 410.312382 
L -87.95225 409.634562 
L -105.41775 415.214376 
L -122.88325 412.665773 
L -140.34875 410.198508 
L -157.81425 408.685614 
L -175.27975 409.092306 
L -192.74525 408.842868 
z
" clip-path="url(#pd9eeddb10c)" style="fill: #808080; fill-opacity: 0.1; stroke: #808080; stroke-opacity: 0.1; stroke-width: 1.5"/>
   </g>
   <g id="PolyCollection_11"/>
   <g id="PolyCollection_12"/>
   <g id="matplotlib.axis_5">
    <g id="xtick_7">
     <g id="line2d_19">
      <g>
       <use xlink:href="#m3ad318fbca" x="77.97" y="505.5" style="stroke: #000000; stroke-width: 1.875"/>
      </g>
     </g>
     <g id="text_10">
      <!-- -.2 -->
      <g transform="translate(68.207285 520.28368)scale(0.1485 -0.1485)">
       <defs>
        <path id="DejaVuSans-2d" d="M 313 2009 
L 1997 2009 
L 1997 1497 
L 313 1497 
L 313 2009 
z
" transform="scale(0.015625)"/>
        <path id="DejaVuSans-2e" d="M 684 794 
L 1344 794 
L 1344 0 
L 684 0 
L 684 794 
z
" transform="scale(0.015625)"/>
        <path id="DejaVuSans-32" d="M 1228 531 
L 3431 531 
L 3431 0 
L 469 0 
L 469 531 
Q 828 903 1448 1529 
Q 2069 2156 2228 2338 
Q 2531 2678 2651 2914 
Q 2772 3150 2772 3378 
Q 2772 3750 2511 3984 
Q 2250 4219 1831 4219 
Q 1534 4219 1204 4116 
Q 875 4013 500 3803 
L 500 4441 
Q 881 4594 1212 4672 
Q 1544 4750 1819 4750 
Q 2544 4750 2975 4387 
Q 3406 4025 3406 3419 
Q 3406 3131 3298 2873 
Q 3191 2616 2906 2266 
Q 2828 2175 2409 1742 
Q 1991 1309 1228 531 
z
" transform="scale(0.015625)"/>
       </defs>
       <use xlink:href="#DejaVuSans-2d"/>
       <use xlink:href="#DejaVuSans-2e" x="36.083984"/>
       <use xlink:href="#DejaVuSans-32" x="67.871094"/>
      </g>
     </g>
    </g>
    <g id="xtick_8">
     <g id="line2d_20">
      <g>
       <use xlink:href="#m3ad318fbca" x="147.832" y="505.5" style="stroke: #000000; stroke-width: 1.875"/>
      </g>
     </g>
     <g id="text_11">
      <!-- 0 -->
      <g transform="translate(143.107844 520.28368)scale(0.1485 -0.1485)">
       <use xlink:href="#DejaVuSans-30"/>
      </g>
     </g>
    </g>
    <g id="xtick_9">
     <g id="line2d_21">
      <g>
       <use xlink:href="#m3ad318fbca" x="217.694" y="505.5" style="stroke: #000000; stroke-width: 1.875"/>
      </g>
     </g>
     <g id="text_12">
      <!-- .2 -->
      <g transform="translate(210.610086 520.28368)scale(0.1485 -0.1485)">
       <use xlink:href="#DejaVuSans-2e"/>
       <use xlink:href="#DejaVuSans-32" x="31.787109"/>
      </g>
     </g>
    </g>
    <g id="text_13">
     <!-- time from stim -->
     <g transform="translate(88.003375 539.681484)scale(0.162 -0.162)">
      <defs>
       <path id="DejaVuSans-6d" d="M 3328 2828 
Q 3544 3216 3844 3400 
Q 4144 3584 4550 3584 
Q 5097 3584 5394 3201 
Q 5691 2819 5691 2113 
L 5691 0 
L 5113 0 
L 5113 2094 
Q 5113 2597 4934 2840 
Q 4756 3084 4391 3084 
Q 3944 3084 3684 2787 
Q 3425 2491 3425 1978 
L 3425 0 
L 2847 0 
L 2847 2094 
Q 2847 2600 2669 2842 
Q 2491 3084 2119 3084 
Q 1678 3084 1418 2786 
Q 1159 2488 1159 1978 
L 1159 0 
L 581 0 
L 581 3500 
L 1159 3500 
L 1159 2956 
Q 1356 3278 1631 3431 
Q 1906 3584 2284 3584 
Q 2666 3584 2933 3390 
Q 3200 3197 3328 2828 
z
" transform="scale(0.015625)"/>
       <path id="DejaVuSans-66" d="M 2375 4863 
L 2375 4384 
L 1825 4384 
Q 1516 4384 1395 4259 
Q 1275 4134 1275 3809 
L 1275 3500 
L 2222 3500 
L 2222 3053 
L 1275 3053 
L 1275 0 
L 697 0 
L 697 3053 
L 147 3053 
L 147 3500 
L 697 3500 
L 697 3744 
Q 697 4328 969 4595 
Q 1241 4863 1831 4863 
L 2375 4863 
z
" transform="scale(0.015625)"/>
       <path id="DejaVuSans-72" d="M 2631 2963 
Q 2534 3019 2420 3045 
Q 2306 3072 2169 3072 
Q 1681 3072 1420 2755 
Q 1159 2438 1159 1844 
L 1159 0 
L 581 0 
L 581 3500 
L 1159 3500 
L 1159 2956 
Q 1341 3275 1631 3429 
Q 1922 3584 2338 3584 
Q 2397 3584 2469 3576 
Q 2541 3569 2628 3553 
L 2631 2963 
z
" transform="scale(0.015625)"/>
       <path id="DejaVuSans-73" d="M 2834 3397 
L 2834 2853 
Q 2591 2978 2328 3040 
Q 2066 3103 1784 3103 
Q 1356 3103 1142 2972 
Q 928 2841 928 2578 
Q 928 2378 1081 2264 
Q 1234 2150 1697 2047 
L 1894 2003 
Q 2506 1872 2764 1633 
Q 3022 1394 3022 966 
Q 3022 478 2636 193 
Q 2250 -91 1575 -91 
Q 1294 -91 989 -36 
Q 684 19 347 128 
L 347 722 
Q 666 556 975 473 
Q 1284 391 1588 391 
Q 1994 391 2212 530 
Q 2431 669 2431 922 
Q 2431 1156 2273 1281 
Q 2116 1406 1581 1522 
L 1381 1569 
Q 847 1681 609 1914 
Q 372 2147 372 2553 
Q 372 3047 722 3315 
Q 1072 3584 1716 3584 
Q 2034 3584 2315 3537 
Q 2597 3491 2834 3397 
z
" transform="scale(0.015625)"/>
      </defs>
      <use xlink:href="#DejaVuSans-74"/>
      <use xlink:href="#DejaVuSans-69" x="39.208984"/>
      <use xlink:href="#DejaVuSans-6d" x="66.992188"/>
      <use xlink:href="#DejaVuSans-65" x="164.404297"/>
      <use xlink:href="#DejaVuSans-20" x="225.927734"/>
      <use xlink:href="#DejaVuSans-66" x="257.714844"/>
      <use xlink:href="#DejaVuSans-72" x="292.919922"/>
      <use xlink:href="#DejaVuSans-6f" x="331.783203"/>
      <use xlink:href="#DejaVuSans-6d" x="392.964844"/>
      <use xlink:href="#DejaVuSans-20" x="490.376953"/>
      <use xlink:href="#DejaVuSans-73" x="522.164062"/>
      <use xlink:href="#DejaVuSans-74" x="574.263672"/>
      <use xlink:href="#DejaVuSans-69" x="613.472656"/>
      <use xlink:href="#DejaVuSans-6d" x="641.255859"/>
     </g>
     <!-- (sec) -->
     <g transform="translate(127.854109 557.821941)scale(0.162 -0.162)">
      <use xlink:href="#DejaVuSans-28"/>
      <use xlink:href="#DejaVuSans-73" x="39.013672"/>
      <use xlink:href="#DejaVuSans-65" x="91.113281"/>
      <use xlink:href="#DejaVuSans-63" x="152.636719"/>
      <use xlink:href="#DejaVuSans-29" x="207.617188"/>
     </g>
    </g>
   </g>
   <g id="matplotlib.axis_6">
    <g id="ytick_7">
     <g id="line2d_22">
      <g>
       <use xlink:href="#mf38abcdbf2" x="77.97" y="505.5" style="stroke: #000000; stroke-width: 1.875"/>
      </g>
     </g>
     <g id="text_14">
      <!-- −1 -->
      <g transform="translate(52.577852 511.14184)scale(0.1485 -0.1485)">
       <use xlink:href="#DejaVuSans-2212"/>
       <use xlink:href="#DejaVuSans-31" x="83.789062"/>
      </g>
     </g>
    </g>
    <g id="ytick_8">
     <g id="line2d_23">
      <g>
       <use xlink:href="#mf38abcdbf2" x="77.97" y="437.718" style="stroke: #000000; stroke-width: 1.875"/>
      </g>
     </g>
     <g id="text_15">
      <!-- 0 -->
      <g transform="translate(65.021687 443.35984)scale(0.1485 -0.1485)">
       <use xlink:href="#DejaVuSans-30"/>
      </g>
     </g>
    </g>
    <g id="ytick_9">
     <g id="line2d_24">
      <g>
       <use xlink:href="#mf38abcdbf2" x="77.97" y="369.936" style="stroke: #000000; stroke-width: 1.875"/>
      </g>
     </g>
     <g id="text_16">
      <!-- 1 -->
      <g transform="translate(65.021687 375.57784)scale(0.1485 -0.1485)">
       <use xlink:href="#DejaVuSans-31"/>
      </g>
     </g>
    </g>
    <g id="text_17">
     <!-- output  -->
     <g transform="translate(27.068302 467.008359)rotate(-90)scale(0.162 -0.162)">
      <use xlink:href="#DejaVuSans-6f"/>
      <use xlink:href="#DejaVuSans-75" x="61.181641"/>
      <use xlink:href="#DejaVuSans-74" x="124.560547"/>
      <use xlink:href="#DejaVuSans-70" x="163.769531"/>
      <use xlink:href="#DejaVuSans-75" x="227.246094"/>
      <use xlink:href="#DejaVuSans-74" x="290.625"/>
      <use xlink:href="#DejaVuSans-20" x="329.833984"/>
     </g>
     <!-- (pop #2) -->
     <g transform="translate(45.208758 473.794641)rotate(-90)scale(0.162 -0.162)">
      <use xlink:href="#DejaVuSans-28"/>
      <use xlink:href="#DejaVuSans-70" x="39.013672"/>
      <use xlink:href="#DejaVuSans-6f" x="102.490234"/>
      <use xlink:href="#DejaVuSans-70" x="163.671875"/>
      <use xlink:href="#DejaVuSans-20" x="227.148438"/>
      <use xlink:href="#DejaVuSans-23" x="258.935547"/>
      <use xlink:href="#DejaVuSans-32" x="342.724609"/>
      <use xlink:href="#DejaVuSans-29" x="406.347656"/>
     </g>
    </g>
   </g>
   <g id="line2d_25">
    <path d="M -1 422.231514 
L -0.62475 422.242014 
L 16.84075 426.440092 
L 34.30625 425.891058 
L 51.77175 415.791879 
L 69.23725 416.969252 
L 86.70275 414.122747 
L 104.16825 415.944049 
L 121.63375 408.876081 
L 139.09925 407.810548 
L 156.56475 405.003018 
L 174.03025 412.636965 
L 191.49575 420.184152 
L 208.96125 426.173031 
L 226.42675 428.903968 
L 243.89225 429.706845 
L 261.35775 426.779341 
L 278.82325 430.276553 
L 296.28875 429.013436 
L 313.75425 427.838435 
L 331.21975 425.478604 
L 348.68525 424.821119 
L 366.15075 425.484366 
L 383.61625 424.653697 
L 401.08175 424.511694 
L 418.54725 421.21105 
L 433 422.603198 
" clip-path="url(#pd9eeddb10c)" style="fill: none; stroke: #eba071; stroke-width: 2.25; stroke-linecap: square"/>
   </g>
   <g id="line2d_26">
    <path d="M -1 415.309295 
L -0.62475 415.144899 
L 16.84075 420.699295 
L 34.30625 417.084142 
L 51.77175 420.526112 
L 69.23725 418.926796 
L 86.70275 417.772469 
L 104.16825 416.16468 
L 121.63375 414.995101 
L 139.09925 412.410574 
L 156.56475 417.031611 
L 174.03025 421.704841 
L 191.49575 425.876824 
L 208.96125 422.086454 
L 226.42675 415.254706 
L 243.89225 412.826416 
L 261.35775 411.981852 
L 278.82325 412.746433 
L 296.28875 415.186246 
L 313.75425 413.588964 
L 331.21975 418.160182 
L 348.68525 415.000185 
L 366.15075 417.926673 
L 383.61625 416.751333 
L 401.08175 422.238286 
L 418.54725 423.376346 
L 433 425.434841 
" clip-path="url(#pd9eeddb10c)" style="fill: none; stroke: #808080; stroke-width: 2.25; stroke-linecap: square"/>
   </g>
   <g id="line2d_27">
    <path d="M -1 437.718 
L -0.62475 437.718 
L 16.84075 437.718 
L 34.30625 437.718 
L 51.77175 437.718 
L 69.23725 437.718 
L 86.70275 437.718 
L 104.16825 437.718 
L 121.63375 437.718 
L 139.09925 437.718 
L 156.56475 437.718 
L 174.03025 437.718 
L 191.49575 437.718 
L 208.96125 437.718 
L 226.42675 437.718 
L 243.89225 437.718 
L 261.35775 437.718 
L 278.82325 437.718 
L 296.28875 437.718 
L 313.75425 437.718 
L 331.21975 437.718 
L 348.68525 437.718 
L 366.15075 437.718 
L 383.61625 437.718 
L 401.08175 437.718 
L 418.54725 437.718 
L 433 437.718 
" clip-path="url(#pd9eeddb10c)" style="fill: none; stroke-dasharray: 8.325,3.6; stroke-dashoffset: 0; stroke: #000000; stroke-opacity: 0.5; stroke-width: 2.25"/>
   </g>
   <g id="patch_9">
    <path d="M 77.97 505.5 
L 77.97 369.936 
" style="fill: none; stroke: #000000; stroke-width: 1.875; stroke-linejoin: miter; stroke-linecap: square"/>
   </g>
   <g id="patch_10">
    <path d="M 77.97 505.5 
L 217.694 505.5 
" style="fill: none; stroke: #000000; stroke-width: 1.875; stroke-linejoin: miter; stroke-linecap: square"/>
   </g>
  </g>
  <g id="axes_4">
   <g id="patch_11">
    <path d="M 267.67 170.58 
L 407.394 170.58 
L 407.394 35.016 
L 267.67 35.016 
z
" style="fill: #ffffff"/>
   </g>
   <g id="PolyCollection_13">
    <path d="M -3.04525 91.139496 
L -3.04525 121.527522 
L 14.42025 121.934214 
L 31.88575 120.171882 
L 49.35125 120.735828 
L 66.81675 125.20944 
L 84.28225 122.725908 
L 101.74775 125.751696 
L 119.21325 122.633724 
L 136.67875 126.115008 
L 154.14425 125.523949 
L 171.60975 126.201769 
L 189.07525 124.688875 
L 206.54075 125.594442 
L 224.00625 123.983942 
L 241.47175 128.148468 
L 258.93725 122.997036 
L 276.40275 126.158388 
L 293.86825 128.571428 
L 311.33375 131.673132 
L 328.79925 142.404378 
L 346.26475 149.860398 
L 363.73025 154.670209 
L 381.19575 162.332286 
L 398.66125 159.10044 
L 416.12675 155.125704 
L 433.59225 140.392608 
L 451.05775 136.911325 
L 468.52325 137.38851 
L 485.98875 136.303998 
L 503.45425 135.33336 
L 520.91975 131.667709 
L 538.38525 130.881438 
L 555.85075 131.694822 
L 573.31625 127.87734 
L 590.78175 129.93249 
L 608.24725 129.498685 
L 625.71275 132.350952 
L 643.17825 130.474746 
L 660.64375 144.86622 
L 678.10925 154.198446 
L 678.10925 92.180628 
L 678.10925 92.180628 
L 660.64375 100.835033 
L 643.17825 95.99811 
L 625.71275 96.025223 
L 608.24725 93.921269 
L 590.78175 97.917696 
L 573.31625 98.73108 
L 555.85075 100.76454 
L 538.38525 99.137772 
L 520.91975 100.406651 
L 503.45425 105.194772 
L 485.98875 103.047438 
L 468.52325 104.560332 
L 451.05775 103.183002 
L 433.59225 107.819291 
L 416.12675 117.438912 
L 398.66125 120.941886 
L 381.19575 120.128502 
L 363.73025 112.401354 
L 346.26475 110.389584 
L 328.79925 104.923644 
L 311.33375 99.793902 
L 293.86825 100.493412 
L 276.40275 96.540366 
L 258.93725 93.015702 
L 241.47175 100.135523 
L 224.00625 96.269238 
L 206.54075 94.913598 
L 189.07525 92.880138 
L 171.60975 91.367244 
L 154.14425 91.367244 
L 136.67875 94.66416 
L 119.21325 92.202318 
L 101.74775 90.982242 
L 84.28225 87.343704 
L 66.81675 92.60901 
L 49.35125 89.91942 
L 31.88575 88.54209 
L 14.42025 89.21991 
L -3.04525 91.139496 
z
" clip-path="url(#p753cb07e6f)" style="fill: #eba071; fill-opacity: 0.1; stroke: #eba071; stroke-opacity: 0.1; stroke-width: 1.5"/>
   </g>
   <g id="PolyCollection_14">
    <path d="M -3.04525 95.884236 
L -3.04525 126.001134 
L 14.42025 123.696546 
L 31.88575 123.425418 
L 49.35125 120.828012 
L 66.81675 124.124928 
L 84.28225 123.1326 
L 101.74775 123.403728 
L 119.21325 123.83211 
L 136.67875 119.423569 
L 154.14425 122.997036 
L 171.60975 120.849702 
L 189.07525 123.018726 
L 206.54075 126.001134 
L 224.00625 123.268164 
L 241.47175 128.55516 
L 258.93725 121.77696 
L 276.40275 128.148468 
L 293.86825 127.785156 
L 311.33375 136.553436 
L 328.79925 132.350952 
L 346.26475 135.490614 
L 363.73025 138.04464 
L 381.19575 139.129152 
L 398.66125 137.139072 
L 416.12675 137.361397 
L 433.59225 134.65554 
L 451.05775 136.190124 
L 468.52325 132.508206 
L 485.98875 135.37674 
L 503.45425 130.518127 
L 520.91975 134.812794 
L 538.38525 128.826288 
L 555.85075 126.792828 
L 573.31625 129.048613 
L 590.78175 130.859748 
L 608.24725 129.005232 
L 625.71275 132.144895 
L 643.17825 127.514028 
L 660.64375 136.911325 
L 678.10925 143.760018 
L 678.10925 85.988064 
L 678.10925 85.988064 
L 660.64375 93.151266 
L 643.17825 94.984091 
L 625.71275 98.438262 
L 608.24725 95.34198 
L 590.78175 98.801573 
L 573.31625 94.756344 
L 555.85075 93.514577 
L 538.38525 95.726982 
L 520.91975 102.09849 
L 503.45425 99.116082 
L 485.98875 100.471722 
L 468.52325 102.0768 
L 451.05775 101.919545 
L 433.59225 100.06503 
L 416.12675 101.827362 
L 398.66125 100.493412 
L 381.19575 101.805672 
L 363.73025 101.941236 
L 346.26475 98.172556 
L 328.79925 97.082622 
L 311.33375 97.852625 
L 293.86825 96.69762 
L 276.40275 98.324388 
L 258.93725 94.778034 
L 241.47175 99.36552 
L 224.00625 93.30852 
L 206.54075 96.518676 
L 189.07525 92.6307 
L 171.60975 93.829086 
L 154.14425 93.829086 
L 136.67875 92.880138 
L 119.21325 94.506906 
L 101.74775 92.60901 
L 84.28225 92.359572 
L 66.81675 92.744574 
L 49.35125 91.524498 
L 31.88575 94.257468 
L 14.42025 95.206416 
L -3.04525 95.884236 
z
" clip-path="url(#p753cb07e6f)" style="fill: #808080; fill-opacity: 0.1; stroke: #808080; stroke-opacity: 0.1; stroke-width: 1.5"/>
   </g>
   <g id="PolyCollection_15"/>
   <g id="PolyCollection_16"/>
   <g id="matplotlib.axis_7">
    <g id="xtick_10">
     <g id="line2d_28">
      <g>
       <use xlink:href="#m3ad318fbca" x="267.67" y="170.58" style="stroke: #000000; stroke-width: 1.875"/>
      </g>
     </g>
    </g>
    <g id="xtick_11">
     <g id="line2d_29">
      <g>
       <use xlink:href="#m3ad318fbca" x="337.532" y="170.58" style="stroke: #000000; stroke-width: 1.875"/>
      </g>
     </g>
    </g>
    <g id="xtick_12">
     <g id="line2d_30">
      <g>
       <use xlink:href="#m3ad318fbca" x="407.394" y="170.58" style="stroke: #000000; stroke-width: 1.875"/>
      </g>
     </g>
    </g>
   </g>
   <g id="matplotlib.axis_8">
    <g id="ytick_10">
     <g id="line2d_31">
      <g>
       <use xlink:href="#mf38abcdbf2" x="267.67" y="170.58" style="stroke: #000000; stroke-width: 1.875"/>
      </g>
     </g>
     <g id="text_18">
      <!-- −1 -->
      <g transform="translate(242.277852 176.22184)scale(0.1485 -0.1485)">
       <use xlink:href="#DejaVuSans-2212"/>
       <use xlink:href="#DejaVuSans-31" x="83.789062"/>
      </g>
     </g>
    </g>
    <g id="ytick_11">
     <g id="line2d_32">
      <g>
       <use xlink:href="#mf38abcdbf2" x="267.67" y="102.798" style="stroke: #000000; stroke-width: 1.875"/>
      </g>
     </g>
     <g id="text_19">
      <!-- 0 -->
      <g transform="translate(254.721687 108.43984)scale(0.1485 -0.1485)">
       <use xlink:href="#DejaVuSans-30"/>
      </g>
     </g>
    </g>
    <g id="ytick_12">
     <g id="line2d_33">
      <g>
       <use xlink:href="#mf38abcdbf2" x="267.67" y="35.016" style="stroke: #000000; stroke-width: 1.875"/>
      </g>
     </g>
     <g id="text_20">
      <!-- 1 -->
      <g transform="translate(254.721687 40.65784)scale(0.1485 -0.1485)">
       <use xlink:href="#DejaVuSans-31"/>
      </g>
     </g>
    </g>
   </g>
   <g id="line2d_34">
    <path d="M -1 106.627989 
L 14.42025 105.840734 
L 31.88575 104.885686 
L 49.35125 104.495939 
L 66.81675 108.241911 
L 84.28225 105.143935 
L 101.74775 109.034961 
L 119.21325 107.95926 
L 136.67875 109.817504 
L 154.14425 107.733546 
L 171.60975 108.505922 
L 189.07525 107.994846 
L 206.54075 110.62716 
L 224.00625 111.453422 
L 241.47175 113.584827 
L 258.93725 107.724396 
L 276.40275 110.366199 
L 293.86825 114.11895 
L 311.33375 115.784353 
L 328.79925 123.69858 
L 346.26475 129.456322 
L 363.73025 134.881254 
L 381.19575 142.568072 
L 398.66125 140.343467 
L 416.12675 136.023381 
L 433 124.36502 
" clip-path="url(#p753cb07e6f)" style="fill: none; stroke: #eba071; stroke-width: 2.25; stroke-linecap: square"/>
   </g>
   <g id="line2d_35">
    <path d="M -1 110.529831 
L 14.42025 109.499606 
L 31.88575 108.817719 
L 49.35125 105.111739 
L 66.81675 108.764172 
L 84.28225 107.641702 
L 101.74775 108.154134 
L 119.21325 108.818058 
L 136.67875 106.100678 
L 154.14425 107.851487 
L 171.60975 106.558545 
L 189.07525 107.918252 
L 206.54075 111.254482 
L 224.00625 108.568282 
L 241.47175 113.999992 
L 258.93725 108.156167 
L 276.40275 112.349839 
L 293.86825 111.780132 
L 311.33375 117.13491 
L 328.79925 115.161776 
L 346.26475 116.832602 
L 363.73025 120.049875 
L 381.19575 119.710965 
L 398.66125 118.225861 
L 416.12675 119.045006 
L 433 117.00192 
" clip-path="url(#p753cb07e6f)" style="fill: none; stroke: #808080; stroke-width: 2.25; stroke-linecap: square"/>
   </g>
   <g id="line2d_36">
    <path d="M -1 102.798 
L 14.42025 102.798 
L 31.88575 102.798 
L 49.35125 102.798 
L 66.81675 102.798 
L 84.28225 102.798 
L 101.74775 102.798 
L 119.21325 102.798 
L 136.67875 102.798 
L 154.14425 102.798 
L 171.60975 102.798 
L 189.07525 102.798 
L 206.54075 102.798 
L 224.00625 102.798 
L 241.47175 102.798 
L 258.93725 102.798 
L 276.40275 102.798 
L 293.86825 102.798 
L 311.33375 102.798 
L 328.79925 102.798 
L 346.26475 102.798 
L 363.73025 102.798 
L 381.19575 102.798 
L 398.66125 102.798 
L 416.12675 102.798 
L 433 102.798 
" clip-path="url(#p753cb07e6f)" style="fill: none; stroke-dasharray: 8.325,3.6; stroke-dashoffset: 0; stroke: #000000; stroke-opacity: 0.5; stroke-width: 2.25"/>
   </g>
   <g id="patch_12">
    <path d="M 267.67 170.58 
L 267.67 35.016 
" style="fill: none; stroke: #000000; stroke-width: 1.875; stroke-linejoin: miter; stroke-linecap: square"/>
   </g>
   <g id="patch_13">
    <path d="M 267.67 170.58 
L 407.394 170.58 
" style="fill: none; stroke: #000000; stroke-width: 1.875; stroke-linejoin: miter; stroke-linecap: square"/>
   </g>
   <g id="text_21">
    <!-- pitch context -->
    <g transform="translate(284.271969 29.016)scale(0.162 -0.162)">
     <defs>
      <path id="DejaVuSans-68" d="M 3513 2113 
L 3513 0 
L 2938 0 
L 2938 2094 
Q 2938 2591 2744 2837 
Q 2550 3084 2163 3084 
Q 1697 3084 1428 2787 
Q 1159 2491 1159 1978 
L 1159 0 
L 581 0 
L 581 4863 
L 1159 4863 
L 1159 2956 
Q 1366 3272 1645 3428 
Q 1925 3584 2291 3584 
Q 2894 3584 3203 3211 
Q 3513 2838 3513 2113 
z
" transform="scale(0.015625)"/>
     </defs>
     <use xlink:href="#DejaVuSans-70"/>
     <use xlink:href="#DejaVuSans-69" x="63.476562"/>
     <use xlink:href="#DejaVuSans-74" x="91.259766"/>
     <use xlink:href="#DejaVuSans-63" x="130.46875"/>
     <use xlink:href="#DejaVuSans-68" x="185.449219"/>
     <use xlink:href="#DejaVuSans-20" x="248.828125"/>
     <use xlink:href="#DejaVuSans-63" x="280.615234"/>
     <use xlink:href="#DejaVuSans-6f" x="335.595703"/>
     <use xlink:href="#DejaVuSans-6e" x="396.777344"/>
     <use xlink:href="#DejaVuSans-74" x="460.15625"/>
     <use xlink:href="#DejaVuSans-65" x="499.365234"/>
     <use xlink:href="#DejaVuSans-78" x="559.138672"/>
     <use xlink:href="#DejaVuSans-74" x="618.318359"/>
    </g>
   </g>
  </g>
  <g id="axes_5">
   <g id="patch_14">
    <path d="M 267.67 338.04 
L 407.394 338.04 
L 407.394 202.476 
L 267.67 202.476 
z
" style="fill: #ffffff"/>
   </g>
   <g id="PolyCollection_17">
    <path d="M -3.04525 293.96001 
L -3.04525 319.332168 
L 14.42025 322.065138 
L 31.88575 319.375548 
L 49.35125 324.619164 
L 66.81675 323.670216 
L 84.28225 324.933672 
L 101.74775 325.974804 
L 119.21325 322.200702 
L 136.67875 325.025856 
L 154.14425 332.254128 
L 171.60975 333.588078 
L 189.07525 335.757102 
L 206.54075 331.825746 
L 224.00625 336.02823 
L 241.47175 339.574584 
L 258.93725 344.14038 
L 276.40275 350.441395 
L 293.86825 350.91858 
L 311.33375 347.209549 
L 328.79925 347.301732 
L 346.26475 344.8182 
L 363.73025 340.930224 
L 381.19575 324.163669 
L 398.66125 318.540474 
L 416.12675 314.202426 
L 433.59225 312.076783 
L 451.05775 306.453588 
L 468.52325 301.166592 
L 485.98875 300.624336 
L 503.45425 296.985798 
L 520.91975 295.879596 
L 538.38525 293.168316 
L 555.85075 294.523956 
L 573.31625 292.241058 
L 590.78175 291.812676 
L 608.24725 292.376622 
L 625.71275 292.533876 
L 643.17825 290.863728 
L 660.64375 292.083804 
L 678.10925 316.507014 
L 678.10925 286.053917 
L 678.10925 286.053917 
L 660.64375 274.32492 
L 643.17825 275.929998 
L 625.71275 276.765072 
L 608.24725 276.857256 
L 590.78175 275.816124 
L 573.31625 275.951688 
L 555.85075 275.951688 
L 538.38525 276.35838 
L 520.91975 277.69233 
L 503.45425 278.527404 
L 485.98875 280.810302 
L 468.52325 280.788612 
L 451.05775 285.12666 
L 433.59225 290.413656 
L 416.12675 291.90486 
L 398.66125 296.828544 
L 381.19575 302.229414 
L 363.73025 313.63848 
L 346.26475 316.485324 
L 328.79925 317.434272 
L 311.33375 318.090402 
L 293.86825 317.976528 
L 276.40275 318.247656 
L 258.93725 312.825096 
L 241.47175 307.651974 
L 224.00625 306.83859 
L 206.54075 305.233512 
L 189.07525 306.16077 
L 171.60975 302.657796 
L 154.14425 304.940694 
L 136.67875 299.317499 
L 119.21325 298.840314 
L 101.74775 300.7599 
L 84.28225 302.07216 
L 66.81675 299.111442 
L 49.35125 299.903136 
L 31.88575 296.107344 
L 14.42025 298.547496 
L -3.04525 293.96001 
z
" clip-path="url(#pc38c7e649d)" style="fill: #eba071; fill-opacity: 0.1; stroke: #eba071; stroke-opacity: 0.1; stroke-width: 1.5"/>
   </g>
   <g id="PolyCollection_18">
    <path d="M -3.04525 290.413656 
L -3.04525 313.68186 
L 14.42025 312.597348 
L 31.88575 313.68186 
L 49.35125 318.063289 
L 66.81675 320.167242 
L 84.28225 315.964758 
L 101.74775 316.978777 
L 119.21325 318.811602 
L 136.67875 319.055617 
L 154.14425 320.411257 
L 171.60975 322.200702 
L 189.07525 325.768747 
L 206.54075 325.296984 
L 224.00625 325.318674 
L 241.47175 322.650775 
L 258.93725 325.703676 
L 276.40275 330.719544 
L 293.86825 334.808154 
L 311.33375 333.024132 
L 328.79925 335.193156 
L 346.26475 330.719544 
L 363.73025 318.133782 
L 381.19575 308.487048 
L 398.66125 309.343812 
L 416.12675 310.97058 
L 433.59225 311.491146 
L 451.05775 313.182985 
L 468.52325 310.656072 
L 485.98875 315.400812 
L 503.45425 312.440094 
L 520.91975 313.410732 
L 538.38525 315.400812 
L 555.85075 312.868476 
L 573.31625 312.575658 
L 590.78175 313.66017 
L 608.24725 315.579756 
L 625.71275 321.365628 
L 643.17825 319.489422 
L 660.64375 323.14965 
L 678.10925 345.132708 
L 678.10925 303.47118 
L 678.10925 303.47118 
L 660.64375 292.447116 
L 643.17825 293.824446 
L 625.71275 296.129034 
L 608.24725 291.27042 
L 590.78175 289.372524 
L 573.31625 288.401886 
L 555.85075 286.118988 
L 538.38525 288.53745 
L 520.91975 289.486398 
L 503.45425 290.299782 
L 485.98875 291.134856 
L 468.52325 288.016884 
L 451.05775 290.050344 
L 433.59225 288.830268 
L 416.12675 288.808578 
L 398.66125 288.401886 
L 381.19575 288.830268 
L 363.73025 295.066212 
L 346.26475 303.47118 
L 328.79925 308.828669 
L 311.33375 305.233512 
L 293.86825 304.669566 
L 276.40275 302.728289 
L 258.93725 297.961859 
L 241.47175 297.213546 
L 224.00625 298.162494 
L 206.54075 296.67129 
L 189.07525 299.675388 
L 171.60975 297.3708 
L 154.14425 296.01516 
L 136.67875 294.795084 
L 119.21325 293.396064 
L 101.74775 294.502266 
L 84.28225 293.96001 
L 66.81675 296.242908 
L 49.35125 293.30388 
L 31.88575 289.779216 
L 14.42025 288.808578 
L -3.04525 290.413656 
z
" clip-path="url(#pc38c7e649d)" style="fill: #808080; fill-opacity: 0.1; stroke: #808080; stroke-opacity: 0.1; stroke-width: 1.5"/>
   </g>
   <g id="PolyCollection_19"/>
   <g id="PolyCollection_20">
    <defs>
     <path id="me26f0ac8c6" d="M 608.24725 -373.524 
L 608.24725 -370.1349 
L 625.71275 -370.1349 
L 643.17825 -370.1349 
L 643.17825 -373.524 
L 643.17825 -373.524 
L 625.71275 -373.524 
L 608.24725 -373.524 
z
" style="stroke: #000000; stroke-width: 1.5"/>
    </defs>
    <g clip-path="url(#pc38c7e649d)">
     <use xlink:href="#me26f0ac8c6" x="0" y="576" style="stroke: #000000; stroke-width: 1.5"/>
    </g>
   </g>
   <g id="matplotlib.axis_9">
    <g id="xtick_13">
     <g id="line2d_37">
      <g>
       <use xlink:href="#m3ad318fbca" x="267.67" y="338.04" style="stroke: #000000; stroke-width: 1.875"/>
      </g>
     </g>
    </g>
    <g id="xtick_14">
     <g id="line2d_38">
      <g>
       <use xlink:href="#m3ad318fbca" x="337.532" y="338.04" style="stroke: #000000; stroke-width: 1.875"/>
      </g>
     </g>
    </g>
    <g id="xtick_15">
     <g id="line2d_39">
      <g>
       <use xlink:href="#m3ad318fbca" x="407.394" y="338.04" style="stroke: #000000; stroke-width: 1.875"/>
      </g>
     </g>
    </g>
   </g>
   <g id="matplotlib.axis_10">
    <g id="ytick_13">
     <g id="line2d_40">
      <g>
       <use xlink:href="#mf38abcdbf2" x="267.67" y="338.04" style="stroke: #000000; stroke-width: 1.875"/>
      </g>
     </g>
     <g id="text_22">
      <!-- −1 -->
      <g transform="translate(242.277852 343.68184)scale(0.1485 -0.1485)">
       <use xlink:href="#DejaVuSans-2212"/>
       <use xlink:href="#DejaVuSans-31" x="83.789062"/>
      </g>
     </g>
    </g>
    <g id="ytick_14">
     <g id="line2d_41">
      <g>
       <use xlink:href="#mf38abcdbf2" x="267.67" y="270.258" style="stroke: #000000; stroke-width: 1.875"/>
      </g>
     </g>
     <g id="text_23">
      <!-- 0 -->
      <g transform="translate(254.721687 275.89984)scale(0.1485 -0.1485)">
       <use xlink:href="#DejaVuSans-30"/>
      </g>
     </g>
    </g>
    <g id="ytick_15">
     <g id="line2d_42">
      <g>
       <use xlink:href="#mf38abcdbf2" x="267.67" y="202.476" style="stroke: #000000; stroke-width: 1.875"/>
      </g>
     </g>
     <g id="text_24">
      <!-- 1 -->
      <g transform="translate(254.721687 208.11784)scale(0.1485 -0.1485)">
       <use xlink:href="#DejaVuSans-31"/>
      </g>
     </g>
    </g>
   </g>
   <g id="line2d_43">
    <path d="M -1 307.183252 
L 14.42025 309.717969 
L 31.88575 307.680781 
L 49.35125 312.178795 
L 66.81675 311.104789 
L 84.28225 314.074996 
L 101.74775 313.125031 
L 119.21325 309.908098 
L 136.67875 311.942235 
L 154.14425 318.079896 
L 171.60975 317.807751 
L 189.07525 321.189395 
L 206.54075 319.294549 
L 224.00625 322.348806 
L 241.47175 324.146385 
L 258.93725 328.205849 
L 276.40275 333.694835 
L 293.86825 334.328258 
L 311.33375 333.032266 
L 328.79925 332.463236 
L 346.26475 330.39758 
L 363.73025 327.952005 
L 381.19575 313.398871 
L 398.66125 307.565891 
L 416.12675 302.087749 
L 433 300.952592 
" clip-path="url(#pc38c7e649d)" style="fill: none; stroke: #eba071; stroke-width: 2.25; stroke-linecap: square"/>
   </g>
   <g id="line2d_44">
    <path d="M -1 301.403871 
L 14.42025 301.271315 
L 31.88575 302.495458 
L 49.35125 306.387501 
L 66.81675 308.022063 
L 84.28225 305.139973 
L 101.74775 305.831349 
L 119.21325 305.940139 
L 136.67875 307.087689 
L 154.14425 308.163389 
L 171.60975 309.830826 
L 189.07525 312.727829 
L 206.54075 311.30644 
L 224.00625 312.050009 
L 241.47175 309.665438 
L 258.93725 311.146136 
L 276.40275 317.18314 
L 293.86825 320.284844 
L 311.33375 319.442992 
L 328.79925 322.329149 
L 346.26475 316.683925 
L 363.73025 306.7298 
L 381.19575 299.378503 
L 398.66125 299.141266 
L 416.12675 299.76486 
L 433 300.187556 
" clip-path="url(#pc38c7e649d)" style="fill: none; stroke: #808080; stroke-width: 2.25; stroke-linecap: square"/>
   </g>
   <g id="line2d_45">
    <path d="M -1 270.258 
L 14.42025 270.258 
L 31.88575 270.258 
L 49.35125 270.258 
L 66.81675 270.258 
L 84.28225 270.258 
L 101.74775 270.258 
L 119.21325 270.258 
L 136.67875 270.258 
L 154.14425 270.258 
L 171.60975 270.258 
L 189.07525 270.258 
L 206.54075 270.258 
L 224.00625 270.258 
L 241.47175 270.258 
L 258.93725 270.258 
L 276.40275 270.258 
L 293.86825 270.258 
L 311.33375 270.258 
L 328.79925 270.258 
L 346.26475 270.258 
L 363.73025 270.258 
L 381.19575 270.258 
L 398.66125 270.258 
L 416.12675 270.258 
L 433 270.258 
" clip-path="url(#pc38c7e649d)" style="fill: none; stroke-dasharray: 8.325,3.6; stroke-dashoffset: 0; stroke: #000000; stroke-opacity: 0.5; stroke-width: 2.25"/>
   </g>
   <g id="patch_15">
    <path d="M 267.67 338.04 
L 267.67 202.476 
" style="fill: none; stroke: #000000; stroke-width: 1.875; stroke-linejoin: miter; stroke-linecap: square"/>
   </g>
   <g id="patch_16">
    <path d="M 267.67 338.04 
L 407.394 338.04 
" style="fill: none; stroke: #000000; stroke-width: 1.875; stroke-linejoin: miter; stroke-linecap: square"/>
   </g>
  </g>
  <g id="axes_6">
   <g id="patch_17">
    <path d="M 267.67 505.5 
L 407.394 505.5 
L 407.394 369.936 
L 267.67 369.936 
z
" style="fill: #ffffff"/>
   </g>
   <g id="PolyCollection_21">
    <path d="M -3.04525 426.466188 
L -3.04525 443.048376 
L 14.42025 444.447397 
L 31.88575 446.280222 
L 49.35125 446.437476 
L 66.81675 448.178118 
L 84.28225 449.398194 
L 101.74775 449.24094 
L 119.21325 451.160526 
L 136.67875 455.905266 
L 154.14425 453.578988 
L 171.60975 453.058422 
L 189.07525 450.867708 
L 206.54075 448.313682 
L 224.00625 451.97391 
L 241.47175 454.68519 
L 258.93725 455.36301 
L 276.40275 453.736242 
L 293.86825 453.32955 
L 311.33375 453.036732 
L 328.79925 459.950496 
L 346.26475 466.750386 
L 363.73025 483.945324 
L 381.19575 495.782772 
L 398.66125 499.236943 
L 416.12675 488.012244 
L 433.59225 479.222274 
L 451.05775 475.947048 
L 468.52325 474.070842 
L 485.98875 468.91941 
L 503.45425 462.954594 
L 520.91975 454.414062 
L 538.38525 445.716276 
L 555.85075 443.14056 
L 573.31625 441.513792 
L 590.78175 443.547252 
L 608.24725 441.78492 
L 625.71275 441.242664 
L 643.17825 443.975634 
L 660.64375 444.51789 
L 678.10925 453.644059 
L 678.10925 423.554273 
L 678.10925 423.554273 
L 660.64375 427.664574 
L 643.17825 430.511418 
L 625.71275 427.279572 
L 608.24725 426.715626 
L 590.78175 429.020214 
L 573.31625 427.393446 
L 555.85075 427.800138 
L 538.38525 429.448596 
L 520.91975 435.527286 
L 503.45425 441.242664 
L 485.98875 443.79669 
L 468.52325 449.739816 
L 451.05775 449.625942 
L 433.59225 455.411813 
L 416.12675 460.357188 
L 398.66125 468.062646 
L 381.19575 466.300314 
L 363.73025 456.404142 
L 346.26475 443.276124 
L 328.79925 438.103002 
L 311.33375 434.98503 
L 293.86825 433.043753 
L 276.40275 434.692212 
L 258.93725 434.578338 
L 241.47175 435.391722 
L 224.00625 431.053674 
L 206.54075 430.533108 
L 189.07525 432.92988 
L 171.60975 436.31898 
L 154.14425 436.31898 
L 136.67875 436.476234 
L 119.21325 432.024312 
L 101.74775 429.698034 
L 84.28225 428.88465 
L 66.81675 427.236192 
L 49.35125 427.935702 
L 31.88575 429.041904 
L 14.42025 427.664574 
L -3.04525 426.466188 
z
" clip-path="url(#pdc7e0b26b5)" style="fill: #eba071; fill-opacity: 0.1; stroke: #eba071; stroke-opacity: 0.1; stroke-width: 1.5"/>
   </g>
   <g id="PolyCollection_22">
    <path d="M -3.04525 419.823552 
L -3.04525 438.688638 
L 14.42025 440.42928 
L 31.88575 439.637586 
L 49.35125 440.158152 
L 66.81675 443.004996 
L 84.28225 445.716276 
L 101.74775 445.466838 
L 119.21325 445.466838 
L 136.67875 448.427556 
L 154.14425 448.291992 
L 171.60975 447.635862 
L 189.07525 445.645783 
L 206.54075 448.991502 
L 224.00625 450.753834 
L 241.47175 452.516166 
L 258.93725 447.478608 
L 276.40275 447.20748 
L 293.86825 445.466838 
L 311.33375 446.665224 
L 328.79925 449.26263 
L 346.26475 454.793641 
L 363.73025 452.901168 
L 381.19575 450.054324 
L 398.66125 451.681092 
L 416.12675 450.368832 
L 433.59225 452.245038 
L 451.05775 448.991502 
L 468.52325 445.17402 
L 485.98875 444.225072 
L 503.45425 441.649356 
L 520.91975 441.242664 
L 538.38525 441.264354 
L 555.85075 440.022588 
L 573.31625 441.535482 
L 590.78175 442.142809 
L 608.24725 442.056048 
L 625.71275 444.225072 
L 643.17825 441.535482 
L 660.64375 441.963864 
L 678.10925 456.290268 
L 678.10925 422.220324 
L 678.10925 422.220324 
L 660.64375 419.237916 
L 643.17825 424.703856 
L 625.71275 427.686264 
L 608.24725 426.287244 
L 590.78175 423.733218 
L 573.31625 423.46209 
L 555.85075 423.348216 
L 538.38525 422.534832 
L 520.91975 424.682166 
L 503.45425 425.359986 
L 485.98875 428.20683 
L 468.52325 428.88465 
L 451.05775 430.511418 
L 433.59225 433.379952 
L 416.12675 431.053674 
L 398.66125 432.702132 
L 381.19575 431.57424 
L 363.73025 431.731494 
L 346.26475 434.3289 
L 328.79925 428.364084 
L 311.33375 427.957392 
L 293.86825 423.733218 
L 276.40275 428.635212 
L 258.93725 431.61762 
L 241.47175 431.753184 
L 224.00625 430.2186 
L 206.54075 427.664574 
L 189.07525 427.279572 
L 171.60975 430.91811 
L 154.14425 432.566568 
L 136.67875 431.753184 
L 119.21325 428.499648 
L 101.74775 427.236192 
L 84.28225 429.177468 
L 66.81675 426.466188 
L 49.35125 421.293066 
L 31.88575 422.941524 
L 14.42025 421.585884 
L -3.04525 419.823552 
z
" clip-path="url(#pdc7e0b26b5)" style="fill: #808080; fill-opacity: 0.1; stroke: #808080; stroke-opacity: 0.1; stroke-width: 1.5"/>
   </g>
   <g id="PolyCollection_23">
    <defs>
     <path id="m87fb2eaa96" d="M 363.73025 -206.064 
L 363.73025 -202.6749 
L 381.19575 -202.6749 
L 398.66125 -202.6749 
L 416.12675 -202.6749 
L 433.59225 -202.6749 
L 451.05775 -202.6749 
L 468.52325 -202.6749 
L 485.98875 -202.6749 
L 503.45425 -202.6749 
L 503.45425 -206.064 
L 503.45425 -206.064 
L 485.98875 -206.064 
L 468.52325 -206.064 
L 451.05775 -206.064 
L 433.59225 -206.064 
L 416.12675 -206.064 
L 398.66125 -206.064 
L 381.19575 -206.064 
L 363.73025 -206.064 
z
" style="stroke: #000000; stroke-width: 1.5"/>
    </defs>
    <g clip-path="url(#pdc7e0b26b5)">
     <use xlink:href="#m87fb2eaa96" x="0" y="576" style="stroke: #000000; stroke-width: 1.5"/>
    </g>
   </g>
   <g id="PolyCollection_24"/>
   <g id="matplotlib.axis_11">
    <g id="xtick_16">
     <g id="line2d_46">
      <g>
       <use xlink:href="#m3ad318fbca" x="267.67" y="505.5" style="stroke: #000000; stroke-width: 1.875"/>
      </g>
     </g>
     <g id="text_25">
      <!-- -.2 -->
      <g transform="translate(257.907285 520.28368)scale(0.1485 -0.1485)">
       <use xlink:href="#DejaVuSans-2d"/>
       <use xlink:href="#DejaVuSans-2e" x="36.083984"/>
       <use xlink:href="#DejaVuSans-32" x="67.871094"/>
      </g>
     </g>
    </g>
    <g id="xtick_17">
     <g id="line2d_47">
      <g>
       <use xlink:href="#m3ad318fbca" x="337.532" y="505.5" style="stroke: #000000; stroke-width: 1.875"/>
      </g>
     </g>
     <g id="text_26">
      <!-- 0 -->
      <g transform="translate(332.807844 520.28368)scale(0.1485 -0.1485)">
       <use xlink:href="#DejaVuSans-30"/>
      </g>
     </g>
    </g>
    <g id="xtick_18">
     <g id="line2d_48">
      <g>
       <use xlink:href="#m3ad318fbca" x="407.394" y="505.5" style="stroke: #000000; stroke-width: 1.875"/>
      </g>
     </g>
     <g id="text_27">
      <!-- .2 -->
      <g transform="translate(400.310086 520.28368)scale(0.1485 -0.1485)">
       <use xlink:href="#DejaVuSans-2e"/>
       <use xlink:href="#DejaVuSans-32" x="31.787109"/>
      </g>
     </g>
    </g>
    <g id="text_28">
     <!-- time from stim -->
     <g transform="translate(277.703375 539.681484)scale(0.162 -0.162)">
      <use xlink:href="#DejaVuSans-74"/>
      <use xlink:href="#DejaVuSans-69" x="39.208984"/>
      <use xlink:href="#DejaVuSans-6d" x="66.992188"/>
      <use xlink:href="#DejaVuSans-65" x="164.404297"/>
      <use xlink:href="#DejaVuSans-20" x="225.927734"/>
      <use xlink:href="#DejaVuSans-66" x="257.714844"/>
      <use xlink:href="#DejaVuSans-72" x="292.919922"/>
      <use xlink:href="#DejaVuSans-6f" x="331.783203"/>
      <use xlink:href="#DejaVuSans-6d" x="392.964844"/>
      <use xlink:href="#DejaVuSans-20" x="490.376953"/>
      <use xlink:href="#DejaVuSans-73" x="522.164062"/>
      <use xlink:href="#DejaVuSans-74" x="574.263672"/>
      <use xlink:href="#DejaVuSans-69" x="613.472656"/>
      <use xlink:href="#DejaVuSans-6d" x="641.255859"/>
     </g>
     <!-- (sec) -->
     <g transform="translate(317.554109 557.821941)scale(0.162 -0.162)">
      <use xlink:href="#DejaVuSans-28"/>
      <use xlink:href="#DejaVuSans-73" x="39.013672"/>
      <use xlink:href="#DejaVuSans-65" x="91.113281"/>
      <use xlink:href="#DejaVuSans-63" x="152.636719"/>
      <use xlink:href="#DejaVuSans-29" x="207.617188"/>
     </g>
    </g>
   </g>
   <g id="matplotlib.axis_12">
    <g id="ytick_16">
     <g id="line2d_49">
      <g>
       <use xlink:href="#mf38abcdbf2" x="267.67" y="505.5" style="stroke: #000000; stroke-width: 1.875"/>
      </g>
     </g>
     <g id="text_29">
      <!-- −1 -->
      <g transform="translate(242.277852 511.14184)scale(0.1485 -0.1485)">
       <use xlink:href="#DejaVuSans-2212"/>
       <use xlink:href="#DejaVuSans-31" x="83.789062"/>
      </g>
     </g>
    </g>
    <g id="ytick_17">
     <g id="line2d_50">
      <g>
       <use xlink:href="#mf38abcdbf2" x="267.67" y="437.718" style="stroke: #000000; stroke-width: 1.875"/>
      </g>
     </g>
     <g id="text_30">
      <!-- 0 -->
      <g transform="translate(254.721687 443.35984)scale(0.1485 -0.1485)">
       <use xlink:href="#DejaVuSans-30"/>
      </g>
     </g>
    </g>
    <g id="ytick_18">
     <g id="line2d_51">
      <g>
       <use xlink:href="#mf38abcdbf2" x="267.67" y="369.936" style="stroke: #000000; stroke-width: 1.875"/>
      </g>
     </g>
     <g id="text_31">
      <!-- 1 -->
      <g transform="translate(254.721687 375.57784)scale(0.1485 -0.1485)">
       <use xlink:href="#DejaVuSans-31"/>
      </g>
     </g>
    </g>
   </g>
   <g id="line2d_52">
    <path d="M -1 435.25329 
L 14.42025 436.217984 
L 31.88575 437.866781 
L 49.35125 437.764431 
L 66.81675 438.07555 
L 84.28225 438.569342 
L 101.74775 438.876055 
L 119.21325 441.137941 
L 136.67875 446.183294 
L 154.14425 445.003209 
L 171.60975 444.127127 
L 189.07525 441.737134 
L 206.54075 439.304777 
L 224.00625 441.524637 
L 241.47175 445.072008 
L 258.93725 444.949662 
L 276.40275 443.826514 
L 293.86825 442.474602 
L 311.33375 444.020031 
L 328.79925 448.588538 
L 346.26475 454.732638 
L 363.73025 470.476024 
L 381.19575 481.533979 
L 398.66125 483.841956 
L 416.12675 473.910877 
L 433 467.586477 
" clip-path="url(#pdc7e0b26b5)" style="fill: none; stroke: #eba071; stroke-width: 2.25; stroke-linecap: square"/>
   </g>
   <g id="line2d_53">
    <path d="M -1 429.096202 
L 14.42025 431.176698 
L 31.88575 431.060791 
L 49.35125 430.697479 
L 66.81675 435.205321 
L 84.28225 437.442466 
L 101.74775 436.43082 
L 119.21325 437.243865 
L 136.67875 440.297105 
L 154.14425 440.371326 
L 171.60975 439.393232 
L 189.07525 437.113385 
L 206.54075 438.47987 
L 224.00625 440.195093 
L 241.47175 442.485108 
L 258.93725 439.767728 
L 276.40275 438.480886 
L 293.86825 434.973507 
L 311.33375 437.09305 
L 328.79925 438.358879 
L 346.26475 444.450786 
L 363.73025 441.553444 
L 381.19575 440.999327 
L 398.66125 441.971659 
L 416.12675 441.004749 
L 433 442.962379 
" clip-path="url(#pdc7e0b26b5)" style="fill: none; stroke: #808080; stroke-width: 2.25; stroke-linecap: square"/>
   </g>
   <g id="line2d_54">
    <path d="M -1 437.718 
L 14.42025 437.718 
L 31.88575 437.718 
L 49.35125 437.718 
L 66.81675 437.718 
L 84.28225 437.718 
L 101.74775 437.718 
L 119.21325 437.718 
L 136.67875 437.718 
L 154.14425 437.718 
L 171.60975 437.718 
L 189.07525 437.718 
L 206.54075 437.718 
L 224.00625 437.718 
L 241.47175 437.718 
L 258.93725 437.718 
L 276.40275 437.718 
L 293.86825 437.718 
L 311.33375 437.718 
L 328.79925 437.718 
L 346.26475 437.718 
L 363.73025 437.718 
L 381.19575 437.718 
L 398.66125 437.718 
L 416.12675 437.718 
L 433 437.718 
" clip-path="url(#pdc7e0b26b5)" style="fill: none; stroke-dasharray: 8.325,3.6; stroke-dashoffset: 0; stroke: #000000; stroke-opacity: 0.5; stroke-width: 2.25"/>
   </g>
   <g id="patch_18">
    <path d="M 267.67 505.5 
L 267.67 369.936 
" style="fill: none; stroke: #000000; stroke-width: 1.875; stroke-linejoin: miter; stroke-linecap: square"/>
   </g>
   <g id="patch_19">
    <path d="M 267.67 505.5 
L 407.394 505.5 
" style="fill: none; stroke: #000000; stroke-width: 1.875; stroke-linejoin: miter; stroke-linecap: square"/>
   </g>
  </g>
 </g>
 <defs>
  <clipPath id="p6e80fdba6c">
   <rect x="77.97" y="35.016" width="139.724" height="135.564"/>
  </clipPath>
  <clipPath id="p8198f8454f">
   <rect x="77.97" y="202.476" width="139.724" height="135.564"/>
  </clipPath>
  <clipPath id="pd9eeddb10c">
   <rect x="77.97" y="369.936" width="139.724" height="135.564"/>
  </clipPath>
  <clipPath id="p753cb07e6f">
   <rect x="267.67" y="35.016" width="139.724" height="135.564"/>
  </clipPath>
  <clipPath id="pc38c7e649d">
   <rect x="267.67" y="202.476" width="139.724" height="135.564"/>
  </clipPath>
  <clipPath id="pdc7e0b26b5">
   <rect x="267.67" y="369.936" width="139.724" height="135.564"/>
  </clipPath>
 </defs>
</svg>
