<?xml version="1.0" encoding="utf-8" standalone="no"?>
<!DOCTYPE svg PUBLIC "-//W3C//DTD SVG 1.1//EN"
  "http://www.w3.org/Graphics/SVG/1.1/DTD/svg11.dtd">
<svg xmlns:xlink="http://www.w3.org/1999/xlink" width="432pt" height="576pt" viewBox="0 0 432 576" xmlns="http://www.w3.org/2000/svg" version="1.1">
 <metadata>
  <rdf:RDF xmlns:dc="http://purl.org/dc/elements/1.1/" xmlns:cc="http://creativecommons.org/ns#" xmlns:rdf="http://www.w3.org/1999/02/22-rdf-syntax-ns#">
   <cc:Work>
    <dc:type rdf:resource="http://purl.org/dc/dcmitype/StillImage"/>
    <dc:date>2023-03-05T18:52:53.716405</dc:date>
    <dc:format>image/svg+xml</dc:format>
    <dc:creator>
     <cc:Agent>
      <dc:title>Matplotlib v3.5.2, https://matplotlib.org/</dc:title>
     </cc:Agent>
    </dc:creator>
   </cc:Work>
  </rdf:RDF>
 </metadata>
 <defs>
  <style type="text/css">*{stroke-linejoin: round; stroke-linecap: butt}</style>
 </defs>
 <g id="figure_1">
  <g id="patch_1">
   <path d="M 0 576 
L 432 576 
L 432 0 
L 0 0 
z
" style="fill: #ffffff"/>
  </g>
  <g id="axes_1">
   <g id="patch_2">
    <path d="M 77.97 170.58 
L 217.694 170.58 
L 217.694 35.016 
L 77.97 35.016 
z
" style="fill: #ffffff"/>
   </g>
   <g id="PolyCollection_1">
    <path d="M -192.74525 100.440994 
L -192.74525 105.704492 
L -175.27975 104.748314 
L -157.81425 105.102588 
L -140.34875 104.883878 
L -122.88325 104.883878 
L -105.41775 105.155006 
L -87.95225 105.599656 
L -70.48675 107.226424 
L -53.02125 105.554468 
L -35.55575 105.690032 
L -18.09025 105.606886 
L -0.62475 106.375082 
L 16.84075 105.690032 
L 34.30625 106.593792 
L 51.77175 106.006348 
L 69.23725 107.866286 
L 86.70275 106.517876 
L 104.16825 106.65344 
L 121.63375 106.64621 
L 139.09925 107.09086 
L 156.56475 108.287438 
L 174.03025 105.97562 
L 191.49575 103.114316 
L 208.96125 106.42027 
L 226.42675 106.63898 
L 243.89225 104.695896 
L 261.35775 104.289204 
L 278.82325 105.52374 
L 296.28875 105.704492 
L 313.75425 105.659304 
L 331.21975 104.876648 
L 348.68525 104.703126 
L 366.15075 103.566196 
L 383.61625 103.114316 
L 401.08175 102.270204 
L 418.54725 102.443726 
L 436.01275 102.526872 
L 453.47825 101.803864 
L 470.94375 103.295068 
L 488.40925 105.31949 
L 488.40925 90.58278 
L 488.40925 90.58278 
L 470.94375 93.429624 
L 453.47825 93.572418 
L 436.01275 94.528596 
L 418.54725 95.33475 
L 401.08175 94.65693 
L 383.61625 96.321656 
L 366.15075 97.37544 
L 348.68525 99.63484 
L 331.21975 100.395806 
L 313.75425 100.75731 
L 296.28875 101.20919 
L 278.82325 99.86078 
L 261.35775 98.50514 
L 243.89225 98.904602 
L 226.42675 99.318524 
L 208.96125 98.181594 
L 191.49575 94.935288 
L 174.03025 96.91633 
L 156.56475 99.763174 
L 139.09925 100.31266 
L 121.63375 101.939428 
L 104.16825 101.88701 
L 86.70275 101.849052 
L 69.23725 102.481684 
L 51.77175 100.712122 
L 34.30625 101.577924 
L 16.84075 100.5386 
L -0.62475 101.351984 
L -18.09025 101.21642 
L -35.55575 100.486182 
L -53.02125 100.215054 
L -70.48675 101.397172 
L -87.95225 100.388576 
L -105.41775 100.628976 
L -122.88325 100.07949 
L -140.34875 100.403036 
L -157.81425 100.945292 
L -175.27975 99.815592 
L -192.74525 100.440994 
z
" clip-path="url(#pe86dd815ce)" style="fill: #eba071; fill-opacity: 0.1; stroke: #eba071; stroke-opacity: 0.1; stroke-width: 1.5"/>
   </g>
   <g id="PolyCollection_2">
    <path d="M -192.74525 99.002208 
L -192.74525 105.840056 
L -175.27975 104.83146 
L -157.81425 104.921836 
L -140.34875 105.0574 
L -122.88325 105.51651 
L -105.41775 106.239518 
L -87.95225 106.051536 
L -70.48675 105.840056 
L -53.02125 106.382312 
L -35.55575 105.794868 
L -18.09025 106.375082 
L -0.62475 106.63898 
L 16.84075 106.156372 
L 34.30625 106.058766 
L 51.77175 105.606886 
L 69.23725 106.375082 
L 86.70275 105.825596 
L 104.16825 105.870784 
L 121.63375 110.442002 
L 139.09925 139.362322 
L 156.56475 164.886312 
L 174.03025 177.907686 
L 191.49575 163.424028 
L 208.96125 148.490298 
L 226.42675 118.048046 
L 243.89225 109.259884 
L 261.35775 107.3168 
L 278.82325 108.084996 
L 296.28875 108.22779 
L 313.75425 107.09086 
L 331.21975 106.736586 
L 348.68525 105.73522 
L 366.15075 105.147776 
L 383.61625 105.155006 
L 401.08175 105.832826 
L 418.54725 105.96839 
L 436.01275 106.096724 
L 453.47825 105.28334 
L 470.94375 106.548604 
L 488.40925 108.272978 
L 488.40925 96.961518 
L 488.40925 96.961518 
L 470.94375 100.169866 
L 453.47825 100.809728 
L 436.01275 101.563464 
L 418.54725 100.719352 
L 401.08175 100.621746 
L 383.61625 100.07949 
L 366.15075 99.544464 
L 348.68525 100.628976 
L 331.21975 101.713488 
L 313.75425 101.803864 
L 296.28875 102.376848 
L 278.82325 101.66107 
L 261.35775 101.758676 
L 243.89225 101.751446 
L 226.42675 106.006348 
L 208.96125 121.771537 
L 191.49575 129.294436 
L 174.03025 135.929842 
L 156.56475 130.733222 
L 139.09925 117.68112 
L 121.63375 102.933564 
L 104.16825 100.76454 
L 86.70275 100.583788 
L 69.23725 100.674164 
L 51.77175 100.486182 
L 34.30625 101.351984 
L 16.84075 101.389942 
L -0.62475 101.261608 
L -18.09025 101.299566 
L -35.55575 100.75731 
L -53.02125 101.306796 
L -70.48675 101.035668 
L -87.95225 100.486182 
L -105.41775 100.900104 
L -122.88325 100.471722 
L -140.34875 100.169866 
L -157.81425 100.260242 
L -175.27975 100.07949 
L -192.74525 99.002208 
z
" clip-path="url(#pe86dd815ce)" style="fill: #808080; fill-opacity: 0.1; stroke: #808080; stroke-opacity: 0.1; stroke-width: 1.5"/>
   </g>
   <g id="PolyCollection_3"/>
   <g id="PolyCollection_4">
    <defs>
     <path id="m3033cb1406" d="M 139.09925 -540.984 
L 139.09925 -537.5949 
L 156.56475 -537.5949 
L 174.03025 -537.5949 
L 191.49575 -537.5949 
L 208.96125 -537.5949 
L 226.42675 -537.5949 
L 401.08175 -537.5949 
L 436.01275 -537.5949 
L 453.47825 -537.5949 
L 453.47825 -540.984 
L 453.47825 -540.984 
L 436.01275 -540.984 
L 401.08175 -540.984 
L 226.42675 -540.984 
L 208.96125 -540.984 
L 191.49575 -540.984 
L 174.03025 -540.984 
L 156.56475 -540.984 
L 139.09925 -540.984 
z
" style="stroke: #000000; stroke-width: 1.5"/>
    </defs>
    <g clip-path="url(#pe86dd815ce)">
     <use xlink:href="#m3033cb1406" x="0" y="576" style="stroke: #000000; stroke-width: 1.5"/>
    </g>
   </g>
   <g id="matplotlib.axis_1">
    <g id="xtick_1">
     <g id="line2d_1">
      <defs>
       <path id="m225ab9c7cb" d="M 0 0 
L 0 -9 
" style="stroke: #000000; stroke-width: 1.875"/>
      </defs>
      <g>
       <use xlink:href="#m225ab9c7cb" x="77.97" y="170.58" style="stroke: #000000; stroke-width: 1.875"/>
      </g>
     </g>
    </g>
    <g id="xtick_2">
     <g id="line2d_2">
      <g>
       <use xlink:href="#m225ab9c7cb" x="147.832" y="170.58" style="stroke: #000000; stroke-width: 1.875"/>
      </g>
     </g>
    </g>
    <g id="xtick_3">
     <g id="line2d_3">
      <g>
       <use xlink:href="#m225ab9c7cb" x="217.694" y="170.58" style="stroke: #000000; stroke-width: 1.875"/>
      </g>
     </g>
    </g>
   </g>
   <g id="matplotlib.axis_2">
    <g id="ytick_1">
     <g id="line2d_4">
      <defs>
       <path id="m5862c89533" d="M 0 0 
L 9 0 
" style="stroke: #000000; stroke-width: 1.875"/>
      </defs>
      <g>
       <use xlink:href="#m5862c89533" x="77.97" y="170.58" style="stroke: #000000; stroke-width: 1.875"/>
      </g>
     </g>
     <g id="text_1">
      <!-- −3 -->
      <g transform="translate(52.577852 176.22184)scale(0.1485 -0.1485)">
       <defs>
        <path id="DejaVuSans-2212" d="M 678 2272 
L 4684 2272 
L 4684 1741 
L 678 1741 
L 678 2272 
z
" transform="scale(0.015625)"/>
        <path id="DejaVuSans-33" d="M 2597 2516 
Q 3050 2419 3304 2112 
Q 3559 1806 3559 1356 
Q 3559 666 3084 287 
Q 2609 -91 1734 -91 
Q 1441 -91 1130 -33 
Q 819 25 488 141 
L 488 750 
Q 750 597 1062 519 
Q 1375 441 1716 441 
Q 2309 441 2620 675 
Q 2931 909 2931 1356 
Q 2931 1769 2642 2001 
Q 2353 2234 1838 2234 
L 1294 2234 
L 1294 2753 
L 1863 2753 
Q 2328 2753 2575 2939 
Q 2822 3125 2822 3475 
Q 2822 3834 2567 4026 
Q 2313 4219 1838 4219 
Q 1578 4219 1281 4162 
Q 984 4106 628 3988 
L 628 4550 
Q 988 4650 1302 4700 
Q 1616 4750 1894 4750 
Q 2613 4750 3031 4423 
Q 3450 4097 3450 3541 
Q 3450 3153 3228 2886 
Q 3006 2619 2597 2516 
z
" transform="scale(0.015625)"/>
       </defs>
       <use xlink:href="#DejaVuSans-2212"/>
       <use xlink:href="#DejaVuSans-33" x="83.789062"/>
      </g>
     </g>
    </g>
    <g id="ytick_2">
     <g id="line2d_5">
      <g>
       <use xlink:href="#m5862c89533" x="77.97" y="102.798" style="stroke: #000000; stroke-width: 1.875"/>
      </g>
     </g>
     <g id="text_2">
      <!-- 0 -->
      <g transform="translate(65.021687 108.43984)scale(0.1485 -0.1485)">
       <defs>
        <path id="DejaVuSans-30" d="M 2034 4250 
Q 1547 4250 1301 3770 
Q 1056 3291 1056 2328 
Q 1056 1369 1301 889 
Q 1547 409 2034 409 
Q 2525 409 2770 889 
Q 3016 1369 3016 2328 
Q 3016 3291 2770 3770 
Q 2525 4250 2034 4250 
z
M 2034 4750 
Q 2819 4750 3233 4129 
Q 3647 3509 3647 2328 
Q 3647 1150 3233 529 
Q 2819 -91 2034 -91 
Q 1250 -91 836 529 
Q 422 1150 422 2328 
Q 422 3509 836 4129 
Q 1250 4750 2034 4750 
z
" transform="scale(0.015625)"/>
       </defs>
       <use xlink:href="#DejaVuSans-30"/>
      </g>
     </g>
    </g>
    <g id="ytick_3">
     <g id="line2d_6">
      <g>
       <use xlink:href="#m5862c89533" x="77.97" y="35.016" style="stroke: #000000; stroke-width: 1.875"/>
      </g>
     </g>
     <g id="text_3">
      <!-- 3 -->
      <g transform="translate(65.021687 40.65784)scale(0.1485 -0.1485)">
       <use xlink:href="#DejaVuSans-33"/>
      </g>
     </g>
    </g>
    <g id="text_4">
     <!-- output  -->
     <g transform="translate(27.068302 132.088359)rotate(-90)scale(0.162 -0.162)">
      <defs>
       <path id="DejaVuSans-6f" d="M 1959 3097 
Q 1497 3097 1228 2736 
Q 959 2375 959 1747 
Q 959 1119 1226 758 
Q 1494 397 1959 397 
Q 2419 397 2687 759 
Q 2956 1122 2956 1747 
Q 2956 2369 2687 2733 
Q 2419 3097 1959 3097 
z
M 1959 3584 
Q 2709 3584 3137 3096 
Q 3566 2609 3566 1747 
Q 3566 888 3137 398 
Q 2709 -91 1959 -91 
Q 1206 -91 779 398 
Q 353 888 353 1747 
Q 353 2609 779 3096 
Q 1206 3584 1959 3584 
z
" transform="scale(0.015625)"/>
       <path id="DejaVuSans-75" d="M 544 1381 
L 544 3500 
L 1119 3500 
L 1119 1403 
Q 1119 906 1312 657 
Q 1506 409 1894 409 
Q 2359 409 2629 706 
Q 2900 1003 2900 1516 
L 2900 3500 
L 3475 3500 
L 3475 0 
L 2900 0 
L 2900 538 
Q 2691 219 2414 64 
Q 2138 -91 1772 -91 
Q 1169 -91 856 284 
Q 544 659 544 1381 
z
M 1991 3584 
L 1991 3584 
z
" transform="scale(0.015625)"/>
       <path id="DejaVuSans-74" d="M 1172 4494 
L 1172 3500 
L 2356 3500 
L 2356 3053 
L 1172 3053 
L 1172 1153 
Q 1172 725 1289 603 
Q 1406 481 1766 481 
L 2356 481 
L 2356 0 
L 1766 0 
Q 1100 0 847 248 
Q 594 497 594 1153 
L 594 3053 
L 172 3053 
L 172 3500 
L 594 3500 
L 594 4494 
L 1172 4494 
z
" transform="scale(0.015625)"/>
       <path id="DejaVuSans-70" d="M 1159 525 
L 1159 -1331 
L 581 -1331 
L 581 3500 
L 1159 3500 
L 1159 2969 
Q 1341 3281 1617 3432 
Q 1894 3584 2278 3584 
Q 2916 3584 3314 3078 
Q 3713 2572 3713 1747 
Q 3713 922 3314 415 
Q 2916 -91 2278 -91 
Q 1894 -91 1617 61 
Q 1341 213 1159 525 
z
M 3116 1747 
Q 3116 2381 2855 2742 
Q 2594 3103 2138 3103 
Q 1681 3103 1420 2742 
Q 1159 2381 1159 1747 
Q 1159 1113 1420 752 
Q 1681 391 2138 391 
Q 2594 391 2855 752 
Q 3116 1113 3116 1747 
z
" transform="scale(0.015625)"/>
       <path id="DejaVuSans-20" transform="scale(0.015625)"/>
      </defs>
      <use xlink:href="#DejaVuSans-6f"/>
      <use xlink:href="#DejaVuSans-75" x="61.181641"/>
      <use xlink:href="#DejaVuSans-74" x="124.560547"/>
      <use xlink:href="#DejaVuSans-70" x="163.769531"/>
      <use xlink:href="#DejaVuSans-75" x="227.246094"/>
      <use xlink:href="#DejaVuSans-74" x="290.625"/>
      <use xlink:href="#DejaVuSans-20" x="329.833984"/>
     </g>
     <!-- (pop #0) -->
     <g transform="translate(45.208758 138.874641)rotate(-90)scale(0.162 -0.162)">
      <defs>
       <path id="DejaVuSans-28" d="M 1984 4856 
Q 1566 4138 1362 3434 
Q 1159 2731 1159 2009 
Q 1159 1288 1364 580 
Q 1569 -128 1984 -844 
L 1484 -844 
Q 1016 -109 783 600 
Q 550 1309 550 2009 
Q 550 2706 781 3412 
Q 1013 4119 1484 4856 
L 1984 4856 
z
" transform="scale(0.015625)"/>
       <path id="DejaVuSans-23" d="M 3272 2816 
L 2363 2816 
L 2100 1772 
L 3016 1772 
L 3272 2816 
z
M 2803 4594 
L 2478 3297 
L 3391 3297 
L 3719 4594 
L 4219 4594 
L 3897 3297 
L 4872 3297 
L 4872 2816 
L 3775 2816 
L 3519 1772 
L 4513 1772 
L 4513 1294 
L 3397 1294 
L 3072 0 
L 2572 0 
L 2894 1294 
L 1978 1294 
L 1656 0 
L 1153 0 
L 1478 1294 
L 494 1294 
L 494 1772 
L 1594 1772 
L 1856 2816 
L 850 2816 
L 850 3297 
L 1978 3297 
L 2297 4594 
L 2803 4594 
z
" transform="scale(0.015625)"/>
       <path id="DejaVuSans-29" d="M 513 4856 
L 1013 4856 
Q 1481 4119 1714 3412 
Q 1947 2706 1947 2009 
Q 1947 1309 1714 600 
Q 1481 -109 1013 -844 
L 513 -844 
Q 928 -128 1133 580 
Q 1338 1288 1338 2009 
Q 1338 2731 1133 3434 
Q 928 4138 513 4856 
z
" transform="scale(0.015625)"/>
      </defs>
      <use xlink:href="#DejaVuSans-28"/>
      <use xlink:href="#DejaVuSans-70" x="39.013672"/>
      <use xlink:href="#DejaVuSans-6f" x="102.490234"/>
      <use xlink:href="#DejaVuSans-70" x="163.671875"/>
      <use xlink:href="#DejaVuSans-20" x="227.148438"/>
      <use xlink:href="#DejaVuSans-23" x="258.935547"/>
      <use xlink:href="#DejaVuSans-30" x="342.724609"/>
      <use xlink:href="#DejaVuSans-29" x="406.347656"/>
     </g>
    </g>
   </g>
   <g id="line2d_7">
    <path d="M -1 103.882246 
L -0.62475 103.893018 
L 16.84075 103.117705 
L 34.30625 104.011072 
L 51.77175 103.519765 
L 69.23725 104.916413 
L 86.70275 104.300388 
L 104.16825 104.21069 
L 121.63375 104.313493 
L 139.09925 103.767283 
L 156.56475 104.026662 
L 174.03025 101.585267 
L 191.49575 99.06694 
L 208.96125 102.436044 
L 226.42675 102.879225 
L 243.89225 101.889043 
L 261.35775 101.504719 
L 278.82325 102.64662 
L 296.28875 103.441929 
L 313.75425 103.109797 
L 331.21975 102.709544 
L 348.68525 102.196887 
L 366.15075 100.430036 
L 383.61625 99.722166 
L 401.08175 98.4264 
L 418.54725 98.960183 
L 433 98.650381 
" clip-path="url(#pe86dd815ce)" style="fill: none; stroke: #eba071; stroke-width: 2.25; stroke-linecap: square"/>
   </g>
   <g id="line2d_8">
    <path d="M -1 103.91197 
L -0.62475 103.910077 
L 16.84075 103.767734 
L 34.30625 103.866696 
L 51.77175 103.091948 
L 69.23725 103.40318 
L 86.70275 103.304106 
L 104.16825 103.210566 
L 121.63375 106.594809 
L 139.09925 128.58634 
L 156.56475 148.520461 
L 174.03025 157.789198 
L 191.49575 146.646628 
L 208.96125 134.12379 
L 226.42675 112.245681 
L 243.89225 105.259729 
L 261.35775 104.438211 
L 278.82325 104.772603 
L 296.28875 105.272269 
L 313.75425 104.40353 
L 331.21975 104.025871 
L 348.68525 103.167073 
L 366.15075 102.337534 
L 383.61625 102.646055 
L 401.08175 103.149224 
L 418.54725 103.35867 
L 433 103.726152 
" clip-path="url(#pe86dd815ce)" style="fill: none; stroke: #808080; stroke-width: 2.25; stroke-linecap: square"/>
   </g>
   <g id="line2d_9">
    <path d="M -1 102.798 
L -0.62475 102.798 
L 16.84075 102.798 
L 34.30625 102.798 
L 51.77175 102.798 
L 69.23725 102.798 
L 86.70275 102.798 
L 104.16825 102.798 
L 121.63375 102.798 
L 139.09925 102.798 
L 156.56475 102.798 
L 174.03025 102.798 
L 191.49575 102.798 
L 208.96125 102.798 
L 226.42675 102.798 
L 243.89225 102.798 
L 261.35775 102.798 
L 278.82325 102.798 
L 296.28875 102.798 
L 313.75425 102.798 
L 331.21975 102.798 
L 348.68525 102.798 
L 366.15075 102.798 
L 383.61625 102.798 
L 401.08175 102.798 
L 418.54725 102.798 
L 433 102.798 
" clip-path="url(#pe86dd815ce)" style="fill: none; stroke-dasharray: 8.325,3.6; stroke-dashoffset: 0; stroke: #000000; stroke-opacity: 0.5; stroke-width: 2.25"/>
   </g>
   <g id="patch_3">
    <path d="M 77.97 170.58 
L 77.97 35.016 
" style="fill: none; stroke: #000000; stroke-width: 1.875; stroke-linejoin: miter; stroke-linecap: square"/>
   </g>
   <g id="patch_4">
    <path d="M 77.97 170.58 
L 217.694 170.58 
" style="fill: none; stroke: #000000; stroke-width: 1.875; stroke-linejoin: miter; stroke-linecap: square"/>
   </g>
   <g id="text_5">
    <!-- location context -->
    <g transform="translate(82.587766 29.016)scale(0.162 -0.162)">
     <defs>
      <path id="DejaVuSans-6c" d="M 603 4863 
L 1178 4863 
L 1178 0 
L 603 0 
L 603 4863 
z
" transform="scale(0.015625)"/>
      <path id="DejaVuSans-63" d="M 3122 3366 
L 3122 2828 
Q 2878 2963 2633 3030 
Q 2388 3097 2138 3097 
Q 1578 3097 1268 2742 
Q 959 2388 959 1747 
Q 959 1106 1268 751 
Q 1578 397 2138 397 
Q 2388 397 2633 464 
Q 2878 531 3122 666 
L 3122 134 
Q 2881 22 2623 -34 
Q 2366 -91 2075 -91 
Q 1284 -91 818 406 
Q 353 903 353 1747 
Q 353 2603 823 3093 
Q 1294 3584 2113 3584 
Q 2378 3584 2631 3529 
Q 2884 3475 3122 3366 
z
" transform="scale(0.015625)"/>
      <path id="DejaVuSans-61" d="M 2194 1759 
Q 1497 1759 1228 1600 
Q 959 1441 959 1056 
Q 959 750 1161 570 
Q 1363 391 1709 391 
Q 2188 391 2477 730 
Q 2766 1069 2766 1631 
L 2766 1759 
L 2194 1759 
z
M 3341 1997 
L 3341 0 
L 2766 0 
L 2766 531 
Q 2569 213 2275 61 
Q 1981 -91 1556 -91 
Q 1019 -91 701 211 
Q 384 513 384 1019 
Q 384 1609 779 1909 
Q 1175 2209 1959 2209 
L 2766 2209 
L 2766 2266 
Q 2766 2663 2505 2880 
Q 2244 3097 1772 3097 
Q 1472 3097 1187 3025 
Q 903 2953 641 2809 
L 641 3341 
Q 956 3463 1253 3523 
Q 1550 3584 1831 3584 
Q 2591 3584 2966 3190 
Q 3341 2797 3341 1997 
z
" transform="scale(0.015625)"/>
      <path id="DejaVuSans-69" d="M 603 3500 
L 1178 3500 
L 1178 0 
L 603 0 
L 603 3500 
z
M 603 4863 
L 1178 4863 
L 1178 4134 
L 603 4134 
L 603 4863 
z
" transform="scale(0.015625)"/>
      <path id="DejaVuSans-6e" d="M 3513 2113 
L 3513 0 
L 2938 0 
L 2938 2094 
Q 2938 2591 2744 2837 
Q 2550 3084 2163 3084 
Q 1697 3084 1428 2787 
Q 1159 2491 1159 1978 
L 1159 0 
L 581 0 
L 581 3500 
L 1159 3500 
L 1159 2956 
Q 1366 3272 1645 3428 
Q 1925 3584 2291 3584 
Q 2894 3584 3203 3211 
Q 3513 2838 3513 2113 
z
" transform="scale(0.015625)"/>
      <path id="DejaVuSans-65" d="M 3597 1894 
L 3597 1613 
L 953 1613 
Q 991 1019 1311 708 
Q 1631 397 2203 397 
Q 2534 397 2845 478 
Q 3156 559 3463 722 
L 3463 178 
Q 3153 47 2828 -22 
Q 2503 -91 2169 -91 
Q 1331 -91 842 396 
Q 353 884 353 1716 
Q 353 2575 817 3079 
Q 1281 3584 2069 3584 
Q 2775 3584 3186 3129 
Q 3597 2675 3597 1894 
z
M 3022 2063 
Q 3016 2534 2758 2815 
Q 2500 3097 2075 3097 
Q 1594 3097 1305 2825 
Q 1016 2553 972 2059 
L 3022 2063 
z
" transform="scale(0.015625)"/>
      <path id="DejaVuSans-78" d="M 3513 3500 
L 2247 1797 
L 3578 0 
L 2900 0 
L 1881 1375 
L 863 0 
L 184 0 
L 1544 1831 
L 300 3500 
L 978 3500 
L 1906 2253 
L 2834 3500 
L 3513 3500 
z
" transform="scale(0.015625)"/>
     </defs>
     <use xlink:href="#DejaVuSans-6c"/>
     <use xlink:href="#DejaVuSans-6f" x="27.783203"/>
     <use xlink:href="#DejaVuSans-63" x="88.964844"/>
     <use xlink:href="#DejaVuSans-61" x="143.945312"/>
     <use xlink:href="#DejaVuSans-74" x="205.224609"/>
     <use xlink:href="#DejaVuSans-69" x="244.433594"/>
     <use xlink:href="#DejaVuSans-6f" x="272.216797"/>
     <use xlink:href="#DejaVuSans-6e" x="333.398438"/>
     <use xlink:href="#DejaVuSans-20" x="396.777344"/>
     <use xlink:href="#DejaVuSans-63" x="428.564453"/>
     <use xlink:href="#DejaVuSans-6f" x="483.544922"/>
     <use xlink:href="#DejaVuSans-6e" x="544.726562"/>
     <use xlink:href="#DejaVuSans-74" x="608.105469"/>
     <use xlink:href="#DejaVuSans-65" x="647.314453"/>
     <use xlink:href="#DejaVuSans-78" x="707.087891"/>
     <use xlink:href="#DejaVuSans-74" x="766.267578"/>
    </g>
   </g>
  </g>
  <g id="axes_2">
   <g id="patch_5">
    <path d="M 77.97 338.04 
L 217.694 338.04 
L 217.694 202.476 
L 77.97 202.476 
z
" style="fill: #ffffff"/>
   </g>
   <g id="PolyCollection_5">
    <path d="M -192.74525 268.156758 
L -192.74525 271.116572 
L -175.27975 271.365106 
L -157.81425 271.478076 
L -140.34875 271.888383 
L -122.88325 271.688652 
L -105.41775 271.206948 
L -87.95225 271.707631 
L -70.48675 271.093978 
L -53.02125 271.206948 
L -35.55575 271.029811 
L -18.09025 270.419773 
L -0.62475 270.416158 
L 16.84075 270.351991 
L 34.30625 270.555337 
L 51.77175 270.461346 
L 69.23725 270.755068 
L 86.70275 270.664692 
L 104.16825 270.958414 
L 121.63375 271.206948 
L 139.09925 270.419773 
L 156.56475 252.773859 
L 174.03025 227.068213 
L 191.49575 211.956442 
L 208.96125 216.269185 
L 226.42675 231.667448 
L 243.89225 247.79143 
L 261.35775 254.983552 
L 278.82325 264.707106 
L 296.28875 268.182967 
L 313.75425 269.964278 
L 331.21975 270.668307 
L 348.68525 272.566203 
L 366.15075 272.795758 
L 383.61625 272.494806 
L 401.08175 270.916841 
L 418.54725 269.929935 
L 436.01275 270.397179 
L 453.47825 270.14503 
L 470.94375 271.413909 
L 488.40925 270.261615 
L 488.40925 259.763539 
L 488.40925 259.763539 
L 470.94375 264.15039 
L 453.47825 264.899607 
L 436.01275 264.492915 
L 418.54725 262.373598 
L 401.08175 264.225402 
L 383.61625 265.083974 
L 366.15075 265.980504 
L 348.68525 267.230404 
L 331.21975 264.756813 
L 313.75425 262.960138 
L 296.28875 259.842166 
L 278.82325 255.161593 
L 261.35775 243.57539 
L 243.89225 235.064682 
L 226.42675 218.130027 
L 208.96125 203.217987 
L 191.49575 200.2166 
L 174.03025 213.592248 
L 156.56475 243.225635 
L 139.09925 266.368217 
L 121.63375 269.260249 
L 104.16825 269.196082 
L 86.70275 268.763181 
L 69.23725 268.44325 
L 51.77175 267.648845 
L 34.30625 266.168486 
L 16.84075 265.035171 
L -0.62475 265.16712 
L -18.09025 264.350121 
L -35.55575 266.258862 
L -53.02125 267.30632 
L -70.48675 268.017579 
L -87.95225 268.910494 
L -105.41775 268.179352 
L -122.88325 268.586044 
L -140.34875 268.947548 
L -157.81425 268.424271 
L -175.27975 268.495668 
L -192.74525 268.156758 
z
" clip-path="url(#pe574e7b9bb)" style="fill: #eba071; fill-opacity: 0.1; stroke: #eba071; stroke-opacity: 0.1; stroke-width: 1.5"/>
   </g>
   <g id="PolyCollection_6">
    <path d="M -192.74525 267.682284 
L -192.74525 270.800256 
L -175.27975 271.206948 
L -157.81425 271.278345 
L -140.34875 271.327148 
L -122.88325 271.504285 
L -105.41775 270.93582 
L -87.95225 270.642098 
L -70.48675 270.59691 
L -53.02125 270.619504 
L -35.55575 270.148645 
L -18.09025 269.941684 
L -0.62475 269.470825 
L 16.84075 269.832329 
L 34.30625 270.193833 
L 51.77175 271.003602 
L 69.23725 270.93582 
L 86.70275 271.413909 
L 104.16825 271.459097 
L 121.63375 271.704016 
L 139.09925 273.311805 
L 156.56475 273.266617 
L 174.03025 272.912343 
L 191.49575 271.933571 
L 208.96125 271.504285 
L 226.42675 270.939435 
L 243.89225 270.48394 
L 261.35775 269.964278 
L 278.82325 269.244885 
L 296.28875 269.625368 
L 313.75425 270.37097 
L 331.21975 270.107072 
L 348.68525 270.235406 
L 366.15075 270.058269 
L 383.61625 270.551722 
L 401.08175 270.664692 
L 418.54725 270.03206 
L 436.01275 269.760932 
L 453.47825 270.148645 
L 470.94375 270.690901 
L 488.40925 269.384064 
L 488.40925 261.42465 
L 488.40925 261.42465 
L 470.94375 266.210059 
L 453.47825 266.548969 
L 436.01275 265.95791 
L 418.54725 266.63573 
L 401.08175 267.524126 
L 383.61625 267.610887 
L 366.15075 266.816482 
L 348.68525 267.023443 
L 331.21975 265.825961 
L 313.75425 266.213674 
L 296.28875 264.176599 
L 278.82325 262.444995 
L 261.35775 261.872915 
L 243.89225 262.983636 
L 226.42675 263.092087 
L 208.96125 263.845823 
L 191.49575 265.622615 
L 174.03025 267.701263 
L 156.56475 269.102091 
L 139.09925 271.116572 
L 121.63375 269.851308 
L 104.16825 269.309052 
L 86.70275 268.763181 
L 69.23725 268.401677 
L 51.77175 268.56345 
L 34.30625 263.995847 
L 16.84075 261.781635 
L -0.62475 260.65555 
L -18.09025 262.640207 
L -35.55575 263.310797 
L -53.02125 264.812846 
L -70.48675 266.003098 
L -87.95225 267.607272 
L -105.41775 268.292322 
L -122.88325 268.311301 
L -140.34875 268.11157 
L -157.81425 267.863036 
L -175.27975 268.220925 
L -192.74525 267.682284 
z
" clip-path="url(#pe574e7b9bb)" style="fill: #808080; fill-opacity: 0.1; stroke: #808080; stroke-opacity: 0.1; stroke-width: 1.5"/>
   </g>
   <g id="PolyCollection_7"/>
   <g id="PolyCollection_8">
    <defs>
     <path id="mf329c90a4a" d="M 139.09925 -373.524 
L 139.09925 -370.1349 
L 156.56475 -370.1349 
L 174.03025 -370.1349 
L 191.49575 -370.1349 
L 208.96125 -370.1349 
L 226.42675 -370.1349 
L 243.89225 -370.1349 
L 261.35775 -370.1349 
L 261.35775 -373.524 
L 261.35775 -373.524 
L 243.89225 -373.524 
L 226.42675 -373.524 
L 208.96125 -373.524 
L 191.49575 -373.524 
L 174.03025 -373.524 
L 156.56475 -373.524 
L 139.09925 -373.524 
z
" style="stroke: #000000; stroke-width: 1.5"/>
    </defs>
    <g clip-path="url(#pe574e7b9bb)">
     <use xlink:href="#mf329c90a4a" x="0" y="576" style="stroke: #000000; stroke-width: 1.5"/>
    </g>
   </g>
   <g id="matplotlib.axis_3">
    <g id="xtick_4">
     <g id="line2d_10">
      <g>
       <use xlink:href="#m225ab9c7cb" x="77.97" y="338.04" style="stroke: #000000; stroke-width: 1.875"/>
      </g>
     </g>
    </g>
    <g id="xtick_5">
     <g id="line2d_11">
      <g>
       <use xlink:href="#m225ab9c7cb" x="147.832" y="338.04" style="stroke: #000000; stroke-width: 1.875"/>
      </g>
     </g>
    </g>
    <g id="xtick_6">
     <g id="line2d_12">
      <g>
       <use xlink:href="#m225ab9c7cb" x="217.694" y="338.04" style="stroke: #000000; stroke-width: 1.875"/>
      </g>
     </g>
    </g>
   </g>
   <g id="matplotlib.axis_4">
    <g id="ytick_4">
     <g id="line2d_13">
      <g>
       <use xlink:href="#m5862c89533" x="77.97" y="338.04" style="stroke: #000000; stroke-width: 1.875"/>
      </g>
     </g>
     <g id="text_6">
      <!-- −6 -->
      <g transform="translate(52.577852 343.68184)scale(0.1485 -0.1485)">
       <defs>
        <path id="DejaVuSans-36" d="M 2113 2584 
Q 1688 2584 1439 2293 
Q 1191 2003 1191 1497 
Q 1191 994 1439 701 
Q 1688 409 2113 409 
Q 2538 409 2786 701 
Q 3034 994 3034 1497 
Q 3034 2003 2786 2293 
Q 2538 2584 2113 2584 
z
M 3366 4563 
L 3366 3988 
Q 3128 4100 2886 4159 
Q 2644 4219 2406 4219 
Q 1781 4219 1451 3797 
Q 1122 3375 1075 2522 
Q 1259 2794 1537 2939 
Q 1816 3084 2150 3084 
Q 2853 3084 3261 2657 
Q 3669 2231 3669 1497 
Q 3669 778 3244 343 
Q 2819 -91 2113 -91 
Q 1303 -91 875 529 
Q 447 1150 447 2328 
Q 447 3434 972 4092 
Q 1497 4750 2381 4750 
Q 2619 4750 2861 4703 
Q 3103 4656 3366 4563 
z
" transform="scale(0.015625)"/>
       </defs>
       <use xlink:href="#DejaVuSans-2212"/>
       <use xlink:href="#DejaVuSans-36" x="83.789062"/>
      </g>
     </g>
    </g>
    <g id="ytick_5">
     <g id="line2d_14">
      <g>
       <use xlink:href="#m5862c89533" x="77.97" y="270.258" style="stroke: #000000; stroke-width: 1.875"/>
      </g>
     </g>
     <g id="text_7">
      <!-- 0 -->
      <g transform="translate(65.021687 275.89984)scale(0.1485 -0.1485)">
       <use xlink:href="#DejaVuSans-30"/>
      </g>
     </g>
    </g>
    <g id="ytick_6">
     <g id="line2d_15">
      <g>
       <use xlink:href="#m5862c89533" x="77.97" y="202.476" style="stroke: #000000; stroke-width: 1.875"/>
      </g>
     </g>
     <g id="text_8">
      <!-- 6 -->
      <g transform="translate(65.021687 208.11784)scale(0.1485 -0.1485)">
       <use xlink:href="#DejaVuSans-36"/>
      </g>
     </g>
    </g>
    <g id="text_9">
     <!-- output  -->
     <g transform="translate(27.068302 299.548359)rotate(-90)scale(0.162 -0.162)">
      <use xlink:href="#DejaVuSans-6f"/>
      <use xlink:href="#DejaVuSans-75" x="61.181641"/>
      <use xlink:href="#DejaVuSans-74" x="124.560547"/>
      <use xlink:href="#DejaVuSans-70" x="163.769531"/>
      <use xlink:href="#DejaVuSans-75" x="227.246094"/>
      <use xlink:href="#DejaVuSans-74" x="290.625"/>
      <use xlink:href="#DejaVuSans-20" x="329.833984"/>
     </g>
     <!-- (pop #1) -->
     <g transform="translate(45.208758 306.334641)rotate(-90)scale(0.162 -0.162)">
      <defs>
       <path id="DejaVuSans-31" d="M 794 531 
L 1825 531 
L 1825 4091 
L 703 3866 
L 703 4441 
L 1819 4666 
L 2450 4666 
L 2450 531 
L 3481 531 
L 3481 0 
L 794 0 
L 794 531 
z
" transform="scale(0.015625)"/>
      </defs>
      <use xlink:href="#DejaVuSans-28"/>
      <use xlink:href="#DejaVuSans-70" x="39.013672"/>
      <use xlink:href="#DejaVuSans-6f" x="102.490234"/>
      <use xlink:href="#DejaVuSans-70" x="163.671875"/>
      <use xlink:href="#DejaVuSans-20" x="227.148438"/>
      <use xlink:href="#DejaVuSans-23" x="258.935547"/>
      <use xlink:href="#DejaVuSans-31" x="342.724609"/>
      <use xlink:href="#DejaVuSans-29" x="406.347656"/>
     </g>
    </g>
   </g>
   <g id="line2d_16">
    <path d="M -1 267.777743 
L -0.62475 267.781528 
L 16.84075 267.982897 
L 34.30625 268.418397 
L 51.77175 269.070572 
L 69.23725 269.596617 
L 86.70275 269.792168 
L 104.16825 270.101311 
L 121.63375 270.282853 
L 139.09925 268.38106 
L 156.56475 248.168411 
L 174.03025 220.143378 
L 191.49575 205.999195 
L 208.96125 209.525102 
L 226.42675 224.648961 
L 243.89225 241.321186 
L 261.35775 249.247952 
L 278.82325 259.89577 
L 296.28875 264.068374 
L 313.75425 266.566931 
L 331.21975 267.630148 
L 348.68525 269.860967 
L 366.15075 269.33673 
L 383.61625 268.911341 
L 401.08175 267.67319 
L 418.54725 266.339692 
L 433 267.229931 
" clip-path="url(#pe574e7b9bb)" style="fill: none; stroke: #eba071; stroke-width: 2.25; stroke-linecap: square"/>
   </g>
   <g id="line2d_17">
    <path d="M -1 264.984021 
L -0.62475 264.954171 
L 16.84075 265.820199 
L 34.30625 267.37252 
L 51.77175 269.751838 
L 69.23725 269.601418 
L 86.70275 270.121024 
L 104.16825 270.402319 
L 121.63375 270.744449 
L 139.09925 272.196509 
L 156.56475 271.257559 
L 174.03025 270.360577 
L 191.49575 268.884398 
L 208.96125 267.876762 
L 226.42675 267.056204 
L 243.89225 266.811737 
L 261.35775 265.736545 
L 278.82325 265.856406 
L 296.28875 266.867205 
L 313.75425 268.327964 
L 331.21975 267.91455 
L 348.68525 268.610841 
L 366.15075 268.469402 
L 383.61625 269.071024 
L 401.08175 269.055321 
L 418.54725 268.245439 
L 433 267.945967 
" clip-path="url(#pe574e7b9bb)" style="fill: none; stroke: #808080; stroke-width: 2.25; stroke-linecap: square"/>
   </g>
   <g id="line2d_18">
    <path d="M -1 270.258 
L -0.62475 270.258 
L 16.84075 270.258 
L 34.30625 270.258 
L 51.77175 270.258 
L 69.23725 270.258 
L 86.70275 270.258 
L 104.16825 270.258 
L 121.63375 270.258 
L 139.09925 270.258 
L 156.56475 270.258 
L 174.03025 270.258 
L 191.49575 270.258 
L 208.96125 270.258 
L 226.42675 270.258 
L 243.89225 270.258 
L 261.35775 270.258 
L 278.82325 270.258 
L 296.28875 270.258 
L 313.75425 270.258 
L 331.21975 270.258 
L 348.68525 270.258 
L 366.15075 270.258 
L 383.61625 270.258 
L 401.08175 270.258 
L 418.54725 270.258 
L 433 270.258 
" clip-path="url(#pe574e7b9bb)" style="fill: none; stroke-dasharray: 8.325,3.6; stroke-dashoffset: 0; stroke: #000000; stroke-opacity: 0.5; stroke-width: 2.25"/>
   </g>
   <g id="patch_6">
    <path d="M 77.97 338.04 
L 77.97 202.476 
" style="fill: none; stroke: #000000; stroke-width: 1.875; stroke-linejoin: miter; stroke-linecap: square"/>
   </g>
   <g id="patch_7">
    <path d="M 77.97 338.04 
L 217.694 338.04 
" style="fill: none; stroke: #000000; stroke-width: 1.875; stroke-linejoin: miter; stroke-linecap: square"/>
   </g>
  </g>
  <g id="axes_3">
   <g id="patch_8">
    <path d="M 77.97 505.5 
L 217.694 505.5 
L 217.694 369.936 
L 77.97 369.936 
z
" style="fill: #ffffff"/>
   </g>
   <g id="PolyCollection_9">
    <path d="M -192.74525 437.560746 
L -192.74525 456.04083 
L -175.27975 454.549626 
L -157.81425 451.003272 
L -140.34875 451.160526 
L -122.88325 452.922858 
L -105.41775 453.736242 
L -87.95225 454.392372 
L -70.48675 449.170447 
L -53.02125 443.568942 
L -35.55575 445.602402 
L -18.09025 444.789018 
L -0.62475 445.038456 
L 16.84075 443.953944 
L 34.30625 443.953944 
L 51.77175 438.938076 
L 69.23725 436.541304 
L 86.70275 438.460891 
L 104.16825 438.802512 
L 121.63375 448.020864 
L 139.09925 447.343044 
L 156.56475 443.84007 
L 174.03025 442.598304 
L 191.49575 441.963864 
L 208.96125 445.19571 
L 226.42675 451.2744 
L 243.89225 460.78557 
L 261.35775 466.772076 
L 278.82325 457.510344 
L 296.28875 454.121244 
L 313.75425 452.087784 
L 331.21975 457.260906 
L 348.68525 462.14121 
L 366.15075 466.343694 
L 383.61625 462.14121 
L 401.08175 461.192262 
L 418.54725 464.716926 
L 436.01275 464.559672 
L 453.47825 460.265004 
L 470.94375 464.559672 
L 488.40925 480.849042 
L 488.40925 449.333124 
L 488.40925 449.333124 
L 470.94375 444.089508 
L 453.47825 443.14056 
L 436.01275 444.745638 
L 418.54725 444.225072 
L 401.08175 441.356538 
L 383.61625 443.09718 
L 366.15075 444.745638 
L 348.68525 443.953944 
L 331.21975 440.022588 
L 313.75425 437.311308 
L 296.28875 438.531384 
L 278.82325 438.916386 
L 261.35775 442.44105 
L 243.89225 439.865334 
L 226.42675 436.36236 
L 208.96125 434.057772 
L 191.49575 429.969162 
L 174.03025 425.381676 
L 156.56475 423.754908 
L 139.09925 425.51724 
L 121.63375 426.037806 
L 104.16825 416.163324 
L 86.70275 413.045352 
L 69.23725 411.689712 
L 51.77175 415.035432 
L 34.30625 423.575964 
L 16.84075 422.063069 
L -0.62475 423.48378 
L -18.09025 424.1616 
L -35.55575 426.580062 
L -53.02125 424.411038 
L -70.48675 428.20683 
L -87.95225 434.578338 
L -105.41775 433.379952 
L -122.88325 432.431004 
L -140.34875 430.91811 
L -157.81425 433.201008 
L -175.27975 436.069542 
L -192.74525 437.560746 
z
" clip-path="url(#p4761be3f76)" style="fill: #eba071; fill-opacity: 0.1; stroke: #eba071; stroke-opacity: 0.1; stroke-width: 1.5"/>
   </g>
   <g id="PolyCollection_10">
    <path d="M -192.74525 433.764954 
L -192.74525 456.447522 
L -175.27975 453.600678 
L -157.81425 451.95222 
L -140.34875 455.769702 
L -122.88325 455.769702 
L -105.41775 452.380602 
L -87.95225 451.95222 
L -70.48675 449.013192 
L -53.02125 452.380602 
L -35.55575 455.634138 
L -18.09025 456.604776 
L -0.62475 454.68519 
L 16.84075 447.343044 
L 34.30625 444.360636 
L 51.77175 439.388148 
L 69.23725 441.264354 
L 86.70275 441.557172 
L 104.16825 439.230894 
L 121.63375 449.669322 
L 139.09925 448.834248 
L 156.56475 453.058422 
L 174.03025 457.39647 
L 191.49575 461.577264 
L 208.96125 463.068468 
L 226.42675 466.593132 
L 243.89225 468.783846 
L 261.35775 464.039106 
L 278.82325 464.17467 
L 296.28875 454.392372 
L 313.75425 455.070192 
L 331.21975 454.256808 
L 348.68525 452.087784 
L 366.15075 450.59658 
L 383.61625 453.871806 
L 401.08175 453.172296 
L 418.54725 451.816656 
L 436.01275 450.482706 
L 453.47825 453.35124 
L 470.94375 461.035008 
L 488.40925 477.866634 
L 488.40925 438.37413 
L 488.40925 438.37413 
L 470.94375 433.900518 
L 453.47825 430.533108 
L 436.01275 427.371756 
L 418.54725 431.324802 
L 401.08175 432.094805 
L 383.61625 432.024312 
L 366.15075 430.533108 
L 348.68525 432.138186 
L 331.21975 432.024312 
L 313.75425 432.794316 
L 296.28875 432.29544 
L 278.82325 437.01849 
L 261.35775 436.769052 
L 243.89225 444.902892 
L 226.42675 446.643534 
L 208.96125 444.995076 
L 191.49575 439.323078 
L 174.03025 439.07364 
L 156.56475 436.882926 
L 139.09925 432.523188 
L 121.63375 429.426906 
L 104.16825 416.298888 
L 86.70275 417.903966 
L 69.23725 419.259606 
L 51.77175 416.70558 
L 34.30625 422.355888 
L 16.84075 425.088858 
L -0.62475 429.833598 
L -18.09025 432.431004 
L -35.55575 433.65108 
L -53.02125 430.782546 
L -70.48675 429.56247 
L -87.95225 431.324802 
L -105.41775 433.515516 
L -122.88325 433.515516 
L -140.34875 435.527286 
L -157.81425 432.365933 
L -175.27975 434.036082 
L -192.74525 433.764954 
z
" clip-path="url(#p4761be3f76)" style="fill: #808080; fill-opacity: 0.1; stroke: #808080; stroke-opacity: 0.1; stroke-width: 1.5"/>
   </g>
   <g id="PolyCollection_11"/>
   <g id="PolyCollection_12"/>
   <g id="matplotlib.axis_5">
    <g id="xtick_7">
     <g id="line2d_19">
      <g>
       <use xlink:href="#m225ab9c7cb" x="77.97" y="505.5" style="stroke: #000000; stroke-width: 1.875"/>
      </g>
     </g>
     <g id="text_10">
      <!-- -.2 -->
      <g transform="translate(68.207285 520.28368)scale(0.1485 -0.1485)">
       <defs>
        <path id="DejaVuSans-2d" d="M 313 2009 
L 1997 2009 
L 1997 1497 
L 313 1497 
L 313 2009 
z
" transform="scale(0.015625)"/>
        <path id="DejaVuSans-2e" d="M 684 794 
L 1344 794 
L 1344 0 
L 684 0 
L 684 794 
z
" transform="scale(0.015625)"/>
        <path id="DejaVuSans-32" d="M 1228 531 
L 3431 531 
L 3431 0 
L 469 0 
L 469 531 
Q 828 903 1448 1529 
Q 2069 2156 2228 2338 
Q 2531 2678 2651 2914 
Q 2772 3150 2772 3378 
Q 2772 3750 2511 3984 
Q 2250 4219 1831 4219 
Q 1534 4219 1204 4116 
Q 875 4013 500 3803 
L 500 4441 
Q 881 4594 1212 4672 
Q 1544 4750 1819 4750 
Q 2544 4750 2975 4387 
Q 3406 4025 3406 3419 
Q 3406 3131 3298 2873 
Q 3191 2616 2906 2266 
Q 2828 2175 2409 1742 
Q 1991 1309 1228 531 
z
" transform="scale(0.015625)"/>
       </defs>
       <use xlink:href="#DejaVuSans-2d"/>
       <use xlink:href="#DejaVuSans-2e" x="36.083984"/>
       <use xlink:href="#DejaVuSans-32" x="67.871094"/>
      </g>
     </g>
    </g>
    <g id="xtick_8">
     <g id="line2d_20">
      <g>
       <use xlink:href="#m225ab9c7cb" x="147.832" y="505.5" style="stroke: #000000; stroke-width: 1.875"/>
      </g>
     </g>
     <g id="text_11">
      <!-- 0 -->
      <g transform="translate(143.107844 520.28368)scale(0.1485 -0.1485)">
       <use xlink:href="#DejaVuSans-30"/>
      </g>
     </g>
    </g>
    <g id="xtick_9">
     <g id="line2d_21">
      <g>
       <use xlink:href="#m225ab9c7cb" x="217.694" y="505.5" style="stroke: #000000; stroke-width: 1.875"/>
      </g>
     </g>
     <g id="text_12">
      <!-- .2 -->
      <g transform="translate(210.610086 520.28368)scale(0.1485 -0.1485)">
       <use xlink:href="#DejaVuSans-2e"/>
       <use xlink:href="#DejaVuSans-32" x="31.787109"/>
      </g>
     </g>
    </g>
    <g id="text_13">
     <!-- time from stim -->
     <g transform="translate(88.003375 539.681484)scale(0.162 -0.162)">
      <defs>
       <path id="DejaVuSans-6d" d="M 3328 2828 
Q 3544 3216 3844 3400 
Q 4144 3584 4550 3584 
Q 5097 3584 5394 3201 
Q 5691 2819 5691 2113 
L 5691 0 
L 5113 0 
L 5113 2094 
Q 5113 2597 4934 2840 
Q 4756 3084 4391 3084 
Q 3944 3084 3684 2787 
Q 3425 2491 3425 1978 
L 3425 0 
L 2847 0 
L 2847 2094 
Q 2847 2600 2669 2842 
Q 2491 3084 2119 3084 
Q 1678 3084 1418 2786 
Q 1159 2488 1159 1978 
L 1159 0 
L 581 0 
L 581 3500 
L 1159 3500 
L 1159 2956 
Q 1356 3278 1631 3431 
Q 1906 3584 2284 3584 
Q 2666 3584 2933 3390 
Q 3200 3197 3328 2828 
z
" transform="scale(0.015625)"/>
       <path id="DejaVuSans-66" d="M 2375 4863 
L 2375 4384 
L 1825 4384 
Q 1516 4384 1395 4259 
Q 1275 4134 1275 3809 
L 1275 3500 
L 2222 3500 
L 2222 3053 
L 1275 3053 
L 1275 0 
L 697 0 
L 697 3053 
L 147 3053 
L 147 3500 
L 697 3500 
L 697 3744 
Q 697 4328 969 4595 
Q 1241 4863 1831 4863 
L 2375 4863 
z
" transform="scale(0.015625)"/>
       <path id="DejaVuSans-72" d="M 2631 2963 
Q 2534 3019 2420 3045 
Q 2306 3072 2169 3072 
Q 1681 3072 1420 2755 
Q 1159 2438 1159 1844 
L 1159 0 
L 581 0 
L 581 3500 
L 1159 3500 
L 1159 2956 
Q 1341 3275 1631 3429 
Q 1922 3584 2338 3584 
Q 2397 3584 2469 3576 
Q 2541 3569 2628 3553 
L 2631 2963 
z
" transform="scale(0.015625)"/>
       <path id="DejaVuSans-73" d="M 2834 3397 
L 2834 2853 
Q 2591 2978 2328 3040 
Q 2066 3103 1784 3103 
Q 1356 3103 1142 2972 
Q 928 2841 928 2578 
Q 928 2378 1081 2264 
Q 1234 2150 1697 2047 
L 1894 2003 
Q 2506 1872 2764 1633 
Q 3022 1394 3022 966 
Q 3022 478 2636 193 
Q 2250 -91 1575 -91 
Q 1294 -91 989 -36 
Q 684 19 347 128 
L 347 722 
Q 666 556 975 473 
Q 1284 391 1588 391 
Q 1994 391 2212 530 
Q 2431 669 2431 922 
Q 2431 1156 2273 1281 
Q 2116 1406 1581 1522 
L 1381 1569 
Q 847 1681 609 1914 
Q 372 2147 372 2553 
Q 372 3047 722 3315 
Q 1072 3584 1716 3584 
Q 2034 3584 2315 3537 
Q 2597 3491 2834 3397 
z
" transform="scale(0.015625)"/>
      </defs>
      <use xlink:href="#DejaVuSans-74"/>
      <use xlink:href="#DejaVuSans-69" x="39.208984"/>
      <use xlink:href="#DejaVuSans-6d" x="66.992188"/>
      <use xlink:href="#DejaVuSans-65" x="164.404297"/>
      <use xlink:href="#DejaVuSans-20" x="225.927734"/>
      <use xlink:href="#DejaVuSans-66" x="257.714844"/>
      <use xlink:href="#DejaVuSans-72" x="292.919922"/>
      <use xlink:href="#DejaVuSans-6f" x="331.783203"/>
      <use xlink:href="#DejaVuSans-6d" x="392.964844"/>
      <use xlink:href="#DejaVuSans-20" x="490.376953"/>
      <use xlink:href="#DejaVuSans-73" x="522.164062"/>
      <use xlink:href="#DejaVuSans-74" x="574.263672"/>
      <use xlink:href="#DejaVuSans-69" x="613.472656"/>
      <use xlink:href="#DejaVuSans-6d" x="641.255859"/>
     </g>
     <!-- (sec) -->
     <g transform="translate(127.854109 557.821941)scale(0.162 -0.162)">
      <use xlink:href="#DejaVuSans-28"/>
      <use xlink:href="#DejaVuSans-73" x="39.013672"/>
      <use xlink:href="#DejaVuSans-65" x="91.113281"/>
      <use xlink:href="#DejaVuSans-63" x="152.636719"/>
      <use xlink:href="#DejaVuSans-29" x="207.617188"/>
     </g>
    </g>
   </g>
   <g id="matplotlib.axis_6">
    <g id="ytick_7">
     <g id="line2d_22">
      <g>
       <use xlink:href="#m5862c89533" x="77.97" y="505.5" style="stroke: #000000; stroke-width: 1.875"/>
      </g>
     </g>
     <g id="text_14">
      <!-- −1 -->
      <g transform="translate(52.577852 511.14184)scale(0.1485 -0.1485)">
       <use xlink:href="#DejaVuSans-2212"/>
       <use xlink:href="#DejaVuSans-31" x="83.789062"/>
      </g>
     </g>
    </g>
    <g id="ytick_8">
     <g id="line2d_23">
      <g>
       <use xlink:href="#m5862c89533" x="77.97" y="437.718" style="stroke: #000000; stroke-width: 1.875"/>
      </g>
     </g>
     <g id="text_15">
      <!-- 0 -->
      <g transform="translate(65.021687 443.35984)scale(0.1485 -0.1485)">
       <use xlink:href="#DejaVuSans-30"/>
      </g>
     </g>
    </g>
    <g id="ytick_9">
     <g id="line2d_24">
      <g>
       <use xlink:href="#m5862c89533" x="77.97" y="369.936" style="stroke: #000000; stroke-width: 1.875"/>
      </g>
     </g>
     <g id="text_16">
      <!-- 1 -->
      <g transform="translate(65.021687 375.57784)scale(0.1485 -0.1485)">
       <use xlink:href="#DejaVuSans-31"/>
      </g>
     </g>
    </g>
    <g id="text_17">
     <!-- output  -->
     <g transform="translate(27.068302 467.008359)rotate(-90)scale(0.162 -0.162)">
      <use xlink:href="#DejaVuSans-6f"/>
      <use xlink:href="#DejaVuSans-75" x="61.181641"/>
      <use xlink:href="#DejaVuSans-74" x="124.560547"/>
      <use xlink:href="#DejaVuSans-70" x="163.769531"/>
      <use xlink:href="#DejaVuSans-75" x="227.246094"/>
      <use xlink:href="#DejaVuSans-74" x="290.625"/>
      <use xlink:href="#DejaVuSans-20" x="329.833984"/>
     </g>
     <!-- (pop #2) -->
     <g transform="translate(45.208758 473.794641)rotate(-90)scale(0.162 -0.162)">
      <use xlink:href="#DejaVuSans-28"/>
      <use xlink:href="#DejaVuSans-70" x="39.013672"/>
      <use xlink:href="#DejaVuSans-6f" x="102.490234"/>
      <use xlink:href="#DejaVuSans-70" x="163.671875"/>
      <use xlink:href="#DejaVuSans-20" x="227.148438"/>
      <use xlink:href="#DejaVuSans-23" x="258.935547"/>
      <use xlink:href="#DejaVuSans-32" x="342.724609"/>
      <use xlink:href="#DejaVuSans-29" x="406.347656"/>
     </g>
    </g>
   </g>
   <g id="line2d_25">
    <path d="M -1 434.435842 
L -0.62475 434.430912 
L 16.84075 433.399948 
L 34.30625 433.906957 
L 51.77175 427.210773 
L 69.23725 423.897928 
L 86.70275 426.199805 
L 104.16825 427.274488 
L 121.63375 436.920206 
L 139.09925 436.420991 
L 156.56475 434.127926 
L 174.03025 433.992362 
L 191.49575 436.034295 
L 208.96125 439.702996 
L 226.42675 443.480487 
L 243.89225 449.989931 
L 261.35775 454.66045 
L 278.82325 448.028659 
L 296.28875 446.049425 
L 313.75425 444.486372 
L 331.21975 448.590572 
L 348.68525 453.395977 
L 366.15075 455.377922 
L 383.61625 452.351117 
L 401.08175 451.420131 
L 418.54725 454.264603 
L 433 454.457271 
" clip-path="url(#p4761be3f76)" style="fill: none; stroke: #eba071; stroke-width: 2.25; stroke-linecap: square"/>
   </g>
   <g id="line2d_26">
    <path d="M -1 442.032151 
L -0.62475 441.971321 
L 16.84075 436.35931 
L 34.30625 433.086456 
L 51.77175 428.0916 
L 69.23725 430.611735 
L 86.70275 429.686511 
L 104.16825 427.97366 
L 121.63375 439.827715 
L 139.09925 440.458087 
L 156.56475 445.079125 
L 174.03025 448.394682 
L 191.49575 450.197344 
L 208.96125 453.765389 
L 226.42675 456.806428 
L 243.89225 457.499499 
L 261.35775 451.102912 
L 278.82325 450.724349 
L 296.28875 444.059684 
L 313.75425 444.024776 
L 331.21975 442.962632 
L 348.68525 442.056048 
L 366.15075 441.009494 
L 383.61625 442.855198 
L 401.08175 442.712178 
L 418.54725 441.211145 
L 433 439.185743 
" clip-path="url(#p4761be3f76)" style="fill: none; stroke: #808080; stroke-width: 2.25; stroke-linecap: square"/>
   </g>
   <g id="line2d_27">
    <path d="M -1 437.718 
L -0.62475 437.718 
L 16.84075 437.718 
L 34.30625 437.718 
L 51.77175 437.718 
L 69.23725 437.718 
L 86.70275 437.718 
L 104.16825 437.718 
L 121.63375 437.718 
L 139.09925 437.718 
L 156.56475 437.718 
L 174.03025 437.718 
L 191.49575 437.718 
L 208.96125 437.718 
L 226.42675 437.718 
L 243.89225 437.718 
L 261.35775 437.718 
L 278.82325 437.718 
L 296.28875 437.718 
L 313.75425 437.718 
L 331.21975 437.718 
L 348.68525 437.718 
L 366.15075 437.718 
L 383.61625 437.718 
L 401.08175 437.718 
L 418.54725 437.718 
L 433 437.718 
" clip-path="url(#p4761be3f76)" style="fill: none; stroke-dasharray: 8.325,3.6; stroke-dashoffset: 0; stroke: #000000; stroke-opacity: 0.5; stroke-width: 2.25"/>
   </g>
   <g id="patch_9">
    <path d="M 77.97 505.5 
L 77.97 369.936 
" style="fill: none; stroke: #000000; stroke-width: 1.875; stroke-linejoin: miter; stroke-linecap: square"/>
   </g>
   <g id="patch_10">
    <path d="M 77.97 505.5 
L 217.694 505.5 
" style="fill: none; stroke: #000000; stroke-width: 1.875; stroke-linejoin: miter; stroke-linecap: square"/>
   </g>
  </g>
  <g id="axes_4">
   <g id="patch_11">
    <path d="M 267.67 170.58 
L 407.394 170.58 
L 407.394 35.016 
L 267.67 35.016 
z
" style="fill: #ffffff"/>
   </g>
   <g id="PolyCollection_13">
    <path d="M -3.04525 100.576558 
L -3.04525 105.0574 
L 14.42025 105.847286 
L 31.88575 105.554468 
L 49.35125 104.60552 
L 66.81675 104.921836 
L 84.28225 105.147776 
L 101.74775 105.652074 
L 119.21325 105.0574 
L 136.67875 105.200194 
L 154.14425 104.560332 
L 171.60975 104.793502 
L 189.07525 104.793502 
L 206.54075 104.431998 
L 224.00625 104.431998 
L 241.47175 104.37958 
L 258.93725 104.560332 
L 276.40275 104.16087 
L 293.86825 106.103954 
L 311.33375 109.58343 
L 328.79925 128.56962 
L 346.26475 140.228124 
L 363.73025 144.240819 
L 381.19575 136.168434 
L 398.66125 137.298134 
L 416.12675 121.451606 
L 433.59225 109.58343 
L 451.05775 106.691398 
L 468.52325 108.4465 
L 485.98875 108.536876 
L 503.45425 108.130184 
L 520.91975 111.16501 
L 538.38525 113.160512 
L 555.85075 111.255386 
L 573.31625 111.933206 
L 590.78175 112.211564 
L 608.24725 113.371992 
L 625.71275 111.971164 
L 643.17825 111.940436 
L 660.64375 115.90975 
L 678.10925 118.884928 
L 678.10925 107.483092 
L 678.10925 107.483092 
L 660.64375 107.29511 
L 643.17825 105.95393 
L 625.71275 105.28334 
L 608.24725 106.315434 
L 590.78175 105.72799 
L 573.31625 105.140546 
L 555.85075 104.83146 
L 538.38525 105.418904 
L 520.91975 104.289204 
L 503.45425 103.197462 
L 485.98875 103.46859 
L 468.52325 103.24988 
L 451.05775 101.89424 
L 433.59225 102.429266 
L 416.12675 108.084996 
L 398.66125 116.482734 
L 381.19575 117.160554 
L 363.73025 121.898064 
L 346.26475 120.896698 
L 328.79925 113.500326 
L 311.33375 102.474454 
L 293.86825 101.480318 
L 276.40275 99.815592 
L 258.93725 99.85355 
L 241.47175 98.550328 
L 224.00625 97.639338 
L 206.54075 98.543098 
L 189.07525 98.188824 
L 171.60975 98.866644 
L 154.14425 99.40167 
L 136.67875 100.448224 
L 119.21325 100.357848 
L 101.74775 101.035668 
L 84.28225 100.719352 
L 66.81675 100.253012 
L 49.35125 99.905968 
L 31.88575 100.854916 
L 14.42025 101.118814 
L -3.04525 100.576558 
z
" clip-path="url(#p87368d9dbf)" style="fill: #eba071; fill-opacity: 0.1; stroke: #eba071; stroke-opacity: 0.1; stroke-width: 1.5"/>
   </g>
   <g id="PolyCollection_14">
    <path d="M -3.04525 102.429266 
L -3.04525 107.052902 
L 14.42025 105.825596 
L 31.88575 106.1871 
L 49.35125 105.825596 
L 66.81675 105.373716 
L 84.28225 104.967024 
L 101.74775 104.891108 
L 119.21325 105.825596 
L 136.67875 105.923202 
L 154.14425 104.786272 
L 171.60975 105.426134 
L 189.07525 106.006348 
L 206.54075 106.006348 
L 224.00625 104.37958 
L 241.47175 104.108452 
L 258.93725 104.431998 
L 276.40275 105.561698 
L 293.86825 106.601022 
L 311.33375 108.491688 
L 328.79925 115.374724 
L 346.26475 123.59171 
L 363.73025 125.663128 
L 381.19575 123.222976 
L 398.66125 118.040816 
L 416.12675 110.25402 
L 433.59225 107.369218 
L 451.05775 105.192964 
L 468.52325 104.83146 
L 485.98875 105.418904 
L 503.45425 104.876648 
L 520.91975 104.883878 
L 538.38525 105.606886 
L 555.85075 105.915972 
L 573.31625 105.96116 
L 590.78175 105.780408 
L 608.24725 105.019442 
L 625.71275 105.373716 
L 643.17825 106.051536 
L 660.64375 109.041174 
L 678.10925 112.625486 
L 678.10925 100.162636 
L 678.10925 100.162636 
L 660.64375 101.623112 
L 643.17825 100.945292 
L 625.71275 100.357848 
L 608.24725 100.215054 
L 590.78175 100.08672 
L 573.31625 100.493412 
L 555.85075 101.44236 
L 538.38525 100.938062 
L 520.91975 100.854916 
L 503.45425 101.344754 
L 485.98875 101.841822 
L 468.52325 100.440994 
L 451.05775 100.674164 
L 433.59225 102.158138 
L 416.12675 102.745582 
L 398.66125 106.127452 
L 381.19575 107.649384 
L 363.73025 109.56897 
L 346.26475 109.11709 
L 328.79925 104.650708 
L 311.33375 102.429266 
L 293.86825 101.156772 
L 276.40275 99.356482 
L 258.93725 98.008072 
L 241.47175 97.006706 
L 224.00625 98.70939 
L 206.54075 100.131908 
L 189.07525 100.169866 
L 171.60975 99.18296 
L 154.14425 99.446858 
L 136.67875 100.08672 
L 119.21325 100.267472 
L 101.74775 100.674164 
L 84.28225 100.802498 
L 66.81675 101.21642 
L 49.35125 101.080856 
L 31.88575 101.375482 
L 14.42025 101.126044 
L -3.04525 102.429266 
z
" clip-path="url(#p87368d9dbf)" style="fill: #808080; fill-opacity: 0.1; stroke: #808080; stroke-opacity: 0.1; stroke-width: 1.5"/>
   </g>
   <g id="PolyCollection_15">
    <defs>
     <path id="mf389faf589" d="M 328.79925 -540.984 
L 328.79925 -537.5949 
L 346.26475 -537.5949 
L 363.73025 -537.5949 
L 398.66125 -537.5949 
L 416.12675 -537.5949 
L 520.91975 -537.5949 
L 538.38525 -537.5949 
L 555.85075 -537.5949 
L 573.31625 -537.5949 
L 590.78175 -537.5949 
L 608.24725 -537.5949 
L 625.71275 -537.5949 
L 643.17825 -537.5949 
L 643.17825 -540.984 
L 643.17825 -540.984 
L 625.71275 -540.984 
L 608.24725 -540.984 
L 590.78175 -540.984 
L 573.31625 -540.984 
L 555.85075 -540.984 
L 538.38525 -540.984 
L 520.91975 -540.984 
L 416.12675 -540.984 
L 398.66125 -540.984 
L 363.73025 -540.984 
L 346.26475 -540.984 
L 328.79925 -540.984 
z
" style="stroke: #000000; stroke-width: 1.5"/>
    </defs>
    <g clip-path="url(#p87368d9dbf)">
     <use xlink:href="#mf389faf589" x="0" y="576" style="stroke: #000000; stroke-width: 1.5"/>
    </g>
   </g>
   <g id="PolyCollection_16"/>
   <g id="matplotlib.axis_7">
    <g id="xtick_10">
     <g id="line2d_28">
      <g>
       <use xlink:href="#m225ab9c7cb" x="267.67" y="170.58" style="stroke: #000000; stroke-width: 1.875"/>
      </g>
     </g>
    </g>
    <g id="xtick_11">
     <g id="line2d_29">
      <g>
       <use xlink:href="#m225ab9c7cb" x="337.532" y="170.58" style="stroke: #000000; stroke-width: 1.875"/>
      </g>
     </g>
    </g>
    <g id="xtick_12">
     <g id="line2d_30">
      <g>
       <use xlink:href="#m225ab9c7cb" x="407.394" y="170.58" style="stroke: #000000; stroke-width: 1.875"/>
      </g>
     </g>
    </g>
   </g>
   <g id="matplotlib.axis_8">
    <g id="ytick_10">
     <g id="line2d_31">
      <g>
       <use xlink:href="#m5862c89533" x="267.67" y="170.58" style="stroke: #000000; stroke-width: 1.875"/>
      </g>
     </g>
     <g id="text_18">
      <!-- −3 -->
      <g transform="translate(242.277852 176.22184)scale(0.1485 -0.1485)">
       <use xlink:href="#DejaVuSans-2212"/>
       <use xlink:href="#DejaVuSans-33" x="83.789062"/>
      </g>
     </g>
    </g>
    <g id="ytick_11">
     <g id="line2d_32">
      <g>
       <use xlink:href="#m5862c89533" x="267.67" y="102.798" style="stroke: #000000; stroke-width: 1.875"/>
      </g>
     </g>
     <g id="text_19">
      <!-- 0 -->
      <g transform="translate(254.721687 108.43984)scale(0.1485 -0.1485)">
       <use xlink:href="#DejaVuSans-30"/>
      </g>
     </g>
    </g>
    <g id="ytick_12">
     <g id="line2d_33">
      <g>
       <use xlink:href="#m5862c89533" x="267.67" y="35.016" style="stroke: #000000; stroke-width: 1.875"/>
      </g>
     </g>
     <g id="text_20">
      <!-- 3 -->
      <g transform="translate(254.721687 40.65784)scale(0.1485 -0.1485)">
       <use xlink:href="#DejaVuSans-33"/>
      </g>
     </g>
    </g>
   </g>
   <g id="line2d_34">
    <path d="M -1 102.969679 
L 14.42025 103.447239 
L 31.88575 103.246039 
L 49.35125 102.377639 
L 66.81675 102.615779 
L 84.28225 102.916393 
L 101.74775 103.312691 
L 119.21325 102.774276 
L 136.67875 102.836749 
L 154.14425 102.002917 
L 171.60975 101.750203 
L 189.07525 101.524602 
L 206.54075 101.363733 
L 224.00625 101.118136 
L 241.47175 101.44541 
L 258.93725 102.053867 
L 276.40275 101.993993 
L 293.86825 103.734408 
L 311.33375 105.954043 
L 328.79925 121.048416 
L 346.26475 130.522307 
L 363.73025 133.557246 
L 381.19575 126.565984 
L 398.66125 127.190482 
L 416.12675 114.81959 
L 433 106.044687 
" clip-path="url(#p87368d9dbf)" style="fill: none; stroke: #eba071; stroke-width: 2.25; stroke-linecap: square"/>
   </g>
   <g id="line2d_35">
    <path d="M -1 104.501475 
L 14.42025 103.628442 
L 31.88575 103.695999 
L 49.35125 103.394821 
L 66.81675 103.327942 
L 84.28225 102.74095 
L 101.74775 102.711239 
L 119.21325 103.044275 
L 136.67875 103.036932 
L 154.14425 102.03534 
L 171.60975 102.259698 
L 189.07525 103.146287 
L 206.54075 103.079295 
L 224.00625 101.493422 
L 241.47175 100.391513 
L 258.93725 101.324871 
L 276.40275 102.629788 
L 293.86825 103.911432 
L 311.33375 105.529615 
L 328.79925 109.818295 
L 346.26475 115.929294 
L 363.73025 117.408975 
L 381.19575 115.043722 
L 398.66125 112.212581 
L 416.12675 106.136715 
L 433 104.835994 
" clip-path="url(#p87368d9dbf)" style="fill: none; stroke: #808080; stroke-width: 2.25; stroke-linecap: square"/>
   </g>
   <g id="line2d_36">
    <path d="M -1 102.798 
L 14.42025 102.798 
L 31.88575 102.798 
L 49.35125 102.798 
L 66.81675 102.798 
L 84.28225 102.798 
L 101.74775 102.798 
L 119.21325 102.798 
L 136.67875 102.798 
L 154.14425 102.798 
L 171.60975 102.798 
L 189.07525 102.798 
L 206.54075 102.798 
L 224.00625 102.798 
L 241.47175 102.798 
L 258.93725 102.798 
L 276.40275 102.798 
L 293.86825 102.798 
L 311.33375 102.798 
L 328.79925 102.798 
L 346.26475 102.798 
L 363.73025 102.798 
L 381.19575 102.798 
L 398.66125 102.798 
L 416.12675 102.798 
L 433 102.798 
" clip-path="url(#p87368d9dbf)" style="fill: none; stroke-dasharray: 8.325,3.6; stroke-dashoffset: 0; stroke: #000000; stroke-opacity: 0.5; stroke-width: 2.25"/>
   </g>
   <g id="patch_12">
    <path d="M 267.67 170.58 
L 267.67 35.016 
" style="fill: none; stroke: #000000; stroke-width: 1.875; stroke-linejoin: miter; stroke-linecap: square"/>
   </g>
   <g id="patch_13">
    <path d="M 267.67 170.58 
L 407.394 170.58 
" style="fill: none; stroke: #000000; stroke-width: 1.875; stroke-linejoin: miter; stroke-linecap: square"/>
   </g>
   <g id="text_21">
    <!-- pitch context -->
    <g transform="translate(284.271969 29.016)scale(0.162 -0.162)">
     <defs>
      <path id="DejaVuSans-68" d="M 3513 2113 
L 3513 0 
L 2938 0 
L 2938 2094 
Q 2938 2591 2744 2837 
Q 2550 3084 2163 3084 
Q 1697 3084 1428 2787 
Q 1159 2491 1159 1978 
L 1159 0 
L 581 0 
L 581 4863 
L 1159 4863 
L 1159 2956 
Q 1366 3272 1645 3428 
Q 1925 3584 2291 3584 
Q 2894 3584 3203 3211 
Q 3513 2838 3513 2113 
z
" transform="scale(0.015625)"/>
     </defs>
     <use xlink:href="#DejaVuSans-70"/>
     <use xlink:href="#DejaVuSans-69" x="63.476562"/>
     <use xlink:href="#DejaVuSans-74" x="91.259766"/>
     <use xlink:href="#DejaVuSans-63" x="130.46875"/>
     <use xlink:href="#DejaVuSans-68" x="185.449219"/>
     <use xlink:href="#DejaVuSans-20" x="248.828125"/>
     <use xlink:href="#DejaVuSans-63" x="280.615234"/>
     <use xlink:href="#DejaVuSans-6f" x="335.595703"/>
     <use xlink:href="#DejaVuSans-6e" x="396.777344"/>
     <use xlink:href="#DejaVuSans-74" x="460.15625"/>
     <use xlink:href="#DejaVuSans-65" x="499.365234"/>
     <use xlink:href="#DejaVuSans-78" x="559.138672"/>
     <use xlink:href="#DejaVuSans-74" x="618.318359"/>
    </g>
   </g>
  </g>
  <g id="axes_5">
   <g id="patch_14">
    <path d="M 267.67 338.04 
L 407.394 338.04 
L 407.394 202.476 
L 267.67 202.476 
z
" style="fill: #ffffff"/>
   </g>
   <g id="PolyCollection_17">
    <path d="M -3.04525 261.77802 
L -3.04525 268.303167 
L 14.42025 268.099821 
L 31.88575 266.917703 
L 49.35125 264.586002 
L 66.81675 261.388499 
L 84.28225 255.801455 
L 101.74775 250.427698 
L 119.21325 247.79143 
L 136.67875 243.196714 
L 154.14425 241.657611 
L 171.60975 244.338163 
L 189.07525 250.717805 
L 206.54075 257.077564 
L 224.00625 264.323008 
L 241.47175 267.064112 
L 258.93725 267.930818 
L 276.40275 269.561201 
L 293.86825 271.711246 
L 311.33375 275.536862 
L 328.79925 277.695041 
L 346.26475 279.822492 
L 363.73025 277.962554 
L 381.19575 276.181243 
L 398.66125 276.35838 
L 416.12675 274.761436 
L 433.59225 273.19522 
L 451.05775 272.950301 
L 468.52325 271.84681 
L 485.98875 272.765934 
L 503.45425 273.443754 
L 520.91975 274.015834 
L 538.38525 273.334399 
L 555.85075 272.652964 
L 573.31625 272.385451 
L 590.78175 272.133302 
L 608.24725 272.06552 
L 625.71275 272.359242 
L 643.17825 271.862174 
L 660.64375 271.975144 
L 678.10925 271.83958 
L 678.10925 266.346527 
L 678.10925 266.346527 
L 660.64375 268.243519 
L 643.17825 269.237655 
L 625.71275 269.512398 
L 608.24725 269.215061 
L 590.78175 269.215061 
L 573.31625 269.670556 
L 555.85075 269.576565 
L 538.38525 269.941684 
L 520.91975 270.344761 
L 503.45425 270.077248 
L 485.98875 269.757317 
L 468.52325 269.075882 
L 451.05775 270.254385 
L 433.59225 270.732474 
L 416.12675 271.907362 
L 398.66125 272.739725 
L 381.19575 271.929956 
L 363.73025 273.349763 
L 346.26475 275.040698 
L 328.79925 272.96928 
L 311.33375 271.286479 
L 293.86825 267.396696 
L 276.40275 264.586906 
L 258.93725 262.640207 
L 241.47175 261.167982 
L 224.00625 256.186457 
L 206.54075 246.384276 
L 189.07525 237.260819 
L 171.60975 230.104847 
L 154.14425 227.2092 
L 136.67875 227.601432 
L 119.21325 233.009532 
L 101.74775 236.446531 
L 84.28225 242.456535 
L 66.81675 250.097826 
L 49.35125 255.11279 
L 31.88575 258.347347 
L 14.42025 260.538965 
L -3.04525 261.77802 
z
" clip-path="url(#p651830115e)" style="fill: #eba071; fill-opacity: 0.1; stroke: #eba071; stroke-opacity: 0.1; stroke-width: 1.5"/>
   </g>
   <g id="PolyCollection_18">
    <path d="M -3.04525 262.527237 
L -3.04525 268.250749 
L 14.42025 268.160373 
L 31.88575 266.782139 
L 49.35125 264.839055 
L 66.81675 262.172963 
L 84.28225 258.278661 
L 101.74775 254.11052 
L 119.21325 248.251444 
L 136.67875 243.336797 
L 154.14425 239.420805 
L 171.60975 243.016866 
L 189.07525 247.991161 
L 206.54075 256.663642 
L 224.00625 263.94614 
L 241.47175 268.092591 
L 258.93725 270.013081 
L 276.40275 270.3782 
L 293.86825 271.95255 
L 311.33375 276.068273 
L 328.79925 278.451488 
L 346.26475 278.437028 
L 363.73025 275.006355 
L 381.19575 273.537745 
L 398.66125 274.384568 
L 416.12675 273.695903 
L 433.59225 273.30819 
L 451.05775 271.410294 
L 468.52325 272.18572 
L 485.98875 272.163126 
L 503.45425 272.53186 
L 520.91975 271.681422 
L 538.38525 270.736089 
L 555.85075 271.074999 
L 573.31625 271.50067 
L 590.78175 271.749204 
L 608.24725 272.223678 
L 625.71275 270.890632 
L 643.17825 269.161739 
L 660.64375 268.22454 
L 678.10925 268.947548 
L 678.10925 256.430472 
L 678.10925 256.430472 
L 660.64375 259.488796 
L 643.17825 262.320276 
L 625.71275 263.318027 
L 608.24725 265.554833 
L 590.78175 266.221808 
L 573.31625 266.300435 
L 555.85075 265.690397 
L 538.38525 264.899607 
L 520.91975 265.803367 
L 503.45425 268.247134 
L 485.98875 267.004464 
L 468.52325 267.132798 
L 451.05775 266.229038 
L 433.59225 268.56345 
L 416.12675 269.444616 
L 398.66125 269.049673 
L 381.19575 268.266113 
L 363.73025 270.02483 
L 346.26475 273.281981 
L 328.79925 274.166762 
L 311.33375 271.564837 
L 293.86825 266.620366 
L 276.40275 264.673667 
L 258.93725 264.824595 
L 241.47175 261.736447 
L 224.00625 254.683504 
L 206.54075 243.273534 
L 189.07525 232.018107 
L 171.60975 224.396699 
L 154.14425 221.278727 
L 136.67875 228.481694 
L 119.21325 234.277507 
L 101.74775 241.695569 
L 84.28225 246.283055 
L 66.81675 251.667657 
L 49.35125 256.434991 
L 31.88575 260.211804 
L 14.42025 261.687644 
L -3.04525 262.527237 
z
" clip-path="url(#p651830115e)" style="fill: #808080; fill-opacity: 0.1; stroke: #808080; stroke-opacity: 0.1; stroke-width: 1.5"/>
   </g>
   <g id="PolyCollection_19"/>
   <g id="PolyCollection_20"/>
   <g id="matplotlib.axis_9">
    <g id="xtick_13">
     <g id="line2d_37">
      <g>
       <use xlink:href="#m225ab9c7cb" x="267.67" y="338.04" style="stroke: #000000; stroke-width: 1.875"/>
      </g>
     </g>
    </g>
    <g id="xtick_14">
     <g id="line2d_38">
      <g>
       <use xlink:href="#m225ab9c7cb" x="337.532" y="338.04" style="stroke: #000000; stroke-width: 1.875"/>
      </g>
     </g>
    </g>
    <g id="xtick_15">
     <g id="line2d_39">
      <g>
       <use xlink:href="#m225ab9c7cb" x="407.394" y="338.04" style="stroke: #000000; stroke-width: 1.875"/>
      </g>
     </g>
    </g>
   </g>
   <g id="matplotlib.axis_10">
    <g id="ytick_13">
     <g id="line2d_40">
      <g>
       <use xlink:href="#m5862c89533" x="267.67" y="338.04" style="stroke: #000000; stroke-width: 1.875"/>
      </g>
     </g>
     <g id="text_22">
      <!-- −6 -->
      <g transform="translate(242.277852 343.68184)scale(0.1485 -0.1485)">
       <use xlink:href="#DejaVuSans-2212"/>
       <use xlink:href="#DejaVuSans-36" x="83.789062"/>
      </g>
     </g>
    </g>
    <g id="ytick_14">
     <g id="line2d_41">
      <g>
       <use xlink:href="#m5862c89533" x="267.67" y="270.258" style="stroke: #000000; stroke-width: 1.875"/>
      </g>
     </g>
     <g id="text_23">
      <!-- 0 -->
      <g transform="translate(254.721687 275.89984)scale(0.1485 -0.1485)">
       <use xlink:href="#DejaVuSans-30"/>
      </g>
     </g>
    </g>
    <g id="ytick_15">
     <g id="line2d_42">
      <g>
       <use xlink:href="#m5862c89533" x="267.67" y="202.476" style="stroke: #000000; stroke-width: 1.875"/>
      </g>
     </g>
     <g id="text_24">
      <!-- 6 -->
      <g transform="translate(254.721687 208.11784)scale(0.1485 -0.1485)">
       <use xlink:href="#DejaVuSans-36"/>
      </g>
     </g>
    </g>
   </g>
   <g id="line2d_43">
    <path d="M -1 264.877219 
L 14.42025 264.252741 
L 31.88575 262.684152 
L 49.35125 259.651925 
L 66.81675 255.711757 
L 84.28225 249.390012 
L 101.74775 243.677797 
L 119.21325 240.309822 
L 136.67875 235.333833 
L 154.14425 234.244068 
L 171.60975 236.943994 
L 189.07525 244.087878 
L 206.54075 251.908565 
L 224.00625 260.09166 
L 241.47175 264.146605 
L 258.93725 265.178925 
L 276.40275 266.953966 
L 293.86825 269.517821 
L 311.33375 273.550059 
L 328.79925 275.42666 
L 346.26475 277.322071 
L 363.73025 275.65661 
L 381.19575 273.983129 
L 398.66125 274.558994 
L 416.12675 273.409524 
L 433 272.042337 
" clip-path="url(#p651830115e)" style="fill: none; stroke: #eba071; stroke-width: 2.25; stroke-linecap: square"/>
   </g>
   <g id="line2d_44">
    <path d="M -1 265.413791 
L 14.42025 264.851651 
L 31.88575 263.344405 
L 49.35125 260.469375 
L 66.81675 256.731763 
L 84.28225 252.677044 
L 101.74775 247.992856 
L 119.21325 241.364228 
L 136.67875 235.940369 
L 154.14425 230.378008 
L 171.60975 233.423849 
L 189.07525 240.022935 
L 206.54075 249.566697 
L 224.00625 259.356395 
L 241.47175 264.943609 
L 258.93725 267.358173 
L 276.40275 267.500854 
L 293.86825 269.364916 
L 311.33375 273.845588 
L 328.79925 276.277493 
L 346.26475 276.026079 
L 363.73025 272.674993 
L 381.19575 270.819291 
L 398.66125 271.757394 
L 416.12675 271.581557 
L 433 270.97638 
" clip-path="url(#p651830115e)" style="fill: none; stroke: #808080; stroke-width: 2.25; stroke-linecap: square"/>
   </g>
   <g id="line2d_45">
    <path d="M -1 270.258 
L 14.42025 270.258 
L 31.88575 270.258 
L 49.35125 270.258 
L 66.81675 270.258 
L 84.28225 270.258 
L 101.74775 270.258 
L 119.21325 270.258 
L 136.67875 270.258 
L 154.14425 270.258 
L 171.60975 270.258 
L 189.07525 270.258 
L 206.54075 270.258 
L 224.00625 270.258 
L 241.47175 270.258 
L 258.93725 270.258 
L 276.40275 270.258 
L 293.86825 270.258 
L 311.33375 270.258 
L 328.79925 270.258 
L 346.26475 270.258 
L 363.73025 270.258 
L 381.19575 270.258 
L 398.66125 270.258 
L 416.12675 270.258 
L 433 270.258 
" clip-path="url(#p651830115e)" style="fill: none; stroke-dasharray: 8.325,3.6; stroke-dashoffset: 0; stroke: #000000; stroke-opacity: 0.5; stroke-width: 2.25"/>
   </g>
   <g id="patch_15">
    <path d="M 267.67 338.04 
L 267.67 202.476 
" style="fill: none; stroke: #000000; stroke-width: 1.875; stroke-linejoin: miter; stroke-linecap: square"/>
   </g>
   <g id="patch_16">
    <path d="M 267.67 338.04 
L 407.394 338.04 
" style="fill: none; stroke: #000000; stroke-width: 1.875; stroke-linejoin: miter; stroke-linecap: square"/>
   </g>
  </g>
  <g id="axes_6">
   <g id="patch_17">
    <path d="M 267.67 505.5 
L 407.394 505.5 
L 407.394 369.936 
L 267.67 369.936 
z
" style="fill: #ffffff"/>
   </g>
   <g id="PolyCollection_21">
    <path d="M -3.04525 430.533108 
L -3.04525 445.19571 
L 14.42025 444.360636 
L 31.88575 447.771426 
L 49.35125 447.950371 
L 66.81675 450.325452 
L 84.28225 446.122968 
L 101.74775 449.783196 
L 119.21325 449.512068 
L 136.67875 447.071916 
L 154.14425 442.733868 
L 171.60975 444.51789 
L 189.07525 444.767328 
L 206.54075 444.653454 
L 224.00625 440.158152 
L 241.47175 442.191612 
L 258.93725 440.971536 
L 276.40275 442.191612 
L 293.86825 439.77315 
L 311.33375 446.52966 
L 328.79925 451.024962 
L 346.26475 458.188164 
L 363.73025 471.63069 
L 381.19575 481.255734 
L 398.66125 499.849692 
L 416.12675 510.24474 
L 433.59225 503.103228 
L 451.05775 480.149532 
L 468.52325 464.966364 
L 485.98875 450.59658 
L 503.45425 445.580712 
L 520.91975 444.924582 
L 538.38525 447.343044 
L 555.85075 445.716276 
L 573.31625 449.376504 
L 590.78175 450.461016 
L 608.24725 447.521988 
L 625.71275 448.698684 
L 643.17825 448.834248 
L 660.64375 459.543804 
L 678.10925 475.69761 
L 678.10925 441.969287 
L 678.10925 441.969287 
L 660.64375 435.68454 
L 643.17825 430.126416 
L 625.71275 430.397544 
L 608.24725 429.155778 
L 590.78175 434.713902 
L 573.31625 433.786644 
L 555.85075 434.128265 
L 538.38525 431.731494 
L 520.91975 430.126416 
L 503.45425 430.375854 
L 485.98875 432.95157 
L 468.52325 443.254434 
L 451.05775 450.054324 
L 433.59225 465.736368 
L 416.12675 472.96464 
L 398.66125 468.604902 
L 381.19575 456.133014 
L 363.73025 451.794966 
L 346.26475 442.034358 
L 328.79925 439.594206 
L 311.33375 434.735592 
L 293.86825 427.52901 
L 276.40275 430.126416 
L 258.93725 429.041904 
L 241.47175 429.041904 
L 224.00625 429.58416 
L 206.54075 432.680442 
L 189.07525 433.244388 
L 171.60975 432.138186 
L 154.14425 430.126416 
L 136.67875 432.409314 
L 119.21325 434.193336 
L 101.74775 435.66285 
L 84.28225 433.65108 
L 66.81675 435.413412 
L 49.35125 432.566568 
L 31.88575 432.409314 
L 14.42025 431.709804 
L -3.04525 430.533108 
z
" clip-path="url(#p08391ebb6f)" style="fill: #eba071; fill-opacity: 0.1; stroke: #eba071; stroke-opacity: 0.1; stroke-width: 1.5"/>
   </g>
   <g id="PolyCollection_22">
    <path d="M -3.04525 430.782546 
L -3.04525 448.763755 
L 14.42025 450.705031 
L 31.88575 445.737966 
L 49.35125 448.698684 
L 66.81675 446.800788 
L 84.28225 449.804886 
L 101.74775 449.419884 
L 119.21325 447.90699 
L 136.67875 443.026686 
L 154.14425 443.953944 
L 171.60975 441.80661 
L 189.07525 442.348866 
L 206.54075 441.242664 
L 224.00625 441.671046 
L 241.47175 441.513792 
L 258.93725 443.18394 
L 276.40275 440.293716 
L 293.86825 441.942174 
L 311.33375 444.902892 
L 328.79925 449.512068 
L 346.26475 455.091882 
L 363.73025 453.193986 
L 381.19575 450.461016 
L 398.66125 453.736242 
L 416.12675 459.950496 
L 433.59225 477.844944 
L 451.05775 473.935278 
L 468.52325 469.59723 
L 485.98875 454.300188 
L 503.45425 453.578988 
L 520.91975 451.160526 
L 538.38525 449.512068 
L 555.85075 449.26263 
L 573.31625 449.804886 
L 590.78175 449.512068 
L 608.24725 448.427556 
L 625.71275 449.441575 
L 643.17825 448.178118 
L 660.64375 453.036732 
L 678.10925 468.491028 
L 678.10925 436.633488 
L 678.10925 436.633488 
L 660.64375 435.00672 
L 643.17825 431.075364 
L 625.71275 429.990852 
L 608.24725 431.210928 
L 590.78175 429.719724 
L 573.31625 432.97326 
L 555.85075 433.222698 
L 538.38525 434.849466 
L 520.91975 434.442774 
L 503.45425 433.764954 
L 485.98875 433.515516 
L 468.52325 440.543154 
L 451.05775 444.203382 
L 433.59225 449.376504 
L 416.12675 445.694586 
L 398.66125 442.056048 
L 381.19575 437.175744 
L 363.73025 439.187514 
L 346.26475 439.865334 
L 328.79925 437.175744 
L 311.33375 434.442774 
L 293.86825 427.257882 
L 276.40275 427.008444 
L 258.93725 427.122318 
L 241.47175 427.415136 
L 224.00625 429.719724 
L 206.54075 430.104726 
L 189.07525 429.041904 
L 171.60975 428.477958 
L 154.14425 431.346492 
L 136.67875 430.511418 
L 119.21325 433.786644 
L 101.74775 434.713902 
L 84.28225 432.97326 
L 66.81675 432.409314 
L 49.35125 435.391722 
L 31.88575 432.816006 
L 14.42025 430.804236 
L -3.04525 430.782546 
z
" clip-path="url(#p08391ebb6f)" style="fill: #808080; fill-opacity: 0.1; stroke: #808080; stroke-opacity: 0.1; stroke-width: 1.5"/>
   </g>
   <g id="PolyCollection_23">
    <defs>
     <path id="me5f95c30a3" d="M 363.73025 -206.064 
L 363.73025 -202.6749 
L 381.19575 -202.6749 
L 398.66125 -202.6749 
L 416.12675 -202.6749 
L 416.12675 -206.064 
L 416.12675 -206.064 
L 398.66125 -206.064 
L 381.19575 -206.064 
L 363.73025 -206.064 
z
" style="stroke: #000000; stroke-width: 1.5"/>
    </defs>
    <g clip-path="url(#p08391ebb6f)">
     <use xlink:href="#me5f95c30a3" x="0" y="576" style="stroke: #000000; stroke-width: 1.5"/>
    </g>
   </g>
   <g id="PolyCollection_24"/>
   <g id="matplotlib.axis_11">
    <g id="xtick_16">
     <g id="line2d_46">
      <g>
       <use xlink:href="#m225ab9c7cb" x="267.67" y="505.5" style="stroke: #000000; stroke-width: 1.875"/>
      </g>
     </g>
     <g id="text_25">
      <!-- -.2 -->
      <g transform="translate(257.907285 520.28368)scale(0.1485 -0.1485)">
       <use xlink:href="#DejaVuSans-2d"/>
       <use xlink:href="#DejaVuSans-2e" x="36.083984"/>
       <use xlink:href="#DejaVuSans-32" x="67.871094"/>
      </g>
     </g>
    </g>
    <g id="xtick_17">
     <g id="line2d_47">
      <g>
       <use xlink:href="#m225ab9c7cb" x="337.532" y="505.5" style="stroke: #000000; stroke-width: 1.875"/>
      </g>
     </g>
     <g id="text_26">
      <!-- 0 -->
      <g transform="translate(332.807844 520.28368)scale(0.1485 -0.1485)">
       <use xlink:href="#DejaVuSans-30"/>
      </g>
     </g>
    </g>
    <g id="xtick_18">
     <g id="line2d_48">
      <g>
       <use xlink:href="#m225ab9c7cb" x="407.394" y="505.5" style="stroke: #000000; stroke-width: 1.875"/>
      </g>
     </g>
     <g id="text_27">
      <!-- .2 -->
      <g transform="translate(400.310086 520.28368)scale(0.1485 -0.1485)">
       <use xlink:href="#DejaVuSans-2e"/>
       <use xlink:href="#DejaVuSans-32" x="31.787109"/>
      </g>
     </g>
    </g>
    <g id="text_28">
     <!-- time from stim -->
     <g transform="translate(277.703375 539.681484)scale(0.162 -0.162)">
      <use xlink:href="#DejaVuSans-74"/>
      <use xlink:href="#DejaVuSans-69" x="39.208984"/>
      <use xlink:href="#DejaVuSans-6d" x="66.992188"/>
      <use xlink:href="#DejaVuSans-65" x="164.404297"/>
      <use xlink:href="#DejaVuSans-20" x="225.927734"/>
      <use xlink:href="#DejaVuSans-66" x="257.714844"/>
      <use xlink:href="#DejaVuSans-72" x="292.919922"/>
      <use xlink:href="#DejaVuSans-6f" x="331.783203"/>
      <use xlink:href="#DejaVuSans-6d" x="392.964844"/>
      <use xlink:href="#DejaVuSans-20" x="490.376953"/>
      <use xlink:href="#DejaVuSans-73" x="522.164062"/>
      <use xlink:href="#DejaVuSans-74" x="574.263672"/>
      <use xlink:href="#DejaVuSans-69" x="613.472656"/>
      <use xlink:href="#DejaVuSans-6d" x="641.255859"/>
     </g>
     <!-- (sec) -->
     <g transform="translate(317.554109 557.821941)scale(0.162 -0.162)">
      <use xlink:href="#DejaVuSans-28"/>
      <use xlink:href="#DejaVuSans-73" x="39.013672"/>
      <use xlink:href="#DejaVuSans-65" x="91.113281"/>
      <use xlink:href="#DejaVuSans-63" x="152.636719"/>
      <use xlink:href="#DejaVuSans-29" x="207.617188"/>
     </g>
    </g>
   </g>
   <g id="matplotlib.axis_12">
    <g id="ytick_16">
     <g id="line2d_49">
      <g>
       <use xlink:href="#m5862c89533" x="267.67" y="505.5" style="stroke: #000000; stroke-width: 1.875"/>
      </g>
     </g>
     <g id="text_29">
      <!-- −1 -->
      <g transform="translate(242.277852 511.14184)scale(0.1485 -0.1485)">
       <use xlink:href="#DejaVuSans-2212"/>
       <use xlink:href="#DejaVuSans-31" x="83.789062"/>
      </g>
     </g>
    </g>
    <g id="ytick_17">
     <g id="line2d_50">
      <g>
       <use xlink:href="#m5862c89533" x="267.67" y="437.718" style="stroke: #000000; stroke-width: 1.875"/>
      </g>
     </g>
     <g id="text_30">
      <!-- 0 -->
      <g transform="translate(254.721687 443.35984)scale(0.1485 -0.1485)">
       <use xlink:href="#DejaVuSans-30"/>
      </g>
     </g>
    </g>
    <g id="ytick_18">
     <g id="line2d_51">
      <g>
       <use xlink:href="#m5862c89533" x="267.67" y="369.936" style="stroke: #000000; stroke-width: 1.875"/>
      </g>
     </g>
     <g id="text_31">
      <!-- 1 -->
      <g transform="translate(254.721687 375.57784)scale(0.1485 -0.1485)">
       <use xlink:href="#DejaVuSans-31"/>
      </g>
     </g>
    </g>
   </g>
   <g id="line2d_52">
    <path d="M -1 437.867732 
L 14.42025 438.007768 
L 31.88575 439.830426 
L 49.35125 440.506213 
L 66.81675 442.849097 
L 84.28225 439.510834 
L 101.74775 442.771148 
L 119.21325 441.472106 
L 136.67875 439.190903 
L 154.14425 436.286783 
L 171.60975 438.35854 
L 189.07525 438.976034 
L 206.54075 438.969595 
L 224.00625 435.060946 
L 241.47175 435.572022 
L 258.93725 435.429002 
L 276.40275 436.150202 
L 293.86825 433.938815 
L 311.33375 440.736671 
L 328.79925 445.474294 
L 346.26475 449.503256 
L 363.73025 461.625728 
L 381.19575 468.104671 
L 398.66125 484.037846 
L 416.12675 491.520979 
L 433 485.33606 
" clip-path="url(#p08391ebb6f)" style="fill: none; stroke: #eba071; stroke-width: 2.25; stroke-linecap: square"/>
   </g>
   <g id="line2d_53">
    <path d="M -1 440.075917 
L 14.42025 441.109133 
L 31.88575 439.606068 
L 49.35125 442.258716 
L 66.81675 439.618946 
L 84.28225 441.174882 
L 101.74775 442.018429 
L 119.21325 441.046096 
L 136.67875 436.729061 
L 154.14425 438.097579 
L 171.60975 435.10297 
L 189.07525 435.562871 
L 206.54075 435.707247 
L 224.00625 435.324618 
L 241.47175 434.517334 
L 258.93725 435.374776 
L 276.40275 434.010325 
L 293.86825 434.660015 
L 311.33375 439.729431 
L 328.79925 443.224949 
L 346.26475 447.456918 
L 363.73025 446.128052 
L 381.19575 443.7001 
L 398.66125 447.874794 
L 416.12675 452.747642 
L 433 463.32356 
" clip-path="url(#p08391ebb6f)" style="fill: none; stroke: #808080; stroke-width: 2.25; stroke-linecap: square"/>
   </g>
   <g id="line2d_54">
    <path d="M -1 437.718 
L 14.42025 437.718 
L 31.88575 437.718 
L 49.35125 437.718 
L 66.81675 437.718 
L 84.28225 437.718 
L 101.74775 437.718 
L 119.21325 437.718 
L 136.67875 437.718 
L 154.14425 437.718 
L 171.60975 437.718 
L 189.07525 437.718 
L 206.54075 437.718 
L 224.00625 437.718 
L 241.47175 437.718 
L 258.93725 437.718 
L 276.40275 437.718 
L 293.86825 437.718 
L 311.33375 437.718 
L 328.79925 437.718 
L 346.26475 437.718 
L 363.73025 437.718 
L 381.19575 437.718 
L 398.66125 437.718 
L 416.12675 437.718 
L 433 437.718 
" clip-path="url(#p08391ebb6f)" style="fill: none; stroke-dasharray: 8.325,3.6; stroke-dashoffset: 0; stroke: #000000; stroke-opacity: 0.5; stroke-width: 2.25"/>
   </g>
   <g id="patch_18">
    <path d="M 267.67 505.5 
L 267.67 369.936 
" style="fill: none; stroke: #000000; stroke-width: 1.875; stroke-linejoin: miter; stroke-linecap: square"/>
   </g>
   <g id="patch_19">
    <path d="M 267.67 505.5 
L 407.394 505.5 
" style="fill: none; stroke: #000000; stroke-width: 1.875; stroke-linejoin: miter; stroke-linecap: square"/>
   </g>
  </g>
 </g>
 <defs>
  <clipPath id="pe86dd815ce">
   <rect x="77.97" y="35.016" width="139.724" height="135.564"/>
  </clipPath>
  <clipPath id="pe574e7b9bb">
   <rect x="77.97" y="202.476" width="139.724" height="135.564"/>
  </clipPath>
  <clipPath id="p4761be3f76">
   <rect x="77.97" y="369.936" width="139.724" height="135.564"/>
  </clipPath>
  <clipPath id="p87368d9dbf">
   <rect x="267.67" y="35.016" width="139.724" height="135.564"/>
  </clipPath>
  <clipPath id="p651830115e">
   <rect x="267.67" y="202.476" width="139.724" height="135.564"/>
  </clipPath>
  <clipPath id="p08391ebb6f">
   <rect x="267.67" y="369.936" width="139.724" height="135.564"/>
  </clipPath>
 </defs>
</svg>
